<svg xmlns="http://www.w3.org/2000/svg" viewBox="0 0 2603.95 131.55"><defs><style>.cls-1{fill:#050606;}</style></defs><title>Asset 2</title><g id="Layer_2" data-name="Layer 2"><g id="Layer_1-2" data-name="Layer 1"><g id="Layer_1-2-2" data-name="Layer 1-2"><path class="cls-1" d="M64.05,0c5.83,7.86,11.61,15.74,17.49,23.56,10.22,13.6,20.5,27.15,30.89,40.89C106.67,72.08,101,79.63,95.26,87.19c-9.47,12.55-19,25.07-28.36,37.69a5.69,5.69,0,0,1-5.32,2.64c-6.12-.19-12.24-.06-19.08-.06l47.11-63C82,54.34,74.47,44.37,67,34.42L42.4,1.94A11.47,11.47,0,0,1,41.4,0Z"/><path class="cls-1" d="M148.16,0l28.11,37.42c6.73,8.94,13.48,17.87,20.39,27q-7.53,10-15.07,20.06c-10.12,13.4-20.3,26.75-30.34,40.22a6.21,6.21,0,0,1-5.87,2.82c-5.76-.23-11.53-.07-18-.07l47.13-63c-4.74-6.3-9.42-12.56-14.13-18.79Q144,23.93,127.49,2.18A23,23,0,0,1,126.17,0Z"/><path class="cls-1" d="M104.81,0l48.7,64.46c-9.07,12-18,23.88-27,35.72-6.36,8.42-12.69,16.86-19.18,25.18a5.78,5.78,0,0,1-3.85,2c-5.47.22-11,.09-17.18.09,15.91-21.26,31.46-42,47.14-63L84.76,0Z"/><path class="cls-1" d="M20.06,0l32,42.61C57.5,49.84,63,57.05,68.56,64.46L49.72,89.4c-9,11.95-18.07,23.88-27,35.88a4.87,4.87,0,0,1-4.55,2.22c-5.34-.14-10.68,0-16.74,0l47.07-63L0,0Z"/><path class="cls-1" d="M237.05,1c5.83,7.86,11.61,15.74,17.49,23.56,10.22,13.6,20.5,27.15,30.89,40.89-5.76,7.63-11.47,15.18-17.17,22.74-9.47,12.55-19,25.07-28.36,37.69a5.69,5.69,0,0,1-5.32,2.64c-6.12-.19-12.24-.06-19.08-.06l47.11-63c-7.63-10.13-15.14-20.1-22.66-30Q227.68,19.17,215.4,2.94a11.47,11.47,0,0,1-1-1.94Z"/><path class="cls-1" d="M321.16,1l28.11,37.42c6.73,8.94,13.48,17.87,20.39,27q-7.53,10-15.07,20.06c-10.12,13.4-20.3,26.75-30.34,40.22a6.21,6.21,0,0,1-5.87,2.82c-5.76-.23-11.53-.07-18-.07l47.13-63c-4.74-6.3-9.42-12.56-14.13-18.79Q317,24.93,300.49,3.18A23,23,0,0,1,299.17,1Z"/><path class="cls-1" d="M277.81,1l48.7,64.46c-9.07,12-18,23.88-27,35.72-6.36,8.42-12.69,16.86-19.18,25.18a5.78,5.78,0,0,1-3.85,2c-5.47.22-11,.09-17.18.09,15.91-21.26,31.46-42,47.14-63L257.76,1Z"/><path class="cls-1" d="M367.05,1c5.83,7.86,11.61,15.74,17.49,23.56,10.22,13.6,20.5,27.15,30.89,40.89-5.76,7.63-11.47,15.18-17.17,22.74-9.47,12.55-19,25.07-28.36,37.69a5.69,5.69,0,0,1-5.32,2.64c-6.12-.19-12.24-.06-19.08-.06l47.11-63c-7.63-10.13-15.14-20.1-22.66-30Q357.68,19.17,345.4,2.94a11.47,11.47,0,0,1-1-1.94Z"/><path class="cls-1" d="M407.81,1l48.7,64.46c-9.07,12-18,23.88-27,35.72-6.36,8.42-12.69,16.86-19.18,25.18a5.78,5.78,0,0,1-3.85,2c-5.47.22-11,.09-17.18.09,15.91-21.26,31.46-42,47.14-63L387.76,1Z"/><path class="cls-1" d="M193.06,1l32,42.61c5.44,7.23,10.9,14.44,16.5,21.85L222.72,90.4c-9,11.95-18.07,23.88-27,35.88a4.87,4.87,0,0,1-4.55,2.22c-5.34-.14-10.68,0-16.74,0l47.07-63L173,1Z"/><path class="cls-1" d="M495.05,1c5.83,7.86,11.61,15.74,17.49,23.56,10.22,13.6,20.5,27.15,30.89,40.89-5.76,7.63-11.47,15.18-17.17,22.74-9.47,12.55-19,25.07-28.36,37.69a5.69,5.69,0,0,1-5.32,2.64c-6.12-.19-12.24-.06-19.08-.06l47.11-63c-7.63-10.13-15.14-20.1-22.66-30Q485.68,19.17,473.4,2.94a11.47,11.47,0,0,1-1-1.94Z"/><path class="cls-1" d="M579.16,1l28.11,37.42c6.73,8.94,13.48,17.87,20.39,27q-7.53,10-15.07,20.06c-10.12,13.4-20.3,26.75-30.34,40.22a6.21,6.21,0,0,1-5.87,2.82c-5.76-.23-11.53-.07-18-.07l47.13-63c-4.74-6.3-9.42-12.56-14.13-18.79Q575,24.93,558.49,3.18A23,23,0,0,1,557.17,1Z"/><path class="cls-1" d="M535.81,1l48.7,64.46c-9.07,12-18,23.88-27,35.72-6.36,8.42-12.69,16.86-19.18,25.18a5.78,5.78,0,0,1-3.85,2c-5.47.22-11,.09-17.18.09,15.91-21.26,31.46-42,47.14-63L515.76,1Z"/><path class="cls-1" d="M451.06,1l32,42.61c5.44,7.23,10.9,14.44,16.5,21.85L480.72,90.4c-9,11.95-18.07,23.88-27,35.88a4.87,4.87,0,0,1-4.55,2.22c-5.34-.14-10.68,0-16.74,0l47.07-63L431,1Z"/><path class="cls-1" d="M668.05,2c5.83,7.86,11.61,15.74,17.49,23.56,10.22,13.6,20.5,27.15,30.89,40.89-5.76,7.63-11.47,15.18-17.17,22.74-9.47,12.55-19,25.07-28.36,37.69a5.69,5.69,0,0,1-5.32,2.64c-6.12-.19-12.24-.06-19.08-.06l47.11-63c-7.63-10.13-15.14-20.1-22.66-30Q658.68,20.17,646.4,3.94a11.47,11.47,0,0,1-1-1.94Z"/><path class="cls-1" d="M752.16,2l28.11,37.42c6.73,8.94,13.48,17.87,20.39,27q-7.53,10-15.07,20.06c-10.12,13.4-20.3,26.75-30.34,40.22a6.21,6.21,0,0,1-5.87,2.82c-5.76-.23-11.53-.07-18-.07l47.13-63c-4.74-6.3-9.42-12.56-14.13-18.79Q748,25.93,731.49,4.18A23,23,0,0,1,730.17,2Z"/><path class="cls-1" d="M708.81,2l48.7,64.46c-9.07,12-18,23.88-27,35.72-6.36,8.42-12.69,16.86-19.18,25.18a5.78,5.78,0,0,1-3.85,2c-5.47.22-11,.09-17.18.09,15.91-21.26,31.46-42,47.14-63L688.76,2Z"/><path class="cls-1" d="M798.05,2c5.83,7.86,11.61,15.74,17.49,23.56,10.22,13.6,20.5,27.15,30.89,40.89-5.76,7.63-11.47,15.18-17.17,22.74-9.47,12.55-19,25.07-28.36,37.69a5.69,5.69,0,0,1-5.32,2.64c-6.12-.19-12.24-.06-19.08-.06l47.11-63c-7.63-10.13-15.14-20.1-22.66-30Q788.68,20.17,776.4,3.94a11.47,11.47,0,0,1-1-1.94Z"/><path class="cls-1" d="M838.81,2l48.7,64.46c-9.07,12-18,23.88-27,35.72-6.36,8.42-12.69,16.86-19.18,25.18a5.78,5.78,0,0,1-3.85,2c-5.47.22-11,.09-17.18.09,15.91-21.26,31.46-42,47.14-63L818.76,2Z"/><path class="cls-1" d="M624.06,2l32,42.61c5.44,7.23,10.9,14.44,16.5,21.85L653.72,91.4c-9,11.95-18.07,23.88-27,35.88a4.87,4.87,0,0,1-4.55,2.22c-5.34-.14-10.68,0-16.74,0l47.07-63L604,2Z"/><path class="cls-1" d="M924.05,1c5.83,7.86,11.61,15.74,17.49,23.56,10.22,13.6,20.5,27.15,30.89,40.89-5.76,7.63-11.47,15.18-17.17,22.74-9.47,12.55-19,25.07-28.36,37.69a5.69,5.69,0,0,1-5.32,2.64c-6.12-.19-12.24-.06-19.08-.06l47.11-63c-7.63-10.13-15.14-20.1-22.66-30Q914.68,19.17,902.4,2.94a11.47,11.47,0,0,1-1-1.94Z"/><path class="cls-1" d="M1008.16,1l28.11,37.42c6.73,8.94,13.48,17.87,20.39,27q-7.53,10-15.07,20.06c-10.12,13.4-20.3,26.75-30.34,40.22a6.21,6.21,0,0,1-5.87,2.82c-5.76-.23-11.53-.07-18-.07l47.13-63c-4.74-6.3-9.42-12.56-14.13-18.79Q1004,24.93,987.49,3.18A23,23,0,0,1,986.17,1Z"/><path class="cls-1" d="M964.81,1l48.7,64.46c-9.07,12-18,23.88-27,35.72-6.36,8.42-12.69,16.86-19.18,25.18a5.78,5.78,0,0,1-3.85,2c-5.47.22-11,.09-17.18.09,15.91-21.26,31.46-42,47.14-63L944.76,1Z"/><path class="cls-1" d="M880.06,1l32,42.61c5.44,7.23,10.9,14.44,16.5,21.85L909.72,90.4c-9,11.95-18.07,23.88-27,35.88a4.87,4.87,0,0,1-4.55,2.22c-5.34-.14-10.68,0-16.74,0l47.07-63L860,1Z"/><path class="cls-1" d="M1097.05,2c5.83,7.86,11.61,15.74,17.49,23.56,10.22,13.6,20.5,27.15,30.89,40.89-5.76,7.63-11.47,15.18-17.17,22.74-9.47,12.55-19,25.07-28.36,37.69a5.69,5.69,0,0,1-5.32,2.64c-6.12-.19-12.24-.06-19.08-.06l47.11-63c-7.63-10.13-15.14-20.1-22.66-30Q1087.68,20.21,1075.4,4a11.47,11.47,0,0,1-1-1.94Z"/><path class="cls-1" d="M1181.16,2l28.11,37.42c6.73,8.94,13.48,17.87,20.39,27q-7.53,10-15.07,20.06c-10.12,13.4-20.3,26.75-30.34,40.22a6.21,6.21,0,0,1-5.87,2.82c-5.76-.23-11.53-.07-18-.07l47.13-63c-4.74-6.3-9.42-12.56-14.13-18.79Q1177,25.93,1160.49,4.18A23,23,0,0,1,1159.17,2Z"/><path class="cls-1" d="M1137.81,2l48.7,64.46c-9.07,12-18,23.88-27,35.72-6.36,8.42-12.69,16.86-19.18,25.18a5.78,5.78,0,0,1-3.85,2c-5.47.22-11,.09-17.18.09,15.91-21.26,31.46-42,47.14-63L1117.76,2Z"/><path class="cls-1" d="M1227.05,2c5.83,7.86,11.61,15.74,17.49,23.56,10.22,13.6,20.5,27.15,30.89,40.89-5.76,7.63-11.47,15.18-17.17,22.74-9.47,12.55-19,25.07-28.36,37.69a5.69,5.69,0,0,1-5.32,2.64c-6.12-.19-12.24-.06-19.08-.06l47.11-63c-7.63-10.13-15.14-20.1-22.66-30Q1217.68,20.21,1205.4,4a11.47,11.47,0,0,1-1-1.94Z"/><path class="cls-1" d="M1267.81,2l48.7,64.46c-9.07,12-18,23.88-27,35.72-6.36,8.42-12.69,16.86-19.18,25.18a5.78,5.78,0,0,1-3.85,2c-5.47.22-11,.09-17.18.09,15.91-21.26,31.46-42,47.14-63L1247.76,2Z"/><path class="cls-1" d="M1053.06,2l32,42.61c5.44,7.23,10.9,14.44,16.5,21.85L1082.72,91.4c-9,11.95-18.07,23.88-27,35.88a4.87,4.87,0,0,1-4.55,2.22c-5.34-.14-10.68,0-16.74,0l47.09-62.95L1033,2Z"/></g><g id="Layer_1-2-3" data-name="Layer 1-2"><path class="cls-1" d="M1351.49,2c5.83,7.86,11.61,15.74,17.49,23.56,10.22,13.6,20.5,27.15,30.89,40.89-5.76,7.63-11.43,15.18-17.17,22.74-9.47,12.55-19,25.07-28.36,37.69a5.69,5.69,0,0,1-5.32,2.64c-6.12-.19-12.24-.06-19.08-.06l47.11-63c-7.61-10.12-15.14-20.09-22.61-30q-12.33-16.25-24.6-32.48a11.47,11.47,0,0,1-1-1.94Z"/><path class="cls-1" d="M1435.6,2l28.11,37.42c6.73,8.94,13.48,17.87,20.39,27q-7.53,10-15.07,20.06c-10.12,13.4-20.3,26.75-30.34,40.22a6.21,6.21,0,0,1-5.87,2.82c-5.76-.23-11.53-.07-18-.07l47.13-63c-4.74-6.3-9.42-12.56-14.13-18.79q-16.38-21.73-32.89-43.48A23,23,0,0,1,1413.61,2Z"/><path class="cls-1" d="M1392.25,2,1441,66.46c-9.07,12-18,23.88-27,35.72-6.36,8.42-12.69,16.86-19.18,25.18a5.8,5.8,0,0,1-3.85,2c-5.47.22-11,.09-17.18.09,15.91-21.26,31.46-42,47.14-63L1372.2,2Z"/><path class="cls-1" d="M1307.5,2l32,42.61c5.44,7.23,10.9,14.44,16.5,21.85L1337.16,91.4c-9,11.95-18.07,23.88-27,35.88a4.88,4.88,0,0,1-4.55,2.22c-5.34-.14-10.68,0-16.74,0l47.07-63L1287.44,2Z"/><path class="cls-1" d="M1524.49,3c5.83,7.86,11.61,15.74,17.49,23.56,10.22,13.6,20.5,27.15,30.89,40.89-5.76,7.63-11.47,15.18-17.17,22.74-9.47,12.55-19,25.07-28.36,37.69a5.69,5.69,0,0,1-5.32,2.64c-6.12-.19-12.24-.06-19.08-.06l47.11-63c-7.63-10.13-15.14-20.1-22.66-30q-12.27-16.29-24.55-32.52a11.47,11.47,0,0,1-1-1.94Z"/><path class="cls-1" d="M1608.6,3q14,18.71,28.11,37.42c6.73,8.94,13.48,17.87,20.39,27q-7.53,10-15.07,20.06c-10.12,13.4-20.3,26.75-30.34,40.22a6.21,6.21,0,0,1-5.87,2.82c-5.76-.23-11.53-.07-18-.07l47.13-63c-4.74-6.3-9.42-12.56-14.13-18.79q-16.38-21.73-32.89-43.48A23,23,0,0,1,1586.61,3Z"/><path class="cls-1" d="M1565.25,3,1614,67.46c-9.07,12-18,23.88-27,35.72-6.36,8.42-12.69,16.86-19.18,25.18a5.8,5.8,0,0,1-3.85,2c-5.47.22-11,.09-17.18.09,15.91-21.26,31.46-42,47.14-63L1545.2,3Z"/><path class="cls-1" d="M1654.49,3c5.83,7.86,11.61,15.74,17.49,23.56,10.22,13.6,20.5,27.15,30.89,40.89-5.76,7.63-11.47,15.18-17.17,22.74-9.47,12.55-19,25.07-28.36,37.69a5.69,5.69,0,0,1-5.32,2.64c-6.12-.19-12.24-.06-19.08-.06l47.11-63c-7.63-10.13-15.14-20.1-22.66-30q-12.27-16.29-24.55-32.52a11.47,11.47,0,0,1-1-1.94Z"/><path class="cls-1" d="M1695.25,3,1744,67.46c-9.07,12-18,23.88-27,35.72-6.36,8.42-12.69,16.86-19.18,25.18a5.8,5.8,0,0,1-3.85,2c-5.47.22-11,.09-17.18.09,15.91-21.26,31.46-42,47.14-63L1675.2,3Z"/><path class="cls-1" d="M1480.5,3l32,42.61c5.44,7.23,10.9,14.44,16.5,21.85L1510.16,92.4c-9,11.95-18.07,23.88-27,35.88a4.88,4.88,0,0,1-4.55,2.22c-5.34-.14-10.68,0-16.74,0l47.07-63L1460.44,3Z"/><path class="cls-1" d="M1782.49,3c5.83,7.86,11.61,15.74,17.49,23.56,10.22,13.6,20.5,27.15,30.89,40.89-5.76,7.63-11.47,15.18-17.17,22.74-9.47,12.55-19,25.07-28.36,37.69a5.69,5.69,0,0,1-5.32,2.64c-6.12-.19-12.24-.06-19.08-.06l47.11-63c-7.63-10.13-15.14-20.1-22.66-30q-12.27-16.29-24.55-32.52a11.47,11.47,0,0,1-1-1.94Z"/><path class="cls-1" d="M1866.6,3q14,18.71,28.11,37.42c6.73,8.94,13.48,17.87,20.39,27q-7.53,10-15.07,20.06c-10.12,13.4-20.3,26.75-30.34,40.22a6.21,6.21,0,0,1-5.87,2.82c-5.76-.23-11.53-.07-18-.07l47.13-63c-4.74-6.3-9.42-12.56-14.13-18.79q-16.38-21.73-32.89-43.48A23,23,0,0,1,1844.61,3Z"/><path class="cls-1" d="M1823.25,3,1872,67.46c-9.07,12-18,23.88-27,35.72-6.36,8.42-12.69,16.86-19.18,25.18a5.8,5.8,0,0,1-3.85,2c-5.47.22-11,.09-17.18.09,15.91-21.26,31.46-42,47.14-63L1803.2,3Z"/><path class="cls-1" d="M1738.5,3l32,42.61c5.44,7.23,10.9,14.44,16.5,21.85L1768.16,92.4c-9,11.95-18.07,23.88-27,35.88a4.88,4.88,0,0,1-4.55,2.22c-5.34-.14-10.68,0-16.74,0l47.07-63L1718.44,3Z"/><path class="cls-1" d="M1955.49,4c5.83,7.86,11.61,15.74,17.49,23.56,10.22,13.6,20.5,27.15,30.89,40.89-5.76,7.63-11.47,15.18-17.17,22.74-9.47,12.55-19,25.07-28.36,37.69a5.69,5.69,0,0,1-5.32,2.64c-6.12-.19-12.24-.06-19.08-.06l47.11-63c-7.63-10.13-15.14-20.1-22.66-30q-12.27-16.29-24.55-32.52a11.47,11.47,0,0,1-1-1.94Z"/><path class="cls-1" d="M2039.6,4q14,18.7,28.11,37.42c6.73,8.94,13.48,17.87,20.39,27q-7.53,10-15.07,20.06c-10.12,13.4-20.3,26.75-30.34,40.22a6.21,6.21,0,0,1-5.87,2.82c-5.76-.23-11.53-.07-18-.07l47.13-63c-4.74-6.3-9.42-12.56-14.13-18.79q-16.38-21.73-32.89-43.48A23,23,0,0,1,2017.61,4Z"/><path class="cls-1" d="M1996.25,4,2045,68.46c-9.07,12-18,23.88-27,35.72-6.36,8.42-12.69,16.86-19.18,25.18a5.8,5.8,0,0,1-3.85,2c-5.47.22-11,.09-17.18.09,15.91-21.26,31.46-42,47.14-63L1976.2,4Z"/><path class="cls-1" d="M2085.49,4c5.83,7.86,11.61,15.74,17.49,23.56,10.22,13.6,20.5,27.15,30.89,40.89-5.76,7.63-11.47,15.18-17.17,22.74-9.47,12.55-19,25.07-28.36,37.69a5.69,5.69,0,0,1-5.32,2.64c-6.12-.19-12.24-.06-19.08-.06l47.11-63c-7.63-10.13-15.14-20.1-22.66-30q-12.27-16.29-24.55-32.52a11.47,11.47,0,0,1-1-1.94Z"/><path class="cls-1" d="M2126.25,4,2175,68.46c-9.07,12-18,23.88-27,35.72-6.36,8.42-12.69,16.86-19.18,25.18a5.8,5.8,0,0,1-3.85,2c-5.47.22-11,.09-17.18.09,15.91-21.26,31.46-42,47.14-63L2106.2,4Z"/><path class="cls-1" d="M1911.5,4l32,42.61c5.44,7.23,10.9,14.44,16.5,21.85L1941.16,93.4c-9,11.95-18.07,23.88-27,35.88a4.88,4.88,0,0,1-4.55,2.22c-5.34-.14-10.68,0-16.74,0l47.07-63L1891.44,4Z"/><path class="cls-1" d="M2211.49,3c5.83,7.86,11.61,15.74,17.49,23.56,10.22,13.6,20.5,27.15,30.89,40.89-5.76,7.63-11.47,15.18-17.17,22.74-9.47,12.55-19,25.07-28.36,37.69a5.69,5.69,0,0,1-5.32,2.64c-6.12-.19-12.24-.06-19.08-.06l47.11-63c-7.63-10.13-15.14-20.1-22.66-30q-12.27-16.29-24.55-32.52a11.47,11.47,0,0,1-1-1.94Z"/><path class="cls-1" d="M2295.6,3q14,18.71,28.11,37.42c6.73,8.94,13.48,17.87,20.39,27q-7.53,10-15.07,20.06c-10.12,13.4-20.3,26.75-30.34,40.22a6.21,6.21,0,0,1-5.87,2.82c-5.76-.23-11.53-.07-18-.07l47.13-63c-4.74-6.3-9.42-12.56-14.13-18.79q-16.38-21.73-32.89-43.48A23,23,0,0,1,2273.61,3Z"/><path class="cls-1" d="M2252.25,3,2301,67.46c-9.07,12-18,23.88-27,35.72-6.36,8.42-12.69,16.86-19.18,25.18a5.8,5.8,0,0,1-3.85,2c-5.47.22-11,.09-17.18.09,15.91-21.26,31.46-42,47.14-63L2232.2,3Z"/><path class="cls-1" d="M2167.5,3l32,42.61c5.44,7.23,10.9,14.44,16.5,21.85L2197.16,92.4c-9,11.95-18.07,23.88-27,35.88a4.88,4.88,0,0,1-4.55,2.22c-5.34-.14-10.68,0-16.74,0l47.07-63L2147.44,3Z"/><path class="cls-1" d="M2384.49,4c5.83,7.86,11.61,15.74,17.49,23.56,10.22,13.6,20.5,27.15,30.89,40.89-5.76,7.63-11.47,15.18-17.17,22.74-9.47,12.55-19,25.07-28.36,37.69a5.69,5.69,0,0,1-5.32,2.64c-6.12-.19-12.24-.06-19.08-.06l47.11-63c-7.63-10.13-15.14-20.1-22.66-30L2362.84,6a11.47,11.47,0,0,1-1-1.94Z"/><path class="cls-1" d="M2468.6,4q14,18.7,28.11,37.42c6.73,8.94,13.48,17.87,20.39,27q-7.53,10-15.07,20.06c-10.12,13.4-20.3,26.75-30.34,40.22a6.21,6.21,0,0,1-5.87,2.82c-5.76-.23-11.53-.07-18-.07l47.13-63c-4.74-6.3-9.42-12.56-14.13-18.79q-16.38-21.73-32.89-43.48A23,23,0,0,1,2446.61,4Z"/><path class="cls-1" d="M2425.25,4,2474,68.46c-9.07,12-18,23.88-27,35.72-6.36,8.42-12.69,16.86-19.18,25.18a5.8,5.8,0,0,1-3.85,2c-5.47.22-11,.09-17.18.09,15.91-21.26,31.46-42,47.14-63L2405.2,4Z"/><path class="cls-1" d="M2514.49,4c5.83,7.86,11.61,15.74,17.49,23.56,10.22,13.6,20.5,27.15,30.89,40.89-5.76,7.63-11.47,15.18-17.17,22.74-9.47,12.55-19,25.07-28.36,37.69a5.69,5.69,0,0,1-5.32,2.64c-6.12-.19-12.24-.06-19.08-.06l47.11-63c-7.63-10.13-15.14-20.1-22.66-30L2492.84,6a11.47,11.47,0,0,1-1-1.94Z"/><path class="cls-1" d="M2555.25,4,2604,68.46c-9.07,12-18,23.88-27,35.72-6.36,8.42-12.69,16.86-19.18,25.18a5.8,5.8,0,0,1-3.85,2c-5.47.22-11,.09-17.18.09,15.91-21.26,31.46-42,47.14-63L2535.2,4Z"/><path class="cls-1" d="M2340.5,4l32,42.61c5.44,7.23,10.9,14.44,16.5,21.85L2370.16,93.4c-9,11.95-18.07,23.88-27,35.88a4.88,4.88,0,0,1-4.55,2.22c-5.34-.14-10.68,0-16.74,0L2369,68.55,2320.44,4Z"/></g></g></g></svg>