<svg xmlns="http://www.w3.org/2000/svg" viewBox="0 0 456.51 128.54"><defs><style>.cls-1{fill:#04839d;}</style></defs><title>Rolodex Chevrons</title><g id="Layer_2" data-name="Layer 2"><g id="Layer_1-2" data-name="Layer 1"><path class="cls-1" d="M64.05,0c5.83,7.86,11.61,15.74,17.49,23.56,10.22,13.6,20.5,27.15,30.89,40.89C106.67,72.08,101,79.63,95.26,87.19c-9.47,12.55-19,25.07-28.36,37.69a5.7,5.7,0,0,1-5.32,2.64c-6.12-.19-12.24-.06-19.08-.06l47.11-63C82,54.34,74.47,44.37,67,34.42Q54.68,18.17,42.4,1.94a11.79,11.79,0,0,1-1-1.94Z"/><path class="cls-1" d="M148.16,0q14.06,18.71,28.11,37.42c6.73,8.94,13.48,17.87,20.39,27q-7.53,10-15.07,20.06c-10.12,13.4-20.3,26.75-30.34,40.22a6.2,6.2,0,0,1-5.87,2.82c-5.76-.23-11.53-.07-18-.07l47.13-63c-4.74-6.3-9.42-12.56-14.13-18.79Q144,23.93,127.49,2.18A23,23,0,0,1,126.17,0Z"/><path class="cls-1" d="M104.81,0l48.7,64.46c-9.07,12-18,23.88-27,35.72-6.36,8.42-12.69,16.86-19.18,25.18a5.76,5.76,0,0,1-3.85,2c-5.47.22-11,.09-17.18.09,15.91-21.26,31.46-42,47.14-63L84.76,0Z"/><path class="cls-1" d="M20.06,0q16,21.3,32,42.61c5.44,7.23,10.9,14.44,16.5,21.85L49.72,89.4c-9,11.95-18.07,23.88-27,35.88a4.88,4.88,0,0,1-4.55,2.22c-5.34-.14-10.68,0-16.74,0L48.5,64.51,0,0Z"/><path class="cls-1" d="M237.05,1c5.83,7.86,11.61,15.74,17.49,23.56,10.22,13.6,20.5,27.15,30.89,40.89-5.76,7.63-11.47,15.18-17.17,22.74-9.47,12.55-19,25.07-28.36,37.69a5.7,5.7,0,0,1-5.32,2.64c-6.12-.19-12.24-.06-19.08-.06l47.11-63c-7.63-10.13-15.14-20.1-22.66-30Q227.68,19.17,215.4,2.94a11.79,11.79,0,0,1-1-1.94Z"/><path class="cls-1" d="M321.16,1q14.05,18.71,28.11,37.42c6.73,8.94,13.48,17.87,20.39,27q-7.53,10-15.07,20.06c-10.12,13.4-20.3,26.75-30.34,40.22a6.2,6.2,0,0,1-5.87,2.82c-5.76-.23-11.53-.07-18-.07l47.13-63c-4.74-6.3-9.42-12.56-14.13-18.79Q317,24.93,300.49,3.18A23,23,0,0,1,299.17,1Z"/><path class="cls-1" d="M277.81,1l48.7,64.46c-9.07,12-18,23.88-27,35.72-6.36,8.42-12.69,16.86-19.18,25.18a5.76,5.76,0,0,1-3.85,2c-5.47.22-10.95.09-17.18.09,15.91-21.26,31.46-42,47.14-63L257.76,1Z"/><path class="cls-1" d="M367.05,1c5.83,7.86,11.61,15.74,17.49,23.56,10.22,13.6,20.5,27.15,30.89,40.89-5.76,7.63-11.47,15.18-17.17,22.74-9.47,12.55-19,25.07-28.36,37.69a5.7,5.7,0,0,1-5.32,2.64c-6.12-.19-12.24-.06-19.08-.06l47.11-63c-7.63-10.13-15.14-20.1-22.66-30Q357.68,19.17,345.4,2.94a11.79,11.79,0,0,1-1-1.94Z"/><path class="cls-1" d="M407.81,1l48.7,64.46c-9.07,12-18,23.88-27,35.72-6.36,8.42-12.69,16.86-19.18,25.18a5.76,5.76,0,0,1-3.85,2c-5.47.22-10.95.09-17.18.09,15.91-21.26,31.46-42,47.14-63L387.76,1Z"/><path class="cls-1" d="M193.06,1q16,21.3,32,42.61c5.44,7.23,10.9,14.44,16.5,21.85L222.72,90.4c-9,11.95-18.07,23.88-27,35.88a4.88,4.88,0,0,1-4.55,2.22c-5.34-.14-10.68,0-16.74,0L221.5,65.51,173,1Z"/></g></g></svg>