<svg xmlns="http://www.w3.org/2000/svg" viewBox="0 0 166.62 356.41"><defs><style>.cls-1{fill:#3f52a0;}</style></defs><title>Blue Dots</title><g id="Layer_2" data-name="Layer 2"><g id="Layer_1-2" data-name="Layer 1"><path class="cls-1" d="M32.21,102.19a3,3,0,0,0-3,2.88v.14a3,3,0,0,0,6,0,.66.66,0,0,0,0-.14A3,3,0,0,0,32.21,102.19Z"/><path class="cls-1" d="M3,102.19a3,3,0,0,0-3,2.88v.14a3,3,0,0,0,6,0v-.14A3,3,0,0,0,3,102.19Z"/><path class="cls-1" d="M46.81,87.59a3,3,0,1,0,3,3A3,3,0,0,0,46.81,87.59Z"/><path class="cls-1" d="M17.61,87.59a3,3,0,1,0,3,3A3,3,0,0,0,17.61,87.59Z"/><path class="cls-1" d="M32.21,73a3,3,0,1,0,3,3A3,3,0,0,0,32.21,73Z"/><path class="cls-1" d="M3,73a3,3,0,1,0,3,3A3,3,0,0,0,3,73Z"/><path class="cls-1" d="M46.81,58.4a3,3,0,1,0,3,3A3,3,0,0,0,46.81,58.4Z"/><path class="cls-1" d="M17.61,58.4a3,3,0,1,0,3,3A3,3,0,0,0,17.61,58.4Z"/><path class="cls-1" d="M32.21,43.8a3,3,0,1,0,3,3A3,3,0,0,0,32.21,43.8Z"/><path class="cls-1" d="M3,43.8a3,3,0,1,0,3,3A3,3,0,0,0,3,43.8Z"/><path class="cls-1" d="M46.81,29.2a3,3,0,1,0,3,3A3,3,0,0,0,46.81,29.2Z"/><path class="cls-1" d="M17.61,29.2a3,3,0,1,0,3,3A3,3,0,0,0,17.61,29.2Z"/><path class="cls-1" d="M32.21,14.6a3,3,0,1,0,3,3A3,3,0,0,0,32.21,14.6Z"/><path class="cls-1" d="M3,14.6a3,3,0,1,0,3,3A3,3,0,0,0,3,14.6Z"/><path class="cls-1" d="M46.81,0a3,3,0,1,0,3,3A3,3,0,0,0,46.81,0Z"/><path class="cls-1" d="M17.61,0a3,3,0,1,0,3,3A3,3,0,0,0,17.61,0Z"/><path class="cls-1" d="M149,102.19a3,3,0,0,0-3,2.88v.14a3,3,0,0,0,6,0v-.14A3,3,0,0,0,149,102.19Z"/><path class="cls-1" d="M119.81,102.19a3,3,0,0,0-3,2.88.66.66,0,0,0,0,.14,3,3,0,0,0,6,0v-.14A3,3,0,0,0,119.81,102.19Z"/><path class="cls-1" d="M90.61,102.19a3,3,0,0,0-3,2.88c0,.05,0,.09,0,.14a3,3,0,0,0,6,0v-.14A3,3,0,0,0,90.61,102.19Z"/><path class="cls-1" d="M61.41,102.19h-.14a3,3,0,0,0-2.87,2.87v.14a3,3,0,0,0,2.87,3h.14a3,3,0,0,0,3-3v-.14A3,3,0,0,0,61.41,102.19Z"/><path class="cls-1" d="M163.6,87.59a3,3,0,1,0,3,3A3,3,0,0,0,163.6,87.59Z"/><path class="cls-1" d="M134.41,87.59a3,3,0,1,0,3,3A3,3,0,0,0,134.41,87.59Z"/><path class="cls-1" d="M105.21,87.59a3,3,0,1,0,3,3A3,3,0,0,0,105.21,87.59Z"/><path class="cls-1" d="M76,87.59a3,3,0,1,0,3,3A3,3,0,0,0,76,87.59Z"/><path class="cls-1" d="M149,73a3,3,0,1,0,3,3A3,3,0,0,0,149,73Z"/><path class="cls-1" d="M119.81,73a3,3,0,1,0,3,3A3,3,0,0,0,119.81,73Z"/><path class="cls-1" d="M90.61,73a3,3,0,1,0,3,3A3,3,0,0,0,90.61,73Z"/><path class="cls-1" d="M61.41,73h-.14a3,3,0,0,0,0,6h.14a3,3,0,0,0,0-6Z"/><path class="cls-1" d="M163.6,58.4a3,3,0,1,0,3,3A3,3,0,0,0,163.6,58.4Z"/><path class="cls-1" d="M134.41,58.4a3,3,0,1,0,3,3A3,3,0,0,0,134.41,58.4Z"/><path class="cls-1" d="M105.21,58.4a3,3,0,1,0,3,3A3,3,0,0,0,105.21,58.4Z"/><path class="cls-1" d="M76,58.4a3,3,0,1,0,3,3A3,3,0,0,0,76,58.4Z"/><path class="cls-1" d="M149,43.8a3,3,0,1,0,3,3A3,3,0,0,0,149,43.8Z"/><path class="cls-1" d="M119.81,43.8a3,3,0,1,0,3,3A3,3,0,0,0,119.81,43.8Z"/><path class="cls-1" d="M90.61,43.8a3,3,0,1,0,3,3A3,3,0,0,0,90.61,43.8Z"/><path class="cls-1" d="M61.41,43.8h-.14a3,3,0,0,0,0,6h.14a3,3,0,0,0,0-6Z"/><path class="cls-1" d="M163.6,29.2a3,3,0,1,0,3,3A3,3,0,0,0,163.6,29.2Z"/><path class="cls-1" d="M134.41,29.2a3,3,0,1,0,3,3A3,3,0,0,0,134.41,29.2Z"/><path class="cls-1" d="M105.21,29.2a3,3,0,1,0,3,3A3,3,0,0,0,105.21,29.2Z"/><path class="cls-1" d="M76,29.2a3,3,0,1,0,3,3A3,3,0,0,0,76,29.2Z"/><path class="cls-1" d="M149,14.6a3,3,0,1,0,3,3A3,3,0,0,0,149,14.6Z"/><path class="cls-1" d="M119.81,14.6a3,3,0,1,0,3,3A3,3,0,0,0,119.81,14.6Z"/><path class="cls-1" d="M90.61,14.6a3,3,0,1,0,3,3A3,3,0,0,0,90.61,14.6Z"/><path class="cls-1" d="M61.41,14.6h-.14a3,3,0,0,0,0,6h.14a3,3,0,0,0,0-6Z"/><path class="cls-1" d="M163.6,0a3,3,0,1,0,3,3A3,3,0,0,0,163.6,0Z"/><path class="cls-1" d="M134.41,0a3,3,0,1,0,3,3A3,3,0,0,0,134.41,0Z"/><path class="cls-1" d="M105.21,0a3,3,0,1,0,3,3A3,3,0,0,0,105.21,0Z"/><path class="cls-1" d="M76,0a3,3,0,1,0,3,3A3,3,0,0,0,76,0Z"/><path class="cls-1" d="M32.21,219a3,3,0,0,0-3,2.87V222a3,3,0,0,0,6,0,.66.66,0,0,0,0-.14A3,3,0,0,0,32.21,219Z"/><path class="cls-1" d="M3,219a3,3,0,0,0-3,2.87V222a3,3,0,0,0,6,0v-.14A3,3,0,0,0,3,219Z"/><path class="cls-1" d="M46.81,204.39a3,3,0,1,0,3,3A3,3,0,0,0,46.81,204.39Z"/><path class="cls-1" d="M17.61,204.39a3,3,0,1,0,3,3A3,3,0,0,0,17.61,204.39Z"/><path class="cls-1" d="M32.21,189.79a3,3,0,1,0,3,3A3,3,0,0,0,32.21,189.79Z"/><path class="cls-1" d="M3,189.79a3,3,0,1,0,3,3A3,3,0,0,0,3,189.79Z"/><path class="cls-1" d="M46.81,175.19a3,3,0,1,0,3,3A3,3,0,0,0,46.81,175.19Z"/><path class="cls-1" d="M17.61,175.19a3,3,0,1,0,3,3A3,3,0,0,0,17.61,175.19Z"/><path class="cls-1" d="M32.21,160.59a3,3,0,1,0,3,3A3,3,0,0,0,32.21,160.59Z"/><path class="cls-1" d="M3,160.59a3,3,0,1,0,3,3A3,3,0,0,0,3,160.59Z"/><path class="cls-1" d="M46.81,146a3,3,0,1,0,3,3A3,3,0,0,0,46.81,146Z"/><path class="cls-1" d="M17.61,146a3,3,0,1,0,3,3A3,3,0,0,0,17.61,146Z"/><path class="cls-1" d="M32.21,131.39a3,3,0,1,0,3,3A3,3,0,0,0,32.21,131.39Z"/><path class="cls-1" d="M3,131.39a3,3,0,1,0,3,3A3,3,0,0,0,3,131.39Z"/><path class="cls-1" d="M46.81,116.79a3,3,0,1,0,3,3A3,3,0,0,0,46.81,116.79Z"/><path class="cls-1" d="M17.61,116.79a3,3,0,1,0,3,3A3,3,0,0,0,17.61,116.79Z"/><path class="cls-1" d="M149,219a3,3,0,0,0-3,2.87V222a3,3,0,0,0,6,0v-.14A3,3,0,0,0,149,219Z"/><path class="cls-1" d="M119.81,219a3,3,0,0,0-3,2.87.66.66,0,0,0,0,.14,3,3,0,0,0,6,0v-.14A3,3,0,0,0,119.81,219Z"/><path class="cls-1" d="M90.61,219a3,3,0,0,0-3,2.87s0,.09,0,.14a3,3,0,0,0,6,0v-.14A3,3,0,0,0,90.61,219Z"/><path class="cls-1" d="M61.41,219h-.14a3,3,0,0,0-2.87,2.87V222a3,3,0,0,0,2.87,3h.14a3,3,0,0,0,3-3v-.14A3,3,0,0,0,61.41,219Z"/><path class="cls-1" d="M163.6,204.39a3,3,0,1,0,3,3A3,3,0,0,0,163.6,204.39Z"/><path class="cls-1" d="M134.41,204.39a3,3,0,1,0,3,3A3,3,0,0,0,134.41,204.39Z"/><path class="cls-1" d="M105.21,204.39a3,3,0,1,0,3,3A3,3,0,0,0,105.21,204.39Z"/><path class="cls-1" d="M76,204.39a3,3,0,1,0,3,3A3,3,0,0,0,76,204.39Z"/><path class="cls-1" d="M149,189.79a3,3,0,1,0,3,3A3,3,0,0,0,149,189.79Z"/><path class="cls-1" d="M119.81,189.79a3,3,0,1,0,3,3A3,3,0,0,0,119.81,189.79Z"/><path class="cls-1" d="M90.61,189.79a3,3,0,1,0,3,3A3,3,0,0,0,90.61,189.79Z"/><path class="cls-1" d="M61.41,189.79h-.14a3,3,0,0,0,0,6h.14a3,3,0,0,0,0-6Z"/><path class="cls-1" d="M163.6,175.19a3,3,0,1,0,3,3A3,3,0,0,0,163.6,175.19Z"/><path class="cls-1" d="M134.41,175.19a3,3,0,1,0,3,3A3,3,0,0,0,134.41,175.19Z"/><path class="cls-1" d="M105.21,175.19a3,3,0,1,0,3,3A3,3,0,0,0,105.21,175.19Z"/><path class="cls-1" d="M76,175.19a3,3,0,1,0,3,3A3,3,0,0,0,76,175.19Z"/><path class="cls-1" d="M149,160.59a3,3,0,1,0,3,3A3,3,0,0,0,149,160.59Z"/><path class="cls-1" d="M119.81,160.59a3,3,0,1,0,3,3A3,3,0,0,0,119.81,160.59Z"/><path class="cls-1" d="M90.61,160.59a3,3,0,1,0,3,3A3,3,0,0,0,90.61,160.59Z"/><path class="cls-1" d="M61.41,160.59h-.14a3,3,0,0,0,0,6h.14a3,3,0,0,0,0-6Z"/><path class="cls-1" d="M163.6,146a3,3,0,1,0,3,3A3,3,0,0,0,163.6,146Z"/><path class="cls-1" d="M134.41,146a3,3,0,1,0,3,3A3,3,0,0,0,134.41,146Z"/><path class="cls-1" d="M105.21,146a3,3,0,1,0,3,3A3,3,0,0,0,105.21,146Z"/><path class="cls-1" d="M76,146a3,3,0,1,0,3,3A3,3,0,0,0,76,146Z"/><path class="cls-1" d="M149,131.39a3,3,0,1,0,3,3A3,3,0,0,0,149,131.39Z"/><path class="cls-1" d="M119.81,131.39a3,3,0,1,0,3,3A3,3,0,0,0,119.81,131.39Z"/><path class="cls-1" d="M90.61,131.39a3,3,0,1,0,3,3A3,3,0,0,0,90.61,131.39Z"/><path class="cls-1" d="M61.41,131.39h-.14a3,3,0,0,0,0,6h.14a3,3,0,0,0,0-6Z"/><path class="cls-1" d="M163.6,116.79a3,3,0,1,0,3,3A3,3,0,0,0,163.6,116.79Z"/><path class="cls-1" d="M134.41,116.79a3,3,0,1,0,3,3A3,3,0,0,0,134.41,116.79Z"/><path class="cls-1" d="M105.21,116.79a3,3,0,1,0,3,3A3,3,0,0,0,105.21,116.79Z"/><path class="cls-1" d="M76,116.79a3,3,0,1,0,3,3A3,3,0,0,0,76,116.79Z"/><path class="cls-1" d="M32.21,335.78a3,3,0,0,0-3,2.87v.14a3,3,0,1,0,6,0,.71.71,0,0,0,0-.14A3,3,0,0,0,32.21,335.78Z"/><path class="cls-1" d="M3,335.78a3,3,0,0,0-3,2.87v.14a3,3,0,1,0,6,0v-.14A3,3,0,0,0,3,335.78Z"/><path class="cls-1" d="M46.81,321.18a3,3,0,1,0,3,3A3,3,0,0,0,46.81,321.18Z"/><path class="cls-1" d="M17.61,321.18a3,3,0,1,0,3,3A3,3,0,0,0,17.61,321.18Z"/><path class="cls-1" d="M32.21,306.58a3,3,0,1,0,3,3A3,3,0,0,0,32.21,306.58Z"/><path class="cls-1" d="M3,306.58a3,3,0,1,0,3,3A3,3,0,0,0,3,306.58Z"/><path class="cls-1" d="M46.81,292a3,3,0,1,0,3,3A3,3,0,0,0,46.81,292Z"/><path class="cls-1" d="M17.61,292a3,3,0,1,0,3,3A3,3,0,0,0,17.61,292Z"/><path class="cls-1" d="M32.21,277.38a3,3,0,1,0,3,3A3,3,0,0,0,32.21,277.38Z"/><path class="cls-1" d="M3,277.38a3,3,0,1,0,3,3A3,3,0,0,0,3,277.38Z"/><path class="cls-1" d="M46.81,262.78a3,3,0,1,0,3,3A3,3,0,0,0,46.81,262.78Z"/><path class="cls-1" d="M17.61,262.78a3,3,0,1,0,3,3A3,3,0,0,0,17.61,262.78Z"/><path class="cls-1" d="M32.21,248.18a3,3,0,1,0,3,3A3,3,0,0,0,32.21,248.18Z"/><path class="cls-1" d="M3,248.18a3,3,0,1,0,3,3A3,3,0,0,0,3,248.18Z"/><path class="cls-1" d="M46.81,233.58a3,3,0,1,0,3,3A3,3,0,0,0,46.81,233.58Z"/><path class="cls-1" d="M17.61,233.58a3,3,0,1,0,3,3A3,3,0,0,0,17.61,233.58Z"/><path class="cls-1" d="M149,335.78a3,3,0,0,0-3,2.87v.14a3,3,0,1,0,6,0v-.14A3,3,0,0,0,149,335.78Z"/><path class="cls-1" d="M119.81,335.78a3,3,0,0,0-3,2.87.71.71,0,0,0,0,.14,3,3,0,1,0,6,0v-.14A3,3,0,0,0,119.81,335.78Z"/><path class="cls-1" d="M90.61,335.78a3,3,0,0,0-3,2.87c0,.05,0,.1,0,.14a3,3,0,1,0,6,0v-.14A3,3,0,0,0,90.61,335.78Z"/><path class="cls-1" d="M61.41,335.78h-.14a3,3,0,0,0-2.87,2.87v.14a3,3,0,0,0,2.87,3h.14a3,3,0,0,0,3-3v-.14A3,3,0,0,0,61.41,335.78Z"/><path class="cls-1" d="M163.6,321.18a3,3,0,1,0,3,3A3,3,0,0,0,163.6,321.18Z"/><path class="cls-1" d="M134.41,321.18a3,3,0,1,0,3,3A3,3,0,0,0,134.41,321.18Z"/><path class="cls-1" d="M105.21,321.18a3,3,0,1,0,3,3A3,3,0,0,0,105.21,321.18Z"/><path class="cls-1" d="M76,321.18a3,3,0,1,0,3,3A3,3,0,0,0,76,321.18Z"/><path class="cls-1" d="M149,306.58a3,3,0,1,0,3,3A3,3,0,0,0,149,306.58Z"/><path class="cls-1" d="M119.81,306.58a3,3,0,1,0,3,3A3,3,0,0,0,119.81,306.58Z"/><path class="cls-1" d="M90.61,306.58a3,3,0,1,0,3,3A3,3,0,0,0,90.61,306.58Z"/><path class="cls-1" d="M61.41,306.58h-.14a3,3,0,0,0,0,6h.14a3,3,0,0,0,0-6Z"/><path class="cls-1" d="M163.6,292a3,3,0,1,0,3,3A3,3,0,0,0,163.6,292Z"/><path class="cls-1" d="M134.41,292a3,3,0,1,0,3,3A3,3,0,0,0,134.41,292Z"/><path class="cls-1" d="M105.21,292a3,3,0,1,0,3,3A3,3,0,0,0,105.21,292Z"/><path class="cls-1" d="M76,292a3,3,0,1,0,3,3A3,3,0,0,0,76,292Z"/><path class="cls-1" d="M149,277.38a3,3,0,1,0,3,3A3,3,0,0,0,149,277.38Z"/><path class="cls-1" d="M119.81,277.38a3,3,0,1,0,3,3A3,3,0,0,0,119.81,277.38Z"/><path class="cls-1" d="M90.61,277.38a3,3,0,1,0,3,3A3,3,0,0,0,90.61,277.38Z"/><path class="cls-1" d="M61.41,277.38h-.14a3,3,0,0,0,0,6h.14a3,3,0,0,0,0-6Z"/><path class="cls-1" d="M163.6,262.78a3,3,0,1,0,3,3A3,3,0,0,0,163.6,262.78Z"/><path class="cls-1" d="M134.41,262.78a3,3,0,1,0,3,3A3,3,0,0,0,134.41,262.78Z"/><path class="cls-1" d="M105.21,262.78a3,3,0,1,0,3,3A3,3,0,0,0,105.21,262.78Z"/><path class="cls-1" d="M76,262.78a3,3,0,1,0,3,3A3,3,0,0,0,76,262.78Z"/><path class="cls-1" d="M149,248.18a3,3,0,1,0,3,3A3,3,0,0,0,149,248.18Z"/><path class="cls-1" d="M119.81,248.18a3,3,0,1,0,3,3A3,3,0,0,0,119.81,248.18Z"/><path class="cls-1" d="M90.61,248.18a3,3,0,1,0,3,3A3,3,0,0,0,90.61,248.18Z"/><path class="cls-1" d="M61.41,248.18h-.14a3,3,0,0,0,0,6h.14a3,3,0,0,0,0-6Z"/><path class="cls-1" d="M163.6,233.58a3,3,0,1,0,3,3A3,3,0,0,0,163.6,233.58Z"/><path class="cls-1" d="M134.41,233.58a3,3,0,1,0,3,3A3,3,0,0,0,134.41,233.58Z"/><path class="cls-1" d="M105.21,233.58a3,3,0,1,0,3,3A3,3,0,0,0,105.21,233.58Z"/><path class="cls-1" d="M76,233.58a3,3,0,1,0,3,3A3,3,0,0,0,76,233.58Z"/><path class="cls-1" d="M46.81,350.38a3,3,0,1,0,3,3A3,3,0,0,0,46.81,350.38Z"/><path class="cls-1" d="M17.61,350.38a3,3,0,1,0,3,3A3,3,0,0,0,17.61,350.38Z"/><path class="cls-1" d="M163.6,350.38a3,3,0,1,0,3,3A3,3,0,0,0,163.6,350.38Z"/><path class="cls-1" d="M134.41,350.38a3,3,0,1,0,3,3A3,3,0,0,0,134.41,350.38Z"/><path class="cls-1" d="M105.21,350.38a3,3,0,1,0,3,3A3,3,0,0,0,105.21,350.38Z"/><path class="cls-1" d="M76,350.38a3,3,0,1,0,3,3A3,3,0,0,0,76,350.38Z"/></g></g></svg>