<svg xmlns="http://www.w3.org/2000/svg" viewBox="0 0 1138.35 573.1"><defs><style>.cls-1{fill:#3f52a0;}</style></defs><title>Dots 2</title><g id="Layer_2" data-name="Layer 2"><g id="Layer_1-2" data-name="Layer 1"><path class="cls-1" d="M98.1,131.9a3.87,3.87,0,0,0-3.9,3.7v.2a3.9,3.9,0,1,0,7.8,0v-.2A3.87,3.87,0,0,0,98.1,131.9Z"/><path class="cls-1" d="M60.4,131.9a3.87,3.87,0,0,0-3.9,3.7v.2a3.9,3.9,0,0,0,7.8,0v-.2A3.87,3.87,0,0,0,60.4,131.9Z"/><path class="cls-1" d="M22.7,131.9a3.87,3.87,0,0,0-3.9,3.7v.2a3.9,3.9,0,0,0,7.8,0v-.2A3.87,3.87,0,0,0,22.7,131.9Z"/><path class="cls-1" d="M117,113a3.9,3.9,0,1,0,3.9,3.9A4,4,0,0,0,117,113Z"/><path class="cls-1" d="M79.3,113a3.9,3.9,0,1,0,3.9,3.9A4,4,0,0,0,79.3,113Z"/><path class="cls-1" d="M41.6,113a3.9,3.9,0,1,0,3.9,3.9A4,4,0,0,0,41.6,113Z"/><path class="cls-1" d="M3.9,113a3.9,3.9,0,1,0,3.9,3.9A4,4,0,0,0,3.9,113Z"/><path class="cls-1" d="M98.1,94.2a3.9,3.9,0,1,0,3.9,3.9A3.84,3.84,0,0,0,98.1,94.2Z"/><path class="cls-1" d="M60.4,94.2a3.9,3.9,0,1,0,3.9,3.9A3.84,3.84,0,0,0,60.4,94.2Z"/><path class="cls-1" d="M22.7,94.2a3.9,3.9,0,1,0,3.9,3.9A3.84,3.84,0,0,0,22.7,94.2Z"/><path class="cls-1" d="M117,75.3a3.9,3.9,0,1,0,3.9,3.9A4,4,0,0,0,117,75.3Z"/><path class="cls-1" d="M79.3,75.3a3.9,3.9,0,1,0,3.9,3.9A4,4,0,0,0,79.3,75.3Z"/><path class="cls-1" d="M41.6,75.3a3.9,3.9,0,1,0,3.9,3.9A4,4,0,0,0,41.6,75.3Z"/><path class="cls-1" d="M3.9,75.3a3.9,3.9,0,1,0,3.9,3.9A4,4,0,0,0,3.9,75.3Z"/><path class="cls-1" d="M98.1,56.5a3.9,3.9,0,1,0,3.9,3.9A3.84,3.84,0,0,0,98.1,56.5Z"/><path class="cls-1" d="M60.4,56.5a3.9,3.9,0,1,0,3.9,3.9A3.84,3.84,0,0,0,60.4,56.5Z"/><path class="cls-1" d="M22.7,56.5a3.9,3.9,0,1,0,3.9,3.9A3.84,3.84,0,0,0,22.7,56.5Z"/><path class="cls-1" d="M117,37.7a3.9,3.9,0,1,0,3.9,3.9A4,4,0,0,0,117,37.7Z"/><path class="cls-1" d="M79.3,37.7a3.9,3.9,0,1,0,3.9,3.9A3.9,3.9,0,0,0,79.3,37.7Z"/><path class="cls-1" d="M41.6,37.7a3.9,3.9,0,1,0,3.9,3.9A3.9,3.9,0,0,0,41.6,37.7Z"/><path class="cls-1" d="M3.9,37.7a3.9,3.9,0,1,0,3.9,3.9A3.9,3.9,0,0,0,3.9,37.7Z"/><path class="cls-1" d="M98.1,18.8a3.9,3.9,0,1,0,3.9,3.9A3.9,3.9,0,0,0,98.1,18.8Z"/><path class="cls-1" d="M60.4,18.8a3.9,3.9,0,1,0,3.9,3.9A3.9,3.9,0,0,0,60.4,18.8Z"/><path class="cls-1" d="M22.7,18.8a3.9,3.9,0,1,0,3.9,3.9A3.9,3.9,0,0,0,22.7,18.8Z"/><path class="cls-1" d="M117,0a3.9,3.9,0,1,0,3.9,3.9A4,4,0,0,0,117,0Z"/><path class="cls-1" d="M79.3,0a3.9,3.9,0,1,0,3.9,3.9A3.9,3.9,0,0,0,79.3,0Z"/><path class="cls-1" d="M41.6,0a3.9,3.9,0,1,0,3.9,3.9A3.9,3.9,0,0,0,41.6,0Z"/><path class="cls-1" d="M3.9,0A3.9,3.9,0,1,0,7.8,3.9,3.9,3.9,0,0,0,3.9,0Z"/><path class="cls-1" d="M248.9,131.9a3.87,3.87,0,0,0-3.9,3.7v.2a3.9,3.9,0,1,0,7.8,0v-.2A3.87,3.87,0,0,0,248.9,131.9Z"/><path class="cls-1" d="M211.2,131.9a3.87,3.87,0,0,0-3.9,3.7v.2a3.9,3.9,0,1,0,7.8,0v-.2A3.87,3.87,0,0,0,211.2,131.9Z"/><path class="cls-1" d="M173.5,131.9a3.87,3.87,0,0,0-3.9,3.7v.2a3.9,3.9,0,1,0,7.8,0v-.2A3.87,3.87,0,0,0,173.5,131.9Z"/><path class="cls-1" d="M135.8,131.9h-.2a3.9,3.9,0,0,0-3.7,3.7v.2a3.87,3.87,0,0,0,3.7,3.9h.2a3.9,3.9,0,0,0,3.9-3.9v-.2A3.87,3.87,0,0,0,135.8,131.9Z"/><path class="cls-1" d="M267.7,113a3.9,3.9,0,1,0,3.9,3.9A3.9,3.9,0,0,0,267.7,113Z"/><path class="cls-1" d="M230,113a3.9,3.9,0,1,0,3.9,3.9A3.9,3.9,0,0,0,230,113Z"/><path class="cls-1" d="M192.3,113a3.9,3.9,0,1,0,3.9,3.9A3.9,3.9,0,0,0,192.3,113Z"/><path class="cls-1" d="M154.6,113a3.9,3.9,0,1,0,3.9,3.9A3.9,3.9,0,0,0,154.6,113Z"/><path class="cls-1" d="M248.9,94.2a3.9,3.9,0,1,0,3.9,3.9A3.9,3.9,0,0,0,248.9,94.2Z"/><path class="cls-1" d="M211.2,94.2a3.9,3.9,0,1,0,3.9,3.9A3.9,3.9,0,0,0,211.2,94.2Z"/><path class="cls-1" d="M173.5,94.2a3.9,3.9,0,1,0,3.9,3.9A3.9,3.9,0,0,0,173.5,94.2Z"/><path class="cls-1" d="M135.8,94.2h-.2a3.91,3.91,0,0,0,0,7.8h.2a3.9,3.9,0,0,0,0-7.8Z"/><path class="cls-1" d="M267.7,75.3a3.9,3.9,0,1,0,3.9,3.9A3.9,3.9,0,0,0,267.7,75.3Z"/><path class="cls-1" d="M230,75.3a3.9,3.9,0,1,0,3.9,3.9A3.9,3.9,0,0,0,230,75.3Z"/><path class="cls-1" d="M192.3,75.3a3.9,3.9,0,1,0,3.9,3.9A3.9,3.9,0,0,0,192.3,75.3Z"/><path class="cls-1" d="M154.6,75.3a3.9,3.9,0,1,0,3.9,3.9A3.9,3.9,0,0,0,154.6,75.3Z"/><path class="cls-1" d="M248.9,56.5a3.9,3.9,0,1,0,3.9,3.9A3.9,3.9,0,0,0,248.9,56.5Z"/><path class="cls-1" d="M211.2,56.5a3.9,3.9,0,1,0,3.9,3.9A3.9,3.9,0,0,0,211.2,56.5Z"/><path class="cls-1" d="M173.5,56.5a3.9,3.9,0,1,0,3.9,3.9A3.9,3.9,0,0,0,173.5,56.5Z"/><path class="cls-1" d="M135.8,56.5h-.2a3.91,3.91,0,0,0,0,7.8h.2a3.9,3.9,0,0,0,0-7.8Z"/><path class="cls-1" d="M267.7,37.7a3.9,3.9,0,1,0,3.9,3.9A3.84,3.84,0,0,0,267.7,37.7Z"/><path class="cls-1" d="M230,37.7a3.9,3.9,0,1,0,3.9,3.9A3.84,3.84,0,0,0,230,37.7Z"/><path class="cls-1" d="M192.3,37.7a3.9,3.9,0,1,0,3.9,3.9A3.84,3.84,0,0,0,192.3,37.7Z"/><path class="cls-1" d="M154.6,37.7a3.9,3.9,0,1,0,3.9,3.9A3.84,3.84,0,0,0,154.6,37.7Z"/><path class="cls-1" d="M248.9,18.8a3.9,3.9,0,1,0,3.9,3.9A4,4,0,0,0,248.9,18.8Z"/><path class="cls-1" d="M211.2,18.8a3.9,3.9,0,1,0,3.9,3.9A4,4,0,0,0,211.2,18.8Z"/><path class="cls-1" d="M173.5,18.8a3.9,3.9,0,1,0,3.9,3.9A4,4,0,0,0,173.5,18.8Z"/><path class="cls-1" d="M135.8,18.8h-.2a3.91,3.91,0,0,0,0,7.8h.2a3.9,3.9,0,0,0,3.9-3.9A4,4,0,0,0,135.8,18.8Z"/><path class="cls-1" d="M267.7,0a3.9,3.9,0,1,0,3.9,3.9A3.84,3.84,0,0,0,267.7,0Z"/><path class="cls-1" d="M230,0a3.9,3.9,0,1,0,3.9,3.9A3.84,3.84,0,0,0,230,0Z"/><path class="cls-1" d="M192.3,0a3.9,3.9,0,1,0,3.9,3.9A3.84,3.84,0,0,0,192.3,0Z"/><path class="cls-1" d="M154.6,0a3.9,3.9,0,1,0,3.9,3.9A3.84,3.84,0,0,0,154.6,0Z"/><path class="cls-1" d="M98.1,282.6a3.87,3.87,0,0,0-3.9,3.7v.2a3.9,3.9,0,0,0,7.8,0v-.2A3.94,3.94,0,0,0,98.1,282.6Z"/><path class="cls-1" d="M60.4,282.6a3.87,3.87,0,0,0-3.9,3.7v.2a3.9,3.9,0,0,0,7.8,0v-.2A3.94,3.94,0,0,0,60.4,282.6Z"/><path class="cls-1" d="M22.7,282.6a3.87,3.87,0,0,0-3.9,3.7v.2a3.9,3.9,0,0,0,7.8,0v-.2A3.94,3.94,0,0,0,22.7,282.6Z"/><path class="cls-1" d="M117,263.8a3.9,3.9,0,1,0,3.9,3.9A4,4,0,0,0,117,263.8Z"/><path class="cls-1" d="M79.3,263.8a3.9,3.9,0,1,0,3.9,3.9A3.9,3.9,0,0,0,79.3,263.8Z"/><path class="cls-1" d="M41.6,263.8a3.9,3.9,0,1,0,3.9,3.9A3.9,3.9,0,0,0,41.6,263.8Z"/><path class="cls-1" d="M3.9,263.8a3.9,3.9,0,1,0,3.9,3.9A3.9,3.9,0,0,0,3.9,263.8Z"/><path class="cls-1" d="M98.1,245a3.9,3.9,0,1,0,3.9,3.9A3.84,3.84,0,0,0,98.1,245Z"/><path class="cls-1" d="M60.4,245a3.9,3.9,0,1,0,3.9,3.9A3.84,3.84,0,0,0,60.4,245Z"/><path class="cls-1" d="M22.7,245a3.9,3.9,0,1,0,3.9,3.9A3.84,3.84,0,0,0,22.7,245Z"/><path class="cls-1" d="M117,226.1a3.9,3.9,0,1,0,3.9,3.9A4,4,0,0,0,117,226.1Z"/><path class="cls-1" d="M79.3,226.1a3.9,3.9,0,1,0,3.9,3.9A4,4,0,0,0,79.3,226.1Z"/><path class="cls-1" d="M41.6,226.1a3.9,3.9,0,1,0,3.9,3.9A4,4,0,0,0,41.6,226.1Z"/><path class="cls-1" d="M3.9,226.1A3.9,3.9,0,1,0,7.8,230,4,4,0,0,0,3.9,226.1Z"/><path class="cls-1" d="M98.1,207.3a3.9,3.9,0,1,0,3.9,3.9A3.84,3.84,0,0,0,98.1,207.3Z"/><path class="cls-1" d="M60.4,207.3a3.9,3.9,0,1,0,3.9,3.9A3.84,3.84,0,0,0,60.4,207.3Z"/><path class="cls-1" d="M22.7,207.3a3.9,3.9,0,1,0,3.9,3.9A3.84,3.84,0,0,0,22.7,207.3Z"/><path class="cls-1" d="M117,188.4a3.9,3.9,0,1,0,3.9,3.9A4,4,0,0,0,117,188.4Z"/><path class="cls-1" d="M79.3,188.4a3.9,3.9,0,1,0,3.9,3.9A4,4,0,0,0,79.3,188.4Z"/><path class="cls-1" d="M41.6,188.4a3.9,3.9,0,1,0,3.9,3.9A4,4,0,0,0,41.6,188.4Z"/><path class="cls-1" d="M3.9,188.4a3.9,3.9,0,1,0,3.9,3.9A4,4,0,0,0,3.9,188.4Z"/><path class="cls-1" d="M98.1,169.6a3.9,3.9,0,1,0,3.9,3.9A3.84,3.84,0,0,0,98.1,169.6Z"/><path class="cls-1" d="M60.4,169.6a3.9,3.9,0,1,0,3.9,3.9A3.84,3.84,0,0,0,60.4,169.6Z"/><path class="cls-1" d="M22.7,169.6a3.9,3.9,0,1,0,3.9,3.9A3.84,3.84,0,0,0,22.7,169.6Z"/><path class="cls-1" d="M117,150.7a3.9,3.9,0,1,0,3.9,3.9A4,4,0,0,0,117,150.7Z"/><path class="cls-1" d="M79.3,150.7a3.9,3.9,0,1,0,3.9,3.9A4,4,0,0,0,79.3,150.7Z"/><path class="cls-1" d="M41.6,150.7a3.9,3.9,0,1,0,3.9,3.9A4,4,0,0,0,41.6,150.7Z"/><path class="cls-1" d="M3.9,150.7a3.9,3.9,0,1,0,3.9,3.9A4,4,0,0,0,3.9,150.7Z"/><path class="cls-1" d="M248.9,282.6a3.87,3.87,0,0,0-3.9,3.7v.2a3.9,3.9,0,1,0,7.8,0v-.2A3.94,3.94,0,0,0,248.9,282.6Z"/><path class="cls-1" d="M211.2,282.6a3.87,3.87,0,0,0-3.9,3.7v.2a3.9,3.9,0,1,0,7.8,0v-.2A3.94,3.94,0,0,0,211.2,282.6Z"/><path class="cls-1" d="M173.5,282.6a3.87,3.87,0,0,0-3.9,3.7v.2a3.9,3.9,0,1,0,7.8,0v-.2A3.94,3.94,0,0,0,173.5,282.6Z"/><path class="cls-1" d="M135.8,282.6h-.2a3.9,3.9,0,0,0-3.7,3.7v.2a3.87,3.87,0,0,0,3.7,3.9h.2a3.9,3.9,0,0,0,3.9-3.9v-.2A3.94,3.94,0,0,0,135.8,282.6Z"/><path class="cls-1" d="M267.7,263.8a3.9,3.9,0,1,0,3.9,3.9A3.84,3.84,0,0,0,267.7,263.8Z"/><path class="cls-1" d="M230,263.8a3.9,3.9,0,1,0,3.9,3.9A3.84,3.84,0,0,0,230,263.8Z"/><path class="cls-1" d="M192.3,263.8a3.9,3.9,0,1,0,3.9,3.9A3.84,3.84,0,0,0,192.3,263.8Z"/><path class="cls-1" d="M154.6,263.8a3.9,3.9,0,1,0,3.9,3.9A3.84,3.84,0,0,0,154.6,263.8Z"/><path class="cls-1" d="M248.9,245a3.9,3.9,0,1,0,3.9,3.9A3.9,3.9,0,0,0,248.9,245Z"/><path class="cls-1" d="M211.2,245a3.9,3.9,0,1,0,3.9,3.9A3.9,3.9,0,0,0,211.2,245Z"/><path class="cls-1" d="M173.5,245a3.9,3.9,0,1,0,3.9,3.9A3.9,3.9,0,0,0,173.5,245Z"/><path class="cls-1" d="M135.8,245h-.2a3.91,3.91,0,0,0,0,7.8h.2a3.9,3.9,0,0,0,0-7.8Z"/><path class="cls-1" d="M267.7,226.1a3.9,3.9,0,1,0,3.9,3.9A3.9,3.9,0,0,0,267.7,226.1Z"/><path class="cls-1" d="M230,226.1a3.9,3.9,0,1,0,3.9,3.9A3.9,3.9,0,0,0,230,226.1Z"/><path class="cls-1" d="M192.3,226.1a3.9,3.9,0,1,0,3.9,3.9A3.9,3.9,0,0,0,192.3,226.1Z"/><path class="cls-1" d="M154.6,226.1a3.9,3.9,0,1,0,3.9,3.9A3.9,3.9,0,0,0,154.6,226.1Z"/><path class="cls-1" d="M248.9,207.3a3.9,3.9,0,1,0,3.9,3.9A3.9,3.9,0,0,0,248.9,207.3Z"/><path class="cls-1" d="M211.2,207.3a3.9,3.9,0,1,0,3.9,3.9A3.9,3.9,0,0,0,211.2,207.3Z"/><path class="cls-1" d="M173.5,207.3a3.9,3.9,0,1,0,3.9,3.9A3.9,3.9,0,0,0,173.5,207.3Z"/><path class="cls-1" d="M135.8,207.3h-.2a3.91,3.91,0,0,0,0,7.8h.2a3.9,3.9,0,1,0,0-7.8Z"/><path class="cls-1" d="M267.7,188.4a3.9,3.9,0,1,0,3.9,3.9A3.9,3.9,0,0,0,267.7,188.4Z"/><path class="cls-1" d="M230,188.4a3.9,3.9,0,1,0,3.9,3.9A3.9,3.9,0,0,0,230,188.4Z"/><path class="cls-1" d="M192.3,188.4a3.9,3.9,0,1,0,3.9,3.9A3.9,3.9,0,0,0,192.3,188.4Z"/><path class="cls-1" d="M154.6,188.4a3.9,3.9,0,1,0,3.9,3.9A3.9,3.9,0,0,0,154.6,188.4Z"/><path class="cls-1" d="M248.9,169.6a3.9,3.9,0,1,0,3.9,3.9A3.9,3.9,0,0,0,248.9,169.6Z"/><path class="cls-1" d="M211.2,169.6a3.9,3.9,0,1,0,3.9,3.9A3.9,3.9,0,0,0,211.2,169.6Z"/><path class="cls-1" d="M173.5,169.6a3.9,3.9,0,1,0,3.9,3.9A3.9,3.9,0,0,0,173.5,169.6Z"/><path class="cls-1" d="M135.8,169.6h-.2a3.91,3.91,0,0,0,0,7.8h.2a3.9,3.9,0,0,0,0-7.8Z"/><path class="cls-1" d="M267.7,150.7a3.9,3.9,0,1,0,3.9,3.9A3.9,3.9,0,0,0,267.7,150.7Z"/><path class="cls-1" d="M230,150.7a3.9,3.9,0,1,0,3.9,3.9A3.9,3.9,0,0,0,230,150.7Z"/><path class="cls-1" d="M192.3,150.7a3.9,3.9,0,1,0,3.9,3.9A3.9,3.9,0,0,0,192.3,150.7Z"/><path class="cls-1" d="M154.6,150.7a3.9,3.9,0,1,0,3.9,3.9A3.9,3.9,0,0,0,154.6,150.7Z"/><path class="cls-1" d="M399.6,131.9a3.87,3.87,0,0,0-3.9,3.7v.2a3.9,3.9,0,1,0,7.8,0v-.2A3.87,3.87,0,0,0,399.6,131.9Z"/><path class="cls-1" d="M361.9,131.9a3.87,3.87,0,0,0-3.9,3.7v.2a3.9,3.9,0,1,0,7.8,0v-.2A3.87,3.87,0,0,0,361.9,131.9Z"/><path class="cls-1" d="M324.3,131.9a3.87,3.87,0,0,0-3.9,3.7v.2a3.9,3.9,0,1,0,7.8,0v-.2A4,4,0,0,0,324.3,131.9Z"/><path class="cls-1" d="M286.6,131.9h-.2a3.9,3.9,0,0,0-3.7,3.7v.2a3.87,3.87,0,0,0,3.7,3.9h.2a3.9,3.9,0,0,0,3.9-3.9v-.2A3.87,3.87,0,0,0,286.6,131.9Z"/><path class="cls-1" d="M418.5,113a3.9,3.9,0,1,0,3.9,3.9A4,4,0,0,0,418.5,113Z"/><path class="cls-1" d="M380.8,113a3.9,3.9,0,1,0,3.9,3.9A4,4,0,0,0,380.8,113Z"/><path class="cls-1" d="M343.1,113a3.9,3.9,0,1,0,3.9,3.9A4,4,0,0,0,343.1,113Z"/><path class="cls-1" d="M305.4,113a3.9,3.9,0,1,0,3.9,3.9A3.9,3.9,0,0,0,305.4,113Z"/><path class="cls-1" d="M399.6,94.2a3.9,3.9,0,1,0,3.9,3.9A3.84,3.84,0,0,0,399.6,94.2Z"/><path class="cls-1" d="M361.9,94.2a3.9,3.9,0,1,0,3.9,3.9A3.84,3.84,0,0,0,361.9,94.2Z"/><path class="cls-1" d="M324.3,94.2a3.9,3.9,0,1,0,3.9,3.9A4,4,0,0,0,324.3,94.2Z"/><path class="cls-1" d="M286.6,94.2h-.2a3.91,3.91,0,0,0,0,7.8h.2a3.9,3.9,0,0,0,0-7.8Z"/><path class="cls-1" d="M418.5,75.3a3.9,3.9,0,1,0,3.9,3.9A4,4,0,0,0,418.5,75.3Z"/><path class="cls-1" d="M380.8,75.3a3.9,3.9,0,1,0,3.9,3.9A4,4,0,0,0,380.8,75.3Z"/><path class="cls-1" d="M343.1,75.3a3.9,3.9,0,1,0,3.9,3.9A4,4,0,0,0,343.1,75.3Z"/><path class="cls-1" d="M305.4,75.3a3.9,3.9,0,1,0,3.9,3.9A3.9,3.9,0,0,0,305.4,75.3Z"/><path class="cls-1" d="M399.6,56.5a3.9,3.9,0,1,0,3.9,3.9A3.84,3.84,0,0,0,399.6,56.5Z"/><path class="cls-1" d="M361.9,56.5a3.9,3.9,0,1,0,3.9,3.9A3.84,3.84,0,0,0,361.9,56.5Z"/><path class="cls-1" d="M324.3,56.5a3.9,3.9,0,1,0,3.9,3.9A4,4,0,0,0,324.3,56.5Z"/><path class="cls-1" d="M286.6,56.5h-.2a3.91,3.91,0,0,0,0,7.8h.2a3.9,3.9,0,0,0,0-7.8Z"/><path class="cls-1" d="M418.5,37.7a3.9,3.9,0,1,0,3.9,3.9A3.9,3.9,0,0,0,418.5,37.7Z"/><path class="cls-1" d="M380.8,37.7a3.9,3.9,0,1,0,3.9,3.9A3.9,3.9,0,0,0,380.8,37.7Z"/><path class="cls-1" d="M343.1,37.7a3.9,3.9,0,1,0,3.9,3.9A3.9,3.9,0,0,0,343.1,37.7Z"/><path class="cls-1" d="M305.4,37.7a3.9,3.9,0,1,0,3.9,3.9A3.84,3.84,0,0,0,305.4,37.7Z"/><path class="cls-1" d="M399.6,18.8a3.9,3.9,0,1,0,3.9,3.9A3.9,3.9,0,0,0,399.6,18.8Z"/><path class="cls-1" d="M361.9,18.8a3.9,3.9,0,1,0,3.9,3.9A3.9,3.9,0,0,0,361.9,18.8Z"/><path class="cls-1" d="M324.3,18.8a3.9,3.9,0,1,0,3.9,3.9A4,4,0,0,0,324.3,18.8Z"/><path class="cls-1" d="M286.6,18.8h-.2a3.91,3.91,0,0,0,0,7.8h.2a3.9,3.9,0,0,0,3.9-3.9A4,4,0,0,0,286.6,18.8Z"/><path class="cls-1" d="M418.5,0a3.9,3.9,0,1,0,3.9,3.9A3.9,3.9,0,0,0,418.5,0Z"/><path class="cls-1" d="M380.8,0a3.9,3.9,0,1,0,3.9,3.9A3.9,3.9,0,0,0,380.8,0Z"/><path class="cls-1" d="M343.1,0A3.9,3.9,0,1,0,347,3.9,3.9,3.9,0,0,0,343.1,0Z"/><path class="cls-1" d="M305.4,0a3.9,3.9,0,1,0,3.9,3.9A3.84,3.84,0,0,0,305.4,0Z"/><path class="cls-1" d="M550.4,131.9a3.87,3.87,0,0,0-3.9,3.7v.2a3.9,3.9,0,1,0,7.8,0v-.2A3.87,3.87,0,0,0,550.4,131.9Z"/><path class="cls-1" d="M512.7,131.9a3.87,3.87,0,0,0-3.9,3.7v.2a3.9,3.9,0,1,0,7.8,0v-.2A3.87,3.87,0,0,0,512.7,131.9Z"/><path class="cls-1" d="M475,131.9a3.87,3.87,0,0,0-3.9,3.7v.2a3.9,3.9,0,0,0,7.8,0v-.2A3.87,3.87,0,0,0,475,131.9Z"/><path class="cls-1" d="M437.3,131.9h-.2a3.9,3.9,0,0,0-3.7,3.7v.2a3.87,3.87,0,0,0,3.7,3.9h.2a3.9,3.9,0,0,0,3.9-3.9v-.2A3.87,3.87,0,0,0,437.3,131.9Z"/><path class="cls-1" d="M569.2,113a3.9,3.9,0,1,0,3.9,3.9A3.9,3.9,0,0,0,569.2,113Z"/><path class="cls-1" d="M531.6,113a3.9,3.9,0,1,0,3.9,3.9A4,4,0,0,0,531.6,113Z"/><path class="cls-1" d="M493.9,113a3.9,3.9,0,1,0,3.9,3.9A4,4,0,0,0,493.9,113Z"/><path class="cls-1" d="M456.2,113a3.9,3.9,0,1,0,3.9,3.9A4,4,0,0,0,456.2,113Z"/><path class="cls-1" d="M550.4,94.2a3.9,3.9,0,1,0,3.9,3.9A3.9,3.9,0,0,0,550.4,94.2Z"/><path class="cls-1" d="M512.7,94.2a3.9,3.9,0,1,0,3.9,3.9A3.84,3.84,0,0,0,512.7,94.2Z"/><path class="cls-1" d="M475,94.2a3.9,3.9,0,1,0,3.9,3.9A3.84,3.84,0,0,0,475,94.2Z"/><path class="cls-1" d="M437.3,94.2h-.2a3.91,3.91,0,0,0,0,7.8h.2a3.9,3.9,0,0,0,3.9-3.9A3.84,3.84,0,0,0,437.3,94.2Z"/><path class="cls-1" d="M569.2,75.3a3.9,3.9,0,1,0,3.9,3.9A3.9,3.9,0,0,0,569.2,75.3Z"/><path class="cls-1" d="M531.6,75.3a3.9,3.9,0,1,0,3.9,3.9A4,4,0,0,0,531.6,75.3Z"/><path class="cls-1" d="M493.9,75.3a3.9,3.9,0,1,0,3.9,3.9A4,4,0,0,0,493.9,75.3Z"/><path class="cls-1" d="M456.2,75.3a3.9,3.9,0,1,0,3.9,3.9A4,4,0,0,0,456.2,75.3Z"/><path class="cls-1" d="M550.4,56.5a3.9,3.9,0,1,0,3.9,3.9A3.9,3.9,0,0,0,550.4,56.5Z"/><path class="cls-1" d="M512.7,56.5a3.9,3.9,0,1,0,3.9,3.9A3.84,3.84,0,0,0,512.7,56.5Z"/><path class="cls-1" d="M475,56.5a3.9,3.9,0,1,0,3.9,3.9A3.84,3.84,0,0,0,475,56.5Z"/><path class="cls-1" d="M437.3,56.5h-.2a3.91,3.91,0,0,0,0,7.8h.2a3.9,3.9,0,0,0,3.9-3.9A3.84,3.84,0,0,0,437.3,56.5Z"/><path class="cls-1" d="M569.2,37.7a3.9,3.9,0,1,0,3.9,3.9A3.84,3.84,0,0,0,569.2,37.7Z"/><path class="cls-1" d="M531.6,37.7a3.9,3.9,0,1,0,3.9,3.9A4,4,0,0,0,531.6,37.7Z"/><path class="cls-1" d="M493.9,37.7a3.9,3.9,0,1,0,3.9,3.9A3.9,3.9,0,0,0,493.9,37.7Z"/><path class="cls-1" d="M456.2,37.7a3.9,3.9,0,1,0,3.9,3.9A3.9,3.9,0,0,0,456.2,37.7Z"/><path class="cls-1" d="M550.4,18.8a3.9,3.9,0,1,0,3.9,3.9A4,4,0,0,0,550.4,18.8Z"/><path class="cls-1" d="M512.7,18.8a3.9,3.9,0,1,0,3.9,3.9A3.9,3.9,0,0,0,512.7,18.8Z"/><path class="cls-1" d="M475,18.8a3.9,3.9,0,1,0,3.9,3.9A3.9,3.9,0,0,0,475,18.8Z"/><path class="cls-1" d="M437.3,18.8h-.2a3.91,3.91,0,0,0,0,7.8h.2a3.9,3.9,0,0,0,0-7.8Z"/><path class="cls-1" d="M569.2,0a3.9,3.9,0,1,0,3.9,3.9A3.84,3.84,0,0,0,569.2,0Z"/><path class="cls-1" d="M531.6,0a3.9,3.9,0,1,0,3.9,3.9A4,4,0,0,0,531.6,0Z"/><path class="cls-1" d="M493.9,0a3.9,3.9,0,1,0,3.9,3.9A3.9,3.9,0,0,0,493.9,0Z"/><path class="cls-1" d="M456.2,0a3.9,3.9,0,1,0,3.9,3.9A3.9,3.9,0,0,0,456.2,0Z"/><path class="cls-1" d="M399.6,282.6a3.87,3.87,0,0,0-3.9,3.7v.2a3.9,3.9,0,1,0,7.8,0v-.2A3.94,3.94,0,0,0,399.6,282.6Z"/><path class="cls-1" d="M361.9,282.6a3.87,3.87,0,0,0-3.9,3.7v.2a3.9,3.9,0,0,0,7.8,0v-.2A3.94,3.94,0,0,0,361.9,282.6Z"/><path class="cls-1" d="M324.3,282.6a3.87,3.87,0,0,0-3.9,3.7v.2a3.9,3.9,0,1,0,7.8,0v-.2A4.09,4.09,0,0,0,324.3,282.6Z"/><path class="cls-1" d="M286.6,282.6h-.2a3.9,3.9,0,0,0-3.7,3.7v.2a3.87,3.87,0,0,0,3.7,3.9h.2a3.9,3.9,0,0,0,3.9-3.9v-.2A3.94,3.94,0,0,0,286.6,282.6Z"/><path class="cls-1" d="M418.5,263.8a3.9,3.9,0,1,0,3.9,3.9A3.9,3.9,0,0,0,418.5,263.8Z"/><path class="cls-1" d="M380.8,263.8a3.9,3.9,0,1,0,3.9,3.9A3.9,3.9,0,0,0,380.8,263.8Z"/><path class="cls-1" d="M343.1,263.8a3.9,3.9,0,1,0,3.9,3.9A3.9,3.9,0,0,0,343.1,263.8Z"/><path class="cls-1" d="M305.4,263.8a3.9,3.9,0,1,0,3.9,3.9A3.84,3.84,0,0,0,305.4,263.8Z"/><path class="cls-1" d="M399.6,245a3.9,3.9,0,1,0,3.9,3.9A3.84,3.84,0,0,0,399.6,245Z"/><path class="cls-1" d="M361.9,245a3.9,3.9,0,1,0,3.9,3.9A3.84,3.84,0,0,0,361.9,245Z"/><path class="cls-1" d="M324.3,245a3.9,3.9,0,1,0,3.9,3.9A4,4,0,0,0,324.3,245Z"/><path class="cls-1" d="M286.6,245h-.2a3.91,3.91,0,0,0,0,7.8h.2a3.9,3.9,0,0,0,0-7.8Z"/><path class="cls-1" d="M418.5,226.1a3.9,3.9,0,1,0,3.9,3.9A4,4,0,0,0,418.5,226.1Z"/><path class="cls-1" d="M380.8,226.1a3.9,3.9,0,1,0,3.9,3.9A4,4,0,0,0,380.8,226.1Z"/><path class="cls-1" d="M343.1,226.1A3.9,3.9,0,1,0,347,230,4,4,0,0,0,343.1,226.1Z"/><path class="cls-1" d="M305.4,226.1a3.9,3.9,0,1,0,3.9,3.9A3.9,3.9,0,0,0,305.4,226.1Z"/><path class="cls-1" d="M399.6,207.3a3.9,3.9,0,1,0,3.9,3.9A3.84,3.84,0,0,0,399.6,207.3Z"/><path class="cls-1" d="M361.9,207.3a3.9,3.9,0,1,0,3.9,3.9A3.84,3.84,0,0,0,361.9,207.3Z"/><path class="cls-1" d="M324.3,207.3a3.9,3.9,0,1,0,3.9,3.9A4,4,0,0,0,324.3,207.3Z"/><path class="cls-1" d="M286.6,207.3h-.2a3.91,3.91,0,0,0,0,7.8h.2a3.9,3.9,0,1,0,0-7.8Z"/><path class="cls-1" d="M418.5,188.4a3.9,3.9,0,1,0,3.9,3.9A4,4,0,0,0,418.5,188.4Z"/><path class="cls-1" d="M380.8,188.4a3.9,3.9,0,1,0,3.9,3.9A4,4,0,0,0,380.8,188.4Z"/><path class="cls-1" d="M343.1,188.4a3.9,3.9,0,1,0,3.9,3.9A4,4,0,0,0,343.1,188.4Z"/><path class="cls-1" d="M305.4,188.4a3.9,3.9,0,1,0,3.9,3.9A3.9,3.9,0,0,0,305.4,188.4Z"/><path class="cls-1" d="M399.6,169.6a3.9,3.9,0,1,0,3.9,3.9A3.84,3.84,0,0,0,399.6,169.6Z"/><path class="cls-1" d="M361.9,169.6a3.9,3.9,0,1,0,3.9,3.9A3.84,3.84,0,0,0,361.9,169.6Z"/><path class="cls-1" d="M324.3,169.6a3.9,3.9,0,1,0,3.9,3.9A4,4,0,0,0,324.3,169.6Z"/><path class="cls-1" d="M286.6,169.6h-.2a3.91,3.91,0,0,0,0,7.8h.2a3.9,3.9,0,0,0,0-7.8Z"/><path class="cls-1" d="M418.5,150.7a3.9,3.9,0,1,0,3.9,3.9A4,4,0,0,0,418.5,150.7Z"/><path class="cls-1" d="M380.8,150.7a3.9,3.9,0,1,0,3.9,3.9A4,4,0,0,0,380.8,150.7Z"/><path class="cls-1" d="M343.1,150.7a3.9,3.9,0,1,0,3.9,3.9A4,4,0,0,0,343.1,150.7Z"/><path class="cls-1" d="M305.4,150.7a3.9,3.9,0,1,0,3.9,3.9A3.9,3.9,0,0,0,305.4,150.7Z"/><path class="cls-1" d="M550.4,282.6a3.87,3.87,0,0,0-3.9,3.7v.2a3.9,3.9,0,1,0,7.8,0v-.2A3.94,3.94,0,0,0,550.4,282.6Z"/><path class="cls-1" d="M512.7,282.6a3.87,3.87,0,0,0-3.9,3.7v.2a3.9,3.9,0,1,0,7.8,0v-.2A3.94,3.94,0,0,0,512.7,282.6Z"/><path class="cls-1" d="M475,282.6a3.87,3.87,0,0,0-3.9,3.7v.2a3.9,3.9,0,0,0,7.8,0v-.2A3.94,3.94,0,0,0,475,282.6Z"/><path class="cls-1" d="M437.3,282.6h-.2a3.9,3.9,0,0,0-3.7,3.7v.2a3.87,3.87,0,0,0,3.7,3.9h.2a3.9,3.9,0,0,0,3.9-3.9v-.2A3.94,3.94,0,0,0,437.3,282.6Z"/><path class="cls-1" d="M569.2,263.8a3.9,3.9,0,1,0,3.9,3.9A3.84,3.84,0,0,0,569.2,263.8Z"/><path class="cls-1" d="M531.6,263.8a3.9,3.9,0,1,0,3.9,3.9A4,4,0,0,0,531.6,263.8Z"/><path class="cls-1" d="M493.9,263.8a3.9,3.9,0,1,0,3.9,3.9A3.9,3.9,0,0,0,493.9,263.8Z"/><path class="cls-1" d="M456.2,263.8a3.9,3.9,0,1,0,3.9,3.9A3.9,3.9,0,0,0,456.2,263.8Z"/><path class="cls-1" d="M550.4,245a3.9,3.9,0,1,0,3.9,3.9A3.9,3.9,0,0,0,550.4,245Z"/><path class="cls-1" d="M512.7,245a3.9,3.9,0,1,0,3.9,3.9A3.84,3.84,0,0,0,512.7,245Z"/><path class="cls-1" d="M475,245a3.9,3.9,0,1,0,3.9,3.9A3.84,3.84,0,0,0,475,245Z"/><path class="cls-1" d="M437.3,245h-.2a3.91,3.91,0,0,0,0,7.8h.2a3.9,3.9,0,0,0,3.9-3.9A3.84,3.84,0,0,0,437.3,245Z"/><path class="cls-1" d="M569.2,226.1a3.9,3.9,0,1,0,3.9,3.9A3.9,3.9,0,0,0,569.2,226.1Z"/><path class="cls-1" d="M531.6,226.1a3.9,3.9,0,1,0,3.9,3.9A4,4,0,0,0,531.6,226.1Z"/><path class="cls-1" d="M493.9,226.1a3.9,3.9,0,1,0,3.9,3.9A4,4,0,0,0,493.9,226.1Z"/><path class="cls-1" d="M456.2,226.1a3.9,3.9,0,1,0,3.9,3.9A4,4,0,0,0,456.2,226.1Z"/><path class="cls-1" d="M550.4,207.3a3.9,3.9,0,1,0,3.9,3.9A3.9,3.9,0,0,0,550.4,207.3Z"/><path class="cls-1" d="M512.7,207.3a3.9,3.9,0,1,0,3.9,3.9A3.84,3.84,0,0,0,512.7,207.3Z"/><path class="cls-1" d="M475,207.3a3.9,3.9,0,1,0,3.9,3.9A3.84,3.84,0,0,0,475,207.3Z"/><path class="cls-1" d="M437.3,207.3h-.2a3.91,3.91,0,0,0,0,7.8h.2a3.9,3.9,0,0,0,3.9-3.9A3.84,3.84,0,0,0,437.3,207.3Z"/><path class="cls-1" d="M569.2,188.4a3.9,3.9,0,1,0,3.9,3.9A3.9,3.9,0,0,0,569.2,188.4Z"/><path class="cls-1" d="M531.6,188.4a3.9,3.9,0,1,0,3.9,3.9A4,4,0,0,0,531.6,188.4Z"/><path class="cls-1" d="M493.9,188.4a3.9,3.9,0,1,0,3.9,3.9A4,4,0,0,0,493.9,188.4Z"/><path class="cls-1" d="M456.2,188.4a3.9,3.9,0,1,0,3.9,3.9A4,4,0,0,0,456.2,188.4Z"/><path class="cls-1" d="M550.4,169.6a3.9,3.9,0,1,0,3.9,3.9A3.9,3.9,0,0,0,550.4,169.6Z"/><path class="cls-1" d="M512.7,169.6a3.9,3.9,0,1,0,3.9,3.9A3.84,3.84,0,0,0,512.7,169.6Z"/><path class="cls-1" d="M475,169.6a3.9,3.9,0,1,0,3.9,3.9A3.84,3.84,0,0,0,475,169.6Z"/><path class="cls-1" d="M437.3,169.6h-.2a3.91,3.91,0,0,0,0,7.8h.2a3.9,3.9,0,0,0,3.9-3.9A3.84,3.84,0,0,0,437.3,169.6Z"/><path class="cls-1" d="M569.2,150.7a3.9,3.9,0,1,0,3.9,3.9A3.9,3.9,0,0,0,569.2,150.7Z"/><path class="cls-1" d="M531.6,150.7a3.9,3.9,0,1,0,3.9,3.9A4,4,0,0,0,531.6,150.7Z"/><path class="cls-1" d="M493.9,150.7a3.9,3.9,0,1,0,3.9,3.9A4,4,0,0,0,493.9,150.7Z"/><path class="cls-1" d="M456.2,150.7a3.9,3.9,0,1,0,3.9,3.9A4,4,0,0,0,456.2,150.7Z"/><path class="cls-1" d="M98.1,433.4a3.87,3.87,0,0,0-3.9,3.7v.2a3.9,3.9,0,0,0,7.8,0v-.2A3.94,3.94,0,0,0,98.1,433.4Z"/><path class="cls-1" d="M60.4,433.4a3.87,3.87,0,0,0-3.9,3.7v.2a3.9,3.9,0,0,0,7.8,0v-.2A3.94,3.94,0,0,0,60.4,433.4Z"/><path class="cls-1" d="M22.7,433.4a3.87,3.87,0,0,0-3.9,3.7v.2a3.9,3.9,0,0,0,7.8,0v-.2A3.94,3.94,0,0,0,22.7,433.4Z"/><path class="cls-1" d="M117,414.6a3.9,3.9,0,1,0,3.9,3.9A4,4,0,0,0,117,414.6Z"/><path class="cls-1" d="M79.3,414.6a3.9,3.9,0,1,0,3.9,3.9A3.9,3.9,0,0,0,79.3,414.6Z"/><path class="cls-1" d="M41.6,414.6a3.9,3.9,0,1,0,3.9,3.9A3.9,3.9,0,0,0,41.6,414.6Z"/><path class="cls-1" d="M3.9,414.6a3.9,3.9,0,1,0,3.9,3.9A3.9,3.9,0,0,0,3.9,414.6Z"/><path class="cls-1" d="M98.1,395.7a3.9,3.9,0,1,0,3.9,3.9A3.9,3.9,0,0,0,98.1,395.7Z"/><path class="cls-1" d="M60.4,395.7a3.9,3.9,0,1,0,3.9,3.9A3.9,3.9,0,0,0,60.4,395.7Z"/><path class="cls-1" d="M22.7,395.7a3.9,3.9,0,1,0,3.9,3.9A3.9,3.9,0,0,0,22.7,395.7Z"/><path class="cls-1" d="M117,376.9a3.9,3.9,0,1,0,3.9,3.9A4,4,0,0,0,117,376.9Z"/><path class="cls-1" d="M79.3,376.9a3.9,3.9,0,1,0,3.9,3.9A3.9,3.9,0,0,0,79.3,376.9Z"/><path class="cls-1" d="M41.6,376.9a3.9,3.9,0,1,0,3.9,3.9A3.9,3.9,0,0,0,41.6,376.9Z"/><path class="cls-1" d="M3.9,376.9a3.9,3.9,0,1,0,3.9,3.9A3.9,3.9,0,0,0,3.9,376.9Z"/><path class="cls-1" d="M98.1,358a3.9,3.9,0,1,0,3.9,3.9A3.9,3.9,0,0,0,98.1,358Z"/><path class="cls-1" d="M60.4,358a3.9,3.9,0,1,0,3.9,3.9A3.9,3.9,0,0,0,60.4,358Z"/><path class="cls-1" d="M22.7,358a3.9,3.9,0,1,0,3.9,3.9A3.9,3.9,0,0,0,22.7,358Z"/><path class="cls-1" d="M117,339.2a3.9,3.9,0,1,0,3.9,3.9A4,4,0,0,0,117,339.2Z"/><path class="cls-1" d="M79.3,339.2a3.9,3.9,0,1,0,3.9,3.9A3.9,3.9,0,0,0,79.3,339.2Z"/><path class="cls-1" d="M41.6,339.2a3.9,3.9,0,1,0,3.9,3.9A3.9,3.9,0,0,0,41.6,339.2Z"/><path class="cls-1" d="M3.9,339.2a3.9,3.9,0,1,0,3.9,3.9A3.9,3.9,0,0,0,3.9,339.2Z"/><path class="cls-1" d="M98.1,320.3a3.9,3.9,0,1,0,3.9,3.9A3.9,3.9,0,0,0,98.1,320.3Z"/><path class="cls-1" d="M60.4,320.3a3.9,3.9,0,1,0,3.9,3.9A3.9,3.9,0,0,0,60.4,320.3Z"/><path class="cls-1" d="M22.7,320.3a3.9,3.9,0,1,0,3.9,3.9A3.9,3.9,0,0,0,22.7,320.3Z"/><path class="cls-1" d="M117,301.5a3.9,3.9,0,1,0,3.9,3.9A4,4,0,0,0,117,301.5Z"/><path class="cls-1" d="M79.3,301.5a3.9,3.9,0,1,0,3.9,3.9A3.9,3.9,0,0,0,79.3,301.5Z"/><path class="cls-1" d="M41.6,301.5a3.9,3.9,0,1,0,3.9,3.9A3.9,3.9,0,0,0,41.6,301.5Z"/><path class="cls-1" d="M3.9,301.5a3.9,3.9,0,1,0,3.9,3.9A3.9,3.9,0,0,0,3.9,301.5Z"/><path class="cls-1" d="M248.9,433.4a3.87,3.87,0,0,0-3.9,3.7v.2a3.9,3.9,0,0,0,7.8,0v-.2A3.94,3.94,0,0,0,248.9,433.4Z"/><path class="cls-1" d="M211.2,433.4a3.87,3.87,0,0,0-3.9,3.7v.2a3.9,3.9,0,0,0,7.8,0v-.2A3.94,3.94,0,0,0,211.2,433.4Z"/><path class="cls-1" d="M173.5,433.4a3.87,3.87,0,0,0-3.9,3.7v.2a3.9,3.9,0,0,0,7.8,0v-.2A3.94,3.94,0,0,0,173.5,433.4Z"/><path class="cls-1" d="M135.8,433.4h-.2a3.9,3.9,0,0,0-3.7,3.7v.2a3.87,3.87,0,0,0,3.7,3.9h.2a3.9,3.9,0,0,0,3.9-3.9v-.2A3.94,3.94,0,0,0,135.8,433.4Z"/><path class="cls-1" d="M267.7,414.6a3.9,3.9,0,1,0,3.9,3.9A3.84,3.84,0,0,0,267.7,414.6Z"/><path class="cls-1" d="M230,414.6a3.9,3.9,0,1,0,3.9,3.9A3.84,3.84,0,0,0,230,414.6Z"/><path class="cls-1" d="M192.3,414.6a3.9,3.9,0,1,0,3.9,3.9A3.84,3.84,0,0,0,192.3,414.6Z"/><path class="cls-1" d="M154.6,414.6a3.9,3.9,0,1,0,3.9,3.9A3.84,3.84,0,0,0,154.6,414.6Z"/><path class="cls-1" d="M248.9,395.7a3.9,3.9,0,1,0,3.9,3.9A4,4,0,0,0,248.9,395.7Z"/><path class="cls-1" d="M211.2,395.7a3.9,3.9,0,1,0,3.9,3.9A4,4,0,0,0,211.2,395.7Z"/><path class="cls-1" d="M173.5,395.7a3.9,3.9,0,1,0,3.9,3.9A4,4,0,0,0,173.5,395.7Z"/><path class="cls-1" d="M135.8,395.7h-.2a3.91,3.91,0,0,0,0,7.8h.2a3.9,3.9,0,0,0,3.9-3.9A4,4,0,0,0,135.8,395.7Z"/><path class="cls-1" d="M267.7,376.9a3.9,3.9,0,1,0,3.9,3.9A3.84,3.84,0,0,0,267.7,376.9Z"/><path class="cls-1" d="M230,376.9a3.9,3.9,0,1,0,3.9,3.9A3.84,3.84,0,0,0,230,376.9Z"/><path class="cls-1" d="M192.3,376.9a3.9,3.9,0,1,0,3.9,3.9A3.84,3.84,0,0,0,192.3,376.9Z"/><path class="cls-1" d="M154.6,376.9a3.9,3.9,0,1,0,3.9,3.9A3.84,3.84,0,0,0,154.6,376.9Z"/><path class="cls-1" d="M248.9,358a3.9,3.9,0,1,0,3.9,3.9A4,4,0,0,0,248.9,358Z"/><path class="cls-1" d="M211.2,358a3.9,3.9,0,1,0,3.9,3.9A4,4,0,0,0,211.2,358Z"/><path class="cls-1" d="M173.5,358a3.9,3.9,0,1,0,3.9,3.9A4,4,0,0,0,173.5,358Z"/><path class="cls-1" d="M135.8,358h-.2a3.91,3.91,0,0,0,0,7.8h.2a3.9,3.9,0,0,0,3.9-3.9A4,4,0,0,0,135.8,358Z"/><path class="cls-1" d="M267.7,339.2a3.9,3.9,0,1,0,3.9,3.9A3.84,3.84,0,0,0,267.7,339.2Z"/><path class="cls-1" d="M230,339.2a3.9,3.9,0,1,0,3.9,3.9A3.84,3.84,0,0,0,230,339.2Z"/><path class="cls-1" d="M192.3,339.2a3.9,3.9,0,1,0,3.9,3.9A3.84,3.84,0,0,0,192.3,339.2Z"/><path class="cls-1" d="M154.6,339.2a3.9,3.9,0,1,0,3.9,3.9A3.84,3.84,0,0,0,154.6,339.2Z"/><path class="cls-1" d="M248.9,320.3a3.9,3.9,0,1,0,3.9,3.9A4,4,0,0,0,248.9,320.3Z"/><path class="cls-1" d="M211.2,320.3a3.9,3.9,0,1,0,3.9,3.9A4,4,0,0,0,211.2,320.3Z"/><path class="cls-1" d="M173.5,320.3a3.9,3.9,0,1,0,3.9,3.9A4,4,0,0,0,173.5,320.3Z"/><path class="cls-1" d="M135.8,320.3h-.2a3.91,3.91,0,0,0,0,7.8h.2a3.9,3.9,0,0,0,3.9-3.9A4,4,0,0,0,135.8,320.3Z"/><path class="cls-1" d="M267.7,301.5a3.9,3.9,0,1,0,3.9,3.9A3.84,3.84,0,0,0,267.7,301.5Z"/><path class="cls-1" d="M230,301.5a3.9,3.9,0,1,0,3.9,3.9A3.84,3.84,0,0,0,230,301.5Z"/><path class="cls-1" d="M192.3,301.5a3.9,3.9,0,1,0,3.9,3.9A3.84,3.84,0,0,0,192.3,301.5Z"/><path class="cls-1" d="M154.6,301.5a3.9,3.9,0,1,0,3.9,3.9A3.84,3.84,0,0,0,154.6,301.5Z"/><path class="cls-1" d="M117,565.3a3.9,3.9,0,1,0,3.9,3.9A4,4,0,0,0,117,565.3Z"/><path class="cls-1" d="M79.3,565.3a3.9,3.9,0,1,0,3.9,3.9A4,4,0,0,0,79.3,565.3Z"/><path class="cls-1" d="M41.6,565.3a3.9,3.9,0,1,0,3.9,3.9A4,4,0,0,0,41.6,565.3Z"/><path class="cls-1" d="M3.9,565.3a3.9,3.9,0,1,0,3.9,3.9A4,4,0,0,0,3.9,565.3Z"/><path class="cls-1" d="M98.1,546.5a3.9,3.9,0,1,0,3.9,3.9A3.84,3.84,0,0,0,98.1,546.5Z"/><path class="cls-1" d="M60.4,546.5a3.9,3.9,0,1,0,3.9,3.9A3.84,3.84,0,0,0,60.4,546.5Z"/><path class="cls-1" d="M22.7,546.5a3.9,3.9,0,1,0,3.9,3.9A3.84,3.84,0,0,0,22.7,546.5Z"/><path class="cls-1" d="M117,527.6a3.9,3.9,0,1,0,3.9,3.9A4,4,0,0,0,117,527.6Z"/><path class="cls-1" d="M79.3,527.6a3.9,3.9,0,1,0,3.9,3.9A4,4,0,0,0,79.3,527.6Z"/><path class="cls-1" d="M41.6,527.6a3.9,3.9,0,1,0,3.9,3.9A4,4,0,0,0,41.6,527.6Z"/><path class="cls-1" d="M3.9,527.6a3.9,3.9,0,1,0,3.9,3.9A4,4,0,0,0,3.9,527.6Z"/><path class="cls-1" d="M98.1,508.8a3.9,3.9,0,1,0,3.9,3.9A3.84,3.84,0,0,0,98.1,508.8Z"/><path class="cls-1" d="M60.4,508.8a3.9,3.9,0,1,0,3.9,3.9A3.84,3.84,0,0,0,60.4,508.8Z"/><path class="cls-1" d="M22.7,508.8a3.9,3.9,0,1,0,3.9,3.9A3.84,3.84,0,0,0,22.7,508.8Z"/><path class="cls-1" d="M117,489.9a3.9,3.9,0,1,0,3.9,3.9A4,4,0,0,0,117,489.9Z"/><path class="cls-1" d="M79.3,489.9a3.9,3.9,0,1,0,3.9,3.9A4,4,0,0,0,79.3,489.9Z"/><path class="cls-1" d="M41.6,489.9a3.9,3.9,0,1,0,3.9,3.9A4,4,0,0,0,41.6,489.9Z"/><path class="cls-1" d="M3.9,489.9a3.9,3.9,0,1,0,3.9,3.9A4,4,0,0,0,3.9,489.9Z"/><path class="cls-1" d="M98.1,471.1A3.9,3.9,0,1,0,102,475,3.84,3.84,0,0,0,98.1,471.1Z"/><path class="cls-1" d="M60.4,471.1a3.9,3.9,0,1,0,3.9,3.9A3.84,3.84,0,0,0,60.4,471.1Z"/><path class="cls-1" d="M22.7,471.1a3.9,3.9,0,1,0,3.9,3.9A3.84,3.84,0,0,0,22.7,471.1Z"/><path class="cls-1" d="M117,452.3a3.9,3.9,0,1,0,3.9,3.9A4,4,0,0,0,117,452.3Z"/><path class="cls-1" d="M79.3,452.3a3.9,3.9,0,1,0,3.9,3.9A3.9,3.9,0,0,0,79.3,452.3Z"/><path class="cls-1" d="M41.6,452.3a3.9,3.9,0,1,0,3.9,3.9A3.9,3.9,0,0,0,41.6,452.3Z"/><path class="cls-1" d="M3.9,452.3a3.9,3.9,0,1,0,3.9,3.9A3.9,3.9,0,0,0,3.9,452.3Z"/><path class="cls-1" d="M267.7,565.3a3.9,3.9,0,1,0,3.9,3.9A3.9,3.9,0,0,0,267.7,565.3Z"/><path class="cls-1" d="M230,565.3a3.9,3.9,0,1,0,3.9,3.9A3.9,3.9,0,0,0,230,565.3Z"/><path class="cls-1" d="M192.3,565.3a3.9,3.9,0,1,0,3.9,3.9A3.9,3.9,0,0,0,192.3,565.3Z"/><path class="cls-1" d="M154.6,565.3a3.9,3.9,0,1,0,3.9,3.9A3.9,3.9,0,0,0,154.6,565.3Z"/><path class="cls-1" d="M248.9,546.5a3.9,3.9,0,1,0,3.9,3.9A3.9,3.9,0,0,0,248.9,546.5Z"/><path class="cls-1" d="M211.2,546.5a3.9,3.9,0,1,0,3.9,3.9A3.9,3.9,0,0,0,211.2,546.5Z"/><path class="cls-1" d="M173.5,546.5a3.9,3.9,0,1,0,3.9,3.9A3.9,3.9,0,0,0,173.5,546.5Z"/><path class="cls-1" d="M135.8,546.5h-.2a3.91,3.91,0,0,0,0,7.8h.2a3.9,3.9,0,1,0,0-7.8Z"/><path class="cls-1" d="M267.7,527.6a3.9,3.9,0,1,0,3.9,3.9A3.9,3.9,0,0,0,267.7,527.6Z"/><path class="cls-1" d="M230,527.6a3.9,3.9,0,1,0,3.9,3.9A3.9,3.9,0,0,0,230,527.6Z"/><path class="cls-1" d="M192.3,527.6a3.9,3.9,0,1,0,3.9,3.9A3.9,3.9,0,0,0,192.3,527.6Z"/><path class="cls-1" d="M154.6,527.6a3.9,3.9,0,1,0,3.9,3.9A3.9,3.9,0,0,0,154.6,527.6Z"/><path class="cls-1" d="M248.9,508.8a3.9,3.9,0,1,0,3.9,3.9A3.9,3.9,0,0,0,248.9,508.8Z"/><path class="cls-1" d="M211.2,508.8a3.9,3.9,0,1,0,3.9,3.9A3.9,3.9,0,0,0,211.2,508.8Z"/><path class="cls-1" d="M173.5,508.8a3.9,3.9,0,1,0,3.9,3.9A3.9,3.9,0,0,0,173.5,508.8Z"/><path class="cls-1" d="M135.8,508.8h-.2a3.91,3.91,0,0,0,0,7.8h.2a3.9,3.9,0,0,0,0-7.8Z"/><path class="cls-1" d="M267.7,489.9a3.9,3.9,0,1,0,3.9,3.9A3.9,3.9,0,0,0,267.7,489.9Z"/><path class="cls-1" d="M230,489.9a3.9,3.9,0,1,0,3.9,3.9A3.9,3.9,0,0,0,230,489.9Z"/><path class="cls-1" d="M192.3,489.9a3.9,3.9,0,1,0,3.9,3.9A3.9,3.9,0,0,0,192.3,489.9Z"/><path class="cls-1" d="M154.6,489.9a3.9,3.9,0,1,0,3.9,3.9A3.9,3.9,0,0,0,154.6,489.9Z"/><path class="cls-1" d="M248.9,471.1a3.9,3.9,0,1,0,3.9,3.9A3.9,3.9,0,0,0,248.9,471.1Z"/><path class="cls-1" d="M211.2,471.1a3.9,3.9,0,1,0,3.9,3.9A3.9,3.9,0,0,0,211.2,471.1Z"/><path class="cls-1" d="M173.5,471.1a3.9,3.9,0,1,0,3.9,3.9A3.9,3.9,0,0,0,173.5,471.1Z"/><path class="cls-1" d="M135.8,471.1h-.2a3.91,3.91,0,0,0,0,7.8h.2a3.9,3.9,0,0,0,0-7.8Z"/><path class="cls-1" d="M267.7,452.3a3.9,3.9,0,1,0,3.9,3.9A3.84,3.84,0,0,0,267.7,452.3Z"/><path class="cls-1" d="M230,452.3a3.9,3.9,0,1,0,3.9,3.9A3.84,3.84,0,0,0,230,452.3Z"/><path class="cls-1" d="M192.3,452.3a3.9,3.9,0,1,0,3.9,3.9A3.84,3.84,0,0,0,192.3,452.3Z"/><path class="cls-1" d="M154.6,452.3a3.9,3.9,0,1,0,3.9,3.9A3.84,3.84,0,0,0,154.6,452.3Z"/><path class="cls-1" d="M399.6,433.4a3.87,3.87,0,0,0-3.9,3.7v.2a3.9,3.9,0,1,0,7.8,0v-.2A3.94,3.94,0,0,0,399.6,433.4Z"/><path class="cls-1" d="M361.9,433.4a3.87,3.87,0,0,0-3.9,3.7v.2a3.9,3.9,0,0,0,7.8,0v-.2A3.94,3.94,0,0,0,361.9,433.4Z"/><path class="cls-1" d="M324.3,433.4a3.87,3.87,0,0,0-3.9,3.7v.2a3.9,3.9,0,1,0,7.8,0v-.2A4.09,4.09,0,0,0,324.3,433.4Z"/><path class="cls-1" d="M286.6,433.4h-.2a3.9,3.9,0,0,0-3.7,3.7v.2a3.87,3.87,0,0,0,3.7,3.9h.2a3.9,3.9,0,0,0,3.9-3.9v-.2A3.94,3.94,0,0,0,286.6,433.4Z"/><path class="cls-1" d="M418.5,414.6a3.9,3.9,0,1,0,3.9,3.9A3.9,3.9,0,0,0,418.5,414.6Z"/><path class="cls-1" d="M380.8,414.6a3.9,3.9,0,1,0,3.9,3.9A3.9,3.9,0,0,0,380.8,414.6Z"/><path class="cls-1" d="M343.1,414.6a3.9,3.9,0,1,0,3.9,3.9A3.9,3.9,0,0,0,343.1,414.6Z"/><path class="cls-1" d="M305.4,414.6a3.9,3.9,0,1,0,3.9,3.9A3.84,3.84,0,0,0,305.4,414.6Z"/><path class="cls-1" d="M399.6,395.7a3.9,3.9,0,1,0,3.9,3.9A3.9,3.9,0,0,0,399.6,395.7Z"/><path class="cls-1" d="M361.9,395.7a3.9,3.9,0,1,0,3.9,3.9A3.9,3.9,0,0,0,361.9,395.7Z"/><path class="cls-1" d="M324.3,395.7a3.9,3.9,0,1,0,3.9,3.9A4,4,0,0,0,324.3,395.7Z"/><path class="cls-1" d="M286.6,395.7h-.2a3.91,3.91,0,0,0,0,7.8h.2a3.9,3.9,0,0,0,3.9-3.9A4,4,0,0,0,286.6,395.7Z"/><path class="cls-1" d="M418.5,376.9a3.9,3.9,0,1,0,3.9,3.9A3.9,3.9,0,0,0,418.5,376.9Z"/><path class="cls-1" d="M380.8,376.9a3.9,3.9,0,1,0,3.9,3.9A3.9,3.9,0,0,0,380.8,376.9Z"/><path class="cls-1" d="M343.1,376.9a3.9,3.9,0,1,0,3.9,3.9A3.9,3.9,0,0,0,343.1,376.9Z"/><path class="cls-1" d="M305.4,376.9a3.9,3.9,0,1,0,3.9,3.9A3.84,3.84,0,0,0,305.4,376.9Z"/><path class="cls-1" d="M399.6,358a3.9,3.9,0,1,0,3.9,3.9A3.9,3.9,0,0,0,399.6,358Z"/><path class="cls-1" d="M361.9,358a3.9,3.9,0,1,0,3.9,3.9A3.9,3.9,0,0,0,361.9,358Z"/><path class="cls-1" d="M324.3,358a3.9,3.9,0,1,0,3.9,3.9A4,4,0,0,0,324.3,358Z"/><path class="cls-1" d="M286.6,358h-.2a3.91,3.91,0,0,0,0,7.8h.2a3.9,3.9,0,0,0,3.9-3.9A4,4,0,0,0,286.6,358Z"/><path class="cls-1" d="M418.5,339.2a3.9,3.9,0,1,0,3.9,3.9A3.9,3.9,0,0,0,418.5,339.2Z"/><path class="cls-1" d="M380.8,339.2a3.9,3.9,0,1,0,3.9,3.9A3.9,3.9,0,0,0,380.8,339.2Z"/><path class="cls-1" d="M343.1,339.2a3.9,3.9,0,1,0,3.9,3.9A3.9,3.9,0,0,0,343.1,339.2Z"/><path class="cls-1" d="M305.4,339.2a3.9,3.9,0,1,0,3.9,3.9A3.84,3.84,0,0,0,305.4,339.2Z"/><path class="cls-1" d="M399.6,320.3a3.9,3.9,0,1,0,3.9,3.9A3.9,3.9,0,0,0,399.6,320.3Z"/><path class="cls-1" d="M361.9,320.3a3.9,3.9,0,1,0,3.9,3.9A3.9,3.9,0,0,0,361.9,320.3Z"/><path class="cls-1" d="M324.3,320.3a3.9,3.9,0,1,0,3.9,3.9A4,4,0,0,0,324.3,320.3Z"/><path class="cls-1" d="M286.6,320.3h-.2a3.91,3.91,0,0,0,0,7.8h.2a3.9,3.9,0,0,0,3.9-3.9A4,4,0,0,0,286.6,320.3Z"/><path class="cls-1" d="M418.5,301.5a3.9,3.9,0,1,0,3.9,3.9A3.9,3.9,0,0,0,418.5,301.5Z"/><path class="cls-1" d="M380.8,301.5a3.9,3.9,0,1,0,3.9,3.9A3.9,3.9,0,0,0,380.8,301.5Z"/><path class="cls-1" d="M343.1,301.5a3.9,3.9,0,1,0,3.9,3.9A3.9,3.9,0,0,0,343.1,301.5Z"/><path class="cls-1" d="M305.4,301.5a3.9,3.9,0,1,0,3.9,3.9A3.84,3.84,0,0,0,305.4,301.5Z"/><path class="cls-1" d="M550.4,433.4a3.87,3.87,0,0,0-3.9,3.7v.2a3.9,3.9,0,1,0,7.8,0v-.2A3.94,3.94,0,0,0,550.4,433.4Z"/><path class="cls-1" d="M512.7,433.4a3.87,3.87,0,0,0-3.9,3.7v.2a3.9,3.9,0,1,0,7.8,0v-.2A3.94,3.94,0,0,0,512.7,433.4Z"/><path class="cls-1" d="M475,433.4a3.87,3.87,0,0,0-3.9,3.7v.2a3.9,3.9,0,0,0,7.8,0v-.2A3.94,3.94,0,0,0,475,433.4Z"/><path class="cls-1" d="M437.3,433.4h-.2a3.9,3.9,0,0,0-3.7,3.7v.2a3.87,3.87,0,0,0,3.7,3.9h.2a3.9,3.9,0,0,0,3.9-3.9v-.2A3.94,3.94,0,0,0,437.3,433.4Z"/><path class="cls-1" d="M569.2,414.6a3.9,3.9,0,1,0,3.9,3.9A3.84,3.84,0,0,0,569.2,414.6Z"/><path class="cls-1" d="M531.6,414.6a3.9,3.9,0,1,0,3.9,3.9A4,4,0,0,0,531.6,414.6Z"/><path class="cls-1" d="M493.9,414.6a3.9,3.9,0,1,0,3.9,3.9A3.9,3.9,0,0,0,493.9,414.6Z"/><path class="cls-1" d="M456.2,414.6a3.9,3.9,0,1,0,3.9,3.9A3.9,3.9,0,0,0,456.2,414.6Z"/><path class="cls-1" d="M550.4,395.7a3.9,3.9,0,1,0,3.9,3.9A4,4,0,0,0,550.4,395.7Z"/><path class="cls-1" d="M512.7,395.7a3.9,3.9,0,1,0,3.9,3.9A3.9,3.9,0,0,0,512.7,395.7Z"/><path class="cls-1" d="M475,395.7a3.9,3.9,0,1,0,3.9,3.9A3.9,3.9,0,0,0,475,395.7Z"/><path class="cls-1" d="M437.3,395.7h-.2a3.91,3.91,0,0,0,0,7.8h.2a3.9,3.9,0,0,0,0-7.8Z"/><path class="cls-1" d="M569.2,376.9a3.9,3.9,0,1,0,3.9,3.9A3.84,3.84,0,0,0,569.2,376.9Z"/><path class="cls-1" d="M531.6,376.9a3.9,3.9,0,1,0,3.9,3.9A4,4,0,0,0,531.6,376.9Z"/><path class="cls-1" d="M493.9,376.9a3.9,3.9,0,1,0,3.9,3.9A3.9,3.9,0,0,0,493.9,376.9Z"/><path class="cls-1" d="M456.2,376.9a3.9,3.9,0,1,0,3.9,3.9A3.9,3.9,0,0,0,456.2,376.9Z"/><path class="cls-1" d="M550.4,358a3.9,3.9,0,1,0,3.9,3.9A4,4,0,0,0,550.4,358Z"/><path class="cls-1" d="M512.7,358a3.9,3.9,0,1,0,3.9,3.9A3.9,3.9,0,0,0,512.7,358Z"/><path class="cls-1" d="M475,358a3.9,3.9,0,1,0,3.9,3.9A3.9,3.9,0,0,0,475,358Z"/><path class="cls-1" d="M437.3,358h-.2a3.91,3.91,0,0,0,0,7.8h.2a3.9,3.9,0,0,0,0-7.8Z"/><path class="cls-1" d="M569.2,339.2a3.9,3.9,0,1,0,3.9,3.9A3.84,3.84,0,0,0,569.2,339.2Z"/><path class="cls-1" d="M531.6,339.2a3.9,3.9,0,1,0,3.9,3.9A4,4,0,0,0,531.6,339.2Z"/><path class="cls-1" d="M493.9,339.2a3.9,3.9,0,1,0,3.9,3.9A3.9,3.9,0,0,0,493.9,339.2Z"/><path class="cls-1" d="M456.2,339.2a3.9,3.9,0,1,0,3.9,3.9A3.9,3.9,0,0,0,456.2,339.2Z"/><path class="cls-1" d="M550.4,320.3a3.9,3.9,0,1,0,3.9,3.9A4,4,0,0,0,550.4,320.3Z"/><path class="cls-1" d="M512.7,320.3a3.9,3.9,0,1,0,3.9,3.9A3.9,3.9,0,0,0,512.7,320.3Z"/><path class="cls-1" d="M475,320.3a3.9,3.9,0,1,0,3.9,3.9A3.9,3.9,0,0,0,475,320.3Z"/><path class="cls-1" d="M437.3,320.3h-.2a3.91,3.91,0,0,0,0,7.8h.2a3.9,3.9,0,0,0,0-7.8Z"/><path class="cls-1" d="M569.2,301.5a3.9,3.9,0,1,0,3.9,3.9A3.84,3.84,0,0,0,569.2,301.5Z"/><path class="cls-1" d="M531.6,301.5a3.9,3.9,0,1,0,3.9,3.9A4,4,0,0,0,531.6,301.5Z"/><path class="cls-1" d="M493.9,301.5a3.9,3.9,0,1,0,3.9,3.9A3.9,3.9,0,0,0,493.9,301.5Z"/><path class="cls-1" d="M456.2,301.5a3.9,3.9,0,1,0,3.9,3.9A3.9,3.9,0,0,0,456.2,301.5Z"/><path class="cls-1" d="M418.5,565.3a3.9,3.9,0,1,0,3.9,3.9A4,4,0,0,0,418.5,565.3Z"/><path class="cls-1" d="M380.8,565.3a3.9,3.9,0,1,0,3.9,3.9A4,4,0,0,0,380.8,565.3Z"/><path class="cls-1" d="M343.1,565.3a3.9,3.9,0,1,0,3.9,3.9A4,4,0,0,0,343.1,565.3Z"/><path class="cls-1" d="M305.4,565.3a3.9,3.9,0,1,0,3.9,3.9A3.9,3.9,0,0,0,305.4,565.3Z"/><path class="cls-1" d="M399.6,546.5a3.9,3.9,0,1,0,3.9,3.9A3.84,3.84,0,0,0,399.6,546.5Z"/><path class="cls-1" d="M361.9,546.5a3.9,3.9,0,1,0,3.9,3.9A3.84,3.84,0,0,0,361.9,546.5Z"/><path class="cls-1" d="M324.3,546.5a3.9,3.9,0,1,0,3.9,3.9A4,4,0,0,0,324.3,546.5Z"/><path class="cls-1" d="M286.6,546.5h-.2a3.91,3.91,0,0,0,0,7.8h.2a3.9,3.9,0,0,0,0-7.8Z"/><path class="cls-1" d="M418.5,527.6a3.9,3.9,0,1,0,3.9,3.9A4,4,0,0,0,418.5,527.6Z"/><path class="cls-1" d="M380.8,527.6a3.9,3.9,0,1,0,3.9,3.9A4,4,0,0,0,380.8,527.6Z"/><path class="cls-1" d="M343.1,527.6a3.9,3.9,0,1,0,3.9,3.9A4,4,0,0,0,343.1,527.6Z"/><path class="cls-1" d="M305.4,527.6a3.9,3.9,0,1,0,3.9,3.9A3.9,3.9,0,0,0,305.4,527.6Z"/><path class="cls-1" d="M399.6,508.8a3.9,3.9,0,1,0,3.9,3.9A3.84,3.84,0,0,0,399.6,508.8Z"/><path class="cls-1" d="M361.9,508.8a3.9,3.9,0,1,0,3.9,3.9A3.84,3.84,0,0,0,361.9,508.8Z"/><path class="cls-1" d="M324.3,508.8a3.9,3.9,0,1,0,3.9,3.9A4,4,0,0,0,324.3,508.8Z"/><path class="cls-1" d="M286.6,508.8h-.2a3.91,3.91,0,0,0,0,7.8h.2a3.9,3.9,0,0,0,0-7.8Z"/><path class="cls-1" d="M418.5,489.9a3.9,3.9,0,1,0,3.9,3.9A4,4,0,0,0,418.5,489.9Z"/><path class="cls-1" d="M380.8,489.9a3.9,3.9,0,1,0,3.9,3.9A4,4,0,0,0,380.8,489.9Z"/><path class="cls-1" d="M343.1,489.9a3.9,3.9,0,1,0,3.9,3.9A4,4,0,0,0,343.1,489.9Z"/><path class="cls-1" d="M305.4,489.9a3.9,3.9,0,1,0,3.9,3.9A3.9,3.9,0,0,0,305.4,489.9Z"/><path class="cls-1" d="M399.6,471.1a3.9,3.9,0,1,0,3.9,3.9A3.84,3.84,0,0,0,399.6,471.1Z"/><path class="cls-1" d="M361.9,471.1a3.9,3.9,0,1,0,3.9,3.9A3.84,3.84,0,0,0,361.9,471.1Z"/><path class="cls-1" d="M324.3,471.1a3.9,3.9,0,1,0,3.9,3.9A4,4,0,0,0,324.3,471.1Z"/><path class="cls-1" d="M286.6,471.1h-.2a3.91,3.91,0,0,0,0,7.8h.2a3.9,3.9,0,0,0,0-7.8Z"/><path class="cls-1" d="M418.5,452.3a3.9,3.9,0,1,0,3.9,3.9A3.9,3.9,0,0,0,418.5,452.3Z"/><path class="cls-1" d="M380.8,452.3a3.9,3.9,0,1,0,3.9,3.9A3.9,3.9,0,0,0,380.8,452.3Z"/><path class="cls-1" d="M343.1,452.3a3.9,3.9,0,1,0,3.9,3.9A3.9,3.9,0,0,0,343.1,452.3Z"/><path class="cls-1" d="M305.4,452.3a3.9,3.9,0,1,0,3.9,3.9A3.84,3.84,0,0,0,305.4,452.3Z"/><path class="cls-1" d="M569.2,565.3a3.9,3.9,0,1,0,3.9,3.9A3.9,3.9,0,0,0,569.2,565.3Z"/><path class="cls-1" d="M531.6,565.3a3.9,3.9,0,1,0,3.9,3.9A4,4,0,0,0,531.6,565.3Z"/><path class="cls-1" d="M493.9,565.3a3.9,3.9,0,1,0,3.9,3.9A4,4,0,0,0,493.9,565.3Z"/><path class="cls-1" d="M456.2,565.3a3.9,3.9,0,1,0,3.9,3.9A4,4,0,0,0,456.2,565.3Z"/><path class="cls-1" d="M550.4,546.5a3.9,3.9,0,1,0,3.9,3.9A3.9,3.9,0,0,0,550.4,546.5Z"/><path class="cls-1" d="M512.7,546.5a3.9,3.9,0,1,0,3.9,3.9A3.84,3.84,0,0,0,512.7,546.5Z"/><path class="cls-1" d="M475,546.5a3.9,3.9,0,1,0,3.9,3.9A3.84,3.84,0,0,0,475,546.5Z"/><path class="cls-1" d="M437.3,546.5h-.2a3.91,3.91,0,0,0,0,7.8h.2a3.9,3.9,0,0,0,3.9-3.9A3.84,3.84,0,0,0,437.3,546.5Z"/><path class="cls-1" d="M569.2,527.6a3.9,3.9,0,1,0,3.9,3.9A3.9,3.9,0,0,0,569.2,527.6Z"/><path class="cls-1" d="M531.6,527.6a3.9,3.9,0,1,0,3.9,3.9A4,4,0,0,0,531.6,527.6Z"/><path class="cls-1" d="M493.9,527.6a3.9,3.9,0,1,0,3.9,3.9A4,4,0,0,0,493.9,527.6Z"/><path class="cls-1" d="M456.2,527.6a3.9,3.9,0,1,0,3.9,3.9A4,4,0,0,0,456.2,527.6Z"/><path class="cls-1" d="M550.4,508.8a3.9,3.9,0,1,0,3.9,3.9A3.9,3.9,0,0,0,550.4,508.8Z"/><path class="cls-1" d="M512.7,508.8a3.9,3.9,0,1,0,3.9,3.9A3.84,3.84,0,0,0,512.7,508.8Z"/><path class="cls-1" d="M475,508.8a3.9,3.9,0,1,0,3.9,3.9A3.84,3.84,0,0,0,475,508.8Z"/><path class="cls-1" d="M437.3,508.8h-.2a3.91,3.91,0,0,0,0,7.8h.2a3.9,3.9,0,0,0,3.9-3.9A3.84,3.84,0,0,0,437.3,508.8Z"/><path class="cls-1" d="M569.2,489.9a3.9,3.9,0,1,0,3.9,3.9A3.9,3.9,0,0,0,569.2,489.9Z"/><path class="cls-1" d="M531.6,489.9a3.9,3.9,0,1,0,3.9,3.9A4,4,0,0,0,531.6,489.9Z"/><path class="cls-1" d="M493.9,489.9a3.9,3.9,0,1,0,3.9,3.9A4,4,0,0,0,493.9,489.9Z"/><path class="cls-1" d="M456.2,489.9a3.9,3.9,0,1,0,3.9,3.9A4,4,0,0,0,456.2,489.9Z"/><path class="cls-1" d="M550.4,471.1a3.9,3.9,0,1,0,3.9,3.9A3.9,3.9,0,0,0,550.4,471.1Z"/><path class="cls-1" d="M512.7,471.1a3.9,3.9,0,1,0,3.9,3.9A3.84,3.84,0,0,0,512.7,471.1Z"/><path class="cls-1" d="M475,471.1a3.9,3.9,0,1,0,3.9,3.9A3.84,3.84,0,0,0,475,471.1Z"/><path class="cls-1" d="M437.3,471.1h-.2a3.91,3.91,0,0,0,0,7.8h.2a3.9,3.9,0,0,0,3.9-3.9A3.84,3.84,0,0,0,437.3,471.1Z"/><path class="cls-1" d="M569.2,452.3a3.9,3.9,0,1,0,3.9,3.9A3.84,3.84,0,0,0,569.2,452.3Z"/><path class="cls-1" d="M531.6,452.3a3.9,3.9,0,1,0,3.9,3.9A4,4,0,0,0,531.6,452.3Z"/><path class="cls-1" d="M493.9,452.3a3.9,3.9,0,1,0,3.9,3.9A3.9,3.9,0,0,0,493.9,452.3Z"/><path class="cls-1" d="M456.2,452.3a3.9,3.9,0,1,0,3.9,3.9A3.9,3.9,0,0,0,456.2,452.3Z"/><path class="cls-1" d="M663.35,131.9a3.87,3.87,0,0,0-3.9,3.7v.2a3.9,3.9,0,1,0,7.8,0v-.2A3.87,3.87,0,0,0,663.35,131.9Z"/><path class="cls-1" d="M625.65,131.9a3.87,3.87,0,0,0-3.9,3.7v.2a3.9,3.9,0,1,0,7.8,0v-.2A3.87,3.87,0,0,0,625.65,131.9Z"/><path class="cls-1" d="M588,131.9a3.87,3.87,0,0,0-3.9,3.7v.2a3.9,3.9,0,1,0,7.8,0v-.2A3.87,3.87,0,0,0,588,131.9Z"/><path class="cls-1" d="M682.25,113a3.9,3.9,0,1,0,3.9,3.9A4,4,0,0,0,682.25,113Z"/><path class="cls-1" d="M644.55,113a3.9,3.9,0,1,0,3.9,3.9A4,4,0,0,0,644.55,113Z"/><path class="cls-1" d="M606.85,113a3.9,3.9,0,1,0,3.9,3.9A4,4,0,0,0,606.85,113Z"/><path class="cls-1" d="M569.15,113a3.9,3.9,0,1,0,3.9,3.9A4,4,0,0,0,569.15,113Z"/><path class="cls-1" d="M663.35,94.2a3.9,3.9,0,1,0,3.9,3.9A3.84,3.84,0,0,0,663.35,94.2Z"/><path class="cls-1" d="M625.65,94.2a3.9,3.9,0,1,0,3.9,3.9A3.84,3.84,0,0,0,625.65,94.2Z"/><path class="cls-1" d="M588,94.2a3.9,3.9,0,1,0,3.9,3.9A3.84,3.84,0,0,0,588,94.2Z"/><path class="cls-1" d="M682.25,75.3a3.9,3.9,0,1,0,3.9,3.9A4,4,0,0,0,682.25,75.3Z"/><path class="cls-1" d="M644.55,75.3a3.9,3.9,0,1,0,3.9,3.9A4,4,0,0,0,644.55,75.3Z"/><path class="cls-1" d="M606.85,75.3a3.9,3.9,0,1,0,3.9,3.9A4,4,0,0,0,606.85,75.3Z"/><path class="cls-1" d="M569.15,75.3a3.9,3.9,0,1,0,3.9,3.9A4,4,0,0,0,569.15,75.3Z"/><path class="cls-1" d="M663.35,56.5a3.9,3.9,0,1,0,3.9,3.9A3.84,3.84,0,0,0,663.35,56.5Z"/><path class="cls-1" d="M625.65,56.5a3.9,3.9,0,1,0,3.9,3.9A3.84,3.84,0,0,0,625.65,56.5Z"/><path class="cls-1" d="M588,56.5a3.9,3.9,0,1,0,3.9,3.9A3.84,3.84,0,0,0,588,56.5Z"/><path class="cls-1" d="M682.25,37.7a3.9,3.9,0,1,0,3.9,3.9A4,4,0,0,0,682.25,37.7Z"/><path class="cls-1" d="M644.55,37.7a3.9,3.9,0,1,0,3.9,3.9A3.9,3.9,0,0,0,644.55,37.7Z"/><path class="cls-1" d="M606.85,37.7a3.9,3.9,0,1,0,3.9,3.9A3.9,3.9,0,0,0,606.85,37.7Z"/><path class="cls-1" d="M569.15,37.7a3.9,3.9,0,1,0,3.9,3.9A3.9,3.9,0,0,0,569.15,37.7Z"/><path class="cls-1" d="M663.35,18.8a3.9,3.9,0,1,0,3.9,3.9A3.9,3.9,0,0,0,663.35,18.8Z"/><path class="cls-1" d="M625.65,18.8a3.9,3.9,0,1,0,3.9,3.9A3.9,3.9,0,0,0,625.65,18.8Z"/><path class="cls-1" d="M588,18.8a3.9,3.9,0,1,0,3.9,3.9A3.9,3.9,0,0,0,588,18.8Z"/><path class="cls-1" d="M682.25,0a3.9,3.9,0,1,0,3.9,3.9A4,4,0,0,0,682.25,0Z"/><path class="cls-1" d="M644.55,0a3.9,3.9,0,1,0,3.9,3.9A3.9,3.9,0,0,0,644.55,0Z"/><path class="cls-1" d="M606.85,0a3.9,3.9,0,1,0,3.9,3.9A3.9,3.9,0,0,0,606.85,0Z"/><path class="cls-1" d="M569.15,0a3.9,3.9,0,1,0,3.9,3.9A3.9,3.9,0,0,0,569.15,0Z"/><path class="cls-1" d="M814.15,131.9a3.87,3.87,0,0,0-3.9,3.7v.2a3.9,3.9,0,1,0,7.8,0v-.2A3.87,3.87,0,0,0,814.15,131.9Z"/><path class="cls-1" d="M776.45,131.9a3.87,3.87,0,0,0-3.9,3.7v.2a3.9,3.9,0,1,0,7.8,0v-.2A3.87,3.87,0,0,0,776.45,131.9Z"/><path class="cls-1" d="M738.75,131.9a3.87,3.87,0,0,0-3.9,3.7v.2a3.9,3.9,0,0,0,7.8,0v-.2A3.87,3.87,0,0,0,738.75,131.9Z"/><path class="cls-1" d="M701.05,131.9h-.2a3.9,3.9,0,0,0-3.7,3.7v.2a3.87,3.87,0,0,0,3.7,3.9h.2a3.9,3.9,0,0,0,3.9-3.9v-.2A3.87,3.87,0,0,0,701.05,131.9Z"/><path class="cls-1" d="M833,113a3.9,3.9,0,1,0,3.9,3.9A3.9,3.9,0,0,0,833,113Z"/><path class="cls-1" d="M795.25,113a3.9,3.9,0,1,0,3.9,3.9A3.9,3.9,0,0,0,795.25,113Z"/><path class="cls-1" d="M757.55,113a3.9,3.9,0,1,0,3.9,3.9A3.9,3.9,0,0,0,757.55,113Z"/><path class="cls-1" d="M719.85,113a3.9,3.9,0,1,0,3.9,3.9A3.9,3.9,0,0,0,719.85,113Z"/><path class="cls-1" d="M814.15,94.2a3.9,3.9,0,1,0,3.9,3.9A3.9,3.9,0,0,0,814.15,94.2Z"/><path class="cls-1" d="M776.45,94.2a3.9,3.9,0,1,0,3.9,3.9A3.9,3.9,0,0,0,776.45,94.2Z"/><path class="cls-1" d="M738.75,94.2a3.9,3.9,0,1,0,3.9,3.9A3.9,3.9,0,0,0,738.75,94.2Z"/><path class="cls-1" d="M701.05,94.2h-.2a3.91,3.91,0,0,0,0,7.8h.2a3.9,3.9,0,1,0,0-7.8Z"/><path class="cls-1" d="M833,75.3a3.9,3.9,0,1,0,3.9,3.9A3.9,3.9,0,0,0,833,75.3Z"/><path class="cls-1" d="M795.25,75.3a3.9,3.9,0,1,0,3.9,3.9A3.9,3.9,0,0,0,795.25,75.3Z"/><path class="cls-1" d="M757.55,75.3a3.9,3.9,0,1,0,3.9,3.9A3.9,3.9,0,0,0,757.55,75.3Z"/><path class="cls-1" d="M719.85,75.3a3.9,3.9,0,1,0,3.9,3.9A3.9,3.9,0,0,0,719.85,75.3Z"/><path class="cls-1" d="M814.15,56.5a3.9,3.9,0,1,0,3.9,3.9A3.9,3.9,0,0,0,814.15,56.5Z"/><path class="cls-1" d="M776.45,56.5a3.9,3.9,0,1,0,3.9,3.9A3.9,3.9,0,0,0,776.45,56.5Z"/><path class="cls-1" d="M738.75,56.5a3.9,3.9,0,1,0,3.9,3.9A3.9,3.9,0,0,0,738.75,56.5Z"/><path class="cls-1" d="M701.05,56.5h-.2a3.91,3.91,0,0,0,0,7.8h.2a3.9,3.9,0,1,0,0-7.8Z"/><path class="cls-1" d="M833,37.7a3.9,3.9,0,1,0,3.9,3.9A3.84,3.84,0,0,0,833,37.7Z"/><path class="cls-1" d="M795.25,37.7a3.9,3.9,0,1,0,3.9,3.9A3.84,3.84,0,0,0,795.25,37.7Z"/><path class="cls-1" d="M757.55,37.7a3.9,3.9,0,1,0,3.9,3.9A3.84,3.84,0,0,0,757.55,37.7Z"/><path class="cls-1" d="M719.85,37.7a3.9,3.9,0,1,0,3.9,3.9A3.84,3.84,0,0,0,719.85,37.7Z"/><path class="cls-1" d="M814.15,18.8a3.9,3.9,0,1,0,3.9,3.9A4,4,0,0,0,814.15,18.8Z"/><path class="cls-1" d="M776.45,18.8a3.9,3.9,0,1,0,3.9,3.9A4,4,0,0,0,776.45,18.8Z"/><path class="cls-1" d="M738.75,18.8a3.9,3.9,0,1,0,3.9,3.9A4,4,0,0,0,738.75,18.8Z"/><path class="cls-1" d="M701.05,18.8h-.2a3.91,3.91,0,0,0,0,7.8h.2a3.9,3.9,0,0,0,3.9-3.9A4,4,0,0,0,701.05,18.8Z"/><path class="cls-1" d="M833,0a3.9,3.9,0,1,0,3.9,3.9A3.84,3.84,0,0,0,833,0Z"/><path class="cls-1" d="M795.25,0a3.9,3.9,0,1,0,3.9,3.9A3.84,3.84,0,0,0,795.25,0Z"/><path class="cls-1" d="M757.55,0a3.9,3.9,0,1,0,3.9,3.9A3.84,3.84,0,0,0,757.55,0Z"/><path class="cls-1" d="M719.85,0a3.9,3.9,0,1,0,3.9,3.9A3.84,3.84,0,0,0,719.85,0Z"/><path class="cls-1" d="M663.35,282.6a3.87,3.87,0,0,0-3.9,3.7v.2a3.9,3.9,0,1,0,7.8,0v-.2A3.94,3.94,0,0,0,663.35,282.6Z"/><path class="cls-1" d="M625.65,282.6a3.87,3.87,0,0,0-3.9,3.7v.2a3.9,3.9,0,1,0,7.8,0v-.2A3.94,3.94,0,0,0,625.65,282.6Z"/><path class="cls-1" d="M588,282.6a3.87,3.87,0,0,0-3.9,3.7v.2a3.9,3.9,0,1,0,7.8,0v-.2A3.94,3.94,0,0,0,588,282.6Z"/><path class="cls-1" d="M682.25,263.8a3.9,3.9,0,1,0,3.9,3.9A4,4,0,0,0,682.25,263.8Z"/><path class="cls-1" d="M644.55,263.8a3.9,3.9,0,1,0,3.9,3.9A3.9,3.9,0,0,0,644.55,263.8Z"/><path class="cls-1" d="M606.85,263.8a3.9,3.9,0,1,0,3.9,3.9A3.9,3.9,0,0,0,606.85,263.8Z"/><path class="cls-1" d="M569.15,263.8a3.9,3.9,0,1,0,3.9,3.9A3.9,3.9,0,0,0,569.15,263.8Z"/><path class="cls-1" d="M663.35,245a3.9,3.9,0,1,0,3.9,3.9A3.84,3.84,0,0,0,663.35,245Z"/><path class="cls-1" d="M625.65,245a3.9,3.9,0,1,0,3.9,3.9A3.84,3.84,0,0,0,625.65,245Z"/><path class="cls-1" d="M588,245a3.9,3.9,0,1,0,3.9,3.9A3.84,3.84,0,0,0,588,245Z"/><path class="cls-1" d="M682.25,226.1a3.9,3.9,0,1,0,3.9,3.9A4,4,0,0,0,682.25,226.1Z"/><path class="cls-1" d="M644.55,226.1a3.9,3.9,0,1,0,3.9,3.9A4,4,0,0,0,644.55,226.1Z"/><path class="cls-1" d="M606.85,226.1a3.9,3.9,0,1,0,3.9,3.9A4,4,0,0,0,606.85,226.1Z"/><path class="cls-1" d="M569.15,226.1a3.9,3.9,0,1,0,3.9,3.9A4,4,0,0,0,569.15,226.1Z"/><path class="cls-1" d="M663.35,207.3a3.9,3.9,0,1,0,3.9,3.9A3.84,3.84,0,0,0,663.35,207.3Z"/><path class="cls-1" d="M625.65,207.3a3.9,3.9,0,1,0,3.9,3.9A3.84,3.84,0,0,0,625.65,207.3Z"/><path class="cls-1" d="M588,207.3a3.9,3.9,0,1,0,3.9,3.9A3.84,3.84,0,0,0,588,207.3Z"/><path class="cls-1" d="M682.25,188.4a3.9,3.9,0,1,0,3.9,3.9A4,4,0,0,0,682.25,188.4Z"/><path class="cls-1" d="M644.55,188.4a3.9,3.9,0,1,0,3.9,3.9A4,4,0,0,0,644.55,188.4Z"/><path class="cls-1" d="M606.85,188.4a3.9,3.9,0,1,0,3.9,3.9A4,4,0,0,0,606.85,188.4Z"/><path class="cls-1" d="M569.15,188.4a3.9,3.9,0,1,0,3.9,3.9A4,4,0,0,0,569.15,188.4Z"/><path class="cls-1" d="M663.35,169.6a3.9,3.9,0,1,0,3.9,3.9A3.84,3.84,0,0,0,663.35,169.6Z"/><path class="cls-1" d="M625.65,169.6a3.9,3.9,0,1,0,3.9,3.9A3.84,3.84,0,0,0,625.65,169.6Z"/><path class="cls-1" d="M588,169.6a3.9,3.9,0,1,0,3.9,3.9A3.84,3.84,0,0,0,588,169.6Z"/><path class="cls-1" d="M682.25,150.7a3.9,3.9,0,1,0,3.9,3.9A4,4,0,0,0,682.25,150.7Z"/><path class="cls-1" d="M644.55,150.7a3.9,3.9,0,1,0,3.9,3.9A4,4,0,0,0,644.55,150.7Z"/><path class="cls-1" d="M606.85,150.7a3.9,3.9,0,1,0,3.9,3.9A4,4,0,0,0,606.85,150.7Z"/><path class="cls-1" d="M569.15,150.7a3.9,3.9,0,1,0,3.9,3.9A4,4,0,0,0,569.15,150.7Z"/><path class="cls-1" d="M814.15,282.6a3.87,3.87,0,0,0-3.9,3.7v.2a3.9,3.9,0,1,0,7.8,0v-.2A3.94,3.94,0,0,0,814.15,282.6Z"/><path class="cls-1" d="M776.45,282.6a3.87,3.87,0,0,0-3.9,3.7v.2a3.9,3.9,0,1,0,7.8,0v-.2A3.94,3.94,0,0,0,776.45,282.6Z"/><path class="cls-1" d="M738.75,282.6a3.87,3.87,0,0,0-3.9,3.7v.2a3.9,3.9,0,0,0,7.8,0v-.2A3.94,3.94,0,0,0,738.75,282.6Z"/><path class="cls-1" d="M701.05,282.6h-.2a3.9,3.9,0,0,0-3.7,3.7v.2a3.87,3.87,0,0,0,3.7,3.9h.2a3.9,3.9,0,0,0,3.9-3.9v-.2A3.94,3.94,0,0,0,701.05,282.6Z"/><path class="cls-1" d="M833,263.8a3.9,3.9,0,1,0,3.9,3.9A3.84,3.84,0,0,0,833,263.8Z"/><path class="cls-1" d="M795.25,263.8a3.9,3.9,0,1,0,3.9,3.9A3.84,3.84,0,0,0,795.25,263.8Z"/><path class="cls-1" d="M757.55,263.8a3.9,3.9,0,1,0,3.9,3.9A3.84,3.84,0,0,0,757.55,263.8Z"/><path class="cls-1" d="M719.85,263.8a3.9,3.9,0,1,0,3.9,3.9A3.84,3.84,0,0,0,719.85,263.8Z"/><path class="cls-1" d="M814.15,245a3.9,3.9,0,1,0,3.9,3.9A3.9,3.9,0,0,0,814.15,245Z"/><path class="cls-1" d="M776.45,245a3.9,3.9,0,1,0,3.9,3.9A3.9,3.9,0,0,0,776.45,245Z"/><path class="cls-1" d="M738.75,245a3.9,3.9,0,1,0,3.9,3.9A3.9,3.9,0,0,0,738.75,245Z"/><path class="cls-1" d="M701.05,245h-.2a3.91,3.91,0,0,0,0,7.8h.2a3.9,3.9,0,1,0,0-7.8Z"/><path class="cls-1" d="M833,226.1a3.9,3.9,0,1,0,3.9,3.9A3.9,3.9,0,0,0,833,226.1Z"/><path class="cls-1" d="M795.25,226.1a3.9,3.9,0,1,0,3.9,3.9A3.9,3.9,0,0,0,795.25,226.1Z"/><path class="cls-1" d="M757.55,226.1a3.9,3.9,0,1,0,3.9,3.9A3.9,3.9,0,0,0,757.55,226.1Z"/><path class="cls-1" d="M719.85,226.1a3.9,3.9,0,1,0,3.9,3.9A3.9,3.9,0,0,0,719.85,226.1Z"/><path class="cls-1" d="M814.15,207.3a3.9,3.9,0,1,0,3.9,3.9A3.9,3.9,0,0,0,814.15,207.3Z"/><path class="cls-1" d="M776.45,207.3a3.9,3.9,0,1,0,3.9,3.9A3.9,3.9,0,0,0,776.45,207.3Z"/><path class="cls-1" d="M738.75,207.3a3.9,3.9,0,1,0,3.9,3.9A3.9,3.9,0,0,0,738.75,207.3Z"/><path class="cls-1" d="M701.05,207.3h-.2a3.91,3.91,0,0,0,0,7.8h.2a3.9,3.9,0,1,0,0-7.8Z"/><path class="cls-1" d="M833,188.4a3.9,3.9,0,1,0,3.9,3.9A3.9,3.9,0,0,0,833,188.4Z"/><path class="cls-1" d="M795.25,188.4a3.9,3.9,0,1,0,3.9,3.9A3.9,3.9,0,0,0,795.25,188.4Z"/><path class="cls-1" d="M757.55,188.4a3.9,3.9,0,1,0,3.9,3.9A3.9,3.9,0,0,0,757.55,188.4Z"/><path class="cls-1" d="M719.85,188.4a3.9,3.9,0,1,0,3.9,3.9A3.9,3.9,0,0,0,719.85,188.4Z"/><path class="cls-1" d="M814.15,169.6a3.9,3.9,0,1,0,3.9,3.9A3.9,3.9,0,0,0,814.15,169.6Z"/><path class="cls-1" d="M776.45,169.6a3.9,3.9,0,1,0,3.9,3.9A3.9,3.9,0,0,0,776.45,169.6Z"/><path class="cls-1" d="M738.75,169.6a3.9,3.9,0,1,0,3.9,3.9A3.9,3.9,0,0,0,738.75,169.6Z"/><path class="cls-1" d="M701.05,169.6h-.2a3.91,3.91,0,0,0,0,7.8h.2a3.9,3.9,0,1,0,0-7.8Z"/><path class="cls-1" d="M833,150.7a3.9,3.9,0,1,0,3.9,3.9A3.9,3.9,0,0,0,833,150.7Z"/><path class="cls-1" d="M795.25,150.7a3.9,3.9,0,1,0,3.9,3.9A3.9,3.9,0,0,0,795.25,150.7Z"/><path class="cls-1" d="M757.55,150.7a3.9,3.9,0,1,0,3.9,3.9A3.9,3.9,0,0,0,757.55,150.7Z"/><path class="cls-1" d="M719.85,150.7a3.9,3.9,0,1,0,3.9,3.9A3.9,3.9,0,0,0,719.85,150.7Z"/><path class="cls-1" d="M964.85,131.9a3.87,3.87,0,0,0-3.9,3.7v.2a3.9,3.9,0,1,0,7.8,0v-.2A3.87,3.87,0,0,0,964.85,131.9Z"/><path class="cls-1" d="M927.15,131.9a3.87,3.87,0,0,0-3.9,3.7v.2a3.9,3.9,0,1,0,7.8,0v-.2A3.87,3.87,0,0,0,927.15,131.9Z"/><path class="cls-1" d="M889.55,131.9a3.87,3.87,0,0,0-3.9,3.7v.2a3.9,3.9,0,0,0,7.8,0v-.2A4,4,0,0,0,889.55,131.9Z"/><path class="cls-1" d="M851.85,131.9h-.2a3.9,3.9,0,0,0-3.7,3.7v.2a3.87,3.87,0,0,0,3.7,3.9h.2a3.9,3.9,0,0,0,3.9-3.9v-.2A3.87,3.87,0,0,0,851.85,131.9Z"/><path class="cls-1" d="M983.75,113a3.9,3.9,0,1,0,3.9,3.9A4,4,0,0,0,983.75,113Z"/><path class="cls-1" d="M946.05,113a3.9,3.9,0,1,0,3.9,3.9A4,4,0,0,0,946.05,113Z"/><path class="cls-1" d="M908.35,113a3.9,3.9,0,1,0,3.9,3.9A4,4,0,0,0,908.35,113Z"/><path class="cls-1" d="M870.65,113a3.9,3.9,0,1,0,3.9,3.9A3.9,3.9,0,0,0,870.65,113Z"/><path class="cls-1" d="M964.85,94.2a3.9,3.9,0,1,0,3.9,3.9A3.84,3.84,0,0,0,964.85,94.2Z"/><path class="cls-1" d="M927.15,94.2a3.9,3.9,0,1,0,3.9,3.9A3.84,3.84,0,0,0,927.15,94.2Z"/><path class="cls-1" d="M889.55,94.2a3.9,3.9,0,1,0,3.9,3.9A4,4,0,0,0,889.55,94.2Z"/><path class="cls-1" d="M851.85,94.2h-.2a3.91,3.91,0,0,0,0,7.8h.2a3.9,3.9,0,0,0,0-7.8Z"/><path class="cls-1" d="M983.75,75.3a3.9,3.9,0,1,0,3.9,3.9A4,4,0,0,0,983.75,75.3Z"/><path class="cls-1" d="M946.05,75.3a3.9,3.9,0,1,0,3.9,3.9A4,4,0,0,0,946.05,75.3Z"/><path class="cls-1" d="M908.35,75.3a3.9,3.9,0,1,0,3.9,3.9A4,4,0,0,0,908.35,75.3Z"/><path class="cls-1" d="M870.65,75.3a3.9,3.9,0,1,0,3.9,3.9A3.9,3.9,0,0,0,870.65,75.3Z"/><path class="cls-1" d="M964.85,56.5a3.9,3.9,0,1,0,3.9,3.9A3.84,3.84,0,0,0,964.85,56.5Z"/><path class="cls-1" d="M927.15,56.5a3.9,3.9,0,1,0,3.9,3.9A3.84,3.84,0,0,0,927.15,56.5Z"/><path class="cls-1" d="M889.55,56.5a3.9,3.9,0,1,0,3.9,3.9A4,4,0,0,0,889.55,56.5Z"/><path class="cls-1" d="M851.85,56.5h-.2a3.91,3.91,0,0,0,0,7.8h.2a3.9,3.9,0,0,0,0-7.8Z"/><path class="cls-1" d="M983.75,37.7a3.9,3.9,0,1,0,3.9,3.9A3.9,3.9,0,0,0,983.75,37.7Z"/><path class="cls-1" d="M946.05,37.7a3.9,3.9,0,1,0,3.9,3.9A3.9,3.9,0,0,0,946.05,37.7Z"/><path class="cls-1" d="M908.35,37.7a3.9,3.9,0,1,0,3.9,3.9A3.9,3.9,0,0,0,908.35,37.7Z"/><path class="cls-1" d="M870.65,37.7a3.9,3.9,0,1,0,3.9,3.9A3.84,3.84,0,0,0,870.65,37.7Z"/><path class="cls-1" d="M964.85,18.8a3.9,3.9,0,1,0,3.9,3.9A3.9,3.9,0,0,0,964.85,18.8Z"/><path class="cls-1" d="M927.15,18.8a3.9,3.9,0,1,0,3.9,3.9A3.9,3.9,0,0,0,927.15,18.8Z"/><path class="cls-1" d="M889.55,18.8a3.9,3.9,0,1,0,3.9,3.9A4,4,0,0,0,889.55,18.8Z"/><path class="cls-1" d="M851.85,18.8h-.2a3.91,3.91,0,0,0,0,7.8h.2a3.9,3.9,0,0,0,3.9-3.9A4,4,0,0,0,851.85,18.8Z"/><path class="cls-1" d="M983.75,0a3.9,3.9,0,1,0,3.9,3.9A3.9,3.9,0,0,0,983.75,0Z"/><path class="cls-1" d="M946.05,0A3.9,3.9,0,1,0,950,3.9,3.9,3.9,0,0,0,946.05,0Z"/><path class="cls-1" d="M908.35,0a3.9,3.9,0,1,0,3.9,3.9A3.9,3.9,0,0,0,908.35,0Z"/><path class="cls-1" d="M870.65,0a3.9,3.9,0,1,0,3.9,3.9A3.84,3.84,0,0,0,870.65,0Z"/><path class="cls-1" d="M1115.65,131.9a3.87,3.87,0,0,0-3.9,3.7v.2a3.9,3.9,0,1,0,7.8,0v-.2A3.87,3.87,0,0,0,1115.65,131.9Z"/><path class="cls-1" d="M1078,131.9a3.87,3.87,0,0,0-3.9,3.7v.2a3.9,3.9,0,1,0,7.8,0v-.2A3.87,3.87,0,0,0,1078,131.9Z"/><path class="cls-1" d="M1040.25,131.9a3.87,3.87,0,0,0-3.9,3.7v.2a3.9,3.9,0,0,0,7.8,0v-.2A3.87,3.87,0,0,0,1040.25,131.9Z"/><path class="cls-1" d="M1002.55,131.9h-.2a3.9,3.9,0,0,0-3.7,3.7v.2a3.87,3.87,0,0,0,3.7,3.9h.2a3.9,3.9,0,0,0,3.9-3.9v-.2A3.87,3.87,0,0,0,1002.55,131.9Z"/><path class="cls-1" d="M1134.45,113a3.9,3.9,0,1,0,3.9,3.9A3.9,3.9,0,0,0,1134.45,113Z"/><path class="cls-1" d="M1096.85,113a3.9,3.9,0,1,0,3.9,3.9A4,4,0,0,0,1096.85,113Z"/><path class="cls-1" d="M1059.15,113a3.9,3.9,0,1,0,3.9,3.9A4,4,0,0,0,1059.15,113Z"/><path class="cls-1" d="M1021.45,113a3.9,3.9,0,1,0,3.9,3.9A4,4,0,0,0,1021.45,113Z"/><path class="cls-1" d="M1115.65,94.2a3.9,3.9,0,1,0,3.9,3.9A3.9,3.9,0,0,0,1115.65,94.2Z"/><path class="cls-1" d="M1078,94.2a3.9,3.9,0,1,0,3.9,3.9A3.84,3.84,0,0,0,1078,94.2Z"/><path class="cls-1" d="M1040.25,94.2a3.9,3.9,0,1,0,3.9,3.9A3.84,3.84,0,0,0,1040.25,94.2Z"/><path class="cls-1" d="M1002.55,94.2h-.2a3.91,3.91,0,0,0,0,7.8h.2a3.9,3.9,0,0,0,3.9-3.9A3.84,3.84,0,0,0,1002.55,94.2Z"/><path class="cls-1" d="M1134.45,75.3a3.9,3.9,0,1,0,3.9,3.9A3.9,3.9,0,0,0,1134.45,75.3Z"/><path class="cls-1" d="M1096.85,75.3a3.9,3.9,0,1,0,3.9,3.9A4,4,0,0,0,1096.85,75.3Z"/><path class="cls-1" d="M1059.15,75.3a3.9,3.9,0,1,0,3.9,3.9A4,4,0,0,0,1059.15,75.3Z"/><path class="cls-1" d="M1021.45,75.3a3.9,3.9,0,1,0,3.9,3.9A4,4,0,0,0,1021.45,75.3Z"/><path class="cls-1" d="M1115.65,56.5a3.9,3.9,0,1,0,3.9,3.9A3.9,3.9,0,0,0,1115.65,56.5Z"/><path class="cls-1" d="M1078,56.5a3.9,3.9,0,1,0,3.9,3.9A3.84,3.84,0,0,0,1078,56.5Z"/><path class="cls-1" d="M1040.25,56.5a3.9,3.9,0,1,0,3.9,3.9A3.84,3.84,0,0,0,1040.25,56.5Z"/><path class="cls-1" d="M1002.55,56.5h-.2a3.91,3.91,0,0,0,0,7.8h.2a3.9,3.9,0,0,0,3.9-3.9A3.84,3.84,0,0,0,1002.55,56.5Z"/><path class="cls-1" d="M1134.45,37.7a3.9,3.9,0,1,0,3.9,3.9A3.84,3.84,0,0,0,1134.45,37.7Z"/><path class="cls-1" d="M1096.85,37.7a3.9,3.9,0,1,0,3.9,3.9A4,4,0,0,0,1096.85,37.7Z"/><path class="cls-1" d="M1059.15,37.7a3.9,3.9,0,1,0,3.9,3.9A3.9,3.9,0,0,0,1059.15,37.7Z"/><path class="cls-1" d="M1021.45,37.7a3.9,3.9,0,1,0,3.9,3.9A3.9,3.9,0,0,0,1021.45,37.7Z"/><path class="cls-1" d="M1115.65,18.8a3.9,3.9,0,1,0,3.9,3.9A4,4,0,0,0,1115.65,18.8Z"/><path class="cls-1" d="M1078,18.8a3.9,3.9,0,1,0,3.9,3.9A3.9,3.9,0,0,0,1078,18.8Z"/><path class="cls-1" d="M1040.25,18.8a3.9,3.9,0,1,0,3.9,3.9A3.9,3.9,0,0,0,1040.25,18.8Z"/><path class="cls-1" d="M1002.55,18.8h-.2a3.91,3.91,0,0,0,0,7.8h.2a3.9,3.9,0,1,0,0-7.8Z"/><path class="cls-1" d="M1134.45,0a3.9,3.9,0,1,0,3.9,3.9A3.84,3.84,0,0,0,1134.45,0Z"/><path class="cls-1" d="M1096.85,0a3.9,3.9,0,1,0,3.9,3.9A4,4,0,0,0,1096.85,0Z"/><path class="cls-1" d="M1059.15,0a3.9,3.9,0,1,0,3.9,3.9A3.9,3.9,0,0,0,1059.15,0Z"/><path class="cls-1" d="M1021.45,0a3.9,3.9,0,1,0,3.9,3.9A3.9,3.9,0,0,0,1021.45,0Z"/><path class="cls-1" d="M964.85,282.6a3.87,3.87,0,0,0-3.9,3.7v.2a3.9,3.9,0,1,0,7.8,0v-.2A3.94,3.94,0,0,0,964.85,282.6Z"/><path class="cls-1" d="M927.15,282.6a3.87,3.87,0,0,0-3.9,3.7v.2a3.9,3.9,0,1,0,7.8,0v-.2A3.94,3.94,0,0,0,927.15,282.6Z"/><path class="cls-1" d="M889.55,282.6a3.87,3.87,0,0,0-3.9,3.7v.2a3.9,3.9,0,0,0,7.8,0v-.2A4.09,4.09,0,0,0,889.55,282.6Z"/><path class="cls-1" d="M851.85,282.6h-.2a3.9,3.9,0,0,0-3.7,3.7v.2a3.87,3.87,0,0,0,3.7,3.9h.2a3.9,3.9,0,0,0,3.9-3.9v-.2A3.94,3.94,0,0,0,851.85,282.6Z"/><path class="cls-1" d="M983.75,263.8a3.9,3.9,0,1,0,3.9,3.9A3.9,3.9,0,0,0,983.75,263.8Z"/><path class="cls-1" d="M946.05,263.8a3.9,3.9,0,1,0,3.9,3.9A3.9,3.9,0,0,0,946.05,263.8Z"/><path class="cls-1" d="M908.35,263.8a3.9,3.9,0,1,0,3.9,3.9A3.9,3.9,0,0,0,908.35,263.8Z"/><path class="cls-1" d="M870.65,263.8a3.9,3.9,0,1,0,3.9,3.9A3.84,3.84,0,0,0,870.65,263.8Z"/><path class="cls-1" d="M964.85,245a3.9,3.9,0,1,0,3.9,3.9A3.84,3.84,0,0,0,964.85,245Z"/><path class="cls-1" d="M927.15,245a3.9,3.9,0,1,0,3.9,3.9A3.84,3.84,0,0,0,927.15,245Z"/><path class="cls-1" d="M889.55,245a3.9,3.9,0,1,0,3.9,3.9A4,4,0,0,0,889.55,245Z"/><path class="cls-1" d="M851.85,245h-.2a3.91,3.91,0,0,0,0,7.8h.2a3.9,3.9,0,0,0,0-7.8Z"/><path class="cls-1" d="M983.75,226.1a3.9,3.9,0,1,0,3.9,3.9A4,4,0,0,0,983.75,226.1Z"/><path class="cls-1" d="M946.05,226.1A3.9,3.9,0,1,0,950,230,4,4,0,0,0,946.05,226.1Z"/><path class="cls-1" d="M908.35,226.1a3.9,3.9,0,1,0,3.9,3.9A4,4,0,0,0,908.35,226.1Z"/><path class="cls-1" d="M870.65,226.1a3.9,3.9,0,1,0,3.9,3.9A3.9,3.9,0,0,0,870.65,226.1Z"/><path class="cls-1" d="M964.85,207.3a3.9,3.9,0,1,0,3.9,3.9A3.84,3.84,0,0,0,964.85,207.3Z"/><path class="cls-1" d="M927.15,207.3a3.9,3.9,0,1,0,3.9,3.9A3.84,3.84,0,0,0,927.15,207.3Z"/><path class="cls-1" d="M889.55,207.3a3.9,3.9,0,1,0,3.9,3.9A4,4,0,0,0,889.55,207.3Z"/><path class="cls-1" d="M851.85,207.3h-.2a3.91,3.91,0,0,0,0,7.8h.2a3.9,3.9,0,0,0,0-7.8Z"/><path class="cls-1" d="M983.75,188.4a3.9,3.9,0,1,0,3.9,3.9A4,4,0,0,0,983.75,188.4Z"/><path class="cls-1" d="M946.05,188.4a3.9,3.9,0,1,0,3.9,3.9A4,4,0,0,0,946.05,188.4Z"/><path class="cls-1" d="M908.35,188.4a3.9,3.9,0,1,0,3.9,3.9A4,4,0,0,0,908.35,188.4Z"/><path class="cls-1" d="M870.65,188.4a3.9,3.9,0,1,0,3.9,3.9A3.9,3.9,0,0,0,870.65,188.4Z"/><path class="cls-1" d="M964.85,169.6a3.9,3.9,0,1,0,3.9,3.9A3.84,3.84,0,0,0,964.85,169.6Z"/><path class="cls-1" d="M927.15,169.6a3.9,3.9,0,1,0,3.9,3.9A3.84,3.84,0,0,0,927.15,169.6Z"/><path class="cls-1" d="M889.55,169.6a3.9,3.9,0,1,0,3.9,3.9A4,4,0,0,0,889.55,169.6Z"/><path class="cls-1" d="M851.85,169.6h-.2a3.91,3.91,0,0,0,0,7.8h.2a3.9,3.9,0,0,0,0-7.8Z"/><path class="cls-1" d="M983.75,150.7a3.9,3.9,0,1,0,3.9,3.9A4,4,0,0,0,983.75,150.7Z"/><path class="cls-1" d="M946.05,150.7a3.9,3.9,0,1,0,3.9,3.9A4,4,0,0,0,946.05,150.7Z"/><path class="cls-1" d="M908.35,150.7a3.9,3.9,0,1,0,3.9,3.9A4,4,0,0,0,908.35,150.7Z"/><path class="cls-1" d="M870.65,150.7a3.9,3.9,0,1,0,3.9,3.9A3.9,3.9,0,0,0,870.65,150.7Z"/><path class="cls-1" d="M1115.65,282.6a3.87,3.87,0,0,0-3.9,3.7v.2a3.9,3.9,0,1,0,7.8,0v-.2A3.94,3.94,0,0,0,1115.65,282.6Z"/><path class="cls-1" d="M1078,282.6a3.87,3.87,0,0,0-3.9,3.7v.2a3.9,3.9,0,1,0,7.8,0v-.2A3.94,3.94,0,0,0,1078,282.6Z"/><path class="cls-1" d="M1040.25,282.6a3.87,3.87,0,0,0-3.9,3.7v.2a3.9,3.9,0,0,0,7.8,0v-.2A3.94,3.94,0,0,0,1040.25,282.6Z"/><path class="cls-1" d="M1002.55,282.6h-.2a3.9,3.9,0,0,0-3.7,3.7v.2a3.87,3.87,0,0,0,3.7,3.9h.2a3.9,3.9,0,0,0,3.9-3.9v-.2A3.94,3.94,0,0,0,1002.55,282.6Z"/><path class="cls-1" d="M1134.45,263.8a3.9,3.9,0,1,0,3.9,3.9A3.84,3.84,0,0,0,1134.45,263.8Z"/><path class="cls-1" d="M1096.85,263.8a3.9,3.9,0,1,0,3.9,3.9A4,4,0,0,0,1096.85,263.8Z"/><path class="cls-1" d="M1059.15,263.8a3.9,3.9,0,1,0,3.9,3.9A3.9,3.9,0,0,0,1059.15,263.8Z"/><path class="cls-1" d="M1021.45,263.8a3.9,3.9,0,1,0,3.9,3.9A3.9,3.9,0,0,0,1021.45,263.8Z"/><path class="cls-1" d="M1115.65,245a3.9,3.9,0,1,0,3.9,3.9A3.9,3.9,0,0,0,1115.65,245Z"/><path class="cls-1" d="M1078,245a3.9,3.9,0,1,0,3.9,3.9A3.84,3.84,0,0,0,1078,245Z"/><path class="cls-1" d="M1040.25,245a3.9,3.9,0,1,0,3.9,3.9A3.84,3.84,0,0,0,1040.25,245Z"/><path class="cls-1" d="M1002.55,245h-.2a3.91,3.91,0,0,0,0,7.8h.2a3.9,3.9,0,0,0,3.9-3.9A3.84,3.84,0,0,0,1002.55,245Z"/><path class="cls-1" d="M1134.45,226.1a3.9,3.9,0,1,0,3.9,3.9A3.9,3.9,0,0,0,1134.45,226.1Z"/><path class="cls-1" d="M1096.85,226.1a3.9,3.9,0,1,0,3.9,3.9A4,4,0,0,0,1096.85,226.1Z"/><path class="cls-1" d="M1059.15,226.1a3.9,3.9,0,1,0,3.9,3.9A4,4,0,0,0,1059.15,226.1Z"/><path class="cls-1" d="M1021.45,226.1a3.9,3.9,0,1,0,3.9,3.9A4,4,0,0,0,1021.45,226.1Z"/><path class="cls-1" d="M1115.65,207.3a3.9,3.9,0,1,0,3.9,3.9A3.9,3.9,0,0,0,1115.65,207.3Z"/><path class="cls-1" d="M1078,207.3a3.9,3.9,0,1,0,3.9,3.9A3.84,3.84,0,0,0,1078,207.3Z"/><path class="cls-1" d="M1040.25,207.3a3.9,3.9,0,1,0,3.9,3.9A3.84,3.84,0,0,0,1040.25,207.3Z"/><path class="cls-1" d="M1002.55,207.3h-.2a3.91,3.91,0,0,0,0,7.8h.2a3.9,3.9,0,0,0,3.9-3.9A3.84,3.84,0,0,0,1002.55,207.3Z"/><path class="cls-1" d="M1134.45,188.4a3.9,3.9,0,1,0,3.9,3.9A3.9,3.9,0,0,0,1134.45,188.4Z"/><path class="cls-1" d="M1096.85,188.4a3.9,3.9,0,1,0,3.9,3.9A4,4,0,0,0,1096.85,188.4Z"/><path class="cls-1" d="M1059.15,188.4a3.9,3.9,0,1,0,3.9,3.9A4,4,0,0,0,1059.15,188.4Z"/><path class="cls-1" d="M1021.45,188.4a3.9,3.9,0,1,0,3.9,3.9A4,4,0,0,0,1021.45,188.4Z"/><path class="cls-1" d="M1115.65,169.6a3.9,3.9,0,1,0,3.9,3.9A3.9,3.9,0,0,0,1115.65,169.6Z"/><path class="cls-1" d="M1078,169.6a3.9,3.9,0,1,0,3.9,3.9A3.84,3.84,0,0,0,1078,169.6Z"/><path class="cls-1" d="M1040.25,169.6a3.9,3.9,0,1,0,3.9,3.9A3.84,3.84,0,0,0,1040.25,169.6Z"/><path class="cls-1" d="M1002.55,169.6h-.2a3.91,3.91,0,0,0,0,7.8h.2a3.9,3.9,0,0,0,3.9-3.9A3.84,3.84,0,0,0,1002.55,169.6Z"/><path class="cls-1" d="M1134.45,150.7a3.9,3.9,0,1,0,3.9,3.9A3.9,3.9,0,0,0,1134.45,150.7Z"/><path class="cls-1" d="M1096.85,150.7a3.9,3.9,0,1,0,3.9,3.9A4,4,0,0,0,1096.85,150.7Z"/><path class="cls-1" d="M1059.15,150.7a3.9,3.9,0,1,0,3.9,3.9A4,4,0,0,0,1059.15,150.7Z"/><path class="cls-1" d="M1021.45,150.7a3.9,3.9,0,1,0,3.9,3.9A4,4,0,0,0,1021.45,150.7Z"/><path class="cls-1" d="M663.35,433.4a3.87,3.87,0,0,0-3.9,3.7v.2a3.9,3.9,0,1,0,7.8,0v-.2A3.94,3.94,0,0,0,663.35,433.4Z"/><path class="cls-1" d="M625.65,433.4a3.87,3.87,0,0,0-3.9,3.7v.2a3.9,3.9,0,1,0,7.8,0v-.2A3.94,3.94,0,0,0,625.65,433.4Z"/><path class="cls-1" d="M588,433.4a3.87,3.87,0,0,0-3.9,3.7v.2a3.9,3.9,0,1,0,7.8,0v-.2A3.94,3.94,0,0,0,588,433.4Z"/><path class="cls-1" d="M682.25,414.6a3.9,3.9,0,1,0,3.9,3.9A4,4,0,0,0,682.25,414.6Z"/><path class="cls-1" d="M644.55,414.6a3.9,3.9,0,1,0,3.9,3.9A3.9,3.9,0,0,0,644.55,414.6Z"/><path class="cls-1" d="M606.85,414.6a3.9,3.9,0,1,0,3.9,3.9A3.9,3.9,0,0,0,606.85,414.6Z"/><path class="cls-1" d="M569.15,414.6a3.9,3.9,0,1,0,3.9,3.9A3.9,3.9,0,0,0,569.15,414.6Z"/><path class="cls-1" d="M663.35,395.7a3.9,3.9,0,1,0,3.9,3.9A3.9,3.9,0,0,0,663.35,395.7Z"/><path class="cls-1" d="M625.65,395.7a3.9,3.9,0,1,0,3.9,3.9A3.9,3.9,0,0,0,625.65,395.7Z"/><path class="cls-1" d="M588,395.7a3.9,3.9,0,1,0,3.9,3.9A3.9,3.9,0,0,0,588,395.7Z"/><path class="cls-1" d="M682.25,376.9a3.9,3.9,0,1,0,3.9,3.9A4,4,0,0,0,682.25,376.9Z"/><path class="cls-1" d="M644.55,376.9a3.9,3.9,0,1,0,3.9,3.9A3.9,3.9,0,0,0,644.55,376.9Z"/><path class="cls-1" d="M606.85,376.9a3.9,3.9,0,1,0,3.9,3.9A3.9,3.9,0,0,0,606.85,376.9Z"/><path class="cls-1" d="M569.15,376.9a3.9,3.9,0,1,0,3.9,3.9A3.9,3.9,0,0,0,569.15,376.9Z"/><path class="cls-1" d="M663.35,358a3.9,3.9,0,1,0,3.9,3.9A3.9,3.9,0,0,0,663.35,358Z"/><path class="cls-1" d="M625.65,358a3.9,3.9,0,1,0,3.9,3.9A3.9,3.9,0,0,0,625.65,358Z"/><path class="cls-1" d="M588,358a3.9,3.9,0,1,0,3.9,3.9A3.9,3.9,0,0,0,588,358Z"/><path class="cls-1" d="M682.25,339.2a3.9,3.9,0,1,0,3.9,3.9A4,4,0,0,0,682.25,339.2Z"/><path class="cls-1" d="M644.55,339.2a3.9,3.9,0,1,0,3.9,3.9A3.9,3.9,0,0,0,644.55,339.2Z"/><path class="cls-1" d="M606.85,339.2a3.9,3.9,0,1,0,3.9,3.9A3.9,3.9,0,0,0,606.85,339.2Z"/><path class="cls-1" d="M569.15,339.2a3.9,3.9,0,1,0,3.9,3.9A3.9,3.9,0,0,0,569.15,339.2Z"/><path class="cls-1" d="M663.35,320.3a3.9,3.9,0,1,0,3.9,3.9A3.9,3.9,0,0,0,663.35,320.3Z"/><path class="cls-1" d="M625.65,320.3a3.9,3.9,0,1,0,3.9,3.9A3.9,3.9,0,0,0,625.65,320.3Z"/><path class="cls-1" d="M588,320.3a3.9,3.9,0,1,0,3.9,3.9A3.9,3.9,0,0,0,588,320.3Z"/><path class="cls-1" d="M682.25,301.5a3.9,3.9,0,1,0,3.9,3.9A4,4,0,0,0,682.25,301.5Z"/><path class="cls-1" d="M644.55,301.5a3.9,3.9,0,1,0,3.9,3.9A3.9,3.9,0,0,0,644.55,301.5Z"/><path class="cls-1" d="M606.85,301.5a3.9,3.9,0,1,0,3.9,3.9A3.9,3.9,0,0,0,606.85,301.5Z"/><path class="cls-1" d="M569.15,301.5a3.9,3.9,0,1,0,3.9,3.9A3.9,3.9,0,0,0,569.15,301.5Z"/><path class="cls-1" d="M814.15,433.4a3.87,3.87,0,0,0-3.9,3.7v.2a3.9,3.9,0,1,0,7.8,0v-.2A3.94,3.94,0,0,0,814.15,433.4Z"/><path class="cls-1" d="M776.45,433.4a3.87,3.87,0,0,0-3.9,3.7v.2a3.9,3.9,0,1,0,7.8,0v-.2A3.94,3.94,0,0,0,776.45,433.4Z"/><path class="cls-1" d="M738.75,433.4a3.87,3.87,0,0,0-3.9,3.7v.2a3.9,3.9,0,0,0,7.8,0v-.2A3.94,3.94,0,0,0,738.75,433.4Z"/><path class="cls-1" d="M701.05,433.4h-.2a3.9,3.9,0,0,0-3.7,3.7v.2a3.87,3.87,0,0,0,3.7,3.9h.2a3.9,3.9,0,0,0,3.9-3.9v-.2A3.94,3.94,0,0,0,701.05,433.4Z"/><path class="cls-1" d="M833,414.6a3.9,3.9,0,1,0,3.9,3.9A3.84,3.84,0,0,0,833,414.6Z"/><path class="cls-1" d="M795.25,414.6a3.9,3.9,0,1,0,3.9,3.9A3.84,3.84,0,0,0,795.25,414.6Z"/><path class="cls-1" d="M757.55,414.6a3.9,3.9,0,1,0,3.9,3.9A3.84,3.84,0,0,0,757.55,414.6Z"/><path class="cls-1" d="M719.85,414.6a3.9,3.9,0,1,0,3.9,3.9A3.84,3.84,0,0,0,719.85,414.6Z"/><path class="cls-1" d="M814.15,395.7a3.9,3.9,0,1,0,3.9,3.9A4,4,0,0,0,814.15,395.7Z"/><path class="cls-1" d="M776.45,395.7a3.9,3.9,0,1,0,3.9,3.9A4,4,0,0,0,776.45,395.7Z"/><path class="cls-1" d="M738.75,395.7a3.9,3.9,0,1,0,3.9,3.9A4,4,0,0,0,738.75,395.7Z"/><path class="cls-1" d="M701.05,395.7h-.2a3.91,3.91,0,0,0,0,7.8h.2a3.9,3.9,0,0,0,3.9-3.9A4,4,0,0,0,701.05,395.7Z"/><path class="cls-1" d="M833,376.9a3.9,3.9,0,1,0,3.9,3.9A3.84,3.84,0,0,0,833,376.9Z"/><path class="cls-1" d="M795.25,376.9a3.9,3.9,0,1,0,3.9,3.9A3.84,3.84,0,0,0,795.25,376.9Z"/><path class="cls-1" d="M757.55,376.9a3.9,3.9,0,1,0,3.9,3.9A3.84,3.84,0,0,0,757.55,376.9Z"/><path class="cls-1" d="M719.85,376.9a3.9,3.9,0,1,0,3.9,3.9A3.84,3.84,0,0,0,719.85,376.9Z"/><path class="cls-1" d="M814.15,358a3.9,3.9,0,1,0,3.9,3.9A4,4,0,0,0,814.15,358Z"/><path class="cls-1" d="M776.45,358a3.9,3.9,0,1,0,3.9,3.9A4,4,0,0,0,776.45,358Z"/><path class="cls-1" d="M738.75,358a3.9,3.9,0,1,0,3.9,3.9A4,4,0,0,0,738.75,358Z"/><path class="cls-1" d="M701.05,358h-.2a3.91,3.91,0,0,0,0,7.8h.2a3.9,3.9,0,0,0,3.9-3.9A4,4,0,0,0,701.05,358Z"/><path class="cls-1" d="M833,339.2a3.9,3.9,0,1,0,3.9,3.9A3.84,3.84,0,0,0,833,339.2Z"/><path class="cls-1" d="M795.25,339.2a3.9,3.9,0,1,0,3.9,3.9A3.84,3.84,0,0,0,795.25,339.2Z"/><path class="cls-1" d="M757.55,339.2a3.9,3.9,0,1,0,3.9,3.9A3.84,3.84,0,0,0,757.55,339.2Z"/><path class="cls-1" d="M719.85,339.2a3.9,3.9,0,1,0,3.9,3.9A3.84,3.84,0,0,0,719.85,339.2Z"/><path class="cls-1" d="M814.15,320.3a3.9,3.9,0,1,0,3.9,3.9A4,4,0,0,0,814.15,320.3Z"/><path class="cls-1" d="M776.45,320.3a3.9,3.9,0,1,0,3.9,3.9A4,4,0,0,0,776.45,320.3Z"/><path class="cls-1" d="M738.75,320.3a3.9,3.9,0,1,0,3.9,3.9A4,4,0,0,0,738.75,320.3Z"/><path class="cls-1" d="M701.05,320.3h-.2a3.91,3.91,0,0,0,0,7.8h.2a3.9,3.9,0,0,0,3.9-3.9A4,4,0,0,0,701.05,320.3Z"/><path class="cls-1" d="M833,301.5a3.9,3.9,0,1,0,3.9,3.9A3.84,3.84,0,0,0,833,301.5Z"/><path class="cls-1" d="M795.25,301.5a3.9,3.9,0,1,0,3.9,3.9A3.84,3.84,0,0,0,795.25,301.5Z"/><path class="cls-1" d="M757.55,301.5a3.9,3.9,0,1,0,3.9,3.9A3.84,3.84,0,0,0,757.55,301.5Z"/><path class="cls-1" d="M719.85,301.5a3.9,3.9,0,1,0,3.9,3.9A3.84,3.84,0,0,0,719.85,301.5Z"/><path class="cls-1" d="M682.25,565.3a3.9,3.9,0,1,0,3.9,3.9A4,4,0,0,0,682.25,565.3Z"/><path class="cls-1" d="M644.55,565.3a3.9,3.9,0,1,0,3.9,3.9A4,4,0,0,0,644.55,565.3Z"/><path class="cls-1" d="M606.85,565.3a3.9,3.9,0,1,0,3.9,3.9A4,4,0,0,0,606.85,565.3Z"/><path class="cls-1" d="M569.15,565.3a3.9,3.9,0,1,0,3.9,3.9A4,4,0,0,0,569.15,565.3Z"/><path class="cls-1" d="M663.35,546.5a3.9,3.9,0,1,0,3.9,3.9A3.84,3.84,0,0,0,663.35,546.5Z"/><path class="cls-1" d="M625.65,546.5a3.9,3.9,0,1,0,3.9,3.9A3.84,3.84,0,0,0,625.65,546.5Z"/><path class="cls-1" d="M588,546.5a3.9,3.9,0,1,0,3.9,3.9A3.84,3.84,0,0,0,588,546.5Z"/><path class="cls-1" d="M682.25,527.6a3.9,3.9,0,1,0,3.9,3.9A4,4,0,0,0,682.25,527.6Z"/><path class="cls-1" d="M644.55,527.6a3.9,3.9,0,1,0,3.9,3.9A4,4,0,0,0,644.55,527.6Z"/><path class="cls-1" d="M606.85,527.6a3.9,3.9,0,1,0,3.9,3.9A4,4,0,0,0,606.85,527.6Z"/><path class="cls-1" d="M569.15,527.6a3.9,3.9,0,1,0,3.9,3.9A4,4,0,0,0,569.15,527.6Z"/><path class="cls-1" d="M663.35,508.8a3.9,3.9,0,1,0,3.9,3.9A3.84,3.84,0,0,0,663.35,508.8Z"/><path class="cls-1" d="M625.65,508.8a3.9,3.9,0,1,0,3.9,3.9A3.84,3.84,0,0,0,625.65,508.8Z"/><path class="cls-1" d="M588,508.8a3.9,3.9,0,1,0,3.9,3.9A3.84,3.84,0,0,0,588,508.8Z"/><path class="cls-1" d="M682.25,489.9a3.9,3.9,0,1,0,3.9,3.9A4,4,0,0,0,682.25,489.9Z"/><path class="cls-1" d="M644.55,489.9a3.9,3.9,0,1,0,3.9,3.9A4,4,0,0,0,644.55,489.9Z"/><path class="cls-1" d="M606.85,489.9a3.9,3.9,0,1,0,3.9,3.9A4,4,0,0,0,606.85,489.9Z"/><path class="cls-1" d="M569.15,489.9a3.9,3.9,0,1,0,3.9,3.9A4,4,0,0,0,569.15,489.9Z"/><path class="cls-1" d="M663.35,471.1a3.9,3.9,0,1,0,3.9,3.9A3.84,3.84,0,0,0,663.35,471.1Z"/><path class="cls-1" d="M625.65,471.1a3.9,3.9,0,1,0,3.9,3.9A3.84,3.84,0,0,0,625.65,471.1Z"/><path class="cls-1" d="M588,471.1a3.9,3.9,0,1,0,3.9,3.9A3.84,3.84,0,0,0,588,471.1Z"/><path class="cls-1" d="M682.25,452.3a3.9,3.9,0,1,0,3.9,3.9A4,4,0,0,0,682.25,452.3Z"/><path class="cls-1" d="M644.55,452.3a3.9,3.9,0,1,0,3.9,3.9A3.9,3.9,0,0,0,644.55,452.3Z"/><path class="cls-1" d="M606.85,452.3a3.9,3.9,0,1,0,3.9,3.9A3.9,3.9,0,0,0,606.85,452.3Z"/><path class="cls-1" d="M569.15,452.3a3.9,3.9,0,1,0,3.9,3.9A3.9,3.9,0,0,0,569.15,452.3Z"/><path class="cls-1" d="M833,565.3a3.9,3.9,0,1,0,3.9,3.9A3.9,3.9,0,0,0,833,565.3Z"/><path class="cls-1" d="M795.25,565.3a3.9,3.9,0,1,0,3.9,3.9A3.9,3.9,0,0,0,795.25,565.3Z"/><path class="cls-1" d="M757.55,565.3a3.9,3.9,0,1,0,3.9,3.9A3.9,3.9,0,0,0,757.55,565.3Z"/><path class="cls-1" d="M719.85,565.3a3.9,3.9,0,1,0,3.9,3.9A3.9,3.9,0,0,0,719.85,565.3Z"/><path class="cls-1" d="M814.15,546.5a3.9,3.9,0,1,0,3.9,3.9A3.9,3.9,0,0,0,814.15,546.5Z"/><path class="cls-1" d="M776.45,546.5a3.9,3.9,0,1,0,3.9,3.9A3.9,3.9,0,0,0,776.45,546.5Z"/><path class="cls-1" d="M738.75,546.5a3.9,3.9,0,1,0,3.9,3.9A3.9,3.9,0,0,0,738.75,546.5Z"/><path class="cls-1" d="M701.05,546.5h-.2a3.91,3.91,0,0,0,0,7.8h.2a3.9,3.9,0,1,0,0-7.8Z"/><path class="cls-1" d="M833,527.6a3.9,3.9,0,1,0,3.9,3.9A3.9,3.9,0,0,0,833,527.6Z"/><path class="cls-1" d="M795.25,527.6a3.9,3.9,0,1,0,3.9,3.9A3.9,3.9,0,0,0,795.25,527.6Z"/><path class="cls-1" d="M757.55,527.6a3.9,3.9,0,1,0,3.9,3.9A3.9,3.9,0,0,0,757.55,527.6Z"/><path class="cls-1" d="M719.85,527.6a3.9,3.9,0,1,0,3.9,3.9A3.9,3.9,0,0,0,719.85,527.6Z"/><path class="cls-1" d="M814.15,508.8a3.9,3.9,0,1,0,3.9,3.9A3.9,3.9,0,0,0,814.15,508.8Z"/><path class="cls-1" d="M776.45,508.8a3.9,3.9,0,1,0,3.9,3.9A3.9,3.9,0,0,0,776.45,508.8Z"/><path class="cls-1" d="M738.75,508.8a3.9,3.9,0,1,0,3.9,3.9A3.9,3.9,0,0,0,738.75,508.8Z"/><path class="cls-1" d="M701.05,508.8h-.2a3.91,3.91,0,0,0,0,7.8h.2a3.9,3.9,0,1,0,0-7.8Z"/><path class="cls-1" d="M833,489.9a3.9,3.9,0,1,0,3.9,3.9A3.9,3.9,0,0,0,833,489.9Z"/><path class="cls-1" d="M795.25,489.9a3.9,3.9,0,1,0,3.9,3.9A3.9,3.9,0,0,0,795.25,489.9Z"/><path class="cls-1" d="M757.55,489.9a3.9,3.9,0,1,0,3.9,3.9A3.9,3.9,0,0,0,757.55,489.9Z"/><path class="cls-1" d="M719.85,489.9a3.9,3.9,0,1,0,3.9,3.9A3.9,3.9,0,0,0,719.85,489.9Z"/><path class="cls-1" d="M814.15,471.1a3.9,3.9,0,1,0,3.9,3.9A3.9,3.9,0,0,0,814.15,471.1Z"/><path class="cls-1" d="M776.45,471.1a3.9,3.9,0,1,0,3.9,3.9A3.9,3.9,0,0,0,776.45,471.1Z"/><path class="cls-1" d="M738.75,471.1a3.9,3.9,0,1,0,3.9,3.9A3.9,3.9,0,0,0,738.75,471.1Z"/><path class="cls-1" d="M701.05,471.1h-.2a3.91,3.91,0,0,0,0,7.8h.2a3.9,3.9,0,1,0,0-7.8Z"/><path class="cls-1" d="M833,452.3a3.9,3.9,0,1,0,3.9,3.9A3.84,3.84,0,0,0,833,452.3Z"/><path class="cls-1" d="M795.25,452.3a3.9,3.9,0,1,0,3.9,3.9A3.84,3.84,0,0,0,795.25,452.3Z"/><path class="cls-1" d="M757.55,452.3a3.9,3.9,0,1,0,3.9,3.9A3.84,3.84,0,0,0,757.55,452.3Z"/><path class="cls-1" d="M719.85,452.3a3.9,3.9,0,1,0,3.9,3.9A3.84,3.84,0,0,0,719.85,452.3Z"/><path class="cls-1" d="M964.85,433.4a3.87,3.87,0,0,0-3.9,3.7v.2a3.9,3.9,0,1,0,7.8,0v-.2A3.94,3.94,0,0,0,964.85,433.4Z"/><path class="cls-1" d="M927.15,433.4a3.87,3.87,0,0,0-3.9,3.7v.2a3.9,3.9,0,1,0,7.8,0v-.2A3.94,3.94,0,0,0,927.15,433.4Z"/><path class="cls-1" d="M889.55,433.4a3.87,3.87,0,0,0-3.9,3.7v.2a3.9,3.9,0,1,0,7.8,0v-.2A4.09,4.09,0,0,0,889.55,433.4Z"/><path class="cls-1" d="M851.85,433.4h-.2a3.9,3.9,0,0,0-3.7,3.7v.2a3.87,3.87,0,0,0,3.7,3.9h.2a3.9,3.9,0,0,0,3.9-3.9v-.2A3.94,3.94,0,0,0,851.85,433.4Z"/><path class="cls-1" d="M983.75,414.6a3.9,3.9,0,1,0,3.9,3.9A3.9,3.9,0,0,0,983.75,414.6Z"/><path class="cls-1" d="M946.05,414.6a3.9,3.9,0,1,0,3.9,3.9A3.9,3.9,0,0,0,946.05,414.6Z"/><path class="cls-1" d="M908.35,414.6a3.9,3.9,0,1,0,3.9,3.9A3.9,3.9,0,0,0,908.35,414.6Z"/><path class="cls-1" d="M870.65,414.6a3.9,3.9,0,1,0,3.9,3.9A3.84,3.84,0,0,0,870.65,414.6Z"/><path class="cls-1" d="M964.85,395.7a3.9,3.9,0,1,0,3.9,3.9A3.9,3.9,0,0,0,964.85,395.7Z"/><path class="cls-1" d="M927.15,395.7a3.9,3.9,0,1,0,3.9,3.9A3.9,3.9,0,0,0,927.15,395.7Z"/><path class="cls-1" d="M889.55,395.7a3.9,3.9,0,1,0,3.9,3.9A4,4,0,0,0,889.55,395.7Z"/><path class="cls-1" d="M851.85,395.7h-.2a3.91,3.91,0,0,0,0,7.8h.2a3.9,3.9,0,0,0,3.9-3.9A4,4,0,0,0,851.85,395.7Z"/><path class="cls-1" d="M983.75,376.9a3.9,3.9,0,1,0,3.9,3.9A3.9,3.9,0,0,0,983.75,376.9Z"/><path class="cls-1" d="M946.05,376.9a3.9,3.9,0,1,0,3.9,3.9A3.9,3.9,0,0,0,946.05,376.9Z"/><path class="cls-1" d="M908.35,376.9a3.9,3.9,0,1,0,3.9,3.9A3.9,3.9,0,0,0,908.35,376.9Z"/><path class="cls-1" d="M870.65,376.9a3.9,3.9,0,1,0,3.9,3.9A3.84,3.84,0,0,0,870.65,376.9Z"/><path class="cls-1" d="M964.85,358a3.9,3.9,0,1,0,3.9,3.9A3.9,3.9,0,0,0,964.85,358Z"/><path class="cls-1" d="M927.15,358a3.9,3.9,0,1,0,3.9,3.9A3.9,3.9,0,0,0,927.15,358Z"/><path class="cls-1" d="M889.55,358a3.9,3.9,0,1,0,3.9,3.9A4,4,0,0,0,889.55,358Z"/><path class="cls-1" d="M851.85,358h-.2a3.91,3.91,0,0,0,0,7.8h.2a3.9,3.9,0,0,0,3.9-3.9A4,4,0,0,0,851.85,358Z"/><path class="cls-1" d="M983.75,339.2a3.9,3.9,0,1,0,3.9,3.9A3.9,3.9,0,0,0,983.75,339.2Z"/><path class="cls-1" d="M946.05,339.2a3.9,3.9,0,1,0,3.9,3.9A3.9,3.9,0,0,0,946.05,339.2Z"/><path class="cls-1" d="M908.35,339.2a3.9,3.9,0,1,0,3.9,3.9A3.9,3.9,0,0,0,908.35,339.2Z"/><path class="cls-1" d="M870.65,339.2a3.9,3.9,0,1,0,3.9,3.9A3.84,3.84,0,0,0,870.65,339.2Z"/><path class="cls-1" d="M964.85,320.3a3.9,3.9,0,1,0,3.9,3.9A3.9,3.9,0,0,0,964.85,320.3Z"/><path class="cls-1" d="M927.15,320.3a3.9,3.9,0,1,0,3.9,3.9A3.9,3.9,0,0,0,927.15,320.3Z"/><path class="cls-1" d="M889.55,320.3a3.9,3.9,0,1,0,3.9,3.9A4,4,0,0,0,889.55,320.3Z"/><path class="cls-1" d="M851.85,320.3h-.2a3.91,3.91,0,0,0,0,7.8h.2a3.9,3.9,0,0,0,3.9-3.9A4,4,0,0,0,851.85,320.3Z"/><path class="cls-1" d="M983.75,301.5a3.9,3.9,0,1,0,3.9,3.9A3.9,3.9,0,0,0,983.75,301.5Z"/><path class="cls-1" d="M946.05,301.5a3.9,3.9,0,1,0,3.9,3.9A3.9,3.9,0,0,0,946.05,301.5Z"/><path class="cls-1" d="M908.35,301.5a3.9,3.9,0,1,0,3.9,3.9A3.9,3.9,0,0,0,908.35,301.5Z"/><path class="cls-1" d="M870.65,301.5a3.9,3.9,0,1,0,3.9,3.9A3.84,3.84,0,0,0,870.65,301.5Z"/><path class="cls-1" d="M1115.65,433.4a3.87,3.87,0,0,0-3.9,3.7v.2a3.9,3.9,0,1,0,7.8,0v-.2A3.94,3.94,0,0,0,1115.65,433.4Z"/><path class="cls-1" d="M1078,433.4a3.87,3.87,0,0,0-3.9,3.7v.2a3.9,3.9,0,1,0,7.8,0v-.2A3.94,3.94,0,0,0,1078,433.4Z"/><path class="cls-1" d="M1040.25,433.4a3.87,3.87,0,0,0-3.9,3.7v.2a3.9,3.9,0,0,0,7.8,0v-.2A3.94,3.94,0,0,0,1040.25,433.4Z"/><path class="cls-1" d="M1002.55,433.4h-.2a3.9,3.9,0,0,0-3.7,3.7v.2a3.87,3.87,0,0,0,3.7,3.9h.2a3.9,3.9,0,0,0,3.9-3.9v-.2A3.94,3.94,0,0,0,1002.55,433.4Z"/><path class="cls-1" d="M1134.45,414.6a3.9,3.9,0,1,0,3.9,3.9A3.84,3.84,0,0,0,1134.45,414.6Z"/><path class="cls-1" d="M1096.85,414.6a3.9,3.9,0,1,0,3.9,3.9A4,4,0,0,0,1096.85,414.6Z"/><path class="cls-1" d="M1059.15,414.6a3.9,3.9,0,1,0,3.9,3.9A3.9,3.9,0,0,0,1059.15,414.6Z"/><path class="cls-1" d="M1021.45,414.6a3.9,3.9,0,1,0,3.9,3.9A3.9,3.9,0,0,0,1021.45,414.6Z"/><path class="cls-1" d="M1115.65,395.7a3.9,3.9,0,1,0,3.9,3.9A4,4,0,0,0,1115.65,395.7Z"/><path class="cls-1" d="M1078,395.7a3.9,3.9,0,1,0,3.9,3.9A3.9,3.9,0,0,0,1078,395.7Z"/><path class="cls-1" d="M1040.25,395.7a3.9,3.9,0,1,0,3.9,3.9A3.9,3.9,0,0,0,1040.25,395.7Z"/><path class="cls-1" d="M1002.55,395.7h-.2a3.91,3.91,0,0,0,0,7.8h.2a3.9,3.9,0,1,0,0-7.8Z"/><path class="cls-1" d="M1134.45,376.9a3.9,3.9,0,1,0,3.9,3.9A3.84,3.84,0,0,0,1134.45,376.9Z"/><path class="cls-1" d="M1096.85,376.9a3.9,3.9,0,1,0,3.9,3.9A4,4,0,0,0,1096.85,376.9Z"/><path class="cls-1" d="M1059.15,376.9a3.9,3.9,0,1,0,3.9,3.9A3.9,3.9,0,0,0,1059.15,376.9Z"/><path class="cls-1" d="M1021.45,376.9a3.9,3.9,0,1,0,3.9,3.9A3.9,3.9,0,0,0,1021.45,376.9Z"/><path class="cls-1" d="M1115.65,358a3.9,3.9,0,1,0,3.9,3.9A4,4,0,0,0,1115.65,358Z"/><path class="cls-1" d="M1078,358a3.9,3.9,0,1,0,3.9,3.9A3.9,3.9,0,0,0,1078,358Z"/><path class="cls-1" d="M1040.25,358a3.9,3.9,0,1,0,3.9,3.9A3.9,3.9,0,0,0,1040.25,358Z"/><path class="cls-1" d="M1002.55,358h-.2a3.91,3.91,0,0,0,0,7.8h.2a3.9,3.9,0,1,0,0-7.8Z"/><path class="cls-1" d="M1134.45,339.2a3.9,3.9,0,1,0,3.9,3.9A3.84,3.84,0,0,0,1134.45,339.2Z"/><path class="cls-1" d="M1096.85,339.2a3.9,3.9,0,1,0,3.9,3.9A4,4,0,0,0,1096.85,339.2Z"/><path class="cls-1" d="M1059.15,339.2a3.9,3.9,0,1,0,3.9,3.9A3.9,3.9,0,0,0,1059.15,339.2Z"/><path class="cls-1" d="M1021.45,339.2a3.9,3.9,0,1,0,3.9,3.9A3.9,3.9,0,0,0,1021.45,339.2Z"/><path class="cls-1" d="M1115.65,320.3a3.9,3.9,0,1,0,3.9,3.9A4,4,0,0,0,1115.65,320.3Z"/><path class="cls-1" d="M1078,320.3a3.9,3.9,0,1,0,3.9,3.9A3.9,3.9,0,0,0,1078,320.3Z"/><path class="cls-1" d="M1040.25,320.3a3.9,3.9,0,1,0,3.9,3.9A3.9,3.9,0,0,0,1040.25,320.3Z"/><path class="cls-1" d="M1002.55,320.3h-.2a3.91,3.91,0,0,0,0,7.8h.2a3.9,3.9,0,1,0,0-7.8Z"/><path class="cls-1" d="M1134.45,301.5a3.9,3.9,0,1,0,3.9,3.9A3.84,3.84,0,0,0,1134.45,301.5Z"/><path class="cls-1" d="M1096.85,301.5a3.9,3.9,0,1,0,3.9,3.9A4,4,0,0,0,1096.85,301.5Z"/><path class="cls-1" d="M1059.15,301.5a3.9,3.9,0,1,0,3.9,3.9A3.9,3.9,0,0,0,1059.15,301.5Z"/><path class="cls-1" d="M1021.45,301.5a3.9,3.9,0,1,0,3.9,3.9A3.9,3.9,0,0,0,1021.45,301.5Z"/><path class="cls-1" d="M983.75,565.3a3.9,3.9,0,1,0,3.9,3.9A4,4,0,0,0,983.75,565.3Z"/><path class="cls-1" d="M946.05,565.3a3.9,3.9,0,1,0,3.9,3.9A4,4,0,0,0,946.05,565.3Z"/><path class="cls-1" d="M908.35,565.3a3.9,3.9,0,1,0,3.9,3.9A4,4,0,0,0,908.35,565.3Z"/><path class="cls-1" d="M870.65,565.3a3.9,3.9,0,1,0,3.9,3.9A3.9,3.9,0,0,0,870.65,565.3Z"/><path class="cls-1" d="M964.85,546.5a3.9,3.9,0,1,0,3.9,3.9A3.84,3.84,0,0,0,964.85,546.5Z"/><path class="cls-1" d="M927.15,546.5a3.9,3.9,0,1,0,3.9,3.9A3.84,3.84,0,0,0,927.15,546.5Z"/><path class="cls-1" d="M889.55,546.5a3.9,3.9,0,1,0,3.9,3.9A4,4,0,0,0,889.55,546.5Z"/><path class="cls-1" d="M851.85,546.5h-.2a3.91,3.91,0,0,0,0,7.8h.2a3.9,3.9,0,0,0,0-7.8Z"/><path class="cls-1" d="M983.75,527.6a3.9,3.9,0,1,0,3.9,3.9A4,4,0,0,0,983.75,527.6Z"/><path class="cls-1" d="M946.05,527.6a3.9,3.9,0,1,0,3.9,3.9A4,4,0,0,0,946.05,527.6Z"/><path class="cls-1" d="M908.35,527.6a3.9,3.9,0,1,0,3.9,3.9A4,4,0,0,0,908.35,527.6Z"/><path class="cls-1" d="M870.65,527.6a3.9,3.9,0,1,0,3.9,3.9A3.9,3.9,0,0,0,870.65,527.6Z"/><path class="cls-1" d="M964.85,508.8a3.9,3.9,0,1,0,3.9,3.9A3.84,3.84,0,0,0,964.85,508.8Z"/><path class="cls-1" d="M927.15,508.8a3.9,3.9,0,1,0,3.9,3.9A3.84,3.84,0,0,0,927.15,508.8Z"/><path class="cls-1" d="M889.55,508.8a3.9,3.9,0,1,0,3.9,3.9A4,4,0,0,0,889.55,508.8Z"/><path class="cls-1" d="M851.85,508.8h-.2a3.91,3.91,0,0,0,0,7.8h.2a3.9,3.9,0,0,0,0-7.8Z"/><path class="cls-1" d="M983.75,489.9a3.9,3.9,0,1,0,3.9,3.9A4,4,0,0,0,983.75,489.9Z"/><path class="cls-1" d="M946.05,489.9a3.9,3.9,0,1,0,3.9,3.9A4,4,0,0,0,946.05,489.9Z"/><path class="cls-1" d="M908.35,489.9a3.9,3.9,0,1,0,3.9,3.9A4,4,0,0,0,908.35,489.9Z"/><path class="cls-1" d="M870.65,489.9a3.9,3.9,0,1,0,3.9,3.9A3.9,3.9,0,0,0,870.65,489.9Z"/><path class="cls-1" d="M964.85,471.1a3.9,3.9,0,1,0,3.9,3.9A3.84,3.84,0,0,0,964.85,471.1Z"/><path class="cls-1" d="M927.15,471.1a3.9,3.9,0,1,0,3.9,3.9A3.84,3.84,0,0,0,927.15,471.1Z"/><path class="cls-1" d="M889.55,471.1a3.9,3.9,0,1,0,3.9,3.9A4,4,0,0,0,889.55,471.1Z"/><path class="cls-1" d="M851.85,471.1h-.2a3.91,3.91,0,0,0,0,7.8h.2a3.9,3.9,0,0,0,0-7.8Z"/><path class="cls-1" d="M983.75,452.3a3.9,3.9,0,1,0,3.9,3.9A3.9,3.9,0,0,0,983.75,452.3Z"/><path class="cls-1" d="M946.05,452.3a3.9,3.9,0,1,0,3.9,3.9A3.9,3.9,0,0,0,946.05,452.3Z"/><path class="cls-1" d="M908.35,452.3a3.9,3.9,0,1,0,3.9,3.9A3.9,3.9,0,0,0,908.35,452.3Z"/><path class="cls-1" d="M870.65,452.3a3.9,3.9,0,1,0,3.9,3.9A3.84,3.84,0,0,0,870.65,452.3Z"/><path class="cls-1" d="M1134.45,565.3a3.9,3.9,0,1,0,3.9,3.9A3.9,3.9,0,0,0,1134.45,565.3Z"/><path class="cls-1" d="M1096.85,565.3a3.9,3.9,0,1,0,3.9,3.9A4,4,0,0,0,1096.85,565.3Z"/><path class="cls-1" d="M1059.15,565.3a3.9,3.9,0,1,0,3.9,3.9A4,4,0,0,0,1059.15,565.3Z"/><path class="cls-1" d="M1021.45,565.3a3.9,3.9,0,1,0,3.9,3.9A4,4,0,0,0,1021.45,565.3Z"/><path class="cls-1" d="M1115.65,546.5a3.9,3.9,0,1,0,3.9,3.9A3.9,3.9,0,0,0,1115.65,546.5Z"/><path class="cls-1" d="M1078,546.5a3.9,3.9,0,1,0,3.9,3.9A3.84,3.84,0,0,0,1078,546.5Z"/><path class="cls-1" d="M1040.25,546.5a3.9,3.9,0,1,0,3.9,3.9A3.84,3.84,0,0,0,1040.25,546.5Z"/><path class="cls-1" d="M1002.55,546.5h-.2a3.91,3.91,0,0,0,0,7.8h.2a3.9,3.9,0,0,0,3.9-3.9A3.84,3.84,0,0,0,1002.55,546.5Z"/><path class="cls-1" d="M1134.45,527.6a3.9,3.9,0,1,0,3.9,3.9A3.9,3.9,0,0,0,1134.45,527.6Z"/><path class="cls-1" d="M1096.85,527.6a3.9,3.9,0,1,0,3.9,3.9A4,4,0,0,0,1096.85,527.6Z"/><path class="cls-1" d="M1059.15,527.6a3.9,3.9,0,1,0,3.9,3.9A4,4,0,0,0,1059.15,527.6Z"/><path class="cls-1" d="M1021.45,527.6a3.9,3.9,0,1,0,3.9,3.9A4,4,0,0,0,1021.45,527.6Z"/><path class="cls-1" d="M1115.65,508.8a3.9,3.9,0,1,0,3.9,3.9A3.9,3.9,0,0,0,1115.65,508.8Z"/><path class="cls-1" d="M1078,508.8a3.9,3.9,0,1,0,3.9,3.9A3.84,3.84,0,0,0,1078,508.8Z"/><path class="cls-1" d="M1040.25,508.8a3.9,3.9,0,1,0,3.9,3.9A3.84,3.84,0,0,0,1040.25,508.8Z"/><path class="cls-1" d="M1002.55,508.8h-.2a3.91,3.91,0,0,0,0,7.8h.2a3.9,3.9,0,0,0,3.9-3.9A3.84,3.84,0,0,0,1002.55,508.8Z"/><path class="cls-1" d="M1134.45,489.9a3.9,3.9,0,1,0,3.9,3.9A3.9,3.9,0,0,0,1134.45,489.9Z"/><path class="cls-1" d="M1096.85,489.9a3.9,3.9,0,1,0,3.9,3.9A4,4,0,0,0,1096.85,489.9Z"/><path class="cls-1" d="M1059.15,489.9a3.9,3.9,0,1,0,3.9,3.9A4,4,0,0,0,1059.15,489.9Z"/><path class="cls-1" d="M1021.45,489.9a3.9,3.9,0,1,0,3.9,3.9A4,4,0,0,0,1021.45,489.9Z"/><path class="cls-1" d="M1115.65,471.1a3.9,3.9,0,1,0,3.9,3.9A3.9,3.9,0,0,0,1115.65,471.1Z"/><path class="cls-1" d="M1078,471.1a3.9,3.9,0,1,0,3.9,3.9A3.84,3.84,0,0,0,1078,471.1Z"/><path class="cls-1" d="M1040.25,471.1a3.9,3.9,0,1,0,3.9,3.9A3.84,3.84,0,0,0,1040.25,471.1Z"/><path class="cls-1" d="M1002.55,471.1h-.2a3.91,3.91,0,0,0,0,7.8h.2a3.9,3.9,0,0,0,3.9-3.9A3.84,3.84,0,0,0,1002.55,471.1Z"/><path class="cls-1" d="M1134.45,452.3a3.9,3.9,0,1,0,3.9,3.9A3.84,3.84,0,0,0,1134.45,452.3Z"/><path class="cls-1" d="M1096.85,452.3a3.9,3.9,0,1,0,3.9,3.9A4,4,0,0,0,1096.85,452.3Z"/><path class="cls-1" d="M1059.15,452.3a3.9,3.9,0,1,0,3.9,3.9A3.9,3.9,0,0,0,1059.15,452.3Z"/><path class="cls-1" d="M1021.45,452.3a3.9,3.9,0,1,0,3.9,3.9A3.9,3.9,0,0,0,1021.45,452.3Z"/></g></g></svg>