<svg xmlns="http://www.w3.org/2000/svg" viewBox="0 0 522.53 381.93"><defs><style>.cls-1{fill:#ffd87e;stroke:#b33f4c;stroke-miterlimit:10;}</style></defs><title>CHEVRONNN</title><g id="Layer_2" data-name="Layer 2"><g id="Layer_1-2" data-name="Layer 1"><path class="cls-1" d="M522,123.71c-.06,19.21,0,236.88,0,256.09,0,.29,0,.58-.08,1.1-.86-.37-1.6-.65-2.3-1Q391.41,320,263.23,260a4.1,4.1,0,0,0-4,0Q130.89,320.1,2.49,380.1c-.68.31-1.33.67-2,1V122.17c.63-.24,1.29-.44,1.9-.73Q130.68,61.49,259,1.51a14,14,0,0,0,1.61-1h1.27a15.41,15.41,0,0,0,1.65,1Z"/></g></g></svg>