<svg xmlns="http://www.w3.org/2000/svg" viewBox="0 0 90.76 194.14"><defs><style>.cls-1{fill:#04839d;}</style></defs><title>Teal Dots</title><g id="Layer_2" data-name="Layer 2"><g id="Layer_1-2" data-name="Layer 1"><path class="cls-1" d="M17.55,55.67a1.63,1.63,0,0,0-1.64,1.56s0,.05,0,.08a1.65,1.65,0,0,0,3.29,0v-.08A1.64,1.64,0,0,0,17.55,55.67Z"/><path class="cls-1" d="M1.64,55.67A1.64,1.64,0,0,0,0,57.23v.08a1.64,1.64,0,0,0,3.28,0v-.08A1.64,1.64,0,0,0,1.64,55.67Z"/><path class="cls-1" d="M25.5,47.71a1.65,1.65,0,1,0,1.64,1.65A1.64,1.64,0,0,0,25.5,47.71Z"/><path class="cls-1" d="M9.59,47.71a1.65,1.65,0,1,0,1.65,1.65A1.65,1.65,0,0,0,9.59,47.71Z"/><path class="cls-1" d="M17.55,39.76a1.65,1.65,0,1,0,1.64,1.64A1.65,1.65,0,0,0,17.55,39.76Z"/><path class="cls-1" d="M1.64,39.76A1.65,1.65,0,1,0,3.28,41.4,1.65,1.65,0,0,0,1.64,39.76Z"/><path class="cls-1" d="M25.5,31.81a1.64,1.64,0,1,0,1.64,1.64A1.63,1.63,0,0,0,25.5,31.81Z"/><path class="cls-1" d="M9.59,31.81a1.64,1.64,0,1,0,1.65,1.64A1.64,1.64,0,0,0,9.59,31.81Z"/><path class="cls-1" d="M17.55,23.86a1.64,1.64,0,1,0,1.64,1.64A1.64,1.64,0,0,0,17.55,23.86Z"/><path class="cls-1" d="M1.64,23.86A1.64,1.64,0,1,0,3.28,25.5,1.64,1.64,0,0,0,1.64,23.86Z"/><path class="cls-1" d="M25.5,15.9a1.65,1.65,0,1,0,1.64,1.65A1.64,1.64,0,0,0,25.5,15.9Z"/><path class="cls-1" d="M9.59,15.9a1.65,1.65,0,1,0,1.65,1.65A1.65,1.65,0,0,0,9.59,15.9Z"/><path class="cls-1" d="M17.55,8a1.65,1.65,0,1,0,1.64,1.64A1.65,1.65,0,0,0,17.55,8Z"/><path class="cls-1" d="M1.64,8A1.65,1.65,0,1,0,3.28,9.59,1.65,1.65,0,0,0,1.64,8Z"/><path class="cls-1" d="M25.5,0a1.64,1.64,0,1,0,1.64,1.64A1.64,1.64,0,0,0,25.5,0Z"/><path class="cls-1" d="M9.59,0a1.64,1.64,0,1,0,1.65,1.64A1.65,1.65,0,0,0,9.59,0Z"/><path class="cls-1" d="M81.16,55.67a1.64,1.64,0,0,0-1.64,1.56v.08a1.65,1.65,0,0,0,3.29,0,.22.22,0,0,0,0-.08A1.63,1.63,0,0,0,81.16,55.67Z"/><path class="cls-1" d="M65.26,55.67a1.64,1.64,0,0,0-1.64,1.56v.08a1.64,1.64,0,1,0,3.28,0v-.08A1.64,1.64,0,0,0,65.26,55.67Z"/><path class="cls-1" d="M49.36,55.67a1.63,1.63,0,0,0-1.64,1.56.22.22,0,0,0,0,.08,1.65,1.65,0,0,0,3.29,0v-.08A1.64,1.64,0,0,0,49.36,55.67Z"/><path class="cls-1" d="M33.45,55.67h-.07a1.65,1.65,0,0,0-1.57,1.56v.08A1.64,1.64,0,0,0,33.38,59h.07a1.64,1.64,0,0,0,1.64-1.64v-.08A1.64,1.64,0,0,0,33.45,55.67Z"/><path class="cls-1" d="M89.12,47.71a1.65,1.65,0,1,0,1.64,1.65A1.65,1.65,0,0,0,89.12,47.71Z"/><path class="cls-1" d="M73.21,47.71a1.65,1.65,0,1,0,1.64,1.65A1.65,1.65,0,0,0,73.21,47.71Z"/><path class="cls-1" d="M57.31,47.71A1.65,1.65,0,1,0,59,49.36,1.64,1.64,0,0,0,57.31,47.71Z"/><path class="cls-1" d="M41.4,47.71a1.65,1.65,0,1,0,1.65,1.65A1.65,1.65,0,0,0,41.4,47.71Z"/><path class="cls-1" d="M81.16,39.76a1.65,1.65,0,1,0,1.65,1.64A1.65,1.65,0,0,0,81.16,39.76Z"/><path class="cls-1" d="M65.26,39.76A1.65,1.65,0,1,0,66.9,41.4,1.64,1.64,0,0,0,65.26,39.76Z"/><path class="cls-1" d="M49.36,39.76A1.65,1.65,0,1,0,51,41.4,1.65,1.65,0,0,0,49.36,39.76Z"/><path class="cls-1" d="M33.45,39.76h-.07a1.64,1.64,0,0,0,0,3.28h.07a1.65,1.65,0,0,0,0-3.29Z"/><path class="cls-1" d="M89.12,31.81a1.64,1.64,0,1,0,1.64,1.64A1.64,1.64,0,0,0,89.12,31.81Z"/><path class="cls-1" d="M73.21,31.81a1.64,1.64,0,1,0,1.64,1.64A1.64,1.64,0,0,0,73.21,31.81Z"/><path class="cls-1" d="M57.31,31.81A1.64,1.64,0,1,0,59,33.45,1.63,1.63,0,0,0,57.31,31.81Z"/><path class="cls-1" d="M41.4,31.81a1.64,1.64,0,1,0,1.65,1.64A1.64,1.64,0,0,0,41.4,31.81Z"/><path class="cls-1" d="M81.16,23.86a1.64,1.64,0,1,0,1.65,1.64A1.64,1.64,0,0,0,81.16,23.86Z"/><path class="cls-1" d="M65.26,23.86A1.64,1.64,0,1,0,66.9,25.5,1.63,1.63,0,0,0,65.26,23.86Z"/><path class="cls-1" d="M49.36,23.86A1.64,1.64,0,1,0,51,25.5,1.64,1.64,0,0,0,49.36,23.86Z"/><path class="cls-1" d="M33.45,23.86h-.07a1.64,1.64,0,0,0,0,3.28h.07a1.64,1.64,0,0,0,0-3.28Z"/><path class="cls-1" d="M89.12,15.9a1.65,1.65,0,1,0,1.64,1.65A1.65,1.65,0,0,0,89.12,15.9Z"/><path class="cls-1" d="M73.21,15.9a1.65,1.65,0,1,0,1.64,1.65A1.65,1.65,0,0,0,73.21,15.9Z"/><path class="cls-1" d="M57.31,15.9A1.65,1.65,0,1,0,59,17.55,1.64,1.64,0,0,0,57.31,15.9Z"/><path class="cls-1" d="M41.4,15.9a1.65,1.65,0,1,0,1.65,1.65A1.65,1.65,0,0,0,41.4,15.9Z"/><path class="cls-1" d="M81.16,8a1.65,1.65,0,1,0,1.65,1.64A1.65,1.65,0,0,0,81.16,8Z"/><path class="cls-1" d="M65.26,8A1.65,1.65,0,1,0,66.9,9.59,1.64,1.64,0,0,0,65.26,8Z"/><path class="cls-1" d="M49.36,8A1.65,1.65,0,1,0,51,9.59,1.65,1.65,0,0,0,49.36,8Z"/><path class="cls-1" d="M33.45,8h-.07a1.64,1.64,0,0,0,0,3.28h.07a1.65,1.65,0,0,0,0-3.29Z"/><path class="cls-1" d="M89.12,0a1.64,1.64,0,1,0,1.64,1.64A1.65,1.65,0,0,0,89.12,0Z"/><path class="cls-1" d="M73.21,0a1.64,1.64,0,1,0,1.64,1.64A1.65,1.65,0,0,0,73.21,0Z"/><path class="cls-1" d="M57.31,0A1.64,1.64,0,1,0,59,1.64,1.64,1.64,0,0,0,57.31,0Z"/><path class="cls-1" d="M41.4,0a1.64,1.64,0,1,0,1.65,1.64A1.65,1.65,0,0,0,41.4,0Z"/><path class="cls-1" d="M17.55,119.28a1.64,1.64,0,0,0-1.64,1.57s0,.05,0,.08a1.65,1.65,0,0,0,3.29,0v-.08A1.65,1.65,0,0,0,17.55,119.28Z"/><path class="cls-1" d="M1.64,119.28A1.65,1.65,0,0,0,0,120.85v.08a1.64,1.64,0,0,0,3.28,0v-.08A1.65,1.65,0,0,0,1.64,119.28Z"/><path class="cls-1" d="M25.5,111.33A1.65,1.65,0,1,0,27.14,113,1.64,1.64,0,0,0,25.5,111.33Z"/><path class="cls-1" d="M9.59,111.33A1.65,1.65,0,1,0,11.24,113,1.65,1.65,0,0,0,9.59,111.33Z"/><path class="cls-1" d="M17.55,103.38A1.64,1.64,0,1,0,19.19,105,1.64,1.64,0,0,0,17.55,103.38Z"/><path class="cls-1" d="M1.64,103.38A1.64,1.64,0,1,0,3.28,105,1.64,1.64,0,0,0,1.64,103.38Z"/><path class="cls-1" d="M25.5,95.43a1.64,1.64,0,1,0,1.64,1.64A1.63,1.63,0,0,0,25.5,95.43Z"/><path class="cls-1" d="M9.59,95.43a1.64,1.64,0,1,0,1.65,1.64A1.64,1.64,0,0,0,9.59,95.43Z"/><path class="cls-1" d="M17.55,87.47a1.65,1.65,0,1,0,1.64,1.65A1.65,1.65,0,0,0,17.55,87.47Z"/><path class="cls-1" d="M1.64,87.47a1.65,1.65,0,1,0,1.64,1.65A1.65,1.65,0,0,0,1.64,87.47Z"/><path class="cls-1" d="M25.5,79.52a1.65,1.65,0,1,0,1.64,1.64A1.64,1.64,0,0,0,25.5,79.52Z"/><path class="cls-1" d="M9.59,79.52a1.65,1.65,0,1,0,1.65,1.64A1.65,1.65,0,0,0,9.59,79.52Z"/><path class="cls-1" d="M17.55,71.57a1.64,1.64,0,1,0,1.64,1.64A1.65,1.65,0,0,0,17.55,71.57Z"/><path class="cls-1" d="M1.64,71.57a1.64,1.64,0,1,0,1.64,1.64A1.65,1.65,0,0,0,1.64,71.57Z"/><path class="cls-1" d="M25.5,63.62a1.64,1.64,0,1,0,1.64,1.64A1.63,1.63,0,0,0,25.5,63.62Z"/><path class="cls-1" d="M9.59,63.62a1.64,1.64,0,1,0,1.65,1.64A1.64,1.64,0,0,0,9.59,63.62Z"/><path class="cls-1" d="M81.16,119.28a1.65,1.65,0,0,0-1.64,1.57v.08a1.65,1.65,0,0,0,3.29,0,.22.22,0,0,0,0-.08A1.63,1.63,0,0,0,81.16,119.28Z"/><path class="cls-1" d="M65.26,119.28a1.65,1.65,0,0,0-1.64,1.57v.08a1.64,1.64,0,1,0,3.28,0v-.08A1.65,1.65,0,0,0,65.26,119.28Z"/><path class="cls-1" d="M49.36,119.28a1.63,1.63,0,0,0-1.64,1.57.22.22,0,0,0,0,.08,1.65,1.65,0,0,0,3.29,0v-.08A1.65,1.65,0,0,0,49.36,119.28Z"/><path class="cls-1" d="M33.45,119.28h-.07a1.63,1.63,0,0,0-1.57,1.56v.08a1.64,1.64,0,0,0,1.57,1.64h.07a1.64,1.64,0,0,0,1.64-1.64v-.08A1.65,1.65,0,0,0,33.45,119.28Z"/><path class="cls-1" d="M89.12,111.33A1.65,1.65,0,1,0,90.76,113,1.65,1.65,0,0,0,89.12,111.33Z"/><path class="cls-1" d="M73.21,111.33A1.65,1.65,0,1,0,74.85,113,1.65,1.65,0,0,0,73.21,111.33Z"/><path class="cls-1" d="M57.31,111.33A1.65,1.65,0,1,0,59,113,1.64,1.64,0,0,0,57.31,111.33Z"/><path class="cls-1" d="M41.4,111.33A1.65,1.65,0,1,0,43.05,113,1.65,1.65,0,0,0,41.4,111.33Z"/><path class="cls-1" d="M81.16,103.38A1.64,1.64,0,1,0,82.81,105,1.64,1.64,0,0,0,81.16,103.38Z"/><path class="cls-1" d="M65.26,103.38A1.64,1.64,0,1,0,66.9,105,1.63,1.63,0,0,0,65.26,103.38Z"/><path class="cls-1" d="M49.36,103.38A1.64,1.64,0,1,0,51,105,1.64,1.64,0,0,0,49.36,103.38Z"/><path class="cls-1" d="M33.45,103.38h-.07a1.64,1.64,0,0,0,0,3.28h.07a1.64,1.64,0,0,0,0-3.28Z"/><path class="cls-1" d="M89.12,95.43a1.64,1.64,0,1,0,1.64,1.64A1.64,1.64,0,0,0,89.12,95.43Z"/><path class="cls-1" d="M73.21,95.43a1.64,1.64,0,1,0,1.64,1.64A1.64,1.64,0,0,0,73.21,95.43Z"/><path class="cls-1" d="M57.31,95.43A1.64,1.64,0,1,0,59,97.07,1.63,1.63,0,0,0,57.31,95.43Z"/><path class="cls-1" d="M41.4,95.43a1.64,1.64,0,1,0,1.65,1.64A1.64,1.64,0,0,0,41.4,95.43Z"/><path class="cls-1" d="M81.16,87.47a1.65,1.65,0,1,0,1.65,1.65A1.65,1.65,0,0,0,81.16,87.47Z"/><path class="cls-1" d="M65.26,87.47a1.65,1.65,0,1,0,1.64,1.65A1.64,1.64,0,0,0,65.26,87.47Z"/><path class="cls-1" d="M49.36,87.47A1.65,1.65,0,1,0,51,89.12,1.65,1.65,0,0,0,49.36,87.47Z"/><path class="cls-1" d="M33.45,87.47h-.07a1.64,1.64,0,0,0,0,3.28h.07a1.65,1.65,0,0,0,0-3.29Z"/><path class="cls-1" d="M89.12,79.52a1.65,1.65,0,1,0,1.64,1.64A1.65,1.65,0,0,0,89.12,79.52Z"/><path class="cls-1" d="M73.21,79.52a1.65,1.65,0,1,0,1.64,1.64A1.65,1.65,0,0,0,73.21,79.52Z"/><path class="cls-1" d="M57.31,79.52A1.65,1.65,0,1,0,59,81.16,1.64,1.64,0,0,0,57.31,79.52Z"/><path class="cls-1" d="M41.4,79.52a1.65,1.65,0,1,0,1.65,1.64A1.65,1.65,0,0,0,41.4,79.52Z"/><path class="cls-1" d="M81.16,71.57a1.64,1.64,0,1,0,1.65,1.64A1.65,1.65,0,0,0,81.16,71.57Z"/><path class="cls-1" d="M65.26,71.57a1.64,1.64,0,1,0,1.64,1.64A1.64,1.64,0,0,0,65.26,71.57Z"/><path class="cls-1" d="M49.36,71.57A1.64,1.64,0,1,0,51,73.21,1.65,1.65,0,0,0,49.36,71.57Z"/><path class="cls-1" d="M33.45,71.57h-.07a1.64,1.64,0,0,0,0,3.28h.07a1.64,1.64,0,0,0,0-3.28Z"/><path class="cls-1" d="M89.12,63.62a1.64,1.64,0,1,0,1.64,1.64A1.64,1.64,0,0,0,89.12,63.62Z"/><path class="cls-1" d="M73.21,63.62a1.64,1.64,0,1,0,1.64,1.64A1.64,1.64,0,0,0,73.21,63.62Z"/><path class="cls-1" d="M57.31,63.62A1.64,1.64,0,1,0,59,65.26,1.63,1.63,0,0,0,57.31,63.62Z"/><path class="cls-1" d="M41.4,63.62a1.64,1.64,0,1,0,1.65,1.64A1.64,1.64,0,0,0,41.4,63.62Z"/><path class="cls-1" d="M17.55,182.9a1.64,1.64,0,0,0-1.64,1.57s0,.05,0,.07a1.65,1.65,0,1,0,3.29,0v-.07A1.65,1.65,0,0,0,17.55,182.9Z"/><path class="cls-1" d="M1.64,182.9A1.65,1.65,0,0,0,0,184.47v.07a1.64,1.64,0,1,0,3.28,0v-.07A1.65,1.65,0,0,0,1.64,182.9Z"/><path class="cls-1" d="M25.5,175a1.64,1.64,0,1,0,1.64,1.64A1.63,1.63,0,0,0,25.5,175Z"/><path class="cls-1" d="M9.59,175a1.64,1.64,0,1,0,1.65,1.64A1.64,1.64,0,0,0,9.59,175Z"/><path class="cls-1" d="M17.55,167a1.64,1.64,0,1,0,1.64,1.64A1.64,1.64,0,0,0,17.55,167Z"/><path class="cls-1" d="M1.64,167a1.64,1.64,0,1,0,1.64,1.64A1.64,1.64,0,0,0,1.64,167Z"/><path class="cls-1" d="M25.5,159.05a1.64,1.64,0,1,0,1.64,1.64A1.63,1.63,0,0,0,25.5,159.05Z"/><path class="cls-1" d="M9.59,159.05a1.64,1.64,0,1,0,1.65,1.64A1.64,1.64,0,0,0,9.59,159.05Z"/><path class="cls-1" d="M17.55,151.09a1.65,1.65,0,1,0,1.64,1.65A1.65,1.65,0,0,0,17.55,151.09Z"/><path class="cls-1" d="M1.64,151.09a1.65,1.65,0,1,0,1.64,1.65A1.65,1.65,0,0,0,1.64,151.09Z"/><path class="cls-1" d="M25.5,143.14a1.64,1.64,0,1,0,1.64,1.64A1.64,1.64,0,0,0,25.5,143.14Z"/><path class="cls-1" d="M9.59,143.14a1.64,1.64,0,1,0,1.65,1.64A1.65,1.65,0,0,0,9.59,143.14Z"/><path class="cls-1" d="M17.55,135.19a1.64,1.64,0,1,0,1.64,1.64A1.64,1.64,0,0,0,17.55,135.19Z"/><path class="cls-1" d="M1.64,135.19a1.64,1.64,0,1,0,1.64,1.64A1.64,1.64,0,0,0,1.64,135.19Z"/><path class="cls-1" d="M25.5,127.24a1.64,1.64,0,1,0,1.64,1.64A1.63,1.63,0,0,0,25.5,127.24Z"/><path class="cls-1" d="M9.59,127.24a1.64,1.64,0,1,0,1.65,1.64A1.64,1.64,0,0,0,9.59,127.24Z"/><path class="cls-1" d="M81.16,182.9a1.65,1.65,0,0,0-1.64,1.57v.07a1.65,1.65,0,1,0,3.29,0,.17.17,0,0,0,0-.07A1.63,1.63,0,0,0,81.16,182.9Z"/><path class="cls-1" d="M65.26,182.9a1.65,1.65,0,0,0-1.64,1.57v.07a1.64,1.64,0,1,0,3.28,0v-.07A1.65,1.65,0,0,0,65.26,182.9Z"/><path class="cls-1" d="M49.36,182.9a1.63,1.63,0,0,0-1.64,1.57.17.17,0,0,0,0,.07,1.65,1.65,0,1,0,3.29,0v-.07A1.65,1.65,0,0,0,49.36,182.9Z"/><path class="cls-1" d="M33.45,182.9h-.07a1.65,1.65,0,0,0-1.57,1.57v.07a1.63,1.63,0,0,0,1.57,1.64h.07a1.64,1.64,0,0,0,1.64-1.65v-.07A1.65,1.65,0,0,0,33.45,182.9Z"/><path class="cls-1" d="M89.12,175a1.64,1.64,0,1,0,1.64,1.64A1.64,1.64,0,0,0,89.12,175Z"/><path class="cls-1" d="M73.21,175a1.64,1.64,0,1,0,1.64,1.64A1.64,1.64,0,0,0,73.21,175Z"/><path class="cls-1" d="M57.31,175A1.64,1.64,0,1,0,59,176.59,1.63,1.63,0,0,0,57.31,175Z"/><path class="cls-1" d="M41.4,175a1.64,1.64,0,1,0,1.65,1.64A1.64,1.64,0,0,0,41.4,175Z"/><path class="cls-1" d="M81.16,167a1.64,1.64,0,1,0,1.65,1.64A1.64,1.64,0,0,0,81.16,167Z"/><path class="cls-1" d="M65.26,167a1.64,1.64,0,1,0,1.64,1.64A1.63,1.63,0,0,0,65.26,167Z"/><path class="cls-1" d="M49.36,167A1.64,1.64,0,1,0,51,168.64,1.64,1.64,0,0,0,49.36,167Z"/><path class="cls-1" d="M33.45,167h-.07a1.64,1.64,0,0,0,0,3.28h.07a1.64,1.64,0,0,0,0-3.28Z"/><path class="cls-1" d="M89.12,159.05a1.64,1.64,0,1,0,1.64,1.64A1.64,1.64,0,0,0,89.12,159.05Z"/><path class="cls-1" d="M73.21,159.05a1.64,1.64,0,1,0,1.64,1.64A1.64,1.64,0,0,0,73.21,159.05Z"/><path class="cls-1" d="M57.31,159.05A1.64,1.64,0,1,0,59,160.69,1.63,1.63,0,0,0,57.31,159.05Z"/><path class="cls-1" d="M41.4,159.05a1.64,1.64,0,1,0,1.65,1.64A1.64,1.64,0,0,0,41.4,159.05Z"/><path class="cls-1" d="M81.16,151.09a1.65,1.65,0,1,0,1.65,1.65A1.65,1.65,0,0,0,81.16,151.09Z"/><path class="cls-1" d="M65.26,151.09a1.65,1.65,0,1,0,1.64,1.65A1.64,1.64,0,0,0,65.26,151.09Z"/><path class="cls-1" d="M49.36,151.09A1.65,1.65,0,1,0,51,152.74,1.65,1.65,0,0,0,49.36,151.09Z"/><path class="cls-1" d="M33.45,151.09h-.07a1.64,1.64,0,0,0,0,3.28h.07a1.65,1.65,0,0,0,0-3.29Z"/><path class="cls-1" d="M89.12,143.14a1.64,1.64,0,1,0,1.64,1.64A1.65,1.65,0,0,0,89.12,143.14Z"/><path class="cls-1" d="M73.21,143.14a1.64,1.64,0,1,0,1.64,1.64A1.65,1.65,0,0,0,73.21,143.14Z"/><path class="cls-1" d="M57.31,143.14A1.64,1.64,0,1,0,59,144.78,1.64,1.64,0,0,0,57.31,143.14Z"/><path class="cls-1" d="M41.4,143.14a1.64,1.64,0,1,0,1.65,1.64A1.65,1.65,0,0,0,41.4,143.14Z"/><path class="cls-1" d="M81.16,135.19a1.64,1.64,0,1,0,1.65,1.64A1.64,1.64,0,0,0,81.16,135.19Z"/><path class="cls-1" d="M65.26,135.19a1.64,1.64,0,1,0,1.64,1.64A1.63,1.63,0,0,0,65.26,135.19Z"/><path class="cls-1" d="M49.36,135.19A1.64,1.64,0,1,0,51,136.83,1.64,1.64,0,0,0,49.36,135.19Z"/><path class="cls-1" d="M33.45,135.19h-.07a1.64,1.64,0,0,0,0,3.28h.07a1.64,1.64,0,0,0,0-3.28Z"/><path class="cls-1" d="M89.12,127.24a1.64,1.64,0,1,0,1.64,1.64A1.64,1.64,0,0,0,89.12,127.24Z"/><path class="cls-1" d="M73.21,127.24a1.64,1.64,0,1,0,1.64,1.64A1.64,1.64,0,0,0,73.21,127.24Z"/><path class="cls-1" d="M57.31,127.24A1.64,1.64,0,1,0,59,128.88,1.63,1.63,0,0,0,57.31,127.24Z"/><path class="cls-1" d="M41.4,127.24a1.64,1.64,0,1,0,1.65,1.64A1.64,1.64,0,0,0,41.4,127.24Z"/><path class="cls-1" d="M25.5,190.85a1.65,1.65,0,1,0,1.64,1.65A1.64,1.64,0,0,0,25.5,190.85Z"/><path class="cls-1" d="M9.59,190.85a1.65,1.65,0,1,0,1.65,1.65A1.65,1.65,0,0,0,9.59,190.85Z"/><path class="cls-1" d="M89.12,190.85a1.65,1.65,0,1,0,1.64,1.65A1.65,1.65,0,0,0,89.12,190.85Z"/><path class="cls-1" d="M73.21,190.85a1.65,1.65,0,1,0,1.64,1.65A1.65,1.65,0,0,0,73.21,190.85Z"/><path class="cls-1" d="M57.31,190.85A1.65,1.65,0,1,0,59,192.5,1.64,1.64,0,0,0,57.31,190.85Z"/><path class="cls-1" d="M41.4,190.85a1.65,1.65,0,1,0,1.65,1.65A1.65,1.65,0,0,0,41.4,190.85Z"/></g></g></svg>