<svg xmlns="http://www.w3.org/2000/svg" viewBox="0 0 444 444"><defs><style>.cls-1{fill:#b33f4c;}</style></defs><title>Dots</title><g id="Layer_2" data-name="Layer 2"><g id="Layer_1-2" data-name="Layer 1"><path class="cls-1" d="M76,102.19a3,3,0,0,0-3,2.88v.14a3,3,0,1,0,6,0v-.14A3,3,0,0,0,76,102.19Z"/><path class="cls-1" d="M46.81,102.19a3,3,0,0,0-3,2.88v.14a3,3,0,0,0,6,0s0-.09,0-.14A3,3,0,0,0,46.81,102.19Z"/><path class="cls-1" d="M17.61,102.19a3,3,0,0,0-3,2.88v.14a3,3,0,0,0,6,0,.66.66,0,0,0,0-.14A3,3,0,0,0,17.61,102.19Z"/><path class="cls-1" d="M90.61,87.59a3,3,0,1,0,3,3A3,3,0,0,0,90.61,87.59Z"/><path class="cls-1" d="M61.41,87.59a3,3,0,1,0,3,3A3,3,0,0,0,61.41,87.59Z"/><path class="cls-1" d="M32.21,87.59a3,3,0,1,0,3,3A3,3,0,0,0,32.21,87.59Z"/><path class="cls-1" d="M3,87.59a3,3,0,1,0,3,3A3,3,0,0,0,3,87.59Z"/><path class="cls-1" d="M76,73a3,3,0,1,0,3,3A3,3,0,0,0,76,73Z"/><path class="cls-1" d="M46.81,73a3,3,0,1,0,3,3A3,3,0,0,0,46.81,73Z"/><path class="cls-1" d="M17.61,73a3,3,0,1,0,3,3A3,3,0,0,0,17.61,73Z"/><path class="cls-1" d="M90.61,58.4a3,3,0,1,0,3,3A3,3,0,0,0,90.61,58.4Z"/><path class="cls-1" d="M61.41,58.4a3,3,0,1,0,3,3A3,3,0,0,0,61.41,58.4Z"/><path class="cls-1" d="M32.21,58.4a3,3,0,1,0,3,3A3,3,0,0,0,32.21,58.4Z"/><path class="cls-1" d="M3,58.4a3,3,0,1,0,3,3A3,3,0,0,0,3,58.4Z"/><path class="cls-1" d="M76,43.8a3,3,0,1,0,3,3A3,3,0,0,0,76,43.8Z"/><path class="cls-1" d="M46.81,43.8a3,3,0,1,0,3,3A3,3,0,0,0,46.81,43.8Z"/><path class="cls-1" d="M17.61,43.8a3,3,0,1,0,3,3A3,3,0,0,0,17.61,43.8Z"/><path class="cls-1" d="M90.61,29.2a3,3,0,1,0,3,3A3,3,0,0,0,90.61,29.2Z"/><path class="cls-1" d="M61.41,29.2a3,3,0,1,0,3,3A3,3,0,0,0,61.41,29.2Z"/><path class="cls-1" d="M32.21,29.2a3,3,0,1,0,3,3A3,3,0,0,0,32.21,29.2Z"/><path class="cls-1" d="M3,29.2a3,3,0,1,0,3,3A3,3,0,0,0,3,29.2Z"/><path class="cls-1" d="M76,14.6a3,3,0,1,0,3,3A3,3,0,0,0,76,14.6Z"/><path class="cls-1" d="M46.81,14.6a3,3,0,1,0,3,3A3,3,0,0,0,46.81,14.6Z"/><path class="cls-1" d="M17.61,14.6a3,3,0,1,0,3,3A3,3,0,0,0,17.61,14.6Z"/><path class="cls-1" d="M90.61,0a3,3,0,1,0,3,3A3,3,0,0,0,90.61,0Z"/><path class="cls-1" d="M61.41,0a3,3,0,1,0,3,3A3,3,0,0,0,61.41,0Z"/><path class="cls-1" d="M32.21,0a3,3,0,1,0,3,3A3,3,0,0,0,32.21,0Z"/><path class="cls-1" d="M3,0A3,3,0,1,0,6,3,3,3,0,0,0,3,0Z"/><path class="cls-1" d="M192.8,102.19a3,3,0,0,0-3,2.88v.14a3,3,0,0,0,6,0,.66.66,0,0,0,0-.14A3,3,0,0,0,192.8,102.19Z"/><path class="cls-1" d="M163.6,102.19a3,3,0,0,0-3,2.88v.14a3,3,0,0,0,6,0,.66.66,0,0,0,0-.14A3,3,0,0,0,163.6,102.19Z"/><path class="cls-1" d="M134.41,102.19a3,3,0,0,0-3,2.88v.14a3,3,0,0,0,6,0v-.14A3,3,0,0,0,134.41,102.19Z"/><path class="cls-1" d="M105.21,102.19h-.14a3,3,0,0,0-2.87,2.87.66.66,0,0,0,0,.14,3,3,0,0,0,2.88,3h.14a3,3,0,0,0,3-3v-.14A3,3,0,0,0,105.21,102.19Z"/><path class="cls-1" d="M207.4,87.59a3,3,0,1,0,3,3A3,3,0,0,0,207.4,87.59Z"/><path class="cls-1" d="M178.2,87.59a3,3,0,1,0,3,3A3,3,0,0,0,178.2,87.59Z"/><path class="cls-1" d="M149,87.59a3,3,0,1,0,3,3A3,3,0,0,0,149,87.59Z"/><path class="cls-1" d="M119.81,87.59a3,3,0,1,0,3,3A3,3,0,0,0,119.81,87.59Z"/><path class="cls-1" d="M192.8,73a3,3,0,1,0,3,3A3,3,0,0,0,192.8,73Z"/><path class="cls-1" d="M163.6,73a3,3,0,1,0,3,3A3,3,0,0,0,163.6,73Z"/><path class="cls-1" d="M134.41,73a3,3,0,1,0,3,3A3,3,0,0,0,134.41,73Z"/><path class="cls-1" d="M105.21,73h-.14a3,3,0,0,0,0,6h.14a3,3,0,1,0,0-6Z"/><path class="cls-1" d="M207.4,58.4a3,3,0,1,0,3,3A3,3,0,0,0,207.4,58.4Z"/><path class="cls-1" d="M178.2,58.4a3,3,0,1,0,3,3A3,3,0,0,0,178.2,58.4Z"/><path class="cls-1" d="M149,58.4a3,3,0,1,0,3,3A3,3,0,0,0,149,58.4Z"/><path class="cls-1" d="M119.81,58.4a3,3,0,1,0,3,3A3,3,0,0,0,119.81,58.4Z"/><path class="cls-1" d="M192.8,43.8a3,3,0,1,0,3,3A3,3,0,0,0,192.8,43.8Z"/><path class="cls-1" d="M163.6,43.8a3,3,0,1,0,3,3A3,3,0,0,0,163.6,43.8Z"/><path class="cls-1" d="M134.41,43.8a3,3,0,1,0,3,3A3,3,0,0,0,134.41,43.8Z"/><path class="cls-1" d="M105.21,43.8h-.14a3,3,0,0,0,0,6h.14a3,3,0,0,0,0-6Z"/><path class="cls-1" d="M207.4,29.2a3,3,0,1,0,3,3A3,3,0,0,0,207.4,29.2Z"/><path class="cls-1" d="M178.2,29.2a3,3,0,1,0,3,3A3,3,0,0,0,178.2,29.2Z"/><path class="cls-1" d="M149,29.2a3,3,0,1,0,3,3A3,3,0,0,0,149,29.2Z"/><path class="cls-1" d="M119.81,29.2a3,3,0,1,0,3,3A3,3,0,0,0,119.81,29.2Z"/><path class="cls-1" d="M192.8,14.6a3,3,0,1,0,3,3A3,3,0,0,0,192.8,14.6Z"/><path class="cls-1" d="M163.6,14.6a3,3,0,1,0,3,3A3,3,0,0,0,163.6,14.6Z"/><path class="cls-1" d="M134.41,14.6a3,3,0,1,0,3,3A3,3,0,0,0,134.41,14.6Z"/><path class="cls-1" d="M105.21,14.6h-.14a3,3,0,0,0,0,6h.14a3,3,0,0,0,0-6Z"/><path class="cls-1" d="M207.4,0a3,3,0,1,0,3,3A3,3,0,0,0,207.4,0Z"/><path class="cls-1" d="M178.2,0a3,3,0,1,0,3,3A3,3,0,0,0,178.2,0Z"/><path class="cls-1" d="M149,0a3,3,0,1,0,3,3A3,3,0,0,0,149,0Z"/><path class="cls-1" d="M119.81,0a3,3,0,1,0,3,3A3,3,0,0,0,119.81,0Z"/><path class="cls-1" d="M76,219a3,3,0,0,0-3,2.87V222a3,3,0,1,0,6,0v-.14A3,3,0,0,0,76,219Z"/><path class="cls-1" d="M46.81,219a3,3,0,0,0-3,2.87V222a3,3,0,0,0,6,0c0-.05,0-.09,0-.14A3,3,0,0,0,46.81,219Z"/><path class="cls-1" d="M17.61,219a3,3,0,0,0-3,2.87V222a3,3,0,0,0,6,0,.66.66,0,0,0,0-.14A3,3,0,0,0,17.61,219Z"/><path class="cls-1" d="M90.61,204.39a3,3,0,1,0,3,3A3,3,0,0,0,90.61,204.39Z"/><path class="cls-1" d="M61.41,204.39a3,3,0,1,0,3,3A3,3,0,0,0,61.41,204.39Z"/><path class="cls-1" d="M32.21,204.39a3,3,0,1,0,3,3A3,3,0,0,0,32.21,204.39Z"/><path class="cls-1" d="M3,204.39a3,3,0,1,0,3,3A3,3,0,0,0,3,204.39Z"/><path class="cls-1" d="M76,189.79a3,3,0,1,0,3,3A3,3,0,0,0,76,189.79Z"/><path class="cls-1" d="M46.81,189.79a3,3,0,1,0,3,3A3,3,0,0,0,46.81,189.79Z"/><path class="cls-1" d="M17.61,189.79a3,3,0,1,0,3,3A3,3,0,0,0,17.61,189.79Z"/><path class="cls-1" d="M90.61,175.19a3,3,0,1,0,3,3A3,3,0,0,0,90.61,175.19Z"/><path class="cls-1" d="M61.41,175.19a3,3,0,1,0,3,3A3,3,0,0,0,61.41,175.19Z"/><path class="cls-1" d="M32.21,175.19a3,3,0,1,0,3,3A3,3,0,0,0,32.21,175.19Z"/><path class="cls-1" d="M3,175.19a3,3,0,1,0,3,3A3,3,0,0,0,3,175.19Z"/><path class="cls-1" d="M76,160.59a3,3,0,1,0,3,3A3,3,0,0,0,76,160.59Z"/><path class="cls-1" d="M46.81,160.59a3,3,0,1,0,3,3A3,3,0,0,0,46.81,160.59Z"/><path class="cls-1" d="M17.61,160.59a3,3,0,1,0,3,3A3,3,0,0,0,17.61,160.59Z"/><path class="cls-1" d="M90.61,146a3,3,0,1,0,3,3A3,3,0,0,0,90.61,146Z"/><path class="cls-1" d="M61.41,146a3,3,0,1,0,3,3A3,3,0,0,0,61.41,146Z"/><path class="cls-1" d="M32.21,146a3,3,0,1,0,3,3A3,3,0,0,0,32.21,146Z"/><path class="cls-1" d="M3,146a3,3,0,1,0,3,3A3,3,0,0,0,3,146Z"/><path class="cls-1" d="M76,131.39a3,3,0,1,0,3,3A3,3,0,0,0,76,131.39Z"/><path class="cls-1" d="M46.81,131.39a3,3,0,1,0,3,3A3,3,0,0,0,46.81,131.39Z"/><path class="cls-1" d="M17.61,131.39a3,3,0,1,0,3,3A3,3,0,0,0,17.61,131.39Z"/><path class="cls-1" d="M90.61,116.79a3,3,0,1,0,3,3A3,3,0,0,0,90.61,116.79Z"/><path class="cls-1" d="M61.41,116.79a3,3,0,1,0,3,3A3,3,0,0,0,61.41,116.79Z"/><path class="cls-1" d="M32.21,116.79a3,3,0,1,0,3,3A3,3,0,0,0,32.21,116.79Z"/><path class="cls-1" d="M3,116.79a3,3,0,1,0,3,3A3,3,0,0,0,3,116.79Z"/><path class="cls-1" d="M192.8,219a3,3,0,0,0-3,2.87V222a3,3,0,0,0,6,0,.66.66,0,0,0,0-.14A3,3,0,0,0,192.8,219Z"/><path class="cls-1" d="M163.6,219a3,3,0,0,0-3,2.87V222a3,3,0,0,0,6,0,.66.66,0,0,0,0-.14A3,3,0,0,0,163.6,219Z"/><path class="cls-1" d="M134.41,219a3,3,0,0,0-3,2.87V222a3,3,0,0,0,6,0v-.14A3,3,0,0,0,134.41,219Z"/><path class="cls-1" d="M105.21,219h-.14a3,3,0,0,0-2.87,2.87.66.66,0,0,0,0,.14,3,3,0,0,0,2.88,3h.14a3,3,0,0,0,3-3v-.14A3,3,0,0,0,105.21,219Z"/><path class="cls-1" d="M207.4,204.39a3,3,0,1,0,3,3A3,3,0,0,0,207.4,204.39Z"/><path class="cls-1" d="M178.2,204.39a3,3,0,1,0,3,3A3,3,0,0,0,178.2,204.39Z"/><path class="cls-1" d="M149,204.39a3,3,0,1,0,3,3A3,3,0,0,0,149,204.39Z"/><path class="cls-1" d="M119.81,204.39a3,3,0,1,0,3,3A3,3,0,0,0,119.81,204.39Z"/><path class="cls-1" d="M192.8,189.79a3,3,0,1,0,3,3A3,3,0,0,0,192.8,189.79Z"/><path class="cls-1" d="M163.6,189.79a3,3,0,1,0,3,3A3,3,0,0,0,163.6,189.79Z"/><path class="cls-1" d="M134.41,189.79a3,3,0,1,0,3,3A3,3,0,0,0,134.41,189.79Z"/><path class="cls-1" d="M105.21,189.79h-.14a3,3,0,0,0,0,6h.14a3,3,0,0,0,0-6Z"/><path class="cls-1" d="M207.4,175.19a3,3,0,1,0,3,3A3,3,0,0,0,207.4,175.19Z"/><path class="cls-1" d="M178.2,175.19a3,3,0,1,0,3,3A3,3,0,0,0,178.2,175.19Z"/><path class="cls-1" d="M149,175.19a3,3,0,1,0,3,3A3,3,0,0,0,149,175.19Z"/><path class="cls-1" d="M119.81,175.19a3,3,0,1,0,3,3A3,3,0,0,0,119.81,175.19Z"/><path class="cls-1" d="M192.8,160.59a3,3,0,1,0,3,3A3,3,0,0,0,192.8,160.59Z"/><path class="cls-1" d="M163.6,160.59a3,3,0,1,0,3,3A3,3,0,0,0,163.6,160.59Z"/><path class="cls-1" d="M134.41,160.59a3,3,0,1,0,3,3A3,3,0,0,0,134.41,160.59Z"/><path class="cls-1" d="M105.21,160.59h-.14a3,3,0,0,0,0,6h.14a3,3,0,0,0,0-6Z"/><path class="cls-1" d="M207.4,146a3,3,0,1,0,3,3A3,3,0,0,0,207.4,146Z"/><path class="cls-1" d="M178.2,146a3,3,0,1,0,3,3A3,3,0,0,0,178.2,146Z"/><path class="cls-1" d="M149,146a3,3,0,1,0,3,3A3,3,0,0,0,149,146Z"/><path class="cls-1" d="M119.81,146a3,3,0,1,0,3,3A3,3,0,0,0,119.81,146Z"/><path class="cls-1" d="M192.8,131.39a3,3,0,1,0,3,3A3,3,0,0,0,192.8,131.39Z"/><path class="cls-1" d="M163.6,131.39a3,3,0,1,0,3,3A3,3,0,0,0,163.6,131.39Z"/><path class="cls-1" d="M134.41,131.39a3,3,0,1,0,3,3A3,3,0,0,0,134.41,131.39Z"/><path class="cls-1" d="M105.21,131.39h-.14a3,3,0,0,0,0,6h.14a3,3,0,0,0,0-6Z"/><path class="cls-1" d="M207.4,116.79a3,3,0,1,0,3,3A3,3,0,0,0,207.4,116.79Z"/><path class="cls-1" d="M178.2,116.79a3,3,0,1,0,3,3A3,3,0,0,0,178.2,116.79Z"/><path class="cls-1" d="M149,116.79a3,3,0,1,0,3,3A3,3,0,0,0,149,116.79Z"/><path class="cls-1" d="M119.81,116.79a3,3,0,1,0,3,3A3,3,0,0,0,119.81,116.79Z"/><path class="cls-1" d="M309.59,102.19a3,3,0,0,0-3,2.88v.14a3,3,0,0,0,6,0v-.14A3,3,0,0,0,309.59,102.19Z"/><path class="cls-1" d="M280.4,102.19a3,3,0,0,0-3,2.88.66.66,0,0,0,0,.14,3,3,0,0,0,6,0v-.14A3,3,0,0,0,280.4,102.19Z"/><path class="cls-1" d="M251.2,102.19a3,3,0,0,0-3,2.88c0,.05,0,.09,0,.14a3,3,0,0,0,6,0v-.14A3,3,0,0,0,251.2,102.19Z"/><path class="cls-1" d="M222,102.19h-.14a3,3,0,0,0-2.87,2.87v.14a3,3,0,0,0,2.87,3H222a3,3,0,0,0,3-3v-.14A3,3,0,0,0,222,102.19Z"/><path class="cls-1" d="M324.19,87.59a3,3,0,1,0,3,3A3,3,0,0,0,324.19,87.59Z"/><path class="cls-1" d="M295,87.59a3,3,0,1,0,3,3A3,3,0,0,0,295,87.59Z"/><path class="cls-1" d="M265.8,87.59a3,3,0,1,0,3,3A3,3,0,0,0,265.8,87.59Z"/><path class="cls-1" d="M236.6,87.59a3,3,0,1,0,3,3A3,3,0,0,0,236.6,87.59Z"/><path class="cls-1" d="M309.59,73a3,3,0,1,0,3,3A3,3,0,0,0,309.59,73Z"/><path class="cls-1" d="M280.4,73a3,3,0,1,0,3,3A3,3,0,0,0,280.4,73Z"/><path class="cls-1" d="M251.2,73a3,3,0,1,0,3,3A3,3,0,0,0,251.2,73Z"/><path class="cls-1" d="M222,73h-.14a3,3,0,0,0,0,6H222a3,3,0,0,0,0-6Z"/><path class="cls-1" d="M324.19,58.4a3,3,0,1,0,3,3A3,3,0,0,0,324.19,58.4Z"/><path class="cls-1" d="M295,58.4a3,3,0,1,0,3,3A3,3,0,0,0,295,58.4Z"/><path class="cls-1" d="M265.8,58.4a3,3,0,1,0,3,3A3,3,0,0,0,265.8,58.4Z"/><path class="cls-1" d="M236.6,58.4a3,3,0,1,0,3,3A3,3,0,0,0,236.6,58.4Z"/><path class="cls-1" d="M309.59,43.8a3,3,0,1,0,3,3A3,3,0,0,0,309.59,43.8Z"/><path class="cls-1" d="M280.4,43.8a3,3,0,1,0,3,3A3,3,0,0,0,280.4,43.8Z"/><path class="cls-1" d="M251.2,43.8a3,3,0,1,0,3,3A3,3,0,0,0,251.2,43.8Z"/><path class="cls-1" d="M222,43.8h-.14a3,3,0,0,0,0,6H222a3,3,0,0,0,0-6Z"/><path class="cls-1" d="M324.19,29.2a3,3,0,1,0,3,3A3,3,0,0,0,324.19,29.2Z"/><path class="cls-1" d="M295,29.2a3,3,0,1,0,3,3A3,3,0,0,0,295,29.2Z"/><path class="cls-1" d="M265.8,29.2a3,3,0,1,0,3,3A3,3,0,0,0,265.8,29.2Z"/><path class="cls-1" d="M236.6,29.2a3,3,0,1,0,3,3A3,3,0,0,0,236.6,29.2Z"/><path class="cls-1" d="M309.59,14.6a3,3,0,1,0,3,3A3,3,0,0,0,309.59,14.6Z"/><path class="cls-1" d="M280.4,14.6a3,3,0,1,0,3,3A3,3,0,0,0,280.4,14.6Z"/><path class="cls-1" d="M251.2,14.6a3,3,0,1,0,3,3A3,3,0,0,0,251.2,14.6Z"/><path class="cls-1" d="M222,14.6h-.14a3,3,0,0,0,0,6H222a3,3,0,0,0,0-6Z"/><path class="cls-1" d="M324.19,0a3,3,0,1,0,3,3A3,3,0,0,0,324.19,0Z"/><path class="cls-1" d="M295,0a3,3,0,1,0,3,3A3,3,0,0,0,295,0Z"/><path class="cls-1" d="M265.8,0a3,3,0,1,0,3,3A3,3,0,0,0,265.8,0Z"/><path class="cls-1" d="M236.6,0a3,3,0,1,0,3,3A3,3,0,0,0,236.6,0Z"/><path class="cls-1" d="M426.39,102.19a3,3,0,0,0-3,2.88.66.66,0,0,0,0,.14,3,3,0,0,0,6,0v-.14A3,3,0,0,0,426.39,102.19Z"/><path class="cls-1" d="M397.19,102.19a3,3,0,0,0-3,2.88c0,.05,0,.09,0,.14a3,3,0,0,0,6,0v-.14A3,3,0,0,0,397.19,102.19Z"/><path class="cls-1" d="M368,102.19a3,3,0,0,0-3,2.88v.14a3,3,0,0,0,6,0v-.14A3,3,0,0,0,368,102.19Z"/><path class="cls-1" d="M338.79,102.19h-.14a3,3,0,0,0-2.87,2.87v.14a3,3,0,0,0,2.87,3h.14a3,3,0,0,0,3-3,.66.66,0,0,0,0-.14A3,3,0,0,0,338.79,102.19Z"/><path class="cls-1" d="M441,87.59a3,3,0,1,0,3,3A3,3,0,0,0,441,87.59Z"/><path class="cls-1" d="M411.79,87.59a3,3,0,1,0,3,3A3,3,0,0,0,411.79,87.59Z"/><path class="cls-1" d="M382.59,87.59a3,3,0,1,0,3,3A3,3,0,0,0,382.59,87.59Z"/><path class="cls-1" d="M353.39,87.59a3,3,0,1,0,3,3A3,3,0,0,0,353.39,87.59Z"/><path class="cls-1" d="M426.39,73a3,3,0,1,0,3,3A3,3,0,0,0,426.39,73Z"/><path class="cls-1" d="M397.19,73a3,3,0,1,0,3,3A3,3,0,0,0,397.19,73Z"/><path class="cls-1" d="M368,73a3,3,0,1,0,3,3A3,3,0,0,0,368,73Z"/><path class="cls-1" d="M338.79,73h-.14a3,3,0,0,0,0,6h.14a3,3,0,1,0,0-6Z"/><path class="cls-1" d="M441,58.4a3,3,0,1,0,3,3A3,3,0,0,0,441,58.4Z"/><path class="cls-1" d="M411.79,58.4a3,3,0,1,0,3,3A3,3,0,0,0,411.79,58.4Z"/><path class="cls-1" d="M382.59,58.4a3,3,0,1,0,3,3A3,3,0,0,0,382.59,58.4Z"/><path class="cls-1" d="M353.39,58.4a3,3,0,1,0,3,3A3,3,0,0,0,353.39,58.4Z"/><path class="cls-1" d="M426.39,43.8a3,3,0,1,0,3,3A3,3,0,0,0,426.39,43.8Z"/><path class="cls-1" d="M397.19,43.8a3,3,0,1,0,3,3A3,3,0,0,0,397.19,43.8Z"/><path class="cls-1" d="M368,43.8a3,3,0,1,0,3,3A3,3,0,0,0,368,43.8Z"/><path class="cls-1" d="M338.79,43.8h-.14a3,3,0,0,0,0,6h.14a3,3,0,1,0,0-6Z"/><path class="cls-1" d="M441,29.2a3,3,0,1,0,3,3A3,3,0,0,0,441,29.2Z"/><path class="cls-1" d="M411.79,29.2a3,3,0,1,0,3,3A3,3,0,0,0,411.79,29.2Z"/><path class="cls-1" d="M382.59,29.2a3,3,0,1,0,3,3A3,3,0,0,0,382.59,29.2Z"/><path class="cls-1" d="M353.39,29.2a3,3,0,1,0,3,3A3,3,0,0,0,353.39,29.2Z"/><path class="cls-1" d="M426.39,14.6a3,3,0,1,0,3,3A3,3,0,0,0,426.39,14.6Z"/><path class="cls-1" d="M397.19,14.6a3,3,0,1,0,3,3A3,3,0,0,0,397.19,14.6Z"/><path class="cls-1" d="M368,14.6a3,3,0,1,0,3,3A3,3,0,0,0,368,14.6Z"/><path class="cls-1" d="M338.79,14.6h-.14a3,3,0,0,0,0,6h.14a3,3,0,1,0,0-6Z"/><path class="cls-1" d="M441,0a3,3,0,1,0,3,3A3,3,0,0,0,441,0Z"/><path class="cls-1" d="M411.79,0a3,3,0,1,0,3,3A3,3,0,0,0,411.79,0Z"/><path class="cls-1" d="M382.59,0a3,3,0,1,0,3,3A3,3,0,0,0,382.59,0Z"/><path class="cls-1" d="M353.39,0a3,3,0,1,0,3,3A3,3,0,0,0,353.39,0Z"/><path class="cls-1" d="M309.59,219a3,3,0,0,0-3,2.87V222a3,3,0,0,0,6,0v-.14A3,3,0,0,0,309.59,219Z"/><path class="cls-1" d="M280.4,219a3,3,0,0,0-3,2.87.66.66,0,0,0,0,.14,3,3,0,0,0,6,0v-.14A3,3,0,0,0,280.4,219Z"/><path class="cls-1" d="M251.2,219a3,3,0,0,0-3,2.87s0,.09,0,.14a3,3,0,0,0,6,0v-.14A3,3,0,0,0,251.2,219Z"/><path class="cls-1" d="M222,219h-.14a3,3,0,0,0-2.87,2.87V222a3,3,0,0,0,2.87,3H222a3,3,0,0,0,3-3v-.14A3,3,0,0,0,222,219Z"/><path class="cls-1" d="M324.19,204.39a3,3,0,1,0,3,3A3,3,0,0,0,324.19,204.39Z"/><path class="cls-1" d="M295,204.39a3,3,0,1,0,3,3A3,3,0,0,0,295,204.39Z"/><path class="cls-1" d="M265.8,204.39a3,3,0,1,0,3,3A3,3,0,0,0,265.8,204.39Z"/><path class="cls-1" d="M236.6,204.39a3,3,0,1,0,3,3A3,3,0,0,0,236.6,204.39Z"/><path class="cls-1" d="M309.59,189.79a3,3,0,1,0,3,3A3,3,0,0,0,309.59,189.79Z"/><path class="cls-1" d="M280.4,189.79a3,3,0,1,0,3,3A3,3,0,0,0,280.4,189.79Z"/><path class="cls-1" d="M251.2,189.79a3,3,0,1,0,3,3A3,3,0,0,0,251.2,189.79Z"/><path class="cls-1" d="M222,189.79h-.14a3,3,0,0,0,0,6H222a3,3,0,0,0,0-6Z"/><path class="cls-1" d="M324.19,175.19a3,3,0,1,0,3,3A3,3,0,0,0,324.19,175.19Z"/><path class="cls-1" d="M295,175.19a3,3,0,1,0,3,3A3,3,0,0,0,295,175.19Z"/><path class="cls-1" d="M265.8,175.19a3,3,0,1,0,3,3A3,3,0,0,0,265.8,175.19Z"/><path class="cls-1" d="M236.6,175.19a3,3,0,1,0,3,3A3,3,0,0,0,236.6,175.19Z"/><path class="cls-1" d="M309.59,160.59a3,3,0,1,0,3,3A3,3,0,0,0,309.59,160.59Z"/><path class="cls-1" d="M280.4,160.59a3,3,0,1,0,3,3A3,3,0,0,0,280.4,160.59Z"/><path class="cls-1" d="M251.2,160.59a3,3,0,1,0,3,3A3,3,0,0,0,251.2,160.59Z"/><path class="cls-1" d="M222,160.59h-.14a3,3,0,0,0,0,6H222a3,3,0,0,0,0-6Z"/><path class="cls-1" d="M324.19,146a3,3,0,1,0,3,3A3,3,0,0,0,324.19,146Z"/><path class="cls-1" d="M295,146a3,3,0,1,0,3,3A3,3,0,0,0,295,146Z"/><path class="cls-1" d="M265.8,146a3,3,0,1,0,3,3A3,3,0,0,0,265.8,146Z"/><path class="cls-1" d="M236.6,146a3,3,0,1,0,3,3A3,3,0,0,0,236.6,146Z"/><path class="cls-1" d="M309.59,131.39a3,3,0,1,0,3,3A3,3,0,0,0,309.59,131.39Z"/><path class="cls-1" d="M280.4,131.39a3,3,0,1,0,3,3A3,3,0,0,0,280.4,131.39Z"/><path class="cls-1" d="M251.2,131.39a3,3,0,1,0,3,3A3,3,0,0,0,251.2,131.39Z"/><path class="cls-1" d="M222,131.39h-.14a3,3,0,0,0,0,6H222a3,3,0,0,0,0-6Z"/><path class="cls-1" d="M324.19,116.79a3,3,0,1,0,3,3A3,3,0,0,0,324.19,116.79Z"/><path class="cls-1" d="M295,116.79a3,3,0,1,0,3,3A3,3,0,0,0,295,116.79Z"/><path class="cls-1" d="M265.8,116.79a3,3,0,1,0,3,3A3,3,0,0,0,265.8,116.79Z"/><path class="cls-1" d="M236.6,116.79a3,3,0,1,0,3,3A3,3,0,0,0,236.6,116.79Z"/><path class="cls-1" d="M426.39,219a3,3,0,0,0-3,2.87.66.66,0,0,0,0,.14,3,3,0,0,0,6,0v-.14A3,3,0,0,0,426.39,219Z"/><path class="cls-1" d="M397.19,219a3,3,0,0,0-3,2.87s0,.09,0,.14a3,3,0,0,0,6,0v-.14A3,3,0,0,0,397.19,219Z"/><path class="cls-1" d="M368,219a3,3,0,0,0-3,2.87V222a3,3,0,0,0,6,0v-.14A3,3,0,0,0,368,219Z"/><path class="cls-1" d="M338.79,219h-.14a3,3,0,0,0-2.87,2.87V222a3,3,0,0,0,2.87,3h.14a3,3,0,0,0,3-3,.66.66,0,0,0,0-.14A3,3,0,0,0,338.79,219Z"/><path class="cls-1" d="M441,204.39a3,3,0,1,0,3,3A3,3,0,0,0,441,204.39Z"/><path class="cls-1" d="M411.79,204.39a3,3,0,1,0,3,3A3,3,0,0,0,411.79,204.39Z"/><path class="cls-1" d="M382.59,204.39a3,3,0,1,0,3,3A3,3,0,0,0,382.59,204.39Z"/><path class="cls-1" d="M353.39,204.39a3,3,0,1,0,3,3A3,3,0,0,0,353.39,204.39Z"/><path class="cls-1" d="M426.39,189.79a3,3,0,1,0,3,3A3,3,0,0,0,426.39,189.79Z"/><path class="cls-1" d="M397.19,189.79a3,3,0,1,0,3,3A3,3,0,0,0,397.19,189.79Z"/><path class="cls-1" d="M368,189.79a3,3,0,1,0,3,3A3,3,0,0,0,368,189.79Z"/><path class="cls-1" d="M338.79,189.79h-.14a3,3,0,0,0,0,6h.14a3,3,0,1,0,0-6Z"/><path class="cls-1" d="M441,175.19a3,3,0,1,0,3,3A3,3,0,0,0,441,175.19Z"/><path class="cls-1" d="M411.79,175.19a3,3,0,1,0,3,3A3,3,0,0,0,411.79,175.19Z"/><path class="cls-1" d="M382.59,175.19a3,3,0,1,0,3,3A3,3,0,0,0,382.59,175.19Z"/><path class="cls-1" d="M353.39,175.19a3,3,0,1,0,3,3A3,3,0,0,0,353.39,175.19Z"/><path class="cls-1" d="M426.39,160.59a3,3,0,1,0,3,3A3,3,0,0,0,426.39,160.59Z"/><path class="cls-1" d="M397.19,160.59a3,3,0,1,0,3,3A3,3,0,0,0,397.19,160.59Z"/><path class="cls-1" d="M368,160.59a3,3,0,1,0,3,3A3,3,0,0,0,368,160.59Z"/><path class="cls-1" d="M338.79,160.59h-.14a3,3,0,0,0,0,6h.14a3,3,0,1,0,0-6Z"/><path class="cls-1" d="M441,146a3,3,0,1,0,3,3A3,3,0,0,0,441,146Z"/><path class="cls-1" d="M411.79,146a3,3,0,1,0,3,3A3,3,0,0,0,411.79,146Z"/><path class="cls-1" d="M382.59,146a3,3,0,1,0,3,3A3,3,0,0,0,382.59,146Z"/><path class="cls-1" d="M353.39,146a3,3,0,1,0,3,3A3,3,0,0,0,353.39,146Z"/><path class="cls-1" d="M426.39,131.39a3,3,0,1,0,3,3A3,3,0,0,0,426.39,131.39Z"/><path class="cls-1" d="M397.19,131.39a3,3,0,1,0,3,3A3,3,0,0,0,397.19,131.39Z"/><path class="cls-1" d="M368,131.39a3,3,0,1,0,3,3A3,3,0,0,0,368,131.39Z"/><path class="cls-1" d="M338.79,131.39h-.14a3,3,0,0,0,0,6h.14a3,3,0,1,0,0-6Z"/><path class="cls-1" d="M441,116.79a3,3,0,1,0,3,3A3,3,0,0,0,441,116.79Z"/><path class="cls-1" d="M411.79,116.79a3,3,0,1,0,3,3A3,3,0,0,0,411.79,116.79Z"/><path class="cls-1" d="M382.59,116.79a3,3,0,1,0,3,3A3,3,0,0,0,382.59,116.79Z"/><path class="cls-1" d="M353.39,116.79a3,3,0,1,0,3,3A3,3,0,0,0,353.39,116.79Z"/><path class="cls-1" d="M76,335.78a3,3,0,0,0-3,2.87v.14a3,3,0,1,0,6,0v-.14A3,3,0,0,0,76,335.78Z"/><path class="cls-1" d="M46.81,335.78a3,3,0,0,0-3,2.87v.14a3,3,0,1,0,6,0s0-.09,0-.14A3,3,0,0,0,46.81,335.78Z"/><path class="cls-1" d="M17.61,335.78a3,3,0,0,0-3,2.87v.14a3,3,0,1,0,6,0,.71.71,0,0,0,0-.14A3,3,0,0,0,17.61,335.78Z"/><path class="cls-1" d="M90.61,321.18a3,3,0,1,0,3,3A3,3,0,0,0,90.61,321.18Z"/><path class="cls-1" d="M61.41,321.18a3,3,0,1,0,3,3A3,3,0,0,0,61.41,321.18Z"/><path class="cls-1" d="M32.21,321.18a3,3,0,1,0,3,3A3,3,0,0,0,32.21,321.18Z"/><path class="cls-1" d="M3,321.18a3,3,0,1,0,3,3A3,3,0,0,0,3,321.18Z"/><path class="cls-1" d="M76,306.58a3,3,0,1,0,3,3A3,3,0,0,0,76,306.58Z"/><path class="cls-1" d="M46.81,306.58a3,3,0,1,0,3,3A3,3,0,0,0,46.81,306.58Z"/><path class="cls-1" d="M17.61,306.58a3,3,0,1,0,3,3A3,3,0,0,0,17.61,306.58Z"/><path class="cls-1" d="M90.61,292a3,3,0,1,0,3,3A3,3,0,0,0,90.61,292Z"/><path class="cls-1" d="M61.41,292a3,3,0,1,0,3,3A3,3,0,0,0,61.41,292Z"/><path class="cls-1" d="M32.21,292a3,3,0,1,0,3,3A3,3,0,0,0,32.21,292Z"/><path class="cls-1" d="M3,292a3,3,0,1,0,3,3A3,3,0,0,0,3,292Z"/><path class="cls-1" d="M76,277.38a3,3,0,1,0,3,3A3,3,0,0,0,76,277.38Z"/><path class="cls-1" d="M46.81,277.38a3,3,0,1,0,3,3A3,3,0,0,0,46.81,277.38Z"/><path class="cls-1" d="M17.61,277.38a3,3,0,1,0,3,3A3,3,0,0,0,17.61,277.38Z"/><path class="cls-1" d="M90.61,262.78a3,3,0,1,0,3,3A3,3,0,0,0,90.61,262.78Z"/><path class="cls-1" d="M61.41,262.78a3,3,0,1,0,3,3A3,3,0,0,0,61.41,262.78Z"/><path class="cls-1" d="M32.21,262.78a3,3,0,1,0,3,3A3,3,0,0,0,32.21,262.78Z"/><path class="cls-1" d="M3,262.78a3,3,0,1,0,3,3A3,3,0,0,0,3,262.78Z"/><path class="cls-1" d="M76,248.18a3,3,0,1,0,3,3A3,3,0,0,0,76,248.18Z"/><path class="cls-1" d="M46.81,248.18a3,3,0,1,0,3,3A3,3,0,0,0,46.81,248.18Z"/><path class="cls-1" d="M17.61,248.18a3,3,0,1,0,3,3A3,3,0,0,0,17.61,248.18Z"/><path class="cls-1" d="M90.61,233.58a3,3,0,1,0,3,3A3,3,0,0,0,90.61,233.58Z"/><path class="cls-1" d="M61.41,233.58a3,3,0,1,0,3,3A3,3,0,0,0,61.41,233.58Z"/><path class="cls-1" d="M32.21,233.58a3,3,0,1,0,3,3A3,3,0,0,0,32.21,233.58Z"/><path class="cls-1" d="M3,233.58a3,3,0,1,0,3,3A3,3,0,0,0,3,233.58Z"/><path class="cls-1" d="M192.8,335.78a3,3,0,0,0-3,2.87v.14a3,3,0,1,0,6,0,.71.71,0,0,0,0-.14A3,3,0,0,0,192.8,335.78Z"/><path class="cls-1" d="M163.6,335.78a3,3,0,0,0-3,2.87v.14a3,3,0,1,0,6,0,.71.71,0,0,0,0-.14A3,3,0,0,0,163.6,335.78Z"/><path class="cls-1" d="M134.41,335.78a3,3,0,0,0-3,2.87v.14a3,3,0,1,0,6,0v-.14A3,3,0,0,0,134.41,335.78Z"/><path class="cls-1" d="M105.21,335.78h-.14a3,3,0,0,0-2.87,2.87.71.71,0,0,0,0,.14,3,3,0,0,0,2.88,3h.14a3,3,0,0,0,3-3v-.14A3,3,0,0,0,105.21,335.78Z"/><path class="cls-1" d="M207.4,321.18a3,3,0,1,0,3,3A3,3,0,0,0,207.4,321.18Z"/><path class="cls-1" d="M178.2,321.18a3,3,0,1,0,3,3A3,3,0,0,0,178.2,321.18Z"/><path class="cls-1" d="M149,321.18a3,3,0,1,0,3,3A3,3,0,0,0,149,321.18Z"/><path class="cls-1" d="M119.81,321.18a3,3,0,1,0,3,3A3,3,0,0,0,119.81,321.18Z"/><path class="cls-1" d="M192.8,306.58a3,3,0,1,0,3,3A3,3,0,0,0,192.8,306.58Z"/><path class="cls-1" d="M163.6,306.58a3,3,0,1,0,3,3A3,3,0,0,0,163.6,306.58Z"/><path class="cls-1" d="M134.41,306.58a3,3,0,1,0,3,3A3,3,0,0,0,134.41,306.58Z"/><path class="cls-1" d="M105.21,306.58h-.14a3,3,0,0,0,0,6h.14a3,3,0,0,0,0-6Z"/><path class="cls-1" d="M207.4,292a3,3,0,1,0,3,3A3,3,0,0,0,207.4,292Z"/><path class="cls-1" d="M178.2,292a3,3,0,1,0,3,3A3,3,0,0,0,178.2,292Z"/><path class="cls-1" d="M149,292a3,3,0,1,0,3,3A3,3,0,0,0,149,292Z"/><path class="cls-1" d="M119.81,292a3,3,0,1,0,3,3A3,3,0,0,0,119.81,292Z"/><path class="cls-1" d="M192.8,277.38a3,3,0,1,0,3,3A3,3,0,0,0,192.8,277.38Z"/><path class="cls-1" d="M163.6,277.38a3,3,0,1,0,3,3A3,3,0,0,0,163.6,277.38Z"/><path class="cls-1" d="M134.41,277.38a3,3,0,1,0,3,3A3,3,0,0,0,134.41,277.38Z"/><path class="cls-1" d="M105.21,277.38h-.14a3,3,0,0,0,0,6h.14a3,3,0,0,0,0-6Z"/><path class="cls-1" d="M207.4,262.78a3,3,0,1,0,3,3A3,3,0,0,0,207.4,262.78Z"/><path class="cls-1" d="M178.2,262.78a3,3,0,1,0,3,3A3,3,0,0,0,178.2,262.78Z"/><path class="cls-1" d="M149,262.78a3,3,0,1,0,3,3A3,3,0,0,0,149,262.78Z"/><path class="cls-1" d="M119.81,262.78a3,3,0,1,0,3,3A3,3,0,0,0,119.81,262.78Z"/><path class="cls-1" d="M192.8,248.18a3,3,0,1,0,3,3A3,3,0,0,0,192.8,248.18Z"/><path class="cls-1" d="M163.6,248.18a3,3,0,1,0,3,3A3,3,0,0,0,163.6,248.18Z"/><path class="cls-1" d="M134.41,248.18a3,3,0,1,0,3,3A3,3,0,0,0,134.41,248.18Z"/><path class="cls-1" d="M105.21,248.18h-.14a3,3,0,0,0,0,6h.14a3,3,0,0,0,0-6Z"/><path class="cls-1" d="M207.4,233.58a3,3,0,1,0,3,3A3,3,0,0,0,207.4,233.58Z"/><path class="cls-1" d="M178.2,233.58a3,3,0,1,0,3,3A3,3,0,0,0,178.2,233.58Z"/><path class="cls-1" d="M149,233.58a3,3,0,1,0,3,3A3,3,0,0,0,149,233.58Z"/><path class="cls-1" d="M119.81,233.58a3,3,0,1,0,3,3A3,3,0,0,0,119.81,233.58Z"/><path class="cls-1" d="M90.61,438a3,3,0,1,0,3,3A3,3,0,0,0,90.61,438Z"/><path class="cls-1" d="M61.41,438a3,3,0,1,0,3,3A3,3,0,0,0,61.41,438Z"/><path class="cls-1" d="M32.21,438a3,3,0,1,0,3,3A3,3,0,0,0,32.21,438Z"/><path class="cls-1" d="M3,438a3,3,0,1,0,3,3A3,3,0,0,0,3,438Z"/><path class="cls-1" d="M76,423.37a3,3,0,1,0,3,3A3,3,0,0,0,76,423.37Z"/><path class="cls-1" d="M46.81,423.37a3,3,0,1,0,3,3A3,3,0,0,0,46.81,423.37Z"/><path class="cls-1" d="M17.61,423.37a3,3,0,1,0,3,3A3,3,0,0,0,17.61,423.37Z"/><path class="cls-1" d="M90.61,408.77a3,3,0,1,0,3,3A3,3,0,0,0,90.61,408.77Z"/><path class="cls-1" d="M61.41,408.77a3,3,0,1,0,3,3A3,3,0,0,0,61.41,408.77Z"/><path class="cls-1" d="M32.21,408.77a3,3,0,1,0,3,3A3,3,0,0,0,32.21,408.77Z"/><path class="cls-1" d="M3,408.77a3,3,0,1,0,3,3A3,3,0,0,0,3,408.77Z"/><path class="cls-1" d="M76,394.17a3,3,0,1,0,3,3A3,3,0,0,0,76,394.17Z"/><path class="cls-1" d="M46.81,394.17a3,3,0,1,0,3,3A3,3,0,0,0,46.81,394.17Z"/><path class="cls-1" d="M17.61,394.17a3,3,0,1,0,3,3A3,3,0,0,0,17.61,394.17Z"/><path class="cls-1" d="M90.61,379.58a3,3,0,1,0,3,3A3,3,0,0,0,90.61,379.58Z"/><path class="cls-1" d="M61.41,379.58a3,3,0,1,0,3,3A3,3,0,0,0,61.41,379.58Z"/><path class="cls-1" d="M32.21,379.58a3,3,0,1,0,3,3A3,3,0,0,0,32.21,379.58Z"/><path class="cls-1" d="M3,379.58a3,3,0,1,0,3,3A3,3,0,0,0,3,379.58Z"/><path class="cls-1" d="M76,365a3,3,0,1,0,3,3A3,3,0,0,0,76,365Z"/><path class="cls-1" d="M46.81,365a3,3,0,1,0,3,3A3,3,0,0,0,46.81,365Z"/><path class="cls-1" d="M17.61,365a3,3,0,1,0,3,3A3,3,0,0,0,17.61,365Z"/><path class="cls-1" d="M90.61,350.38a3,3,0,1,0,3,3A3,3,0,0,0,90.61,350.38Z"/><path class="cls-1" d="M61.41,350.38a3,3,0,1,0,3,3A3,3,0,0,0,61.41,350.38Z"/><path class="cls-1" d="M32.21,350.38a3,3,0,1,0,3,3A3,3,0,0,0,32.21,350.38Z"/><path class="cls-1" d="M3,350.38a3,3,0,1,0,3,3A3,3,0,0,0,3,350.38Z"/><path class="cls-1" d="M207.4,438a3,3,0,1,0,3,3A3,3,0,0,0,207.4,438Z"/><path class="cls-1" d="M178.2,438a3,3,0,1,0,3,3A3,3,0,0,0,178.2,438Z"/><path class="cls-1" d="M149,438a3,3,0,1,0,3,3A3,3,0,0,0,149,438Z"/><path class="cls-1" d="M119.81,438a3,3,0,1,0,3,3A3,3,0,0,0,119.81,438Z"/><path class="cls-1" d="M192.8,423.37a3,3,0,1,0,3,3A3,3,0,0,0,192.8,423.37Z"/><path class="cls-1" d="M163.6,423.37a3,3,0,1,0,3,3A3,3,0,0,0,163.6,423.37Z"/><path class="cls-1" d="M134.41,423.37a3,3,0,1,0,3,3A3,3,0,0,0,134.41,423.37Z"/><path class="cls-1" d="M105.21,423.37h-.14a3,3,0,0,0,0,6h.14a3,3,0,0,0,0-6Z"/><path class="cls-1" d="M207.4,408.77a3,3,0,1,0,3,3A3,3,0,0,0,207.4,408.77Z"/><path class="cls-1" d="M178.2,408.77a3,3,0,1,0,3,3A3,3,0,0,0,178.2,408.77Z"/><path class="cls-1" d="M149,408.77a3,3,0,1,0,3,3A3,3,0,0,0,149,408.77Z"/><path class="cls-1" d="M119.81,408.77a3,3,0,1,0,3,3A3,3,0,0,0,119.81,408.77Z"/><path class="cls-1" d="M192.8,394.17a3,3,0,1,0,3,3A3,3,0,0,0,192.8,394.17Z"/><path class="cls-1" d="M163.6,394.17a3,3,0,1,0,3,3A3,3,0,0,0,163.6,394.17Z"/><path class="cls-1" d="M134.41,394.17a3,3,0,1,0,3,3A3,3,0,0,0,134.41,394.17Z"/><path class="cls-1" d="M105.21,394.17h-.14a3,3,0,0,0,0,6h.14a3,3,0,0,0,0-6Z"/><path class="cls-1" d="M207.4,379.58a3,3,0,1,0,3,3A3,3,0,0,0,207.4,379.58Z"/><path class="cls-1" d="M178.2,379.58a3,3,0,1,0,3,3A3,3,0,0,0,178.2,379.58Z"/><path class="cls-1" d="M149,379.58a3,3,0,1,0,3,3A3,3,0,0,0,149,379.58Z"/><path class="cls-1" d="M119.81,379.58a3,3,0,1,0,3,3A3,3,0,0,0,119.81,379.58Z"/><path class="cls-1" d="M192.8,365a3,3,0,1,0,3,3A3,3,0,0,0,192.8,365Z"/><path class="cls-1" d="M163.6,365a3,3,0,1,0,3,3A3,3,0,0,0,163.6,365Z"/><path class="cls-1" d="M134.41,365a3,3,0,1,0,3,3A3,3,0,0,0,134.41,365Z"/><path class="cls-1" d="M105.21,365h-.14a3,3,0,0,0,0,6h.14a3,3,0,1,0,0-6Z"/><path class="cls-1" d="M207.4,350.38a3,3,0,1,0,3,3A3,3,0,0,0,207.4,350.38Z"/><path class="cls-1" d="M178.2,350.38a3,3,0,1,0,3,3A3,3,0,0,0,178.2,350.38Z"/><path class="cls-1" d="M149,350.38a3,3,0,1,0,3,3A3,3,0,0,0,149,350.38Z"/><path class="cls-1" d="M119.81,350.38a3,3,0,1,0,3,3A3,3,0,0,0,119.81,350.38Z"/><path class="cls-1" d="M309.59,335.78a3,3,0,0,0-3,2.87v.14a3,3,0,1,0,6,0v-.14A3,3,0,0,0,309.59,335.78Z"/><path class="cls-1" d="M280.4,335.78a3,3,0,0,0-3,2.87.71.71,0,0,0,0,.14,3,3,0,1,0,6,0v-.14A3,3,0,0,0,280.4,335.78Z"/><path class="cls-1" d="M251.2,335.78a3,3,0,0,0-3,2.87c0,.05,0,.1,0,.14a3,3,0,1,0,6,0v-.14A3,3,0,0,0,251.2,335.78Z"/><path class="cls-1" d="M222,335.78h-.14a3,3,0,0,0-2.87,2.87v.14a3,3,0,0,0,2.87,3H222a3,3,0,0,0,3-3v-.14A3,3,0,0,0,222,335.78Z"/><path class="cls-1" d="M324.19,321.18a3,3,0,1,0,3,3A3,3,0,0,0,324.19,321.18Z"/><path class="cls-1" d="M295,321.18a3,3,0,1,0,3,3A3,3,0,0,0,295,321.18Z"/><path class="cls-1" d="M265.8,321.18a3,3,0,1,0,3,3A3,3,0,0,0,265.8,321.18Z"/><path class="cls-1" d="M236.6,321.18a3,3,0,1,0,3,3A3,3,0,0,0,236.6,321.18Z"/><path class="cls-1" d="M309.59,306.58a3,3,0,1,0,3,3A3,3,0,0,0,309.59,306.58Z"/><path class="cls-1" d="M280.4,306.58a3,3,0,1,0,3,3A3,3,0,0,0,280.4,306.58Z"/><path class="cls-1" d="M251.2,306.58a3,3,0,1,0,3,3A3,3,0,0,0,251.2,306.58Z"/><path class="cls-1" d="M222,306.58h-.14a3,3,0,0,0,0,6H222a3,3,0,0,0,0-6Z"/><path class="cls-1" d="M324.19,292a3,3,0,1,0,3,3A3,3,0,0,0,324.19,292Z"/><path class="cls-1" d="M295,292a3,3,0,1,0,3,3A3,3,0,0,0,295,292Z"/><path class="cls-1" d="M265.8,292a3,3,0,1,0,3,3A3,3,0,0,0,265.8,292Z"/><path class="cls-1" d="M236.6,292a3,3,0,1,0,3,3A3,3,0,0,0,236.6,292Z"/><path class="cls-1" d="M309.59,277.38a3,3,0,1,0,3,3A3,3,0,0,0,309.59,277.38Z"/><path class="cls-1" d="M280.4,277.38a3,3,0,1,0,3,3A3,3,0,0,0,280.4,277.38Z"/><path class="cls-1" d="M251.2,277.38a3,3,0,1,0,3,3A3,3,0,0,0,251.2,277.38Z"/><path class="cls-1" d="M222,277.38h-.14a3,3,0,0,0,0,6H222a3,3,0,0,0,0-6Z"/><path class="cls-1" d="M324.19,262.78a3,3,0,1,0,3,3A3,3,0,0,0,324.19,262.78Z"/><path class="cls-1" d="M295,262.78a3,3,0,1,0,3,3A3,3,0,0,0,295,262.78Z"/><path class="cls-1" d="M265.8,262.78a3,3,0,1,0,3,3A3,3,0,0,0,265.8,262.78Z"/><path class="cls-1" d="M236.6,262.78a3,3,0,1,0,3,3A3,3,0,0,0,236.6,262.78Z"/><path class="cls-1" d="M309.59,248.18a3,3,0,1,0,3,3A3,3,0,0,0,309.59,248.18Z"/><path class="cls-1" d="M280.4,248.18a3,3,0,1,0,3,3A3,3,0,0,0,280.4,248.18Z"/><path class="cls-1" d="M251.2,248.18a3,3,0,1,0,3,3A3,3,0,0,0,251.2,248.18Z"/><path class="cls-1" d="M222,248.18h-.14a3,3,0,0,0,0,6H222a3,3,0,0,0,0-6Z"/><path class="cls-1" d="M324.19,233.58a3,3,0,1,0,3,3A3,3,0,0,0,324.19,233.58Z"/><path class="cls-1" d="M295,233.58a3,3,0,1,0,3,3A3,3,0,0,0,295,233.58Z"/><path class="cls-1" d="M265.8,233.58a3,3,0,1,0,3,3A3,3,0,0,0,265.8,233.58Z"/><path class="cls-1" d="M236.6,233.58a3,3,0,1,0,3,3A3,3,0,0,0,236.6,233.58Z"/><path class="cls-1" d="M426.39,335.78a3,3,0,0,0-3,2.87.71.71,0,0,0,0,.14,3,3,0,1,0,6,0v-.14A3,3,0,0,0,426.39,335.78Z"/><path class="cls-1" d="M397.19,335.78a3,3,0,0,0-3,2.87c0,.05,0,.1,0,.14a3,3,0,1,0,6,0v-.14A3,3,0,0,0,397.19,335.78Z"/><path class="cls-1" d="M368,335.78a3,3,0,0,0-3,2.87v.14a3,3,0,1,0,6,0v-.14A3,3,0,0,0,368,335.78Z"/><path class="cls-1" d="M338.79,335.78h-.14a3,3,0,0,0-2.87,2.87v.14a3,3,0,0,0,2.87,3h.14a3,3,0,0,0,3-3,.71.71,0,0,0,0-.14A3,3,0,0,0,338.79,335.78Z"/><path class="cls-1" d="M441,321.18a3,3,0,1,0,3,3A3,3,0,0,0,441,321.18Z"/><path class="cls-1" d="M411.79,321.18a3,3,0,1,0,3,3A3,3,0,0,0,411.79,321.18Z"/><path class="cls-1" d="M382.59,321.18a3,3,0,1,0,3,3A3,3,0,0,0,382.59,321.18Z"/><path class="cls-1" d="M353.39,321.18a3,3,0,1,0,3,3A3,3,0,0,0,353.39,321.18Z"/><path class="cls-1" d="M426.39,306.58a3,3,0,1,0,3,3A3,3,0,0,0,426.39,306.58Z"/><path class="cls-1" d="M397.19,306.58a3,3,0,1,0,3,3A3,3,0,0,0,397.19,306.58Z"/><path class="cls-1" d="M368,306.58a3,3,0,1,0,3,3A3,3,0,0,0,368,306.58Z"/><path class="cls-1" d="M338.79,306.58h-.14a3,3,0,0,0,0,6h.14a3,3,0,1,0,0-6Z"/><path class="cls-1" d="M441,292a3,3,0,1,0,3,3A3,3,0,0,0,441,292Z"/><path class="cls-1" d="M411.79,292a3,3,0,1,0,3,3A3,3,0,0,0,411.79,292Z"/><path class="cls-1" d="M382.59,292a3,3,0,1,0,3,3A3,3,0,0,0,382.59,292Z"/><path class="cls-1" d="M353.39,292a3,3,0,1,0,3,3A3,3,0,0,0,353.39,292Z"/><path class="cls-1" d="M426.39,277.38a3,3,0,1,0,3,3A3,3,0,0,0,426.39,277.38Z"/><path class="cls-1" d="M397.19,277.38a3,3,0,1,0,3,3A3,3,0,0,0,397.19,277.38Z"/><path class="cls-1" d="M368,277.38a3,3,0,1,0,3,3A3,3,0,0,0,368,277.38Z"/><path class="cls-1" d="M338.79,277.38h-.14a3,3,0,0,0,0,6h.14a3,3,0,1,0,0-6Z"/><path class="cls-1" d="M441,262.78a3,3,0,1,0,3,3A3,3,0,0,0,441,262.78Z"/><path class="cls-1" d="M411.79,262.78a3,3,0,1,0,3,3A3,3,0,0,0,411.79,262.78Z"/><path class="cls-1" d="M382.59,262.78a3,3,0,1,0,3,3A3,3,0,0,0,382.59,262.78Z"/><path class="cls-1" d="M353.39,262.78a3,3,0,1,0,3,3A3,3,0,0,0,353.39,262.78Z"/><path class="cls-1" d="M426.39,248.18a3,3,0,1,0,3,3A3,3,0,0,0,426.39,248.18Z"/><path class="cls-1" d="M397.19,248.18a3,3,0,1,0,3,3A3,3,0,0,0,397.19,248.18Z"/><path class="cls-1" d="M368,248.18a3,3,0,1,0,3,3A3,3,0,0,0,368,248.18Z"/><path class="cls-1" d="M338.79,248.18h-.14a3,3,0,0,0,0,6h.14a3,3,0,1,0,0-6Z"/><path class="cls-1" d="M441,233.58a3,3,0,1,0,3,3A3,3,0,0,0,441,233.58Z"/><path class="cls-1" d="M411.79,233.58a3,3,0,1,0,3,3A3,3,0,0,0,411.79,233.58Z"/><path class="cls-1" d="M382.59,233.58a3,3,0,1,0,3,3A3,3,0,0,0,382.59,233.58Z"/><path class="cls-1" d="M353.39,233.58a3,3,0,1,0,3,3A3,3,0,0,0,353.39,233.58Z"/><path class="cls-1" d="M324.19,438a3,3,0,1,0,3,3A3,3,0,0,0,324.19,438Z"/><path class="cls-1" d="M295,438a3,3,0,1,0,3,3A3,3,0,0,0,295,438Z"/><path class="cls-1" d="M265.8,438a3,3,0,1,0,3,3A3,3,0,0,0,265.8,438Z"/><path class="cls-1" d="M236.6,438a3,3,0,1,0,3,3A3,3,0,0,0,236.6,438Z"/><path class="cls-1" d="M309.59,423.37a3,3,0,1,0,3,3A3,3,0,0,0,309.59,423.37Z"/><path class="cls-1" d="M280.4,423.37a3,3,0,1,0,3,3A3,3,0,0,0,280.4,423.37Z"/><path class="cls-1" d="M251.2,423.37a3,3,0,1,0,3,3A3,3,0,0,0,251.2,423.37Z"/><path class="cls-1" d="M222,423.37h-.14a3,3,0,0,0,0,6H222a3,3,0,0,0,0-6Z"/><path class="cls-1" d="M324.19,408.77a3,3,0,1,0,3,3A3,3,0,0,0,324.19,408.77Z"/><path class="cls-1" d="M295,408.77a3,3,0,1,0,3,3A3,3,0,0,0,295,408.77Z"/><path class="cls-1" d="M265.8,408.77a3,3,0,1,0,3,3A3,3,0,0,0,265.8,408.77Z"/><path class="cls-1" d="M236.6,408.77a3,3,0,1,0,3,3A3,3,0,0,0,236.6,408.77Z"/><path class="cls-1" d="M309.59,394.17a3,3,0,1,0,3,3A3,3,0,0,0,309.59,394.17Z"/><path class="cls-1" d="M280.4,394.17a3,3,0,1,0,3,3A3,3,0,0,0,280.4,394.17Z"/><path class="cls-1" d="M251.2,394.17a3,3,0,1,0,3,3A3,3,0,0,0,251.2,394.17Z"/><path class="cls-1" d="M222,394.17h-.14a3,3,0,0,0,0,6H222a3,3,0,0,0,0-6Z"/><path class="cls-1" d="M324.19,379.58a3,3,0,1,0,3,3A3,3,0,0,0,324.19,379.58Z"/><path class="cls-1" d="M295,379.58a3,3,0,1,0,3,3A3,3,0,0,0,295,379.58Z"/><path class="cls-1" d="M265.8,379.58a3,3,0,1,0,3,3A3,3,0,0,0,265.8,379.58Z"/><path class="cls-1" d="M236.6,379.58a3,3,0,1,0,3,3A3,3,0,0,0,236.6,379.58Z"/><path class="cls-1" d="M309.59,365a3,3,0,1,0,3,3A3,3,0,0,0,309.59,365Z"/><path class="cls-1" d="M280.4,365a3,3,0,1,0,3,3A3,3,0,0,0,280.4,365Z"/><path class="cls-1" d="M251.2,365a3,3,0,1,0,3,3A3,3,0,0,0,251.2,365Z"/><path class="cls-1" d="M222,365h-.14a3,3,0,0,0,0,6H222a3,3,0,0,0,0-6Z"/><path class="cls-1" d="M324.19,350.38a3,3,0,1,0,3,3A3,3,0,0,0,324.19,350.38Z"/><path class="cls-1" d="M295,350.38a3,3,0,1,0,3,3A3,3,0,0,0,295,350.38Z"/><path class="cls-1" d="M265.8,350.38a3,3,0,1,0,3,3A3,3,0,0,0,265.8,350.38Z"/><path class="cls-1" d="M236.6,350.38a3,3,0,1,0,3,3A3,3,0,0,0,236.6,350.38Z"/><path class="cls-1" d="M441,438a3,3,0,1,0,3,3A3,3,0,0,0,441,438Z"/><path class="cls-1" d="M411.79,438a3,3,0,1,0,3,3A3,3,0,0,0,411.79,438Z"/><path class="cls-1" d="M382.59,438a3,3,0,1,0,3,3A3,3,0,0,0,382.59,438Z"/><path class="cls-1" d="M353.39,438a3,3,0,1,0,3,3A3,3,0,0,0,353.39,438Z"/><path class="cls-1" d="M426.39,423.37a3,3,0,1,0,3,3A3,3,0,0,0,426.39,423.37Z"/><path class="cls-1" d="M397.19,423.37a3,3,0,1,0,3,3A3,3,0,0,0,397.19,423.37Z"/><path class="cls-1" d="M368,423.37a3,3,0,1,0,3,3A3,3,0,0,0,368,423.37Z"/><path class="cls-1" d="M338.79,423.37h-.14a3,3,0,0,0,0,6h.14a3,3,0,1,0,0-6Z"/><path class="cls-1" d="M441,408.77a3,3,0,1,0,3,3A3,3,0,0,0,441,408.77Z"/><path class="cls-1" d="M411.79,408.77a3,3,0,1,0,3,3A3,3,0,0,0,411.79,408.77Z"/><path class="cls-1" d="M382.59,408.77a3,3,0,1,0,3,3A3,3,0,0,0,382.59,408.77Z"/><path class="cls-1" d="M353.39,408.77a3,3,0,1,0,3,3A3,3,0,0,0,353.39,408.77Z"/><path class="cls-1" d="M426.39,394.17a3,3,0,1,0,3,3A3,3,0,0,0,426.39,394.17Z"/><path class="cls-1" d="M397.19,394.17a3,3,0,1,0,3,3A3,3,0,0,0,397.19,394.17Z"/><path class="cls-1" d="M368,394.17a3,3,0,1,0,3,3A3,3,0,0,0,368,394.17Z"/><path class="cls-1" d="M338.79,394.17h-.14a3,3,0,0,0,0,6h.14a3,3,0,1,0,0-6Z"/><path class="cls-1" d="M441,379.58a3,3,0,1,0,3,3A3,3,0,0,0,441,379.58Z"/><path class="cls-1" d="M411.79,379.58a3,3,0,1,0,3,3A3,3,0,0,0,411.79,379.58Z"/><path class="cls-1" d="M382.59,379.58a3,3,0,1,0,3,3A3,3,0,0,0,382.59,379.58Z"/><path class="cls-1" d="M353.39,379.58a3,3,0,1,0,3,3A3,3,0,0,0,353.39,379.58Z"/><path class="cls-1" d="M426.39,365a3,3,0,1,0,3,3A3,3,0,0,0,426.39,365Z"/><path class="cls-1" d="M397.19,365a3,3,0,1,0,3,3A3,3,0,0,0,397.19,365Z"/><path class="cls-1" d="M368,365a3,3,0,1,0,3,3A3,3,0,0,0,368,365Z"/><path class="cls-1" d="M338.79,365h-.14a3,3,0,0,0,0,6h.14a3,3,0,1,0,0-6Z"/><path class="cls-1" d="M441,350.38a3,3,0,1,0,3,3A3,3,0,0,0,441,350.38Z"/><path class="cls-1" d="M411.79,350.38a3,3,0,1,0,3,3A3,3,0,0,0,411.79,350.38Z"/><path class="cls-1" d="M382.59,350.38a3,3,0,1,0,3,3A3,3,0,0,0,382.59,350.38Z"/><path class="cls-1" d="M353.39,350.38a3,3,0,1,0,3,3A3,3,0,0,0,353.39,350.38Z"/></g></g></svg>