<svg width="249" height="62" viewBox="0 0 249 62" fill="none" xmlns="http://www.w3.org/2000/svg">
<g clip-path="url(#clip0_1_2)">
<path d="M0.5 1.5H241.749L248.5 10.5926V61.5H7.71218L0.5 54.0343V1.5Z" fill="#FFD77E" stroke="#B43F4B"/>
<rect y="1" width="242" height="53" fill="#B43F4B"/>
<path d="M20.33 43.473C18.008 43.473 15.9583 43.0143 14.181 42.097C12.4323 41.151 11.0707 39.8323 10.096 38.141C9.12133 36.4497 8.634 34.486 8.634 32.25V23.65C8.634 21.4713 9.12133 19.5507 10.096 17.888C11.0707 16.1967 12.4323 14.8923 14.181 13.975C15.9583 13.029 18.008 12.556 20.33 12.556C22.652 12.556 24.7017 13.029 26.479 13.975C28.2563 14.8923 29.6323 16.1967 30.607 17.888C31.5817 19.5507 32.069 21.4713 32.069 23.65V32.25C32.069 34.486 31.5817 36.4497 30.607 38.141C29.6323 39.8323 28.2563 41.151 26.479 42.097C24.7017 43.0143 22.652 43.473 20.33 43.473ZM20.33 37.367C21.706 37.367 22.8097 36.9227 23.641 36.034C24.501 35.1453 24.931 33.9557 24.931 32.465V23.564C24.931 22.102 24.501 20.9267 23.641 20.038C22.8097 19.1207 21.706 18.662 20.33 18.662C18.9827 18.662 17.879 19.1207 17.019 20.038C16.1877 20.9267 15.772 22.102 15.772 23.564V32.465C15.772 33.9557 16.1877 35.1453 17.019 36.034C17.879 36.9227 18.9827 37.367 20.33 37.367ZM46.908 12.9C48.8574 12.9 50.5774 13.3013 52.068 14.104C53.5874 14.9067 54.7484 16.039 55.551 17.501C56.3824 18.9343 56.798 20.597 56.798 22.489C56.798 24.3523 56.368 26.0007 55.508 27.434C54.6767 28.8673 53.487 29.971 51.939 30.745C50.391 31.519 48.5994 31.906 46.564 31.906H41.318C41.1747 31.906 41.103 31.9777 41.103 32.121V42.484C41.103 42.6273 41.0457 42.7563 40.931 42.871C40.845 42.957 40.7304 43 40.587 43H34.481C34.3377 43 34.2087 42.957 34.094 42.871C34.008 42.7563 33.965 42.6273 33.965 42.484V13.416C33.965 13.2727 34.008 13.158 34.094 13.072C34.2087 12.9573 34.3377 12.9 34.481 12.9H46.908ZM45.747 26.23C46.9224 26.23 47.8684 25.9003 48.585 25.241C49.3304 24.5817 49.703 23.7217 49.703 22.661C49.703 21.5717 49.3304 20.6973 48.585 20.038C47.8684 19.35 46.9224 19.006 45.747 19.006H41.318C41.1747 19.006 41.103 19.0777 41.103 19.221V26.015C41.103 26.1583 41.1747 26.23 41.318 26.23H45.747ZM79.4443 18.49C79.4443 18.6333 79.3869 18.7623 79.2723 18.877C79.1863 18.963 79.0716 19.006 78.9283 19.006H65.4263C65.2829 19.006 65.2113 19.0777 65.2113 19.221V24.51C65.2113 24.6533 65.2829 24.725 65.4263 24.725H74.0693C74.2126 24.725 74.3273 24.7823 74.4133 24.897C74.5279 24.983 74.5853 25.0977 74.5853 25.241V30.272C74.5853 30.4153 74.5279 30.5443 74.4133 30.659C74.3273 30.745 74.2126 30.788 74.0693 30.788H65.4263C65.2829 30.788 65.2113 30.8597 65.2113 31.003V36.679C65.2113 36.8223 65.2829 36.894 65.4263 36.894H78.9283C79.0716 36.894 79.1863 36.9513 79.2723 37.066C79.3869 37.152 79.4443 37.2667 79.4443 37.41V42.484C79.4443 42.6273 79.3869 42.7563 79.2723 42.871C79.1863 42.957 79.0716 43 78.9283 43H58.5893C58.4459 43 58.3169 42.957 58.2023 42.871C58.1163 42.7563 58.0733 42.6273 58.0733 42.484V13.416C58.0733 13.2727 58.1163 13.158 58.2023 13.072C58.3169 12.9573 58.4459 12.9 58.5893 12.9H78.9283C79.0716 12.9 79.1863 12.9573 79.2723 13.072C79.3869 13.158 79.4443 13.2727 79.4443 13.416V18.49ZM98.2416 13.416C98.2416 13.2727 98.2846 13.158 98.3706 13.072C98.4853 12.9573 98.6143 12.9 98.7576 12.9H104.864C105.007 12.9 105.122 12.9573 105.208 13.072C105.322 13.158 105.38 13.2727 105.38 13.416V42.484C105.38 42.6273 105.322 42.7563 105.208 42.871C105.122 42.957 105.007 43 104.864 43H99.0156C98.729 43 98.5283 42.8853 98.4136 42.656L88.5236 26.23C88.4663 26.144 88.409 26.1153 88.3516 26.144C88.2943 26.144 88.2656 26.2013 88.2656 26.316L88.3086 42.484C88.3086 42.6273 88.2513 42.7563 88.1366 42.871C88.0506 42.957 87.936 43 87.7926 43H81.6866C81.5433 43 81.4143 42.957 81.2996 42.871C81.2136 42.7563 81.1706 42.6273 81.1706 42.484V13.416C81.1706 13.2727 81.2136 13.158 81.2996 13.072C81.4143 12.9573 81.5433 12.9 81.6866 12.9H87.5776C87.8643 12.9 88.065 13.0147 88.1796 13.244L98.0266 29.627C98.084 29.713 98.1413 29.756 98.1986 29.756C98.256 29.7273 98.2846 29.6557 98.2846 29.541L98.2416 13.416ZM136.181 18.49C136.181 18.6333 136.123 18.7623 136.009 18.877C135.923 18.963 135.808 19.006 135.665 19.006H122.163C122.019 19.006 121.948 19.0777 121.948 19.221V24.51C121.948 24.6533 122.019 24.725 122.163 24.725H130.806C130.949 24.725 131.064 24.7823 131.15 24.897C131.264 24.983 131.322 25.0977 131.322 25.241V30.272C131.322 30.4153 131.264 30.5443 131.15 30.659C131.064 30.745 130.949 30.788 130.806 30.788H122.163C122.019 30.788 121.948 30.8597 121.948 31.003V36.679C121.948 36.8223 122.019 36.894 122.163 36.894H135.665C135.808 36.894 135.923 36.9513 136.009 37.066C136.123 37.152 136.181 37.2667 136.181 37.41V42.484C136.181 42.6273 136.123 42.7563 136.009 42.871C135.923 42.957 135.808 43 135.665 43H115.326C115.182 43 115.053 42.957 114.939 42.871C114.853 42.7563 114.81 42.6273 114.81 42.484V13.416C114.81 13.2727 114.853 13.158 114.939 13.072C115.053 12.9573 115.182 12.9 115.326 12.9H135.665C135.808 12.9 135.923 12.9573 136.009 13.072C136.123 13.158 136.181 13.2727 136.181 13.416V18.49ZM146.246 43C145.959 43 145.773 42.8567 145.687 42.57L137.001 13.502L136.958 13.33C136.958 13.0433 137.116 12.9 137.431 12.9H144.01C144.325 12.9 144.526 13.0433 144.612 13.33L149.557 32.895C149.586 32.981 149.629 33.024 149.686 33.024C149.743 33.024 149.786 32.981 149.815 32.895L154.674 13.33C154.76 13.0433 154.961 12.9 155.276 12.9H161.726C161.898 12.9 162.027 12.9573 162.113 13.072C162.199 13.1867 162.213 13.33 162.156 13.502L153.341 42.57C153.255 42.8567 153.069 43 152.782 43H146.246ZM184.811 18.49C184.811 18.6333 184.754 18.7623 184.639 18.877C184.553 18.963 184.438 19.006 184.295 19.006H170.793C170.65 19.006 170.578 19.0777 170.578 19.221V24.51C170.578 24.6533 170.65 24.725 170.793 24.725H179.436C179.579 24.725 179.694 24.7823 179.78 24.897C179.895 24.983 179.952 25.0977 179.952 25.241V30.272C179.952 30.4153 179.895 30.5443 179.78 30.659C179.694 30.745 179.579 30.788 179.436 30.788H170.793C170.65 30.788 170.578 30.8597 170.578 31.003V36.679C170.578 36.8223 170.65 36.894 170.793 36.894H184.295C184.438 36.894 184.553 36.9513 184.639 37.066C184.754 37.152 184.811 37.2667 184.811 37.41V42.484C184.811 42.6273 184.754 42.7563 184.639 42.871C184.553 42.957 184.438 43 184.295 43H163.956C163.813 43 163.684 42.957 163.569 42.871C163.483 42.7563 163.44 42.6273 163.44 42.484V13.416C163.44 13.2727 163.483 13.158 163.569 13.072C163.684 12.9573 163.813 12.9 163.956 12.9H184.295C184.438 12.9 184.553 12.9573 184.639 13.072C184.754 13.158 184.811 13.2727 184.811 13.416V18.49ZM202.662 43C202.376 43 202.175 42.871 202.06 42.613L196.986 31.175C196.929 31.0603 196.843 31.003 196.728 31.003H193.89C193.747 31.003 193.675 31.0747 193.675 31.218V42.484C193.675 42.6273 193.618 42.7563 193.503 42.871C193.417 42.957 193.303 43 193.159 43H187.053C186.91 43 186.781 42.957 186.666 42.871C186.58 42.7563 186.537 42.6273 186.537 42.484V13.416C186.537 13.2727 186.58 13.158 186.666 13.072C186.781 12.9573 186.91 12.9 187.053 12.9H199.824C201.716 12.9 203.379 13.287 204.812 14.061C206.246 14.835 207.349 15.9387 208.123 17.372C208.926 18.7767 209.327 20.3963 209.327 22.231C209.327 24.1517 208.854 25.8143 207.908 27.219C206.962 28.6237 205.644 29.6413 203.952 30.272C203.809 30.3293 203.766 30.4297 203.823 30.573L209.499 42.398C209.557 42.5127 209.585 42.5987 209.585 42.656C209.585 42.8853 209.428 43 209.112 43H202.662ZM193.89 19.006C193.747 19.006 193.675 19.0777 193.675 19.221V25.327C193.675 25.4703 193.747 25.542 193.89 25.542H198.663C199.724 25.542 200.584 25.2553 201.243 24.682C201.903 24.08 202.232 23.2917 202.232 22.317C202.232 21.3137 201.903 20.511 201.243 19.909C200.584 19.307 199.724 19.006 198.663 19.006H193.89ZM218.19 42.914C218.046 42.914 217.917 42.871 217.803 42.785C217.717 42.6703 217.674 42.5413 217.674 42.398V32.207C217.674 32.0923 217.659 32.0063 217.631 31.949L208.816 13.502C208.758 13.3873 208.73 13.3013 208.73 13.244C208.73 13.0147 208.887 12.9 209.203 12.9H215.825C216.111 12.9 216.312 13.029 216.427 13.287L221.114 24.166C221.2 24.338 221.286 24.338 221.372 24.166L226.102 13.287C226.216 13.029 226.417 12.9 226.704 12.9H233.369C233.569 12.9 233.698 12.9573 233.756 13.072C233.842 13.158 233.842 13.3013 233.756 13.502L224.812 31.949C224.783 32.0063 224.769 32.0923 224.769 32.207V42.398C224.769 42.5413 224.711 42.6703 224.597 42.785C224.511 42.871 224.396 42.914 224.253 42.914H218.19Z" fill="#FFD77E"/>
</g>
<defs>
<clipPath id="clip0_1_2">
<rect width="249" height="62" fill="white"/>
</clipPath>
</defs>
</svg>
