<svg width="362" height="62" viewBox="0 0 362 62" fill="none" xmlns="http://www.w3.org/2000/svg">
<g clip-path="url(#clip0_1_34)">
<path d="M0.5 1.5H351.627L361.5 10.6457V61.5H11.0634L0.5 53.9786V1.5Z" fill="#B43F4B" stroke="#B43F4B"/>
<rect x="0.5" y="1.5" width="351" height="52" fill="#FFD77E" stroke="#B43F4B"/>
<path d="M30.435 18.49C30.435 18.6333 30.3777 18.7623 30.263 18.877C30.177 18.963 30.0623 19.006 29.919 19.006H16.46C16.3167 19.006 16.245 19.0777 16.245 19.221V24.51C16.245 24.6533 16.3167 24.725 16.46 24.725H25.103C25.2463 24.725 25.361 24.7823 25.447 24.897C25.5617 24.983 25.619 25.0977 25.619 25.241V30.272C25.619 30.4153 25.5617 30.5443 25.447 30.659C25.361 30.745 25.2463 30.788 25.103 30.788H16.46C16.3167 30.788 16.245 30.8597 16.245 31.003V42.484C16.245 42.6273 16.1877 42.7563 16.073 42.871C15.987 42.957 15.8723 43 15.729 43H9.623C9.47967 43 9.35067 42.957 9.236 42.871C9.15 42.7563 9.107 42.6273 9.107 42.484V13.416C9.107 13.2727 9.15 13.158 9.236 13.072C9.35067 12.9573 9.47967 12.9 9.623 12.9H29.919C30.0623 12.9 30.177 12.9573 30.263 13.072C30.3777 13.158 30.435 13.2727 30.435 13.416V18.49ZM47.4475 43C47.1609 43 46.9602 42.871 46.8455 42.613L41.7715 31.175C41.7142 31.0603 41.6282 31.003 41.5135 31.003H38.6755C38.5322 31.003 38.4605 31.0747 38.4605 31.218V42.484C38.4605 42.6273 38.4032 42.7563 38.2885 42.871C38.2025 42.957 38.0879 43 37.9445 43H31.8385C31.6952 43 31.5662 42.957 31.4515 42.871C31.3655 42.7563 31.3225 42.6273 31.3225 42.484V13.416C31.3225 13.2727 31.3655 13.158 31.4515 13.072C31.5662 12.9573 31.6952 12.9 31.8385 12.9H44.6095C46.5015 12.9 48.1642 13.287 49.5975 14.061C51.0309 14.835 52.1345 15.9387 52.9085 17.372C53.7112 18.7767 54.1125 20.3963 54.1125 22.231C54.1125 24.1517 53.6395 25.8143 52.6935 27.219C51.7475 28.6237 50.4289 29.6413 48.7375 30.272C48.5942 30.3293 48.5512 30.4297 48.6085 30.573L54.2845 42.398C54.3419 42.5127 54.3705 42.5987 54.3705 42.656C54.3705 42.8853 54.2129 43 53.8975 43H47.4475ZM38.6755 19.006C38.5322 19.006 38.4605 19.0777 38.4605 19.221V25.327C38.4605 25.4703 38.5322 25.542 38.6755 25.542H43.4485C44.5092 25.542 45.3692 25.2553 46.0285 24.682C46.6879 24.08 47.0175 23.2917 47.0175 22.317C47.0175 21.3137 46.6879 20.511 46.0285 19.909C45.3692 19.307 44.5092 19.006 43.4485 19.006H38.6755ZM56.5316 43C56.3883 43 56.2593 42.957 56.1446 42.871C56.0586 42.7563 56.0156 42.6273 56.0156 42.484V13.416C56.0156 13.2727 56.0586 13.158 56.1446 13.072C56.2593 12.9573 56.3883 12.9 56.5316 12.9H62.6376C62.781 12.9 62.8956 12.9573 62.9816 13.072C63.0963 13.158 63.1536 13.2727 63.1536 13.416V42.484C63.1536 42.6273 63.0963 42.7563 62.9816 42.871C62.8956 42.957 62.781 43 62.6376 43H56.5316ZM66.1915 43C66.0482 43 65.9192 42.957 65.8045 42.871C65.7185 42.7563 65.6755 42.6273 65.6755 42.484V13.416C65.6755 13.2727 65.7185 13.158 65.8045 13.072C65.9192 12.9573 66.0482 12.9 66.1915 12.9H77.1565C79.3925 12.9 81.3705 13.287 83.0905 14.061C84.8105 14.835 86.1435 15.9387 87.0895 17.372C88.0355 18.8053 88.5085 20.4537 88.5085 22.317V33.583C88.5085 35.4463 88.0355 37.0947 87.0895 38.528C86.1435 39.9613 84.8105 41.065 83.0905 41.839C81.3705 42.613 79.3925 43 77.1565 43H66.1915ZM72.8135 36.679C72.8135 36.8223 72.8852 36.894 73.0285 36.894H77.4575C78.6042 36.894 79.5358 36.4927 80.2525 35.69C80.9692 34.8587 81.3419 33.755 81.3705 32.379V23.521C81.3705 22.145 80.9979 21.0557 80.2525 20.253C79.5358 19.4217 78.5898 19.006 77.4145 19.006H73.0285C72.8852 19.006 72.8135 19.0777 72.8135 19.221V36.679ZM108.34 43C108.025 43 107.824 42.8567 107.738 42.57L106.62 38.743C106.563 38.6283 106.491 38.571 106.405 38.571H96.6009C96.5149 38.571 96.4433 38.6283 96.3859 38.743L95.2679 42.57C95.1819 42.8567 94.9813 43 94.6659 43H88.0869C87.9149 43 87.7859 42.957 87.6999 42.871C87.6139 42.7563 87.5996 42.5987 87.6569 42.398L96.8589 13.33C96.9449 13.0433 97.1313 12.9 97.4179 12.9H105.545C105.832 12.9 106.018 13.0433 106.104 13.33L115.349 42.398C115.378 42.4553 115.392 42.527 115.392 42.613C115.392 42.871 115.234 43 114.919 43H108.34ZM98.1059 32.809C98.0773 32.981 98.1346 33.067 98.2779 33.067H104.685C104.857 33.067 104.914 32.981 104.857 32.809L101.589 21.758C101.56 21.6433 101.517 21.6003 101.46 21.629C101.403 21.629 101.36 21.672 101.331 21.758L98.1059 32.809ZM121.265 42.914C121.122 42.914 120.993 42.871 120.878 42.785C120.792 42.6703 120.749 42.5413 120.749 42.398V32.207C120.749 32.0923 120.735 32.0063 120.706 31.949L111.891 13.502C111.834 13.3873 111.805 13.3013 111.805 13.244C111.805 13.0147 111.963 12.9 112.278 12.9H118.9C119.187 12.9 119.387 13.029 119.502 13.287L124.189 24.166C124.275 24.338 124.361 24.338 124.447 24.166L129.177 13.287C129.292 13.029 129.492 12.9 129.779 12.9H136.444C136.645 12.9 136.774 12.9573 136.831 13.072C136.917 13.158 136.917 13.3013 136.831 13.502L127.887 31.949C127.858 32.0063 127.844 32.0923 127.844 32.207V42.398C127.844 42.5413 127.787 42.6703 127.672 42.785C127.586 42.871 127.471 42.914 127.328 42.914H121.265ZM133.954 47.515C133.581 47.515 133.423 47.3287 133.481 46.956L134.771 36.636C134.799 36.3207 134.971 36.163 135.287 36.163H140.576C140.948 36.163 141.092 36.3493 141.006 36.722L138.297 47.085C138.211 47.3717 138.01 47.515 137.695 47.515H133.954ZM161.682 43.344C159.303 43.344 157.224 42.9713 155.447 42.226C153.698 41.452 152.337 40.3627 151.362 38.958C150.416 37.5247 149.943 35.8763 149.943 34.013V33.196C149.943 33.0527 149.986 32.938 150.072 32.852C150.187 32.7373 150.316 32.68 150.459 32.68H156.436C156.579 32.68 156.694 32.7373 156.78 32.852C156.895 32.938 156.952 33.0527 156.952 33.196V33.712C156.952 34.658 157.425 35.4893 158.371 36.206C159.317 36.894 160.593 37.238 162.198 37.238C163.459 37.238 164.391 36.9657 164.993 36.421C165.595 35.8763 165.896 35.2457 165.896 34.529C165.896 33.9557 165.71 33.497 165.337 33.153C164.993 32.7803 164.52 32.4793 163.918 32.25C163.316 31.992 162.384 31.648 161.123 31.218C160.951 31.132 160.779 31.0747 160.607 31.046C160.435 30.9887 160.277 30.9313 160.134 30.874C158.271 30.272 156.651 29.627 155.275 28.939C153.899 28.2223 152.724 27.2477 151.749 26.015C150.774 24.7537 150.287 23.2057 150.287 21.371C150.287 19.5937 150.746 18.0457 151.663 16.727C152.609 15.3797 153.913 14.3477 155.576 13.631C157.239 12.9143 159.116 12.556 161.209 12.556C163.416 12.556 165.394 12.9573 167.143 13.76C168.92 14.5627 170.311 15.695 171.314 17.157C172.317 18.619 172.819 20.296 172.819 22.188V22.79C172.819 22.9333 172.762 23.0623 172.647 23.177C172.561 23.263 172.446 23.306 172.303 23.306H166.326C166.183 23.306 166.054 23.263 165.939 23.177C165.853 23.0623 165.81 22.9333 165.81 22.79V22.489C165.81 21.4857 165.366 20.597 164.477 19.823C163.588 19.049 162.399 18.662 160.908 18.662C159.79 18.662 158.916 18.8913 158.285 19.35C157.654 19.8087 157.339 20.4537 157.339 21.285C157.339 21.9157 157.54 22.446 157.941 22.876C158.342 23.2773 158.959 23.6643 159.79 24.037C160.65 24.381 161.954 24.8397 163.703 25.413C165.71 26.101 167.272 26.703 168.39 27.219C169.508 27.735 170.554 28.5807 171.529 29.756C172.532 30.9027 173.034 32.422 173.034 34.314C173.034 36.1773 172.561 37.7827 171.615 39.13C170.669 40.4773 169.336 41.5237 167.616 42.269C165.925 42.9857 163.947 43.344 161.682 43.344ZM194.432 43C194.117 43 193.916 42.8567 193.83 42.57L192.712 38.743C192.655 38.6283 192.583 38.571 192.497 38.571H182.693C182.607 38.571 182.536 38.6283 182.478 38.743L181.36 42.57C181.274 42.8567 181.074 43 180.758 43H174.179C174.007 43 173.878 42.957 173.792 42.871C173.706 42.7563 173.692 42.5987 173.749 42.398L182.951 13.33C183.037 13.0433 183.224 12.9 183.51 12.9H191.637C191.924 12.9 192.11 13.0433 192.196 13.33L201.441 42.398C201.47 42.4553 201.484 42.527 201.484 42.613C201.484 42.871 201.327 43 201.011 43H194.432ZM184.198 32.809C184.17 32.981 184.227 33.067 184.37 33.067H190.777C190.949 33.067 191.007 32.981 190.949 32.809L187.681 21.758C187.653 21.6433 187.61 21.6003 187.552 21.629C187.495 21.629 187.452 21.672 187.423 21.758L184.198 32.809ZM220.686 12.9C220.83 12.9 220.944 12.9573 221.03 13.072C221.145 13.158 221.202 13.2727 221.202 13.416V18.533C221.202 18.6763 221.145 18.8053 221.03 18.92C220.944 19.006 220.83 19.049 220.686 19.049H213.161C213.018 19.049 212.946 19.1207 212.946 19.264V42.484C212.946 42.6273 212.889 42.7563 212.774 42.871C212.688 42.957 212.574 43 212.43 43H206.324C206.181 43 206.052 42.957 205.937 42.871C205.851 42.7563 205.808 42.6273 205.808 42.484V19.264C205.808 19.1207 205.737 19.049 205.593 19.049H198.326C198.183 19.049 198.054 19.006 197.939 18.92C197.853 18.8053 197.81 18.6763 197.81 18.533V13.416C197.81 13.2727 197.853 13.158 197.939 13.072C198.054 12.9573 198.183 12.9 198.326 12.9H220.686ZM233.881 43.344C231.616 43.344 229.609 42.914 227.861 42.054C226.141 41.1653 224.793 39.9183 223.819 38.313C222.873 36.7077 222.4 34.8587 222.4 32.766V13.416C222.4 13.2727 222.443 13.158 222.529 13.072C222.643 12.9573 222.772 12.9 222.916 12.9H229.022C229.165 12.9 229.28 12.9573 229.366 13.072C229.48 13.158 229.538 13.2727 229.538 13.416V32.766C229.538 34.1133 229.925 35.2027 230.699 36.034C231.501 36.8367 232.562 37.238 233.881 37.238C235.171 37.238 236.203 36.8367 236.977 36.034C237.779 35.2027 238.181 34.1133 238.181 32.766V13.416C238.181 13.2727 238.224 13.158 238.31 13.072C238.424 12.9573 238.553 12.9 238.697 12.9H244.803C244.946 12.9 245.061 12.9573 245.147 13.072C245.261 13.158 245.319 13.2727 245.319 13.416V32.766C245.319 34.8587 244.846 36.7077 243.9 38.313C242.954 39.9183 241.606 41.1653 239.858 42.054C238.138 42.914 236.145 43.344 233.881 43.344ZM263.768 43C263.481 43 263.28 42.871 263.166 42.613L258.092 31.175C258.034 31.0603 257.948 31.003 257.834 31.003H254.996C254.852 31.003 254.781 31.0747 254.781 31.218V42.484C254.781 42.6273 254.723 42.7563 254.609 42.871C254.523 42.957 254.408 43 254.265 43H248.159C248.015 43 247.886 42.957 247.772 42.871C247.686 42.7563 247.643 42.6273 247.643 42.484V13.416C247.643 13.2727 247.686 13.158 247.772 13.072C247.886 12.9573 248.015 12.9 248.159 12.9H260.93C262.822 12.9 264.484 13.287 265.918 14.061C267.351 14.835 268.455 15.9387 269.229 17.372C270.031 18.7767 270.433 20.3963 270.433 22.231C270.433 24.1517 269.96 25.8143 269.014 27.219C268.068 28.6237 266.749 29.6413 265.058 30.272C264.914 30.3293 264.871 30.4297 264.929 30.573L270.605 42.398C270.662 42.5127 270.691 42.5987 270.691 42.656C270.691 42.8853 270.533 43 270.218 43H263.768ZM254.996 19.006C254.852 19.006 254.781 19.0777 254.781 19.221V25.327C254.781 25.4703 254.852 25.542 254.996 25.542H259.769C260.829 25.542 261.689 25.2553 262.349 24.682C263.008 24.08 263.338 23.2917 263.338 22.317C263.338 21.3137 263.008 20.511 262.349 19.909C261.689 19.307 260.829 19.006 259.769 19.006H254.996ZM272.852 43C272.709 43 272.58 42.957 272.465 42.871C272.379 42.7563 272.336 42.6273 272.336 42.484V13.416C272.336 13.2727 272.379 13.158 272.465 13.072C272.58 12.9573 272.709 12.9 272.852 12.9H283.817C286.053 12.9 288.031 13.287 289.751 14.061C291.471 14.835 292.804 15.9387 293.75 17.372C294.696 18.8053 295.169 20.4537 295.169 22.317V33.583C295.169 35.4463 294.696 37.0947 293.75 38.528C292.804 39.9613 291.471 41.065 289.751 41.839C288.031 42.613 286.053 43 283.817 43H272.852ZM279.474 36.679C279.474 36.8223 279.546 36.894 279.689 36.894H284.118C285.265 36.894 286.196 36.4927 286.913 35.69C287.63 34.8587 288.002 33.755 288.031 32.379V23.521C288.031 22.145 287.658 21.0557 286.913 20.253C286.196 19.4217 285.25 19.006 284.075 19.006H279.689C279.546 19.006 279.474 19.0777 279.474 19.221V36.679ZM315 43C314.685 43 314.484 42.8567 314.398 42.57L313.28 38.743C313.223 38.6283 313.151 38.571 313.065 38.571H303.261C303.175 38.571 303.104 38.6283 303.046 38.743L301.928 42.57C301.842 42.8567 301.642 43 301.326 43H294.747C294.575 43 294.446 42.957 294.36 42.871C294.274 42.7563 294.26 42.5987 294.317 42.398L303.519 13.33C303.605 13.0433 303.792 12.9 304.078 12.9H312.205C312.492 12.9 312.678 13.0433 312.764 13.33L322.009 42.398C322.038 42.4553 322.052 42.527 322.052 42.613C322.052 42.871 321.895 43 321.579 43H315ZM304.766 32.809C304.738 32.981 304.795 33.067 304.938 33.067H311.345C311.517 33.067 311.575 32.981 311.517 32.809L308.249 21.758C308.221 21.6433 308.178 21.6003 308.12 21.629C308.063 21.629 308.02 21.672 307.991 21.758L304.766 32.809ZM327.925 42.914C327.782 42.914 327.653 42.871 327.538 42.785C327.452 42.6703 327.409 42.5413 327.409 42.398V32.207C327.409 32.0923 327.395 32.0063 327.366 31.949L318.551 13.502C318.494 13.3873 318.465 13.3013 318.465 13.244C318.465 13.0147 318.623 12.9 318.938 12.9H325.56C325.847 12.9 326.048 13.029 326.162 13.287L330.849 24.166C330.935 24.338 331.021 24.338 331.107 24.166L335.837 13.287C335.952 13.029 336.153 12.9 336.439 12.9H343.104C343.305 12.9 343.434 12.9573 343.491 13.072C343.577 13.158 343.577 13.3013 343.491 13.502L334.547 31.949C334.519 32.0063 334.504 32.0923 334.504 32.207V42.398C334.504 42.5413 334.447 42.6703 334.332 42.785C334.246 42.871 334.132 42.914 333.988 42.914H327.925Z" fill="#B43F4B"/>
</g>
<defs>
<clipPath id="clip0_1_34">
<rect width="362" height="62" fill="white"/>
</clipPath>
</defs>
</svg>
