<svg width="207" height="62" viewBox="0 0 207 62" fill="none" xmlns="http://www.w3.org/2000/svg">
<g clip-path="url(#clip0_1_38)">
<path d="M0.5 1.5H200.902L206.5 10.5692V61.5H6.47467L0.5 54.0604V1.5Z" fill="#FFD77E" stroke="#B43F4B"/>
<rect y="1" width="201" height="53" fill="#B43F4B"/>
<path d="M36.068 42.355C36.1827 42.527 36.24 42.6417 36.24 42.699C36.24 42.8997 36.0823 43 35.767 43H28.973C28.6863 43 28.4713 42.914 28.328 42.742L26.866 41.151C26.8087 41.0937 26.7083 41.0793 26.565 41.108C23.8703 42.5987 21.0323 43.344 18.051 43.344C15.299 43.344 12.977 42.699 11.085 41.409C9.22167 40.119 8.29 38.1697 8.29 35.561C8.29 33.669 8.77733 32.078 9.752 30.788C10.7553 29.498 12.1027 28.3513 13.794 27.348C13.966 27.2333 13.9803 27.133 13.837 27.047C12.5183 25.4703 11.644 24.209 11.214 23.263C10.784 22.317 10.569 21.2993 10.569 20.21C10.569 18.8053 10.956 17.5297 11.73 16.383C12.504 15.2077 13.5933 14.276 14.998 13.588C16.4027 12.9 18.0223 12.556 19.857 12.556C21.7203 12.556 23.383 12.9143 24.845 13.631C26.3357 14.319 27.4967 15.2937 28.328 16.555C29.1593 17.7877 29.575 19.221 29.575 20.855C29.575 22.6323 29.102 24.166 28.156 25.456C27.21 26.746 25.92 27.907 24.286 28.939C24.1427 29.025 24.1283 29.1253 24.243 29.24C24.845 29.928 25.8053 30.9887 27.124 32.422C27.21 32.5367 27.3103 32.5367 27.425 32.422C28.629 31.218 29.532 30.0857 30.134 29.025C30.22 28.8817 30.3203 28.7957 30.435 28.767C30.5783 28.7097 30.7217 28.724 30.865 28.81L35.38 31.39C35.6953 31.5907 35.767 31.82 35.595 32.078C34.4197 34.0273 33.1153 35.733 31.682 37.195C31.596 37.281 31.6103 37.3813 31.725 37.496C32.327 38.2127 33.4307 39.4453 35.036 41.194C35.2653 41.452 35.466 41.6813 35.638 41.882C35.81 42.0827 35.9533 42.2403 36.068 42.355ZM20.029 19.006C19.3123 19.006 18.739 19.1923 18.309 19.565C17.9077 19.909 17.707 20.3533 17.707 20.898C17.707 21.2133 17.8217 21.5717 18.051 21.973C18.309 22.3743 18.8393 23.0623 19.642 24.037C19.6993 24.1517 19.7997 24.1803 19.943 24.123C20.7457 23.6357 21.362 23.1483 21.792 22.661C22.222 22.1737 22.437 21.629 22.437 21.027C22.437 20.3963 22.2077 19.909 21.749 19.565C21.319 19.1923 20.7457 19.006 20.029 19.006ZM19.341 37.324C20.287 37.1233 21.19 36.808 22.05 36.378C22.1933 36.292 22.2077 36.1917 22.093 36.077L20.201 34.056C20.0863 33.9413 19.513 33.325 18.481 32.207C18.4237 32.121 18.3233 32.1067 18.18 32.164C17.406 32.6227 16.804 33.067 16.374 33.497C15.944 33.927 15.686 34.4 15.6 34.916C15.5713 35.0307 15.557 35.1883 15.557 35.389C15.557 35.991 15.8007 36.4927 16.288 36.894C16.804 37.2667 17.4633 37.453 18.266 37.453C18.61 37.453 18.9683 37.41 19.341 37.324ZM56.1876 43.344C53.8083 43.344 51.73 42.9713 49.9526 42.226C48.204 41.452 46.8423 40.3627 45.8676 38.958C44.9216 37.5247 44.4486 35.8763 44.4486 34.013V33.196C44.4486 33.0527 44.4916 32.938 44.5776 32.852C44.6923 32.7373 44.8213 32.68 44.9646 32.68H50.9416C51.085 32.68 51.1996 32.7373 51.2856 32.852C51.4003 32.938 51.4576 33.0527 51.4576 33.196V33.712C51.4576 34.658 51.9306 35.4893 52.8766 36.206C53.8226 36.894 55.0983 37.238 56.7036 37.238C57.965 37.238 58.8966 36.9657 59.4986 36.421C60.1006 35.8763 60.4016 35.2457 60.4016 34.529C60.4016 33.9557 60.2153 33.497 59.8426 33.153C59.4986 32.7803 59.0256 32.4793 58.4236 32.25C57.8216 31.992 56.89 31.648 55.6286 31.218C55.4566 31.132 55.2846 31.0747 55.1126 31.046C54.9406 30.9887 54.783 30.9313 54.6396 30.874C52.7763 30.272 51.1566 29.627 49.7806 28.939C48.4046 28.2223 47.2293 27.2477 46.2546 26.015C45.28 24.7537 44.7926 23.2057 44.7926 21.371C44.7926 19.5937 45.2513 18.0457 46.1686 16.727C47.1146 15.3797 48.419 14.3477 50.0816 13.631C51.7443 12.9143 53.622 12.556 55.7146 12.556C57.922 12.556 59.9 12.9573 61.6486 13.76C63.426 14.5627 64.8163 15.695 65.8196 17.157C66.823 18.619 67.3246 20.296 67.3246 22.188V22.79C67.3246 22.9333 67.2673 23.0623 67.1526 23.177C67.0666 23.263 66.952 23.306 66.8086 23.306H60.8316C60.6883 23.306 60.5593 23.263 60.4446 23.177C60.3586 23.0623 60.3156 22.9333 60.3156 22.79V22.489C60.3156 21.4857 59.8713 20.597 58.9826 19.823C58.094 19.049 56.9043 18.662 55.4136 18.662C54.2956 18.662 53.4213 18.8913 52.7906 19.35C52.16 19.8087 51.8446 20.4537 51.8446 21.285C51.8446 21.9157 52.0453 22.446 52.4466 22.876C52.848 23.2773 53.4643 23.6643 54.2956 24.037C55.1556 24.381 56.46 24.8397 58.2086 25.413C60.2153 26.101 61.7776 26.703 62.8956 27.219C64.0136 27.735 65.06 28.5807 66.0346 29.756C67.038 30.9027 67.5396 32.422 67.5396 34.314C67.5396 36.1773 67.0666 37.7827 66.1206 39.13C65.1746 40.4773 63.8416 41.5237 62.1216 42.269C60.4303 42.9857 58.4523 43.344 56.1876 43.344ZM80.5958 43.344C78.3312 43.344 76.3245 42.914 74.5758 42.054C72.8558 41.1653 71.5085 39.9183 70.5338 38.313C69.5878 36.7077 69.1148 34.8587 69.1148 32.766V13.416C69.1148 13.2727 69.1578 13.158 69.2438 13.072C69.3585 12.9573 69.4875 12.9 69.6308 12.9H75.7368C75.8802 12.9 75.9948 12.9573 76.0808 13.072C76.1955 13.158 76.2528 13.2727 76.2528 13.416V32.766C76.2528 34.1133 76.6398 35.2027 77.4138 36.034C78.2165 36.8367 79.2772 37.238 80.5958 37.238C81.8858 37.238 82.9178 36.8367 83.6918 36.034C84.4945 35.2027 84.8958 34.1133 84.8958 32.766V13.416C84.8958 13.2727 84.9388 13.158 85.0248 13.072C85.1395 12.9573 85.2685 12.9 85.4118 12.9H91.5178C91.6612 12.9 91.7758 12.9573 91.8618 13.072C91.9765 13.158 92.0338 13.2727 92.0338 13.416V32.766C92.0338 34.8587 91.5608 36.7077 90.6148 38.313C89.6688 39.9183 88.3215 41.1653 86.5728 42.054C84.8528 42.914 82.8605 43.344 80.5958 43.344ZM111.429 13.416C111.429 13.2727 111.472 13.158 111.558 13.072C111.673 12.9573 111.802 12.9 111.945 12.9H118.051C118.194 12.9 118.309 12.9573 118.395 13.072C118.51 13.158 118.567 13.2727 118.567 13.416V42.484C118.567 42.6273 118.51 42.7563 118.395 42.871C118.309 42.957 118.194 43 118.051 43H112.203C111.916 43 111.716 42.8853 111.601 42.656L101.711 26.23C101.654 26.144 101.596 26.1153 101.539 26.144C101.482 26.144 101.453 26.2013 101.453 26.316L101.496 42.484C101.496 42.6273 101.439 42.7563 101.324 42.871C101.238 42.957 101.123 43 100.98 43H94.8739C94.7305 43 94.6015 42.957 94.4869 42.871C94.4009 42.7563 94.3579 42.6273 94.3579 42.484V13.416C94.3579 13.2727 94.4009 13.158 94.4869 13.072C94.6015 12.9573 94.7305 12.9 94.8739 12.9H100.765C101.052 12.9 101.252 13.0147 101.367 13.244L111.214 29.627C111.271 29.713 111.329 29.756 111.386 29.756C111.443 29.7273 111.472 29.6557 111.472 29.541L111.429 13.416ZM121.499 43C121.355 43 121.226 42.957 121.112 42.871C121.026 42.7563 120.983 42.6273 120.983 42.484V13.416C120.983 13.2727 121.026 13.158 121.112 13.072C121.226 12.9573 121.355 12.9 121.499 12.9H132.464C134.7 12.9 136.678 13.287 138.398 14.061C140.118 14.835 141.451 15.9387 142.397 17.372C143.343 18.8053 143.816 20.4537 143.816 22.317V33.583C143.816 35.4463 143.343 37.0947 142.397 38.528C141.451 39.9613 140.118 41.065 138.398 41.839C136.678 42.613 134.7 43 132.464 43H121.499ZM128.121 36.679C128.121 36.8223 128.192 36.894 128.336 36.894H132.765C133.911 36.894 134.843 36.4927 135.56 35.69C136.276 34.8587 136.649 33.755 136.678 32.379V23.521C136.678 22.145 136.305 21.0557 135.56 20.253C134.843 19.4217 133.897 19.006 132.722 19.006H128.336C128.192 19.006 128.121 19.0777 128.121 19.221V36.679ZM163.647 43C163.332 43 163.131 42.8567 163.045 42.57L161.927 38.743C161.87 38.6283 161.798 38.571 161.712 38.571H151.908C151.822 38.571 151.75 38.6283 151.693 38.743L150.575 42.57C150.489 42.8567 150.288 43 149.973 43H143.394C143.222 43 143.093 42.957 143.007 42.871C142.921 42.7563 142.907 42.5987 142.964 42.398L152.166 13.33C152.252 13.0433 152.438 12.9 152.725 12.9H160.852C161.139 12.9 161.325 13.0433 161.411 13.33L170.656 42.398C170.685 42.4553 170.699 42.527 170.699 42.613C170.699 42.871 170.541 43 170.226 43H163.647ZM153.413 32.809C153.384 32.981 153.442 33.067 153.585 33.067H159.992C160.164 33.067 160.221 32.981 160.164 32.809L156.896 21.758C156.867 21.6433 156.824 21.6003 156.767 21.629C156.71 21.629 156.667 21.672 156.638 21.758L153.413 32.809ZM176.572 42.914C176.429 42.914 176.3 42.871 176.185 42.785C176.099 42.6703 176.056 42.5413 176.056 42.398V32.207C176.056 32.0923 176.042 32.0063 176.013 31.949L167.198 13.502C167.141 13.3873 167.112 13.3013 167.112 13.244C167.112 13.0147 167.27 12.9 167.585 12.9H174.207C174.494 12.9 174.695 13.029 174.809 13.287L179.496 24.166C179.582 24.338 179.668 24.338 179.754 24.166L184.484 13.287C184.599 13.029 184.8 12.9 185.086 12.9H191.751C191.952 12.9 192.081 12.9573 192.138 13.072C192.224 13.158 192.224 13.3013 192.138 13.502L183.194 31.949C183.166 32.0063 183.151 32.0923 183.151 32.207V42.398C183.151 42.5413 183.094 42.6703 182.979 42.785C182.893 42.871 182.779 42.914 182.635 42.914H176.572Z" fill="#FFD77E"/>
</g>
<defs>
<clipPath id="clip0_1_38">
<rect width="207" height="62" fill="white"/>
</clipPath>
</defs>
</svg>
