<svg xmlns="http://www.w3.org/2000/svg" xmlns:xlink="http://www.w3.org/1999/xlink" viewBox="0 0 8775.07 209.16"><defs><style>.cls-1{fill:url(#linear-gradient);}.cls-2{fill:url(#linear-gradient-2);}.cls-3{fill:url(#linear-gradient-3);}.cls-4{fill:url(#linear-gradient-4);}.cls-5{fill:url(#linear-gradient-5);}.cls-6{fill:url(#linear-gradient-6);}.cls-7{fill:url(#linear-gradient-7);}.cls-8{fill:url(#linear-gradient-8);}.cls-9{fill:url(#linear-gradient-9);}.cls-10{fill:url(#linear-gradient-10);}.cls-11{fill:url(#linear-gradient-11);}.cls-12{fill:url(#linear-gradient-12);}.cls-13{fill:url(#linear-gradient-13);}.cls-14{fill:url(#linear-gradient-14);}.cls-15{fill:url(#linear-gradient-15);}.cls-16{fill:url(#linear-gradient-16);}.cls-17{fill:url(#linear-gradient-17);}.cls-18{fill:url(#linear-gradient-18);}.cls-19{fill:url(#linear-gradient-19);}.cls-20{fill:url(#linear-gradient-20);}.cls-21{fill:url(#linear-gradient-21);}.cls-22{fill:url(#linear-gradient-22);}.cls-23{fill:url(#linear-gradient-23);}.cls-24{fill:url(#linear-gradient-24);}.cls-25{fill:url(#linear-gradient-25);}.cls-26{fill:url(#linear-gradient-26);}.cls-27{fill:url(#linear-gradient-27);}.cls-28{fill:url(#linear-gradient-28);}.cls-29{fill:url(#linear-gradient-29);}.cls-30{fill:url(#linear-gradient-30);}.cls-31{fill:url(#linear-gradient-31);}.cls-32{fill:url(#linear-gradient-32);}.cls-33{fill:url(#linear-gradient-33);}.cls-34{fill:url(#linear-gradient-34);}.cls-35{fill:url(#linear-gradient-35);}.cls-36{fill:url(#linear-gradient-36);}.cls-37{fill:url(#linear-gradient-37);}.cls-38{fill:url(#linear-gradient-38);}.cls-39{fill:url(#linear-gradient-39);}.cls-40{fill:url(#linear-gradient-40);}.cls-41{fill:url(#linear-gradient-41);}.cls-42{fill:url(#linear-gradient-42);}.cls-43{fill:url(#linear-gradient-43);}.cls-44{fill:url(#linear-gradient-44);}.cls-45{fill:url(#linear-gradient-45);}.cls-46{fill:url(#linear-gradient-46);}.cls-47{fill:url(#linear-gradient-47);}.cls-48{fill:url(#linear-gradient-48);}.cls-49{fill:url(#linear-gradient-49);}.cls-50{fill:url(#linear-gradient-50);}.cls-51{fill:url(#linear-gradient-51);}.cls-52{fill:url(#linear-gradient-52);}.cls-53{fill:url(#linear-gradient-53);}.cls-54{fill:url(#linear-gradient-54);}.cls-55{fill:url(#linear-gradient-55);}.cls-56{fill:url(#linear-gradient-56);}.cls-57{fill:url(#linear-gradient-57);}.cls-58{fill:url(#linear-gradient-58);}.cls-59{fill:url(#linear-gradient-59);}.cls-60{fill:url(#linear-gradient-60);}.cls-61{fill:url(#linear-gradient-61);}.cls-62{fill:url(#linear-gradient-62);}.cls-63{fill:url(#linear-gradient-63);}.cls-64{fill:url(#linear-gradient-64);}.cls-65{fill:url(#linear-gradient-65);}.cls-66{fill:url(#linear-gradient-66);}</style><linearGradient id="linear-gradient" x1="83.72" y1="15.48" x2="83.72" y2="207.88" gradientTransform="matrix(1, 0, 0, -1, 0, 224.64)" gradientUnits="userSpaceOnUse"><stop offset="0" stop-color="#f9d3e0"/><stop offset="1" stop-color="#fbd4ca"/></linearGradient><linearGradient id="linear-gradient-2" x1="212.92" y1="16.59" x2="212.92" y2="208.99" xlink:href="#linear-gradient"/><linearGradient id="linear-gradient-3" x1="344.04" y1="16.04" x2="344.04" y2="208.44" xlink:href="#linear-gradient"/><linearGradient id="linear-gradient-4" x1="471.57" y1="16.04" x2="471.57" y2="208.44" xlink:href="#linear-gradient"/><linearGradient id="linear-gradient-5" x1="600.76" y1="17.14" x2="600.76" y2="209.54" xlink:href="#linear-gradient"/><linearGradient id="linear-gradient-6" x1="737.16" y1="17.14" x2="737.16" y2="209.54" xlink:href="#linear-gradient"/><linearGradient id="linear-gradient-7" x1="866.36" y1="18.25" x2="866.36" y2="210.65" xlink:href="#linear-gradient"/><linearGradient id="linear-gradient-8" x1="1002.74" y1="17.7" x2="1002.74" y2="210.1" xlink:href="#linear-gradient"/><linearGradient id="linear-gradient-9" x1="1137.16" y1="17.81" x2="1137.16" y2="210.21" xlink:href="#linear-gradient"/><linearGradient id="linear-gradient-10" x1="1266.35" y1="18.92" x2="1266.35" y2="211.32" xlink:href="#linear-gradient"/><linearGradient id="linear-gradient-11" x1="1402.75" y1="18.37" x2="1402.75" y2="210.77" xlink:href="#linear-gradient"/><linearGradient id="linear-gradient-12" x1="1541.46" y1="18.2" x2="1541.46" y2="210.6" xlink:href="#linear-gradient"/><linearGradient id="linear-gradient-13" x1="1670.65" y1="19.31" x2="1670.65" y2="211.71" xlink:href="#linear-gradient"/><linearGradient id="linear-gradient-14" x1="1801.78" y1="18.76" x2="1801.78" y2="211.16" xlink:href="#linear-gradient"/><linearGradient id="linear-gradient-15" x1="1929.31" y1="18.76" x2="1929.31" y2="211.16" xlink:href="#linear-gradient"/><linearGradient id="linear-gradient-16" x1="2058.5" y1="19.86" x2="2058.5" y2="212.26" xlink:href="#linear-gradient"/><linearGradient id="linear-gradient-17" x1="2194.9" y1="19.86" x2="2194.9" y2="212.26" xlink:href="#linear-gradient"/><linearGradient id="linear-gradient-18" x1="2324.09" y1="20.97" x2="2324.09" y2="213.37" xlink:href="#linear-gradient"/><linearGradient id="linear-gradient-19" x1="2460.48" y1="20.42" x2="2460.48" y2="212.82" xlink:href="#linear-gradient"/><linearGradient id="linear-gradient-20" x1="2594.9" y1="20.53" x2="2594.9" y2="212.93" xlink:href="#linear-gradient"/><linearGradient id="linear-gradient-21" x1="2724.09" y1="21.64" x2="2724.09" y2="214.04" xlink:href="#linear-gradient"/><linearGradient id="linear-gradient-22" x1="2860.49" y1="21.09" x2="2860.49" y2="213.49" xlink:href="#linear-gradient"/><linearGradient id="linear-gradient-23" x1="2999.21" y1="20.92" x2="2999.21" y2="213.32" xlink:href="#linear-gradient"/><linearGradient id="linear-gradient-24" x1="3128.4" y1="22.03" x2="3128.4" y2="214.43" xlink:href="#linear-gradient"/><linearGradient id="linear-gradient-25" x1="3259.53" y1="21.48" x2="3259.53" y2="213.88" xlink:href="#linear-gradient"/><linearGradient id="linear-gradient-26" x1="3387.06" y1="21.48" x2="3387.06" y2="213.88" xlink:href="#linear-gradient"/><linearGradient id="linear-gradient-27" x1="3516.25" y1="22.58" x2="3516.25" y2="214.98" xlink:href="#linear-gradient"/><linearGradient id="linear-gradient-28" x1="3652.65" y1="22.58" x2="3652.65" y2="214.98" xlink:href="#linear-gradient"/><linearGradient id="linear-gradient-29" x1="3781.84" y1="23.69" x2="3781.84" y2="216.09" xlink:href="#linear-gradient"/><linearGradient id="linear-gradient-30" x1="3918.23" y1="23.14" x2="3918.23" y2="215.54" xlink:href="#linear-gradient"/><linearGradient id="linear-gradient-31" x1="4052.65" y1="23.25" x2="4052.65" y2="215.65" xlink:href="#linear-gradient"/><linearGradient id="linear-gradient-32" x1="4181.84" y1="24.36" x2="4181.84" y2="216.76" xlink:href="#linear-gradient"/><linearGradient id="linear-gradient-33" x1="4318.24" y1="23.81" x2="4318.24" y2="216.21" xlink:href="#linear-gradient"/><linearGradient id="linear-gradient-34" x1="4456.84" y1="23.36" x2="4456.84" y2="215.76" xlink:href="#linear-gradient"/><linearGradient id="linear-gradient-35" x1="4586.03" y1="24.47" x2="4586.03" y2="216.87" xlink:href="#linear-gradient"/><linearGradient id="linear-gradient-36" x1="4717.16" y1="23.92" x2="4717.16" y2="216.32" xlink:href="#linear-gradient"/><linearGradient id="linear-gradient-37" x1="4844.69" y1="23.92" x2="4844.69" y2="216.32" xlink:href="#linear-gradient"/><linearGradient id="linear-gradient-38" x1="4973.88" y1="25.02" x2="4973.88" y2="217.42" xlink:href="#linear-gradient"/><linearGradient id="linear-gradient-39" x1="5110.27" y1="25.02" x2="5110.27" y2="217.42" xlink:href="#linear-gradient"/><linearGradient id="linear-gradient-40" x1="5239.47" y1="26.13" x2="5239.47" y2="218.53" xlink:href="#linear-gradient"/><linearGradient id="linear-gradient-41" x1="5375.86" y1="25.58" x2="5375.86" y2="217.98" xlink:href="#linear-gradient"/><linearGradient id="linear-gradient-42" x1="5510.27" y1="25.69" x2="5510.27" y2="218.09" xlink:href="#linear-gradient"/><linearGradient id="linear-gradient-43" x1="5639.47" y1="26.8" x2="5639.47" y2="219.2" xlink:href="#linear-gradient"/><linearGradient id="linear-gradient-44" x1="5775.86" y1="26.25" x2="5775.86" y2="218.65" xlink:href="#linear-gradient"/><linearGradient id="linear-gradient-45" x1="5914.57" y1="26.08" x2="5914.57" y2="218.48" xlink:href="#linear-gradient"/><linearGradient id="linear-gradient-46" x1="6043.76" y1="27.19" x2="6043.76" y2="219.59" xlink:href="#linear-gradient"/><linearGradient id="linear-gradient-47" x1="6174.89" y1="26.64" x2="6174.89" y2="219.04" xlink:href="#linear-gradient"/><linearGradient id="linear-gradient-48" x1="6302.42" y1="26.64" x2="6302.42" y2="219.04" xlink:href="#linear-gradient"/><linearGradient id="linear-gradient-49" x1="6431.61" y1="27.74" x2="6431.61" y2="220.14" xlink:href="#linear-gradient"/><linearGradient id="linear-gradient-50" x1="6568.01" y1="27.74" x2="6568.01" y2="220.14" xlink:href="#linear-gradient"/><linearGradient id="linear-gradient-51" x1="6697.2" y1="28.85" x2="6697.2" y2="221.25" xlink:href="#linear-gradient"/><linearGradient id="linear-gradient-52" x1="6833.59" y1="28.3" x2="6833.59" y2="220.7" xlink:href="#linear-gradient"/><linearGradient id="linear-gradient-53" x1="6968.01" y1="28.41" x2="6968.01" y2="220.81" xlink:href="#linear-gradient"/><linearGradient id="linear-gradient-54" x1="7097.2" y1="29.52" x2="7097.2" y2="221.92" xlink:href="#linear-gradient"/><linearGradient id="linear-gradient-55" x1="7233.6" y1="28.97" x2="7233.6" y2="221.37" xlink:href="#linear-gradient"/><linearGradient id="linear-gradient-56" x1="7372.32" y1="28.8" x2="7372.32" y2="221.2" xlink:href="#linear-gradient"/><linearGradient id="linear-gradient-57" x1="7501.51" y1="29.91" x2="7501.51" y2="222.31" xlink:href="#linear-gradient"/><linearGradient id="linear-gradient-58" x1="7632.64" y1="29.36" x2="7632.64" y2="221.76" xlink:href="#linear-gradient"/><linearGradient id="linear-gradient-59" x1="7760.17" y1="29.36" x2="7760.17" y2="221.76" xlink:href="#linear-gradient"/><linearGradient id="linear-gradient-60" x1="7889.36" y1="30.46" x2="7889.36" y2="222.86" xlink:href="#linear-gradient"/><linearGradient id="linear-gradient-61" x1="8025.76" y1="30.46" x2="8025.76" y2="222.86" xlink:href="#linear-gradient"/><linearGradient id="linear-gradient-62" x1="8154.95" y1="31.57" x2="8154.95" y2="223.97" xlink:href="#linear-gradient"/><linearGradient id="linear-gradient-63" x1="8291.34" y1="31.02" x2="8291.34" y2="223.42" xlink:href="#linear-gradient"/><linearGradient id="linear-gradient-64" x1="8425.76" y1="31.13" x2="8425.76" y2="223.53" xlink:href="#linear-gradient"/><linearGradient id="linear-gradient-65" x1="8554.95" y1="32.24" x2="8554.95" y2="224.64" xlink:href="#linear-gradient"/><linearGradient id="linear-gradient-66" x1="8691.35" y1="31.69" x2="8691.35" y2="224.09" xlink:href="#linear-gradient"/></defs><title>Asset 1</title><g id="Layer_2" data-name="Layer 2"><g id="Layer_1-2" data-name="Layer 1"><g id="Layer_1-2-2" data-name="Layer 1-2"><polygon class="cls-1" points="167.45 209.16 79.29 209.16 0 16.76 88.16 16.76 167.45 209.16"/><polygon class="cls-2" points="296.64 208.05 208.48 208.05 129.19 15.65 217.35 15.65 296.64 208.05"/><polygon class="cls-3" points="427.77 208.6 339.61 208.6 260.32 16.2 348.48 16.2 427.77 208.6"/><polygon class="cls-4" points="555.3 208.6 467.14 208.6 387.85 16.2 476.01 16.2 555.3 208.6"/><polygon class="cls-5" points="684.49 207.5 596.33 207.5 517.04 15.1 605.2 15.1 684.49 207.5"/><polygon class="cls-6" points="820.88 207.5 732.73 207.5 653.44 15.1 741.6 15.1 820.88 207.5"/><polygon class="cls-7" points="950.08 206.39 861.91 206.39 782.63 13.99 870.79 13.99 950.08 206.39"/><polygon class="cls-8" points="1086.47 206.94 998.31 206.94 919.02 14.54 1007.18 14.54 1086.47 206.94"/><polygon class="cls-9" points="1220.88 206.83 1132.72 206.83 1053.44 14.43 1141.6 14.43 1220.88 206.83"/><polygon class="cls-10" points="1350.08 205.72 1261.91 205.72 1182.63 13.32 1270.79 13.32 1350.08 205.72"/><polygon class="cls-11" points="1486.47 206.27 1398.31 206.27 1319.03 13.87 1407.18 13.87 1486.47 206.27"/></g><g id="Layer_1-2-3" data-name="Layer 1-2"><polygon class="cls-12" points="1625.19 206.44 1537.03 206.44 1457.74 14.04 1545.9 14.04 1625.19 206.44"/><polygon class="cls-13" points="1754.38 205.33 1666.22 205.33 1586.93 12.93 1675.09 12.93 1754.38 205.33"/><polygon class="cls-14" points="1885.51 205.88 1797.35 205.88 1718.06 13.48 1806.22 13.48 1885.51 205.88"/><polygon class="cls-15" points="2013.04 205.88 1924.88 205.88 1845.59 13.48 1933.75 13.48 2013.04 205.88"/><polygon class="cls-16" points="2142.23 204.78 2054.07 204.78 1974.78 12.38 2062.94 12.38 2142.23 204.78"/><polygon class="cls-17" points="2278.62 204.78 2190.47 204.78 2111.18 12.38 2199.34 12.38 2278.62 204.78"/><polygon class="cls-18" points="2407.82 203.67 2319.65 203.67 2240.37 11.27 2328.53 11.27 2407.82 203.67"/><polygon class="cls-19" points="2544.21 204.22 2456.05 204.22 2376.76 11.82 2464.92 11.82 2544.21 204.22"/><polygon class="cls-20" points="2678.62 204.11 2590.46 204.11 2511.18 11.71 2599.34 11.71 2678.62 204.11"/><polygon class="cls-21" points="2807.82 203 2719.65 203 2640.37 10.6 2728.53 10.6 2807.82 203"/><polygon class="cls-22" points="2944.21 203.55 2856.05 203.55 2776.77 11.15 2864.92 11.15 2944.21 203.55"/></g><g id="Layer_1-2-4" data-name="Layer 1-2"><polygon class="cls-23" points="3082.94 203.72 2994.78 203.72 2915.49 11.32 3003.65 11.32 3082.94 203.72"/><polygon class="cls-24" points="3212.13 202.61 3123.97 202.61 3044.68 10.21 3132.84 10.21 3212.13 202.61"/><polygon class="cls-25" points="3343.26 203.16 3255.1 203.16 3175.81 10.76 3263.97 10.76 3343.26 203.16"/><polygon class="cls-26" points="3470.79 203.16 3382.63 203.16 3303.34 10.76 3391.5 10.76 3470.79 203.16"/><polygon class="cls-27" points="3599.98 202.06 3511.82 202.06 3432.53 9.66 3520.69 9.66 3599.98 202.06"/><polygon class="cls-28" points="3736.37 202.06 3648.22 202.06 3568.93 9.66 3657.09 9.66 3736.37 202.06"/><polygon class="cls-29" points="3865.57 200.95 3777.4 200.95 3698.12 8.55 3786.28 8.55 3865.57 200.95"/><polygon class="cls-30" points="4001.96 201.5 3913.8 201.5 3834.51 9.1 3922.67 9.1 4001.96 201.5"/><polygon class="cls-31" points="4136.37 201.39 4048.21 201.39 3968.93 8.99 4057.09 8.99 4136.37 201.39"/><polygon class="cls-32" points="4265.57 200.28 4177.4 200.28 4098.12 7.88 4186.28 7.88 4265.57 200.28"/><polygon class="cls-33" points="4401.96 200.83 4313.8 200.83 4234.52 8.43 4322.67 8.43 4401.96 200.83"/></g><g id="Layer_1-2-5" data-name="Layer 1-2"><polygon class="cls-34" points="4540.56 201.28 4452.4 201.28 4373.11 8.88 4461.27 8.88 4540.56 201.28"/><polygon class="cls-35" points="4669.75 200.17 4581.59 200.17 4502.3 7.77 4590.46 7.77 4669.75 200.17"/><polygon class="cls-36" points="4800.88 200.72 4712.72 200.72 4633.43 8.32 4721.59 8.32 4800.88 200.72"/><polygon class="cls-37" points="4928.41 200.72 4840.25 200.72 4760.96 8.32 4849.12 8.32 4928.41 200.72"/><polygon class="cls-38" points="5057.6 199.62 4969.44 199.62 4890.15 7.22 4978.31 7.22 5057.6 199.62"/><polygon class="cls-39" points="5193.99 199.62 5105.84 199.62 5026.55 7.22 5114.71 7.22 5193.99 199.62"/><polygon class="cls-40" points="5323.19 198.51 5235.02 198.51 5155.74 6.11 5243.9 6.11 5323.19 198.51"/><polygon class="cls-41" points="5459.58 199.06 5371.42 199.06 5292.13 6.66 5380.29 6.66 5459.58 199.06"/><polygon class="cls-42" points="5593.99 198.95 5505.83 198.95 5426.55 6.55 5514.71 6.55 5593.99 198.95"/><polygon class="cls-43" points="5723.19 197.84 5635.02 197.84 5555.74 5.44 5643.9 5.44 5723.19 197.84"/><polygon class="cls-44" points="5859.58 198.39 5771.42 198.39 5692.14 5.99 5780.29 5.99 5859.58 198.39"/></g><g id="Layer_1-2-6" data-name="Layer 1-2"><polygon class="cls-45" points="5998.3 198.56 5910.14 198.56 5830.85 6.16 5919.01 6.16 5998.3 198.56"/><polygon class="cls-46" points="6127.49 197.45 6039.33 197.45 5960.04 5.05 6048.2 5.05 6127.49 197.45"/><polygon class="cls-47" points="6258.62 198 6170.46 198 6091.17 5.6 6179.33 5.6 6258.62 198"/><polygon class="cls-48" points="6386.15 198 6297.99 198 6218.7 5.6 6306.86 5.6 6386.15 198"/><polygon class="cls-49" points="6515.34 196.9 6427.18 196.9 6347.89 4.5 6436.05 4.5 6515.34 196.9"/><polygon class="cls-50" points="6651.73 196.9 6563.58 196.9 6484.29 4.5 6572.45 4.5 6651.73 196.9"/><polygon class="cls-51" points="6780.93 195.79 6692.76 195.79 6613.48 3.39 6701.64 3.39 6780.93 195.79"/><polygon class="cls-52" points="6917.32 196.34 6829.16 196.34 6749.87 3.94 6838.03 3.94 6917.32 196.34"/><polygon class="cls-53" points="7051.73 196.23 6963.57 196.23 6884.29 3.83 6972.45 3.83 7051.73 196.23"/><polygon class="cls-54" points="7180.93 195.12 7092.76 195.12 7013.48 2.72 7101.64 2.72 7180.93 195.12"/><polygon class="cls-55" points="7317.32 195.67 7229.16 195.67 7149.88 3.27 7238.03 3.27 7317.32 195.67"/></g><g id="Layer_1-2-7" data-name="Layer 1-2"><polygon class="cls-56" points="7456.05 195.84 7367.89 195.84 7288.6 3.44 7376.76 3.44 7456.05 195.84"/><polygon class="cls-57" points="7585.24 194.73 7497.08 194.73 7417.79 2.33 7505.95 2.33 7585.24 194.73"/><polygon class="cls-58" points="7716.37 195.28 7628.21 195.28 7548.92 2.88 7637.08 2.88 7716.37 195.28"/><polygon class="cls-59" points="7843.9 195.28 7755.74 195.28 7676.45 2.88 7764.61 2.88 7843.9 195.28"/><polygon class="cls-60" points="7973.09 194.18 7884.93 194.18 7805.64 1.78 7893.8 1.78 7973.09 194.18"/><polygon class="cls-61" points="8109.48 194.18 8021.33 194.18 7942.04 1.78 8030.2 1.78 8109.48 194.18"/><polygon class="cls-62" points="8238.68 193.07 8150.51 193.07 8071.23 0.67 8159.39 0.67 8238.68 193.07"/><polygon class="cls-63" points="8375.07 193.62 8286.91 193.62 8207.62 1.22 8295.78 1.22 8375.07 193.62"/><polygon class="cls-64" points="8509.48 193.51 8421.32 193.51 8342.04 1.11 8430.2 1.11 8509.48 193.51"/><polygon class="cls-65" points="8638.68 192.4 8550.51 192.4 8471.23 0 8559.39 0 8638.68 192.4"/><polygon class="cls-66" points="8775.07 192.95 8686.91 192.95 8607.63 0.55 8695.78 0.55 8775.07 192.95"/></g></g></g></svg>