<svg xmlns="http://www.w3.org/2000/svg" viewBox="0 0 180.1 19.7"><defs><style>.cls-1{fill:#04839d;stroke:#04839d;stroke-miterlimit:10;stroke-width:2px;}</style></defs><title>Ticket Chevron</title><g id="Layer_2" data-name="Layer 2"><g id="Layer_1-2" data-name="Layer 1"><polygon class="cls-1" points="16.62 18.7 8.65 18.7 1.49 1.32 9.46 1.32 16.62 18.7"/><polygon class="cls-1" points="28.14 18.7 20.17 18.7 13.01 1.32 20.98 1.32 28.14 18.7"/><polygon class="cls-1" points="39.81 18.6 31.84 18.6 24.68 1.22 32.65 1.22 39.81 18.6"/><polygon class="cls-1" points="51.65 18.65 43.69 18.65 36.53 1.27 44.49 1.27 51.65 18.65"/><polygon class="cls-1" points="63.17 18.65 55.21 18.65 48.05 1.27 56.01 1.27 63.17 18.65"/><polygon class="cls-1" points="74.84 18.55 66.88 18.55 59.71 1.17 67.68 1.17 74.84 18.55"/><polygon class="cls-1" points="86.16 18.55 78.19 18.55 71.03 1.17 79 1.17 86.16 18.55"/><polygon class="cls-1" points="97.83 18.45 89.86 18.45 82.7 1.07 90.67 1.07 97.83 18.45"/><polygon class="cls-1" points="109.15 18.5 101.19 18.5 94.02 1.12 101.99 1.12 109.15 18.5"/><polygon class="cls-1" points="120.38 18.53 112.42 18.53 105.26 1.15 113.22 1.15 120.38 18.53"/><polygon class="cls-1" points="131.9 18.53 123.94 18.53 116.78 1.15 124.74 1.15 131.9 18.53"/><polygon class="cls-1" points="143.57 18.43 135.61 18.43 128.44 1.05 136.41 1.05 143.57 18.43"/><polygon class="cls-1" points="155.41 18.48 147.45 18.48 140.29 1.1 148.25 1.1 155.41 18.48"/><polygon class="cls-1" points="166.93 18.48 158.97 18.48 151.81 1.1 159.77 1.1 166.93 18.48"/><polygon class="cls-1" points="178.6 18.38 170.64 18.38 163.48 1 171.44 1 178.6 18.38"/></g></g></svg>