<svg width="162" height="61" viewBox="0 0 162 61" fill="none" xmlns="http://www.w3.org/2000/svg">
<g clip-path="url(#clip0_6_20)">
<path d="M0.5 0.5H157.132L161.5 9.54173V60.5H5.15582L0.5 53.0923V0.5Z" fill="#FFD77E" stroke="#B43F4B"/>
<rect width="157" height="53" fill="#B43F4B"/>
<path d="M29.2965 41.0363C29.3844 41.2039 29.4284 41.3156 29.4284 41.3715C29.4284 41.567 29.3075 41.6648 29.0657 41.6648H23.857C23.6372 41.6648 23.4724 41.581 23.3625 41.4134L22.2416 39.8631C22.1977 39.8073 22.1207 39.7933 22.0109 39.8212C19.9449 41.2737 17.7691 42 15.4834 42C13.3736 42 11.5934 41.3715 10.1428 40.1145C8.71428 38.8575 8 36.9581 8 34.4162C8 32.5726 8.37362 31.0223 9.12087 29.7654C9.89009 28.5084 10.9231 27.3911 12.2197 26.4134C12.3516 26.3017 12.3626 26.2039 12.2527 26.1201C11.2417 24.5838 10.5714 23.3547 10.2417 22.433C9.91207 21.5112 9.74724 20.5196 9.74724 19.4581C9.74724 18.0894 10.0439 16.8464 10.6373 15.729C11.2307 14.5838 12.0659 13.676 13.1428 13.0056C14.2197 12.3352 15.4615 12 16.8681 12C18.2966 12 19.5713 12.3492 20.6922 13.0475C21.835 13.7179 22.7251 14.6676 23.3625 15.8966C23.9999 17.0978 24.3185 18.4944 24.3185 20.0866C24.3185 21.8184 23.9559 23.3128 23.2306 24.5698C22.5054 25.8268 21.5164 26.9581 20.2636 27.9637C20.1537 28.0475 20.1427 28.1453 20.2307 28.257C20.6922 28.9274 21.4284 29.9609 22.4394 31.3575C22.5054 31.4693 22.5823 31.4693 22.6702 31.3575C23.5933 30.1844 24.2856 29.081 24.7471 28.0475C24.813 27.9078 24.89 27.824 24.9779 27.7961C25.0878 27.7402 25.1976 27.7542 25.3075 27.838L28.769 30.352C29.0108 30.5475 29.0657 30.7709 28.9339 31.0223C28.0328 32.9218 27.0328 34.5838 25.9339 36.0084C25.868 36.0922 25.879 36.1899 25.9669 36.3017C26.4284 37 27.2745 38.2011 28.5053 39.905C28.6811 40.1564 28.835 40.3799 28.9668 40.5754C29.0987 40.7709 29.2086 40.9246 29.2965 41.0363ZM16.9999 18.2849C16.4505 18.2849 16.0109 18.4665 15.6812 18.8296C15.3736 19.1648 15.2197 19.5978 15.2197 20.1285C15.2197 20.4358 15.3076 20.7849 15.4834 21.176C15.6812 21.567 16.0878 22.2374 16.7032 23.1872C16.7472 23.2989 16.8241 23.3268 16.934 23.2709C17.5494 22.7961 18.0219 22.3212 18.3516 21.8464C18.6812 21.3715 18.8461 20.8408 18.8461 20.2542C18.8461 19.6397 18.6702 19.1648 18.3186 18.8296C17.9889 18.4665 17.5494 18.2849 16.9999 18.2849ZM16.4724 36.1341C17.1977 35.9385 17.89 35.6313 18.5494 35.2123C18.6592 35.1285 18.6702 35.0307 18.5823 34.919L17.1318 32.9497C17.0439 32.838 16.6043 32.2374 15.8131 31.148C15.7692 31.0642 15.6922 31.0503 15.5823 31.1061C14.9889 31.5531 14.5274 31.986 14.1977 32.405C13.8681 32.824 13.6703 33.2849 13.6043 33.7877C13.5824 33.8994 13.5714 34.0531 13.5714 34.2486C13.5714 34.8352 13.7582 35.324 14.1318 35.7151C14.5274 36.0782 15.0329 36.2598 15.6483 36.2598C15.912 36.2598 16.1867 36.2179 16.4724 36.1341Z" fill="#FFD77E"/>
<path d="M44.7216 42C42.8974 42 41.304 41.6369 39.9414 40.9106C38.6008 40.1564 37.5568 39.095 36.8096 37.7263C36.0843 36.3296 35.7217 34.7235 35.7217 32.9078V32.1117C35.7217 31.9721 35.7546 31.8603 35.8206 31.7765C35.9085 31.6648 36.0074 31.6089 36.1173 31.6089H40.6996C40.8095 31.6089 40.8975 31.6648 40.9634 31.7765C41.0513 31.8603 41.0952 31.9721 41.0952 32.1117V32.6145C41.0952 33.5363 41.4579 34.3464 42.1832 35.0447C42.9084 35.7151 43.8864 36.0503 45.1172 36.0503C46.0842 36.0503 46.7985 35.7849 47.26 35.2542C47.7216 34.7235 47.9523 34.1089 47.9523 33.4106C47.9523 32.852 47.8095 32.405 47.5238 32.0698C47.26 31.7067 46.8974 31.4134 46.4359 31.1899C45.9743 30.9385 45.26 30.6034 44.293 30.1844C44.1612 30.1006 44.0293 30.0447 43.8974 30.0168C43.7656 29.9609 43.6447 29.905 43.5348 29.8492C42.1062 29.2626 40.8645 28.6341 39.8095 27.9637C38.7546 27.2654 37.8535 26.3156 37.1063 25.1145C36.359 23.8855 35.9854 22.3771 35.9854 20.5894C35.9854 18.8575 36.3371 17.3492 37.0403 16.0642C37.7656 14.7514 38.7656 13.7458 40.0403 13.0475C41.315 12.3492 42.7546 12 44.359 12C46.0513 12 47.5677 12.3911 48.9084 13.1732C50.271 13.9553 51.3369 15.0587 52.1061 16.4832C52.8754 17.9078 53.26 19.5419 53.26 21.3855V21.9721C53.26 22.1117 53.216 22.2374 53.1281 22.3492C53.0622 22.433 52.9743 22.4749 52.8644 22.4749H48.282C48.1721 22.4749 48.0732 22.433 47.9853 22.3492C47.9194 22.2374 47.8864 22.1117 47.8864 21.9721V21.6788C47.8864 20.7011 47.5457 19.8352 46.8644 19.081C46.1831 18.3268 45.271 17.9497 44.1282 17.9497C43.2711 17.9497 42.6007 18.1732 42.1172 18.6201C41.6337 19.067 41.392 19.6955 41.392 20.5056C41.392 21.1201 41.5458 21.6369 41.8535 22.0559C42.1612 22.4469 42.6337 22.824 43.2711 23.1872C43.9304 23.5223 44.9304 23.9693 46.271 24.5279C47.8095 25.1983 49.0073 25.7849 49.8644 26.2877C50.7215 26.7905 51.5237 27.6145 52.271 28.7598C53.0402 29.8771 53.4248 31.3575 53.4248 33.2011C53.4248 35.0168 53.0622 36.581 52.3369 37.8939C51.6116 39.2067 50.5897 40.2263 49.271 40.9525C47.9743 41.6508 46.4578 42 44.7216 42Z" fill="#FFD77E"/>
<path d="M63.4346 42C61.6983 42 60.1599 41.581 58.8192 40.743C57.5006 39.8771 56.4676 38.662 55.7204 37.0978C54.9951 35.5335 54.6325 33.7318 54.6325 31.6927V12.838C54.6325 12.6983 54.6654 12.5866 54.7314 12.5028C54.8193 12.3911 54.9182 12.3352 55.0281 12.3352H59.7093C59.8192 12.3352 59.9071 12.3911 59.9731 12.5028C60.061 12.5866 60.1049 12.6983 60.1049 12.838V31.6927C60.1049 33.0056 60.4016 34.067 60.995 34.8771C61.6104 35.6592 62.4236 36.0503 63.4346 36.0503C64.4236 36.0503 65.2148 35.6592 65.8082 34.8771C66.4236 34.067 66.7313 33.0056 66.7313 31.6927V12.838C66.7313 12.6983 66.7642 12.5866 66.8302 12.5028C66.9181 12.3911 67.017 12.3352 67.1269 12.3352H71.8081C71.918 12.3352 72.0059 12.3911 72.0719 12.5028C72.1598 12.5866 72.2037 12.6983 72.2037 12.838V31.6927C72.2037 33.7318 71.8411 35.5335 71.1158 37.0978C70.3906 38.662 69.3576 39.8771 68.017 40.743C66.6983 41.581 65.1708 42 63.4346 42Z" fill="#FFD77E"/>
<path d="M87.0733 12.838C87.0733 12.6983 87.1062 12.5866 87.1722 12.5028C87.2601 12.3911 87.359 12.3352 87.4689 12.3352H92.1502C92.26 12.3352 92.348 12.3911 92.4139 12.5028C92.5018 12.5866 92.5458 12.6983 92.5458 12.838V41.162C92.5458 41.3017 92.5018 41.4274 92.4139 41.5391C92.348 41.6229 92.26 41.6648 92.1502 41.6648H87.6667C87.4469 41.6648 87.2931 41.5531 87.2051 41.3296L79.6228 25.324C79.5788 25.2402 79.5349 25.2123 79.4909 25.2402C79.447 25.2402 79.425 25.2961 79.425 25.4078L79.458 41.162C79.458 41.3017 79.414 41.4274 79.3261 41.5391C79.2602 41.6229 79.1723 41.6648 79.0624 41.6648H74.3811C74.2712 41.6648 74.1723 41.6229 74.0844 41.5391C74.0185 41.4274 73.9855 41.3017 73.9855 41.162V12.838C73.9855 12.6983 74.0185 12.5866 74.0844 12.5028C74.1723 12.3911 74.2712 12.3352 74.3811 12.3352H78.8975C79.1173 12.3352 79.2712 12.4469 79.3591 12.6704L86.9084 28.6341C86.9524 28.7179 86.9964 28.7598 87.0403 28.7598C87.0843 28.7318 87.1062 28.662 87.1062 28.5503L87.0733 12.838Z" fill="#FFD77E"/>
<path d="M94.7934 41.6648C94.6835 41.6648 94.5846 41.6229 94.4967 41.5391C94.4308 41.4274 94.3978 41.3017 94.3978 41.162V12.838C94.3978 12.6983 94.4308 12.5866 94.4967 12.5028C94.5846 12.3911 94.6835 12.3352 94.7934 12.3352H103.2C104.914 12.3352 106.431 12.7123 107.749 13.4665C109.068 14.2207 110.09 15.2961 110.815 16.6927C111.541 18.0894 111.903 19.6955 111.903 21.5112V32.4888C111.903 34.3045 111.541 35.9106 110.815 37.3073C110.09 38.7039 109.068 39.7793 107.749 40.5335C106.431 41.2877 104.914 41.6648 103.2 41.6648H94.7934ZM99.8703 35.5056C99.8703 35.6453 99.9252 35.7151 100.035 35.7151H103.431C104.31 35.7151 105.024 35.324 105.574 34.5419C106.123 33.7318 106.409 32.6564 106.431 31.3156V22.6844C106.431 21.3436 106.145 20.2821 105.574 19.5C105.024 18.6899 104.299 18.2849 103.398 18.2849H100.035C99.9252 18.2849 99.8703 18.3547 99.8703 18.4944V35.5056Z" fill="#FFD77E"/>
<path d="M127.107 41.6648C126.865 41.6648 126.712 41.5251 126.646 41.2458L125.789 37.5168C125.745 37.405 125.69 37.3492 125.624 37.3492H118.107C118.041 37.3492 117.986 37.405 117.942 37.5168L117.085 41.2458C117.019 41.5251 116.866 41.6648 116.624 41.6648H111.58C111.448 41.6648 111.349 41.6229 111.283 41.5391C111.217 41.4274 111.206 41.2737 111.25 41.0782L118.305 12.7542C118.371 12.4749 118.514 12.3352 118.734 12.3352H124.964C125.184 12.3352 125.327 12.4749 125.393 12.7542L132.481 41.0782C132.503 41.1341 132.514 41.2039 132.514 41.2877C132.514 41.5391 132.393 41.6648 132.151 41.6648H127.107ZM119.261 31.7346C119.239 31.9022 119.283 31.986 119.393 31.986H124.305C124.437 31.986 124.481 31.9022 124.437 31.7346L121.931 20.9665C121.909 20.8547 121.877 20.8128 121.833 20.8408C121.789 20.8408 121.756 20.8827 121.734 20.9665L119.261 31.7346Z" fill="#FFD77E"/>
<path d="M137.017 41.581C136.907 41.581 136.808 41.5391 136.72 41.4553C136.654 41.3436 136.621 41.2179 136.621 41.0782V31.148C136.621 31.0363 136.61 30.9525 136.588 30.8966L129.83 12.9218C129.786 12.8101 129.764 12.7263 129.764 12.6704C129.764 12.4469 129.885 12.3352 130.127 12.3352H135.203C135.423 12.3352 135.577 12.4609 135.665 12.7123L139.258 23.3128C139.324 23.4804 139.39 23.4804 139.456 23.3128L143.082 12.7123C143.17 12.4609 143.324 12.3352 143.544 12.3352H148.654C148.808 12.3352 148.907 12.3911 148.951 12.5028C149.016 12.5866 149.016 12.7263 148.951 12.9218L142.093 30.8966C142.071 30.9525 142.061 31.0363 142.061 31.148V41.0782C142.061 41.2179 142.017 41.3436 141.929 41.4553C141.863 41.5391 141.775 41.581 141.665 41.581H137.017Z" fill="#FFD77E"/>
</g>
<defs>
<clipPath id="clip0_6_20">
<rect width="162" height="61" fill="white"/>
</clipPath>
</defs>
</svg>
