<svg width="199" height="61" viewBox="0 0 199 61" fill="none" xmlns="http://www.w3.org/2000/svg">
<g clip-path="url(#clip0_6_18)">
<path d="M0.5 0.5H193.121L198.5 9.56447V60.5H6.23963L0.5 53.0658V0.5Z" fill="#FFD77E" stroke="#B43F4B"/>
<rect width="193" height="53" fill="#B43F4B"/>
<path d="M18.0894 42C16.2849 42 14.692 41.5549 13.3108 40.6648C11.9518 39.7469 10.8936 38.4673 10.1362 36.8261C9.37872 35.185 9 33.2796 9 31.1099V22.765C9 20.6509 9.37872 18.7872 10.1362 17.1739C10.8936 15.5327 11.9518 14.267 13.3108 13.3769C14.692 12.459 16.2849 12 18.0894 12C19.8939 12 21.4867 12.459 22.868 13.3769C24.2492 14.267 25.3185 15.5327 26.076 17.1739C26.8334 18.7872 27.2121 20.6509 27.2121 22.765V31.1099C27.2121 33.2796 26.8334 35.185 26.076 36.8261C25.3185 38.4673 24.2492 39.7469 22.868 40.6648C21.4867 41.5549 19.8939 42 18.0894 42ZM18.0894 36.0751C19.1587 36.0751 20.0164 35.644 20.6625 34.7816C21.3308 33.9193 21.665 32.765 21.665 31.3185V22.6815C21.665 21.2629 21.3308 20.1224 20.6625 19.2601C20.0164 18.37 19.1587 17.9249 18.0894 17.9249C17.0423 17.9249 16.1846 18.37 15.5163 19.2601C14.8702 20.1224 14.5472 21.2629 14.5472 22.6815V31.3185C14.5472 32.765 14.8702 33.9193 15.5163 34.7816C16.1846 35.644 17.0423 36.0751 18.0894 36.0751Z" fill="#FFD77E"/>
<path d="M38.7441 12.3338C40.259 12.3338 41.5956 12.7232 42.7541 13.5021C43.9348 14.2809 44.8371 15.3797 45.4608 16.7983C46.1069 18.1891 46.4299 19.8025 46.4299 21.6384C46.4299 23.4465 46.0958 25.0459 45.4274 26.4367C44.7814 27.8275 43.8568 28.8985 42.6538 29.6495C41.4508 30.4006 40.0585 30.7761 38.4767 30.7761H34.3999C34.2885 30.7761 34.2328 30.8456 34.2328 30.9847V41.0403C34.2328 41.1794 34.1882 41.3046 34.0991 41.4159C34.0323 41.4993 33.9432 41.541 33.8318 41.541H29.0866C28.9752 41.541 28.875 41.4993 28.7859 41.4159C28.719 41.3046 28.6856 41.1794 28.6856 41.0403V12.8345C28.6856 12.6954 28.719 12.5841 28.7859 12.5007C28.875 12.3894 28.9752 12.3338 29.0866 12.3338H38.7441ZM37.8418 25.2684C38.7552 25.2684 39.4904 24.9485 40.0473 24.3088C40.6265 23.669 40.9162 22.8345 40.9162 21.8053C40.9162 20.7483 40.6265 19.8999 40.0473 19.2601C39.4904 18.5925 38.7552 18.2587 37.8418 18.2587H34.3999C34.2885 18.2587 34.2328 18.3282 34.2328 18.4673V25.0598C34.2328 25.1989 34.2885 25.2684 34.3999 25.2684H37.8418Z" fill="#FFD77E"/>
<path d="M64.0291 17.758C64.0291 17.8971 63.9845 18.0223 63.8954 18.1335C63.8286 18.217 63.7395 18.2587 63.6281 18.2587H53.1352C53.0238 18.2587 52.9681 18.3282 52.9681 18.4673V23.5994C52.9681 23.7385 53.0238 23.8081 53.1352 23.8081H59.852C59.9634 23.8081 60.0525 23.8637 60.1193 23.975C60.2084 24.0584 60.253 24.1697 60.253 24.3088V29.1905C60.253 29.3296 60.2084 29.4548 60.1193 29.5661C60.0525 29.6495 59.9634 29.6912 59.852 29.6912H53.1352C53.0238 29.6912 52.9681 29.7608 52.9681 29.8999V35.4075C52.9681 35.5466 53.0238 35.6161 53.1352 35.6161H63.6281C63.7395 35.6161 63.8286 35.6718 63.8954 35.783C63.9845 35.8665 64.0291 35.9777 64.0291 36.1168V41.0403C64.0291 41.1794 63.9845 41.3046 63.8954 41.4159C63.8286 41.4993 63.7395 41.541 63.6281 41.541H47.8219C47.7106 41.541 47.6103 41.4993 47.5212 41.4159C47.4544 41.3046 47.4209 41.1794 47.4209 41.0403V12.8345C47.4209 12.6954 47.4544 12.5841 47.5212 12.5007C47.6103 12.3894 47.7106 12.3338 47.8219 12.3338H63.6281C63.7395 12.3338 63.8286 12.3894 63.8954 12.5007C63.9845 12.5841 64.0291 12.6954 64.0291 12.8345V17.758Z" fill="#FFD77E"/>
<path d="M78.6372 12.8345C78.6372 12.6954 78.6706 12.5841 78.7374 12.5007C78.8265 12.3894 78.9268 12.3338 79.0382 12.3338H83.7834C83.8947 12.3338 83.9839 12.3894 84.0507 12.5007C84.1398 12.5841 84.1844 12.6954 84.1844 12.8345V41.0403C84.1844 41.1794 84.1398 41.3046 84.0507 41.4159C83.9839 41.4993 83.8947 41.541 83.7834 41.541H79.2387C79.0159 41.541 78.8599 41.4298 78.7708 41.2072L71.085 25.2684C71.0404 25.185 70.9959 25.1572 70.9513 25.185C70.9068 25.185 70.8845 25.2406 70.8845 25.3519L70.9179 41.0403C70.9179 41.1794 70.8733 41.3046 70.7842 41.4159C70.7174 41.4993 70.6283 41.541 70.5169 41.541H65.7717C65.6603 41.541 65.5601 41.4993 65.471 41.4159C65.4041 41.3046 65.3707 41.1794 65.3707 41.0403V12.8345C65.3707 12.6954 65.4041 12.5841 65.471 12.5007C65.5601 12.3894 65.6603 12.3338 65.7717 12.3338H70.3498C70.5726 12.3338 70.7285 12.4451 70.8176 12.6676L78.4701 28.5647C78.5146 28.6481 78.5592 28.6898 78.6038 28.6898C78.6483 28.662 78.6706 28.5925 78.6706 28.4812L78.6372 12.8345Z" fill="#FFD77E"/>
<path d="M108.121 17.758C108.121 17.8971 108.076 18.0223 107.987 18.1335C107.92 18.217 107.831 18.2587 107.72 18.2587H97.2271C97.1157 18.2587 97.06 18.3282 97.06 18.4673V23.5994C97.06 23.7385 97.1157 23.8081 97.2271 23.8081H103.944C104.055 23.8081 104.144 23.8637 104.211 23.975C104.3 24.0584 104.345 24.1697 104.345 24.3088V29.1905C104.345 29.3296 104.3 29.4548 104.211 29.5661C104.144 29.6495 104.055 29.6912 103.944 29.6912H97.2271C97.1157 29.6912 97.06 29.7608 97.06 29.8999V35.4075C97.06 35.5466 97.1157 35.6161 97.2271 35.6161H107.72C107.831 35.6161 107.92 35.6718 107.987 35.783C108.076 35.8665 108.121 35.9777 108.121 36.1168V41.0403C108.121 41.1794 108.076 41.3046 107.987 41.4159C107.92 41.4993 107.831 41.541 107.72 41.541H91.9138C91.8024 41.541 91.7022 41.4993 91.6131 41.4159C91.5462 41.3046 91.5128 41.1794 91.5128 41.0403V12.8345C91.5128 12.6954 91.5462 12.5841 91.6131 12.5007C91.7022 12.3894 91.8024 12.3338 91.9138 12.3338H107.72C107.831 12.3338 107.92 12.3894 107.987 12.5007C108.076 12.5841 108.121 12.6954 108.121 12.8345V17.758Z" fill="#FFD77E"/>
<path d="M115.943 41.541C115.72 41.541 115.575 41.4019 115.509 41.1238L108.758 12.9179L108.725 12.751C108.725 12.4729 108.848 12.3338 109.093 12.3338H114.205C114.45 12.3338 114.606 12.4729 114.673 12.751L118.516 31.7357C118.538 31.8192 118.572 31.8609 118.616 31.8609C118.661 31.8609 118.694 31.8192 118.717 31.7357L122.493 12.751C122.56 12.4729 122.716 12.3338 122.961 12.3338H127.973C128.107 12.3338 128.207 12.3894 128.274 12.5007C128.341 12.612 128.352 12.751 128.307 12.9179L121.457 41.1238C121.39 41.4019 121.245 41.541 121.022 41.541H115.943Z" fill="#FFD77E"/>
<path d="M145.913 17.758C145.913 17.8971 145.869 18.0223 145.78 18.1335C145.713 18.217 145.624 18.2587 145.512 18.2587H135.019C134.908 18.2587 134.852 18.3282 134.852 18.4673V23.5994C134.852 23.7385 134.908 23.8081 135.019 23.8081H141.736C141.848 23.8081 141.937 23.8637 142.003 23.975C142.093 24.0584 142.137 24.1697 142.137 24.3088V29.1905C142.137 29.3296 142.093 29.4548 142.003 29.5661C141.937 29.6495 141.848 29.6912 141.736 29.6912H135.019C134.908 29.6912 134.852 29.7608 134.852 29.8999V35.4075C134.852 35.5466 134.908 35.6161 135.019 35.6161H145.512C145.624 35.6161 145.713 35.6718 145.78 35.783C145.869 35.8665 145.913 35.9777 145.913 36.1168V41.0403C145.913 41.1794 145.869 41.3046 145.78 41.4159C145.713 41.4993 145.624 41.541 145.512 41.541H129.706C129.595 41.541 129.494 41.4993 129.405 41.4159C129.339 41.3046 129.305 41.1794 129.305 41.0403V12.8345C129.305 12.6954 129.339 12.5841 129.405 12.5007C129.494 12.3894 129.595 12.3338 129.706 12.3338H145.512C145.624 12.3338 145.713 12.3894 145.78 12.5007C145.869 12.5841 145.913 12.6954 145.913 12.8345V17.758Z" fill="#FFD77E"/>
<path d="M159.786 41.541C159.563 41.541 159.407 41.4159 159.318 41.1655L155.375 30.0668C155.331 29.9555 155.264 29.8999 155.175 29.8999H152.969C152.858 29.8999 152.802 29.9694 152.802 30.1085V41.0403C152.802 41.1794 152.757 41.3046 152.668 41.4159C152.602 41.4993 152.512 41.541 152.401 41.541H147.656C147.544 41.541 147.444 41.4993 147.355 41.4159C147.288 41.3046 147.255 41.1794 147.255 41.0403V12.8345C147.255 12.6954 147.288 12.5841 147.355 12.5007C147.444 12.3894 147.544 12.3338 147.656 12.3338H157.581C159.051 12.3338 160.343 12.7093 161.457 13.4604C162.571 14.2114 163.429 15.2823 164.03 16.6732C164.654 18.0362 164.966 19.6078 164.966 21.388C164.966 23.2517 164.598 24.8651 163.863 26.2281C163.128 27.5911 162.103 28.5786 160.789 29.1905C160.677 29.2462 160.644 29.3435 160.688 29.4826L165.099 40.9569C165.144 41.0682 165.166 41.1516 165.166 41.2072C165.166 41.4298 165.044 41.541 164.799 41.541H159.786ZM152.969 18.2587C152.858 18.2587 152.802 18.3282 152.802 18.4673V24.3922C152.802 24.5313 152.858 24.6008 152.969 24.6008H156.678C157.503 24.6008 158.171 24.3227 158.683 23.7663C159.196 23.1822 159.452 22.4172 159.452 21.4715C159.452 20.4979 159.196 19.7191 158.683 19.1349C158.171 18.5508 157.503 18.2587 156.678 18.2587H152.969Z" fill="#FFD77E"/>
<path d="M171.853 41.4576C171.742 41.4576 171.641 41.4159 171.552 41.3324C171.485 41.2211 171.452 41.096 171.452 40.9569V31.0681C171.452 30.9569 171.441 30.8734 171.419 30.8178L164.568 12.9179C164.524 12.8067 164.501 12.7232 164.501 12.6676C164.501 12.4451 164.624 12.3338 164.869 12.3338H170.015C170.238 12.3338 170.394 12.459 170.483 12.7093L174.125 23.2656C174.192 23.4325 174.259 23.4325 174.326 23.2656L178.002 12.7093C178.091 12.459 178.247 12.3338 178.47 12.3338H183.649C183.805 12.3338 183.905 12.3894 183.95 12.5007C184.017 12.5841 184.017 12.7232 183.95 12.9179L176.999 30.8178C176.977 30.8734 176.966 30.9569 176.966 31.0681V40.9569C176.966 41.096 176.921 41.2211 176.832 41.3324C176.765 41.4159 176.676 41.4576 176.565 41.4576H171.853Z" fill="#FFD77E"/>
</g>
<defs>
<clipPath id="clip0_6_18">
<rect width="199" height="61" fill="white"/>
</clipPath>
</defs>
</svg>
