<svg width="252" height="61" viewBox="0 0 252 61" fill="none" xmlns="http://www.w3.org/2000/svg">
<g clip-path="url(#clip0_6_19)">
<path d="M0.5 0.5H244.666L251.5 9.5942V60.5H7.80078L0.5 53.0326V0.5Z" fill="#B43F4B" stroke="#B43F4B"/>
<rect x="0.5" y="0.5" width="244" height="52" fill="#FFD77E" stroke="#B43F4B"/>
<path d="M23.4759 17.941C23.4759 18.0845 23.437 18.2136 23.3592 18.3284C23.3008 18.4145 23.223 18.4576 23.1257 18.4576H13.9907C13.8934 18.4576 13.8448 18.5293 13.8448 18.6728V23.968C13.8448 24.1115 13.8934 24.1833 13.9907 24.1833H19.8569C19.9542 24.1833 20.0321 24.2407 20.0904 24.3555C20.1682 24.4416 20.2072 24.5564 20.2072 24.6999V29.7368C20.2072 29.8803 20.1682 30.0094 20.0904 30.1242C20.0321 30.2103 19.9542 30.2534 19.8569 30.2534H13.9907C13.8934 30.2534 13.8448 30.3251 13.8448 30.4686V41.9631C13.8448 42.1066 13.8058 42.2358 13.728 42.3506C13.6697 42.4367 13.5918 42.4797 13.4945 42.4797H9.35022C9.25294 42.4797 9.16538 42.4367 9.08756 42.3506C9.02919 42.2358 9 42.1066 9 41.9631V12.861C9 12.7175 9.02919 12.6027 9.08756 12.5166C9.16538 12.4018 9.25294 12.3444 9.35022 12.3444H23.1257C23.223 12.3444 23.3008 12.4018 23.3592 12.5166C23.437 12.6027 23.4759 12.7175 23.4759 12.861V17.941Z" fill="#B43F4B"/>
<path d="M35.0228 42.4797C34.8282 42.4797 34.692 42.3506 34.6142 42.0923L31.1704 30.6408C31.1314 30.526 31.0731 30.4686 30.9952 30.4686H29.069C28.9717 30.4686 28.9231 30.5404 28.9231 30.6839V41.9631C28.9231 42.1066 28.8842 42.2358 28.8063 42.3506C28.748 42.4367 28.6701 42.4797 28.5729 42.4797H24.4285C24.3313 42.4797 24.2437 42.4367 24.1659 42.3506C24.1075 42.2358 24.0783 42.1066 24.0783 41.9631V12.861C24.0783 12.7175 24.1075 12.6027 24.1659 12.5166C24.2437 12.4018 24.3313 12.3444 24.4285 12.3444H33.0966C34.3807 12.3444 35.5092 12.7319 36.4821 13.5068C37.4549 14.2817 38.204 15.3866 38.7294 16.8216C39.2741 18.228 39.5465 19.8495 39.5465 21.6863C39.5465 23.6093 39.2255 25.2739 38.5834 26.6802C37.9413 28.0865 37.0463 29.1054 35.8984 29.7368C35.8011 29.7942 35.7719 29.8946 35.8108 30.0381L39.6633 41.877C39.7022 41.9918 39.7217 42.0779 39.7217 42.1353C39.7217 42.3649 39.6146 42.4797 39.4006 42.4797H35.0228ZM29.069 18.4576C28.9717 18.4576 28.9231 18.5293 28.9231 18.6728V24.786C28.9231 24.9295 28.9717 25.0012 29.069 25.0012H32.3086C33.0285 25.0012 33.6122 24.7142 34.0597 24.1402C34.5072 23.5375 34.731 22.7483 34.731 21.7724C34.731 20.7679 34.5072 19.9643 34.0597 19.3616C33.6122 18.7589 33.0285 18.4576 32.3086 18.4576H29.069Z" fill="#B43F4B"/>
<path d="M41.1884 42.4797C41.0912 42.4797 41.0036 42.4367 40.9258 42.3506C40.8674 42.2358 40.8382 42.1066 40.8382 41.9631V12.861C40.8382 12.7175 40.8674 12.6027 40.9258 12.5166C41.0036 12.4018 41.0912 12.3444 41.1884 12.3444H45.3328C45.43 12.3444 45.5079 12.4018 45.5662 12.5166C45.6441 12.6027 45.683 12.7175 45.683 12.861V41.9631C45.683 42.1066 45.6441 42.2358 45.5662 42.3506C45.5079 42.4367 45.43 42.4797 45.3328 42.4797H41.1884Z" fill="#B43F4B"/>
<path d="M47.7449 42.4797C47.6476 42.4797 47.56 42.4367 47.4822 42.3506C47.4238 42.2358 47.3947 42.1066 47.3947 41.9631V12.861C47.3947 12.7175 47.4238 12.6027 47.4822 12.5166C47.56 12.4018 47.6476 12.3444 47.7449 12.3444H55.1871C56.7048 12.3444 58.0473 12.7319 59.2147 13.5068C60.3821 14.2817 61.2869 15.3866 61.9289 16.8216C62.571 18.2567 62.8921 19.9069 62.8921 21.7724V33.0517C62.8921 34.9172 62.571 36.5674 61.9289 38.0025C61.2869 39.4375 60.3821 40.5424 59.2147 41.3173C58.0473 42.0923 56.7048 42.4797 55.1871 42.4797H47.7449ZM52.2394 36.1513C52.2394 36.2948 52.2881 36.3665 52.3853 36.3665H55.3914C56.1697 36.3665 56.8021 35.9647 57.2885 35.1611C57.7749 34.3288 58.0278 33.2239 58.0473 31.8462V22.9779C58.0473 21.6002 57.7944 20.5096 57.2885 19.706C56.8021 18.8737 56.16 18.4576 55.3622 18.4576H52.3853C52.2881 18.4576 52.2394 18.5293 52.2394 18.6728V36.1513Z" fill="#B43F4B"/>
<path d="M76.3522 42.4797C76.1382 42.4797 76.002 42.3362 75.9436 42.0492L75.1848 38.2177C75.1459 38.1029 75.0972 38.0455 75.0389 38.0455H68.3846C68.3262 38.0455 68.2776 38.1029 68.2387 38.2177L67.4799 42.0492C67.4215 42.3362 67.2853 42.4797 67.0713 42.4797H62.6059C62.4892 42.4797 62.4016 42.4367 62.3432 42.3506C62.2849 42.2358 62.2751 42.0779 62.3141 41.877L68.5597 12.7749C68.6181 12.4879 68.7446 12.3444 68.9391 12.3444H74.4551C74.6497 12.3444 74.7762 12.4879 74.8346 12.7749L81.1094 41.877C81.1289 41.9344 81.1386 42.0062 81.1386 42.0923C81.1386 42.3506 81.0316 42.4797 80.8175 42.4797H76.3522ZM69.4061 32.2768C69.3866 32.449 69.4255 32.5351 69.5228 32.5351H73.8714C73.9882 32.5351 74.0271 32.449 73.9882 32.2768L71.7701 21.2128C71.7506 21.098 71.7215 21.0549 71.6825 21.0836C71.6436 21.0836 71.6144 21.1267 71.595 21.2128L69.4061 32.2768Z" fill="#B43F4B"/>
<path d="M85.1249 42.3936C85.0276 42.3936 84.94 42.3506 84.8622 42.2645C84.8038 42.1497 84.7747 42.0205 84.7747 41.877V31.674C84.7747 31.5592 84.7649 31.4731 84.7455 31.4157L78.7625 12.9471C78.7236 12.8323 78.7041 12.7462 78.7041 12.6888C78.7041 12.4592 78.8111 12.3444 79.0252 12.3444H83.5197C83.7143 12.3444 83.8505 12.4736 83.9283 12.7319L87.1095 23.6236C87.1679 23.7958 87.2262 23.7958 87.2846 23.6236L90.495 12.7319C90.5728 12.4736 90.709 12.3444 90.9036 12.3444H95.4273C95.5635 12.3444 95.6511 12.4018 95.69 12.5166C95.7483 12.6027 95.7483 12.7462 95.69 12.9471L89.6194 31.4157C89.6 31.4731 89.5902 31.5592 89.5902 31.674V41.877C89.5902 42.0205 89.5513 42.1497 89.4735 42.2645C89.4151 42.3506 89.3373 42.3936 89.24 42.3936H85.1249Z" fill="#B43F4B"/>
<path d="M93.7371 47C93.4841 47 93.3771 46.8134 93.416 46.4403L94.2916 36.1082C94.311 35.7925 94.4278 35.6347 94.6418 35.6347H98.2316C98.4845 35.6347 98.5818 35.8212 98.5235 36.1943L96.6848 46.5695C96.6264 46.8565 96.4902 47 96.2762 47H93.7371Z" fill="#B43F4B"/>
<path d="M112.557 42.8241C110.942 42.8241 109.531 42.451 108.325 41.7048C107.138 40.9299 106.214 39.8393 105.553 38.433C104.91 36.9979 104.589 35.3477 104.589 33.4822V32.6642C104.589 32.5207 104.619 32.4059 104.677 32.3198C104.755 32.205 104.842 32.1476 104.94 32.1476H108.996C109.094 32.1476 109.172 32.205 109.23 32.3198C109.308 32.4059 109.347 32.5207 109.347 32.6642V33.1808C109.347 34.1279 109.668 34.9602 110.31 35.6777C110.952 36.3665 111.818 36.7109 112.907 36.7109C113.763 36.7109 114.396 36.4383 114.804 35.893C115.213 35.3477 115.417 34.7163 115.417 33.9988C115.417 33.4248 115.291 32.9656 115.038 32.6212C114.804 32.2481 114.483 31.9467 114.075 31.7171C113.666 31.4588 113.034 31.1144 112.178 30.6839C112.061 30.5978 111.944 30.5404 111.827 30.5117C111.711 30.4543 111.604 30.3969 111.506 30.3395C110.242 29.7368 109.142 29.091 108.208 28.4022C107.274 27.6847 106.477 26.7089 105.815 25.4748C105.154 24.212 104.823 22.6622 104.823 20.8253C104.823 19.0459 105.134 17.4961 105.757 16.1759C106.399 14.827 107.284 13.7938 108.413 13.0763C109.541 12.3588 110.816 12 112.236 12C113.734 12 115.077 12.4018 116.264 13.2054C117.47 14.009 118.414 15.1427 119.095 16.6064C119.776 18.0701 120.116 19.7491 120.116 21.6433V22.246C120.116 22.3895 120.077 22.5187 119.999 22.6335C119.941 22.7196 119.863 22.7626 119.766 22.7626H115.709C115.612 22.7626 115.524 22.7196 115.446 22.6335C115.388 22.5187 115.359 22.3895 115.359 22.246V21.9446C115.359 20.9401 115.057 20.0504 114.454 19.2755C113.851 18.5006 113.043 18.1132 112.032 18.1132C111.273 18.1132 110.679 18.3428 110.251 18.802C109.823 19.2612 109.609 19.9069 109.609 20.7392C109.609 21.3706 109.746 21.9016 110.018 22.3321C110.29 22.7339 110.709 23.1214 111.273 23.4945C111.857 23.8389 112.742 24.2981 113.929 24.8721C115.291 25.5609 116.351 26.1636 117.11 26.6802C117.869 27.1968 118.579 28.0435 119.24 29.2202C119.921 30.3682 120.262 31.8893 120.262 33.7835C120.262 35.649 119.941 37.2563 119.299 38.6052C118.657 39.9541 117.752 41.0016 116.585 41.7478C115.437 42.4654 114.094 42.8241 112.557 42.8241Z" fill="#B43F4B"/>
<path d="M134.786 42.4797C134.572 42.4797 134.435 42.3362 134.377 42.0492L133.618 38.2177C133.579 38.1029 133.531 38.0455 133.472 38.0455H126.818C126.76 38.0455 126.711 38.1029 126.672 38.2177L125.913 42.0492C125.855 42.3362 125.719 42.4797 125.505 42.4797H121.039C120.923 42.4797 120.835 42.4367 120.777 42.3506C120.718 42.2358 120.708 42.0779 120.747 41.877L126.993 12.7749C127.051 12.4879 127.178 12.3444 127.372 12.3444H132.888C133.083 12.3444 133.21 12.4879 133.268 12.7749L139.543 41.877C139.562 41.9344 139.572 42.0062 139.572 42.0923C139.572 42.3506 139.465 42.4797 139.251 42.4797H134.786ZM127.839 32.2768C127.82 32.449 127.859 32.5351 127.956 32.5351H132.305C132.422 32.5351 132.46 32.449 132.422 32.2768L130.203 21.2128C130.184 21.098 130.155 21.0549 130.116 21.0836C130.077 21.0836 130.048 21.1267 130.028 21.2128L127.839 32.2768Z" fill="#B43F4B"/>
<path d="M152.605 12.3444C152.702 12.3444 152.78 12.4018 152.838 12.5166C152.916 12.6027 152.955 12.7175 152.955 12.861V17.984C152.955 18.1275 152.916 18.2567 152.838 18.3715C152.78 18.4576 152.702 18.5006 152.605 18.5006H147.498C147.4 18.5006 147.352 18.5724 147.352 18.7159V41.9631C147.352 42.1066 147.313 42.2358 147.235 42.3506C147.177 42.4367 147.099 42.4797 147.001 42.4797H142.857C142.76 42.4797 142.672 42.4367 142.594 42.3506C142.536 42.2358 142.507 42.1066 142.507 41.9631V18.7159C142.507 18.5724 142.458 18.5006 142.361 18.5006H137.429C137.331 18.5006 137.244 18.4576 137.166 18.3715C137.108 18.2567 137.078 18.1275 137.078 17.984V12.861C137.078 12.7175 137.108 12.6027 137.166 12.5166C137.244 12.4018 137.331 12.3444 137.429 12.3444H152.605Z" fill="#B43F4B"/>
<path d="M161.56 42.8241C160.023 42.8241 158.661 42.3936 157.474 41.5326C156.307 40.6429 155.392 39.3944 154.731 37.7872C154.089 36.18 153.768 34.3288 153.768 32.2337V12.861C153.768 12.7175 153.797 12.6027 153.855 12.5166C153.933 12.4018 154.021 12.3444 154.118 12.3444H158.262C158.36 12.3444 158.438 12.4018 158.496 12.5166C158.574 12.6027 158.613 12.7175 158.613 12.861V32.2337C158.613 33.5826 158.875 34.6732 159.401 35.5055C159.945 36.3091 160.665 36.7109 161.56 36.7109C162.436 36.7109 163.136 36.3091 163.662 35.5055C164.206 34.6732 164.479 33.5826 164.479 32.2337V12.861C164.479 12.7175 164.508 12.6027 164.566 12.5166C164.644 12.4018 164.732 12.3444 164.829 12.3444H168.973C169.071 12.3444 169.149 12.4018 169.207 12.5166C169.285 12.6027 169.324 12.7175 169.324 12.861V32.2337C169.324 34.3288 169.003 36.18 168.361 37.7872C167.718 39.3944 166.804 40.6429 165.617 41.5326C164.45 42.3936 163.097 42.8241 161.56 42.8241Z" fill="#B43F4B"/>
<path d="M181.845 42.4797C181.651 42.4797 181.515 42.3506 181.437 42.0923L177.993 30.6408C177.954 30.526 177.896 30.4686 177.818 30.4686H175.892C175.794 30.4686 175.746 30.5404 175.746 30.6839V41.9631C175.746 42.1066 175.707 42.2358 175.629 42.3506C175.571 42.4367 175.493 42.4797 175.396 42.4797H171.251C171.154 42.4797 171.066 42.4367 170.989 42.3506C170.93 42.2358 170.901 42.1066 170.901 41.9631V12.861C170.901 12.7175 170.93 12.6027 170.989 12.5166C171.066 12.4018 171.154 12.3444 171.251 12.3444H179.919C181.203 12.3444 182.332 12.7319 183.305 13.5068C184.278 14.2817 185.027 15.3866 185.552 16.8216C186.097 18.228 186.369 19.8495 186.369 21.6863C186.369 23.6093 186.048 25.2739 185.406 26.6802C184.764 28.0865 183.869 29.1054 182.721 29.7368C182.624 29.7942 182.595 29.8946 182.633 30.0381L186.486 41.877C186.525 41.9918 186.544 42.0779 186.544 42.1353C186.544 42.3649 186.437 42.4797 186.223 42.4797H181.845ZM175.892 18.4576C175.794 18.4576 175.746 18.5293 175.746 18.6728V24.786C175.746 24.9295 175.794 25.0012 175.892 25.0012H179.131C179.851 25.0012 180.435 24.7142 180.882 24.1402C181.33 23.5375 181.554 22.7483 181.554 21.7724C181.554 20.7679 181.33 19.9643 180.882 19.3616C180.435 18.7589 179.851 18.4576 179.131 18.4576H175.892Z" fill="#B43F4B"/>
<path d="M188.011 42.4797C187.914 42.4797 187.826 42.4367 187.748 42.3506C187.69 42.2358 187.661 42.1066 187.661 41.9631V12.861C187.661 12.7175 187.69 12.6027 187.748 12.5166C187.826 12.4018 187.914 12.3444 188.011 12.3444H195.453C196.971 12.3444 198.314 12.7319 199.481 13.5068C200.648 14.2817 201.553 15.3866 202.195 16.8216C202.837 18.2567 203.158 19.9069 203.158 21.7724V33.0517C203.158 34.9172 202.837 36.5674 202.195 38.0025C201.553 39.4375 200.648 40.5424 199.481 41.3173C198.314 42.0923 196.971 42.4797 195.453 42.4797H188.011ZM192.506 36.1513C192.506 36.2948 192.554 36.3665 192.652 36.3665H195.658C196.436 36.3665 197.068 35.9647 197.555 35.1611C198.041 34.3288 198.294 33.2239 198.314 31.8462V22.9779C198.314 21.6002 198.061 20.5096 197.555 19.706C197.068 18.8737 196.426 18.4576 195.629 18.4576H192.652C192.554 18.4576 192.506 18.5293 192.506 18.6728V36.1513Z" fill="#B43F4B"/>
<path d="M216.618 42.4797C216.404 42.4797 216.268 42.3362 216.21 42.0492L215.451 38.2177C215.412 38.1029 215.363 38.0455 215.305 38.0455H208.651C208.592 38.0455 208.544 38.1029 208.505 38.2177L207.746 42.0492C207.688 42.3362 207.552 42.4797 207.337 42.4797H202.872C202.755 42.4797 202.668 42.4367 202.609 42.3506C202.551 42.2358 202.541 42.0779 202.58 41.877L208.826 12.7749C208.884 12.4879 209.011 12.3444 209.205 12.3444H214.721C214.916 12.3444 215.042 12.4879 215.101 12.7749L221.376 41.877C221.395 41.9344 221.405 42.0062 221.405 42.0923C221.405 42.3506 221.298 42.4797 221.084 42.4797H216.618ZM209.672 32.2768C209.653 32.449 209.692 32.5351 209.789 32.5351H214.138C214.254 32.5351 214.293 32.449 214.254 32.2768L212.036 21.2128C212.017 21.098 211.988 21.0549 211.949 21.0836C211.91 21.0836 211.881 21.1267 211.861 21.2128L209.672 32.2768Z" fill="#B43F4B"/>
<path d="M225.391 42.3936C225.294 42.3936 225.206 42.3506 225.128 42.2645C225.07 42.1497 225.041 42.0205 225.041 41.877V31.674C225.041 31.5592 225.031 31.4731 225.012 31.4157L219.029 12.9471C218.99 12.8323 218.97 12.7462 218.97 12.6888C218.97 12.4592 219.077 12.3444 219.291 12.3444H223.786C223.981 12.3444 224.117 12.4736 224.195 12.7319L227.376 23.6236C227.434 23.7958 227.492 23.7958 227.551 23.6236L230.761 12.7319C230.839 12.4736 230.975 12.3444 231.17 12.3444H235.694C235.83 12.3444 235.917 12.4018 235.956 12.5166C236.015 12.6027 236.015 12.7462 235.956 12.9471L229.886 31.4157C229.866 31.4731 229.856 31.5592 229.856 31.674V41.877C229.856 42.0205 229.818 42.1497 229.74 42.2645C229.681 42.3506 229.604 42.3936 229.506 42.3936H225.391Z" fill="#B43F4B"/>
</g>
<defs>
<clipPath id="clip0_6_19">
<rect width="252" height="61" fill="white"/>
</clipPath>
</defs>
</svg>
